<svg xmlns="http://www.w3.org/2000/svg" viewBox="0 0 1923 422.09">
  <g>
    <g>
      <rect x="-0.5" y="111.92" width="1922.57" height="310.17" fill="#b3b3b3"/>
      <path d="M668,187.79H-.5V2.11H323.36A412.6,412.6,0,0,1,668,187.79Z" fill="#b3b3b3"/>
      <path d="M695.49,163l-27.38-1.3a34,34,0,0,0-35.61,34V345h676.75a42.26,42.26,0,0,0,42.25-42.25V163Z" fill="#e6e6e6"/>
      <path d="M-.5,53.64H307.61A254,254,0,0,1,418,78.86h0C519.5,126,555.5,201.46,555.5,299l-1,55-555,.19Z" fill="#e6e6e6"/>
    </g>
    <polyline points="716.1 346.09 688.24 346.67 660.37 345.41 632.77 345.71 631.88 320.04 632.35 294.08 631.94 268.12 632.23 242.16 633 216.19 632.3 190.23 640.84 168.34 662.73 160.42 686.93 159.48 711.14 159.85 735.35 160.16 759.55 160.44 783.76 159.55 807.97 160.58 832.18 159.6 856.38 160.68 880.59 159.94 904.8 159.96 929.01 160.3 953.22 160.4 977.43 160.2 1001.64 159.67 1025.85 160.24 1050.05 160.07 1074.27 160.13 1098.47 159.86 1122.68 160.64 1146.89 160.05 1171.1 160.67 1195.31 159.32 1219.53 160.62 1243.74 159.56 1267.95 159.52 1292.17 160.22 1316.39 160.62" fill="none" stroke="#231815" stroke-linecap="round" stroke-linejoin="round" stroke-width="3"/>
    <polyline points="1351.59 180 1352.17 206.15 1350.91 232.3 1351.11 258.45 1352.12 284.61 1351.65 310.77 1341.58 336.07 1316.27 346.27 1291.98 345.5 1267.7 346.2 1243.42 346.73 1219.14 345.58 1194.86 346.52 1170.57 346.14 1146.29 345.84 1122 345.56 1097.72 346.45 1073.43 345.42 1049.15 346.4 1024.87 345.32 1000.58 346.06 976.3 346.04 952.02 345.7 927.73 345.6 903.45 345.8 879.16 346.33 854.87 345.76 830.58 345.93 806.29 345.87 782 346.14" fill="none" stroke="#231815" stroke-linecap="round" stroke-linejoin="round" stroke-width="3"/>
    <polyline points="782 345.43 803.66 345.34 825.33 345.94 846.73 345.14 857.41 321.09 867.72 296.63 879.06 272.87 901.76 272.01 924.73 272.5 947.7 272.94 970.68 272.89 993.65 273.04 1016.63 272.49 1039.6 272.75 1062.58 272.25 1085.93 272.31 1075.61 296.93 1065.64 321.36 1054.83 345.65 1086.64 344.87 1096.71 320.97 1106.96 296.66 1117.7 272.7 1139.85 272.97 1162.13 273.16 1184.42 272.12 1206.71 272.81 1228.55 272.73 1219.94 297.4 1209.9 321.93 1200.34 346.15 1235.04 346.58 1246.29 321.82 1257.63 297.15 1269.04 272.56 1296.33 272.43 1323.66 272.39 1351.39 272.99 1351.21 250.5 1351.5 227.96 1327.16 228.46 1303.32 228 1279.47 228.48 1255.63 228.82 1231.79 229.24 1207.94 228.1 1184.1 228.17 1160.26 228.78 1136.41 227.84 1112.57 228.59 1088.73 228.67 1064.88 228.83 1041.04 228.48 1017.19 228.91 993.35 227.94 969.5 229.19 945.65 228 921.8 229.22 897.85 228.56 908.65 205.8 917.9 182.47 928.12 159.44 906.34 159.38 884.67 159.41 863.31 159.93 853.24 182.61 842.53 205.31 832.91 228.44 807.96 228.96 782.97 228.65 757.98 229.19 732.98 228.49 707.99 228.57 683 228.79 658 228.42 633.02 228.53 632.79 250.5 632.82 272.68 655.6 271.92 678.19 271.85 700.79 272.08 723.39 272.26 745.99 272.59 768.59 272.41 791.19 271.83 813.26 272.76 802.83 296.67 793.16 321.41 782.14 345.56" fill="none" stroke="#231815" stroke-linecap="round" stroke-linejoin="round" stroke-width="3"/>
    <polygon points="1325.56 186.68 1303 186.24 1280.5 186.03 1258.01 186.77 1235.51 187.05 1213 187.02 1190.42 186.75 1190.37 179.54 1213 180.69 1235.5 179.83 1257.99 180.61 1280.49 180.09 1303 180.68 1325.7 179.33 1325.56 186.68" fill="#231815"/>
    <polygon points="1325.41 199.88 1300.5 200.37 1275.5 199.88 1250.5 200.31 1225.43 200.5 1225.42 193.46 1250.5 194.16 1275.5 193.99 1300.5 194.14 1325.6 193.37 1325.41 199.88" fill="#231815"/>
    <polygon points="1325.41 213.65 1300.5 214.57 1275.5 213.67 1250.52 213.93 1250.64 208.06 1275.5 207.87 1300.5 207.43 1325.58 207.19 1325.41 213.65" fill="#231815"/>
    <path d="M856.73,189.21h0a16.49,16.49,0,0,0-12.46,0h0A18.72,18.72,0,0,0,833.4,200.6a18.32,18.32,0,0,0,2.35,16.09L850.5,238l14.75-21.31a18.32,18.32,0,0,0,2.35-16.09A18.7,18.7,0,0,0,856.73,189.21Z" fill="#f2f2f2" stroke="#231815" stroke-linecap="round" stroke-linejoin="round" stroke-width="3"/>
    <polyline points="1051.5 287.64 1028.79 288.57 1006.08 287.38 983.36 288.3 960.65 288.54 937.93 287.64 915.22 287.54 892.77 288.47 885.06 304.82" fill="none" stroke="#231815" stroke-linecap="round" stroke-linejoin="round" stroke-width="3"/>
    <polyline points="823.26 168.92 816.1 190.53 808.79 212.43 784 212.74 759.5 211.52 735 211.7 710.51 212.24 686 212.38 661.5 212.67" fill="none" stroke="#231815" stroke-linecap="round" stroke-linejoin="round" stroke-width="3"/>
    <path d="M1396,289.11a10.61,10.61,0,1,1,10.61-10.61" fill="none" stroke="#231815" stroke-linecap="round" stroke-linejoin="round" stroke-width="3"/>
    <circle cx="1440" cy="278.5" r="10.61" fill="none" stroke="#231815" stroke-linecap="round" stroke-linejoin="round" stroke-width="3"/>
    <polygon points="1446.5 175.4 1418 176.05 1389.5 176.33 1385.46 172 1385.13 172 1389.5 168.23 1418 167.62 1446.5 168.43 1450.05 172 1450.07 172 1446.5 175.4" fill="none" stroke="#231815" stroke-linecap="round" stroke-linejoin="round" stroke-width="3"/>
    <polygon points="1446.5 198.8 1418 199 1389.5 198.47 1385.99 194.33 1385.98 194.33 1389.5 190.67 1418 190.46 1446.5 190.2 1450.01 194.33 1450.18 194.33 1446.5 198.8" fill="none" stroke="#231815" stroke-linecap="round" stroke-linejoin="round" stroke-width="3"/>
    <polygon points="1446.5 221.27 1418 220.5 1389.5 220.33 1384.89 216.67 1385.95 216.67 1389.5 213.37 1418 212.11 1446.5 212.34 1451.04 216.67 1450.86 216.67 1446.5 221.27" fill="none" stroke="#231815" stroke-linecap="round" stroke-linejoin="round" stroke-width="3"/>
    <polygon points="1446.5 242.38 1418 242.32 1389.5 242.88 1385.02 239 1385.36 239 1389.5 234.36 1418 234.75 1446.5 235.03 1450.43 239 1450.73 239 1446.5 242.38" fill="none" stroke="#231815" stroke-linecap="round" stroke-linejoin="round" stroke-width="3"/>
    <circle cx="851" cy="204.5" r="10.61" fill="#231815"/>
    <polyline points="1490.58 139.18 1502.78 163.8 1516.53 187.57 1530.4 211.28" fill="none" stroke="#231815" stroke-linecap="round" stroke-linejoin="round" stroke-width="3"/>
    <polyline points="1532.16 243.5 1532.15 269.17 1532.68 294.83 1532.08 320.5 1531.82 346.16 1531.36 371.83 1531.27 397.5" fill="none" stroke="#231815" stroke-linecap="round" stroke-linejoin="round" stroke-width="3"/>
    <polyline points="1605.5 256.96 1629.11 257.07 1652.72 256.54 1676.33 256.52 1699.94 256.88 1723.55 257.58 1747.16 256.73 1770.77 257.72 1794.38 257.33 1817.99 257.69 1841.6 257.31 1865.2 256.62 1888.81 256.53 1912.43 257.59 1936.04 257.59 1959.65 256.49 1983.27 257.71 2006.88 257.16 2030.5 256.29" fill="none" stroke="#231815" stroke-linecap="round" stroke-linejoin="round" stroke-width="3"/>
    <polyline points="1606.05 286 1604.8 311.8 1604.76 337.6 1605.58 363.39 1605.86 389.2 1606 415" fill="none" stroke="#231815" stroke-linecap="round" stroke-linejoin="round" stroke-width="3"/>
    <polygon points="1858.5 320.05 1836 320.26 1813.5 320.02 1791 319.8 1768.5 319.62 1756.81 309 1756.79 309 1768.5 298.06 1791 297.53 1813.5 298.56 1836 297.62 1858.5 297.83 1868.93 309 1870.2 309 1858.5 320.05" fill="none" stroke="#231815" stroke-linecap="round" stroke-linejoin="round" stroke-width="3"/>
    <polyline points="1767.5 309.5 1792.5 308.73 1817.5 308.84 1842.5 308.92" fill="none" stroke="#231815" stroke-linecap="round" stroke-linejoin="round" stroke-width="3"/>
    <line x1="1853.5" y1="308.98" x2="1869.5" y2="308.85" fill="none" stroke="#231815" stroke-linecap="round" stroke-linejoin="round" stroke-width="4"/>
    <path d="M-11.5,2H309.08a494.3,494.3,0,0,1,136,18.88c20,5.74,39.6,12.55,53.43,20.12" fill="none" stroke="#231815" stroke-linecap="round" stroke-linejoin="round" stroke-width="4"/>
    <line x1="543.5" y1="65" x2="599.5" y2="112" fill="none" stroke="#231815" stroke-linecap="round" stroke-linejoin="round" stroke-width="4"/>
    <line x1="667.5" y1="112" x2="1553.5" y2="112" fill="none" stroke="#231815" stroke-linecap="round" stroke-linejoin="round" stroke-width="4"/>
    <path d="M-17.5,54H302.72c62.95,0,124.32,21,173.18,60.74,30.15,24.49,56.73,56.51,64.6,96.26" fill="none" stroke="#231815" stroke-linecap="round" stroke-linejoin="round" stroke-width="3"/>
    <path d="M549.5,243s14,73,5,111H90.5" fill="none" stroke="#231815" stroke-linecap="round" stroke-linejoin="round" stroke-width="3"/>
    <path d="M323.63,259.71a72.18,72.18,0,0,0-8.11,33.35" fill="none" stroke="#231815" stroke-linecap="round" stroke-linejoin="round" stroke-width="3"/>
    <path d="M460.5,293.06A72.49,72.49,0,0,0,335,243.67" fill="none" stroke="#231815" stroke-linecap="round" stroke-linejoin="round" stroke-width="3"/>
    <circle cx="386.73" cy="271.79" r="2.62" fill="#231815"/>
    <path d="M389.36,266.83l-14.62-14.27L381.12,272a8.31,8.31,0,0,0,7.8,5.7h0a2.32,2.32,0,0,0,2.12-1.32h0a8.28,8.28,0,0,0-.44-8A8.44,8.44,0,0,0,389.36,266.83Z" fill="#231815"/>
    <path d="M411.14,295.77v5.75a3.89,3.89,0,0,1-3.89,3.88H367.37a3.88,3.88,0,0,1-3.88-3.88v-8.89a3.88,3.88,0,0,1,3.88-3.88h31.92" fill="none" stroke="#231815" stroke-linecap="round" stroke-linejoin="round" stroke-width="3"/>
    <line x1="386.89" y1="220.57" x2="386.89" y2="232.77" fill="none" stroke="#231815" stroke-linecap="round" stroke-linejoin="round" stroke-width="3"/>
    <line x1="429.17" y1="233.38" x2="419.93" y2="243.41" fill="none" stroke="#231815" stroke-linecap="round" stroke-linejoin="round" stroke-width="3"/>
    <line x1="441.21" y1="264.23" x2="452.39" y2="259.71" fill="none" stroke="#231815" stroke-linecap="round" stroke-linejoin="round" stroke-width="3"/>
    <line x1="347.31" y1="233.38" x2="356.55" y2="243.41" fill="none" stroke="#231815" stroke-linecap="round" stroke-linejoin="round" stroke-width="3"/>
    <line x1="335.27" y1="264.23" x2="324.09" y2="259.71" fill="none" stroke="#231815" stroke-linecap="round" stroke-linejoin="round" stroke-width="3"/>
    <g>
      <path d="M347.71,130.6a1.46,1.46,0,0,1-2.92,0v-1.46a1.48,1.48,0,0,1,1.46-1.46H359.2v8.46c0,1,0,1.14-.79,1.84l-4.08,3.52c-.76.68-.82.73-.82,1.75v5.66a1.46,1.46,0,1,1-2.91,0v-7a1.59,1.59,0,0,1,.76-1.69l4-3.47c1-.84.9-.81.9-2.1v-4Z"/>
      <path d="M377.28,127.68a2.92,2.92,0,0,1,2.92,2.92v16.85a2.87,2.87,0,0,1-2.92,2.92h-8.57a2.87,2.87,0,0,1-2.92-2.92V130.6a2.93,2.93,0,0,1,2.92-2.92Zm0,19.77V130.6h-8.57v16.85Z"/>
      <path d="M396.36,135.79c.49-.44,1.19-1.14,1.86-1.14a1.41,1.41,0,0,1,1.41,1.43c0,.67-.44,1-.94,1.4L393.27,142l6.59,5.48c.52.44,1,.76,1,1.49a1.4,1.4,0,0,1-1.4,1.43,2.14,2.14,0,0,1-1.31-.67l-7-5.86-1.17,1v3.55c0,1-.2,1.93-1.4,1.93s-1.4-1-1.4-1.93V130.8c0-1,.21-1.92,1.4-1.92s1.4,1,1.4,1.92v10.38Z"/>
      <path d="M416.4,139.35v9.09c0,1-.21,1.93-1.4,1.93s-1.4-1-1.4-1.93v-9.36c0-.46.06-1.34-.67-1.34-.32,0-.53.27-.76.47l-1.23,1.14v9.09c0,1-.2,1.93-1.4,1.93s-1.4-1-1.4-1.93V136.63c0-1,.27-2,1.46-2a1.37,1.37,0,0,1,1.34,1.11l.24-.18a3,3,0,0,1,4.69.47l.24-.23a2.76,2.76,0,0,1,2.44-1.17,2.9,2.9,0,0,1,2.34,1.14,4.11,4.11,0,0,1,.67,2.8l.29,9.68c0,1-.12,2.1-1.37,2.1s-1.37-1-1.4-1.9l-.29-9.24c0-.5.11-1.49-.64-1.49-.41,0-.94.7-1.17,1Z"/>
    </g>
    <g>
      <path d="M45.71,147.45h10a1.46,1.46,0,0,1,0,2.92h-13v-9.51c0-2.18,1.11-3.29,3.3-3.29h8.19v-7h-10a1.46,1.46,0,1,1,0-2.92h9.68a3,3,0,0,1,3.27,3.41v6a3,3,0,0,1-3.27,3.41H45.71Z"/>
      <path d="M75.28,127.68a2.92,2.92,0,0,1,2.92,2.92v16.85a2.87,2.87,0,0,1-2.92,2.92H66.71a2.87,2.87,0,0,1-2.92-2.92V130.6a2.93,2.93,0,0,1,2.92-2.92Zm0,19.77V130.6H66.71v16.85Z"/>
      <path d="M87.71,147.45h10a1.46,1.46,0,1,1,0,2.92H84.79v-9.51c0-2.18,1.11-3.29,3.3-3.29h8.19v-7h-10a1.46,1.46,0,1,1,0-2.92h9.68a3,3,0,0,1,3.27,3.41v6a3.07,3.07,0,0,1-.91,2.6,3,3,0,0,1-2.36.81H87.71Z"/>
      <path d="M117.28,127.68a2.92,2.92,0,0,1,2.92,2.92v16.85a2.87,2.87,0,0,1-2.92,2.92h-8.57a2.87,2.87,0,0,1-2.92-2.92V130.6a2.93,2.93,0,0,1,2.92-2.92Zm0,19.77V130.6h-8.57v16.85Z"/>
    </g>
    <polygon points="440.5 159 327 159 327 117 426.83 117 440.5 132.5 440.5 159" fill="none" stroke="#231815" stroke-linecap="round" stroke-linejoin="round" stroke-width="3"/>
    <polygon points="258 299.5 -16 299.5 -16 183.5 259 183.5 289 233.5 258 299.5" fill="none" stroke="#231815" stroke-linecap="round" stroke-linejoin="round" stroke-width="3"/>
    <line x1="327" y1="183.5" x2="384" y2="183.5" fill="none" stroke="#231815" stroke-linecap="round" stroke-linejoin="round" stroke-width="3"/>
    <line x1="405" y1="183.5" x2="441" y2="183.5" fill="none" stroke="#231815" stroke-linecap="round" stroke-linejoin="round" stroke-width="3"/>
    <polyline points="1158 180.5 1144 204.5 961 204.5 975 175.5" fill="none" stroke="#231815" stroke-linecap="round" stroke-linejoin="round" stroke-width="3"/>
    <polyline points="661 293.5 782 293.5 763 334.5" fill="none" stroke="#231815" stroke-linecap="round" stroke-linejoin="round" stroke-width="3"/>
    <line x1="870" y1="252.5" x2="920" y2="252.5" fill="none" stroke="#231815" stroke-linecap="round" stroke-linejoin="round" stroke-width="3"/>
    <line x1="850" y1="256.5" x2="833" y2="298.5" fill="none" stroke="#231815" stroke-linecap="round" stroke-linejoin="round" stroke-width="3"/>
    <line x1="66.2" y1="161.5" x2="28.5" y2="161.5" fill="none" stroke="#231815" stroke-linecap="round" stroke-linejoin="round" stroke-width="2.9"/>
    <path d="M13.5,116.5H252.06a8.94,8.94,0,0,1,8.94,8.94v27.12a8.94,8.94,0,0,1-8.94,8.94H92.5" fill="none" stroke="#231815" stroke-linecap="round" stroke-linejoin="round" stroke-width="2.9"/>
    <line x1="26" y1="256.85" x2="26" y2="272.06" fill="none" stroke="#231815" stroke-linecap="round" stroke-linejoin="round" stroke-width="2.07"/>
    <line x1="46.1" y1="256.85" x2="46.1" y2="272.06" fill="none" stroke="#231815" stroke-linecap="round" stroke-linejoin="round" stroke-width="2.07"/>
    <line x1="66.2" y1="256.85" x2="66.2" y2="272.06" fill="none" stroke="#231815" stroke-linecap="round" stroke-linejoin="round" stroke-width="2.07"/>
    <line x1="86.3" y1="256.85" x2="86.3" y2="272.06" fill="none" stroke="#231815" stroke-linecap="round" stroke-linejoin="round" stroke-width="2.07"/>
    <line x1="106.4" y1="256.85" x2="106.4" y2="272.06" fill="none" stroke="#231815" stroke-linecap="round" stroke-linejoin="round" stroke-width="2.07"/>
    <line x1="126.5" y1="256.85" x2="126.5" y2="272.06" fill="none" stroke="#231815" stroke-linecap="round" stroke-linejoin="round" stroke-width="2.07"/>
    <line x1="146.6" y1="256.85" x2="146.6" y2="272.06" fill="none" stroke="#231815" stroke-linecap="round" stroke-linejoin="round" stroke-width="2.07"/>
    <line x1="166.7" y1="256.85" x2="166.7" y2="272.06" fill="none" stroke="#231815" stroke-linecap="round" stroke-linejoin="round" stroke-width="2.07"/>
    <line x1="186.8" y1="256.85" x2="186.8" y2="272.06" fill="none" stroke="#231815" stroke-linecap="round" stroke-linejoin="round" stroke-width="2.07"/>
    <line x1="206.9" y1="256.85" x2="206.9" y2="272.06" fill="none" stroke="#231815" stroke-linecap="round" stroke-linejoin="round" stroke-width="2.07"/>
    <line x1="227" y1="256.85" x2="227" y2="272.06" fill="none" stroke="#231815" stroke-linecap="round" stroke-linejoin="round" stroke-width="2.07"/>
    <g>
      <path d="M165,147.75h10a1.46,1.46,0,0,1,0,2.92h-13v-9.51c0-2.19,1.11-3.29,3.29-3.29h8.2v-7h-10a1.46,1.46,0,0,1,0-2.92h9.68a3,3,0,0,1,3.26,3.41v6a3,3,0,0,1-3.26,3.41H165Z"/>
      <path d="M194.62,128a2.92,2.92,0,0,1,2.91,2.92v16.85a2.87,2.87,0,0,1-2.91,2.92H186a2.87,2.87,0,0,1-2.91-2.92V130.9A2.92,2.92,0,0,1,186,128Zm0,19.77V130.9H186v16.85Z"/>
      <path d="M205.59,130.9a1.46,1.46,0,1,1,0-2.92h10a2.85,2.85,0,0,1,2.91,2.92v5.6a3.37,3.37,0,0,1-1.13,2.82,3.4,3.4,0,0,1,1.13,2.83v5.6a2.85,2.85,0,0,1-2.91,2.92h-10a1.46,1.46,0,0,1,0-2.92h10v-4.84c0-1.63-.64-2.13-1.46-2.13h-5.72a1.46,1.46,0,0,1,0-2.91h5.72c.82,0,1.46-.5,1.46-2.13V130.9Z"/>
      <path d="M236.62,128a2.92,2.92,0,0,1,2.91,2.92v16.85a2.87,2.87,0,0,1-2.91,2.92H228a2.87,2.87,0,0,1-2.91-2.92V130.9A2.92,2.92,0,0,1,228,128Zm0,19.77V130.9H228v16.85Z"/>
    </g>
    <line x1="131" y1="140.03" x2="149.33" y2="140.03" fill="none" stroke="#000" stroke-linecap="round" stroke-linejoin="round" stroke-width="3.33"/>
    <polygon points="145.27 134.47 145.27 145.03 154.5 139.75 145.27 134.47"/>
    <path d="M-11,222.5c24.4,0,24.4,20,48.8,20s24.4-20,48.8-20,24.39,20,48.79,20,24.4-20,48.81-20,24.4,20,48.8,20" fill="none" stroke="#231815" stroke-linecap="round" stroke-linejoin="round" stroke-width="2.9"/>
  </g>
</svg>
