<svg xmlns="http://www.w3.org/2000/svg" viewBox="0 0 385.39 47.07">
  <title>logo1</title>
  <g>
    <path d="M62.68,9.21A26.27,26.27,0,0,1,57,17.55a15.63,15.63,0,0,0-1.6-1.5,20.25,20.25,0,0,0,5.34-7.46Zm5.47,9.1a60.87,60.87,0,0,1,4.31,6.59l-1.83,1c-.27-.57-.61-1.19-1-1.89-9.77.72-10.94.8-11.8,1.13a9.06,9.06,0,0,0-.72-1.95c.59-.16,1.11-.74,1.87-1.64a38.87,38.87,0,0,0,4.84-7.5l2.1.85a49.46,49.46,0,0,1-5.49,7.92l8.16-.49c-.72-1.13-1.48-2.26-2.16-3.24Zm.37-9.76a13.26,13.26,0,0,0,5.09,7.21,10.08,10.08,0,0,0-1.4,1.79,16.6,16.6,0,0,1-5.07-7.15H63.75V8.55Z" fill="#1a131b"/>
    <path d="M92.71,23.75v1.6H75.11v-1.6h2.4V17.89H90.39v5.86ZM92.36,13.4H75.42V11.8h4.83a21.18,21.18,0,0,0-1.85-3l1.54-.68a14.86,14.86,0,0,1,2,3.18l-1,.52h6l-1.07-.39a21.45,21.45,0,0,0,1.91-3.33l1.83.55a30.06,30.06,0,0,1-2.12,3.17h4.89ZM82.14,14.84a30.73,30.73,0,0,1-5.63,3.4,7.56,7.56,0,0,0-1.09-1.47A22,22,0,0,0,80.9,14Zm-3,8.91h2.07V19.43H79.12Zm3.73,0h2.08V19.43H82.85ZM86.47,14a54,54,0,0,1,6,2.47l-1,1.45a49.48,49.48,0,0,0-5.9-2.64Zm.12,9.76h2.1V19.43h-2.1Z" fill="#1a131b"/>
    <path d="M100.15,8.63a37,37,0,0,1-1.58,3.68V26H96.91V15.2a21,21,0,0,1-1.63,2.18,15.46,15.46,0,0,0-1-1.74,21.74,21.74,0,0,0,4.21-7.5Zm12,2.55v1.48H99.76V11.18h5.71a18,18,0,0,0-1.3-2.53L105.72,8a16,16,0,0,1,1.41,2.54l-1.41.6Zm-11.25,8.44h10v6.26h-1.6v-.65h-6.84v.71h-1.54Zm9.77-4.17h-9.5V14h9.5Zm-9.5,1.3h9.5V18.2h-9.5Zm1.27,7h6.84V21.08h-6.84Z" fill="#1a131b"/>
    <path d="M121.26,12.76h-7.35V11.32h3.41A14.79,14.79,0,0,0,116,8.69L117.32,8a20,20,0,0,1,1.42,2.56l-1.38.8h3.9Zm-6.57,1.15h5.73v1.42h-5.73Zm0,2.57h5.77v1.41h-5.77Zm5.77,8.34h-4.14v.88h-1.61V19.11h5.75Zm-4.14-1.46H119V20.58h-2.64Zm13,.72c.63,0,.74-.58.82-3.06a4.48,4.48,0,0,0,1.66.76c-.2,3-.64,4-2.34,4H127c-1.82,0-2.32-.6-2.32-2.73V17.79l-3.41.52-.3-1.71,3.71-.55V11.38c-1,.19-2,.35-3,.5a6.94,6.94,0,0,0-.54-1.48,36.43,36.43,0,0,0,8-2.1l1.54,1.38A27.44,27.44,0,0,1,126.46,11v4.81l5-.74.29,1.66-5.28.8v5.57c0,.88.12,1,.76,1Z" fill="#1a131b"/>
    <path d="M140.7,19.25c-.41-.68-1.21-1.83-1.91-2.79v9.46H137V17.2a18.39,18.39,0,0,1-2.85,5.3,9.38,9.38,0,0,0-.95-1.73,18.94,18.94,0,0,0,3.51-6.9h-3V12.16H137V8h1.77v4.12h2.65v1.71h-2.65v.39c.63.59,2.62,2.88,3.06,3.43Zm7.08-5.38a20.82,20.82,0,0,0,3.74,7.47,6.66,6.66,0,0,0-1.38,1.42,21.7,21.7,0,0,1-2.79-5.69v8.85h-1.81V17.18a19.34,19.34,0,0,1-3.71,6,8,8,0,0,0-1.05-1.66,18.77,18.77,0,0,0,4.43-7.64h-3V12.16h3.36V8h1.81v4.12h3.57v1.71Z" fill="#1a131b"/>
    <path d="M159.49,21.1c-2.09.86-4.33,1.74-6.06,2.42l-.61-1.85,2.38-.8V14.46h-2.07V12.74h2.07V8.32h1.74v4.42h2v1.72h-2v5.76c.72-.23,1.48-.52,2.2-.79Zm9.74-5c-.21-.31-.48-.7-.83-1.15-7.22.47-8.11.57-8.72.8-.09-.35-.39-1.21-.58-1.69A3.1,3.1,0,0,0,160.5,13a18.09,18.09,0,0,0,1.23-1.42h-2.57V10h3.76A18.8,18.8,0,0,0,164.15,8l1.87.63c-.29.45-.61.87-.92,1.32h5.48v1.6h-3a32.23,32.23,0,0,1,3.12,3.51Zm.06,8.11c0,.86-.17,1.23-.74,1.48a8.22,8.22,0,0,1-2.77.24,5.11,5.11,0,0,0-.42-1.43c.81,0,1.65,0,1.87,0s.33-.07.33-.31v-2.3c-1.7.43-3.41.86-4.82,1.19l-.52-1.36c1.36-.3,3.35-.73,5.34-1.19V17.73h-5.4v2.75c0,1.77-.22,4.05-1.42,5.53a9.14,9.14,0,0,0-1.39-1.09,6.87,6.87,0,0,0,1.13-4.46V16.33h8.81Zm-5.42-12.63a23.41,23.41,0,0,1-1.94,2.2l5.22-.29-1.07-1.17,1.09-.74ZM163,18.18a16.39,16.39,0,0,1,3.9,1.26l-.67,1.19a19,19,0,0,0-3.88-1.42Z" fill="#1a131b"/>
    <path d="M178.41,22.15c-2,.63-4.21,1.25-5.91,1.74l-.33-1.68c.7-.15,1.52-.39,2.44-.62V16.5h-2.05V14.92h2.05v-4h-2.2V9.29h6.12v1.62h-2.2v4h2V16.5h-2v4.62l1.87-.54ZM184.53,18c-.74,4.21-2.77,6.77-5.55,8a6.36,6.36,0,0,0-.8-1.19,7.36,7.36,0,0,0,3.19-2.49c-.43-.47-.93-1-1.42-1.46a7.93,7.93,0,0,1-.72.87,11.23,11.23,0,0,0-1-.95,9.73,9.73,0,0,0,2.34-4.46l1.29.27c-.12.41-.23.8-.35,1.19h1.87l.25,0Zm-1.34-4.48a10.15,10.15,0,0,1-3.59,3,6,6,0,0,0-1-1.15A9.25,9.25,0,0,0,182,13Zm.48-.68H179V11.39h2.32a16.24,16.24,0,0,0-1.44-2.29l1.23-.67a14.11,14.11,0,0,1,1.56,2.24l-1.23.72h2.22V8h1.66v3.35H190v1.43h-4.7v4h-1.66Zm-2.73,6.35c-.11.24-.23.45-.33.65.49.44,1,.95,1.45,1.4a10.18,10.18,0,0,0,.81-2Zm9.34,4h-1.56V26H187.3V23.17h-2.94c.29-1.09.58-2.69.79-4.08h-.44V17.81h2.59V16.38h1.42v1.43h1.37v1.28h-1.37v2.65h1.56Zm-3.55-10.29a19.17,19.17,0,0,1,3.4,2.32l-1,1a24,24,0,0,0-3.37-2.4Zm.57,8.86V19.09h-.84c-.16.88-.33,1.82-.51,2.65ZM189.19,9a28.79,28.79,0,0,1-2,2.36l-1.09-.53a16.46,16.46,0,0,0,1.62-2.48Z" fill="#1a131b"/>
    <path d="M209.32,14.9v1.72H199.18A23.13,23.13,0,0,1,193.41,25a12.64,12.64,0,0,0-1.52-1.36,19,19,0,0,0,5.23-7h-4.8V14.9h5.52a27,27,0,0,0,.9-2.76l1.89.42c-.24.8-.49,1.58-.76,2.34Zm-15-1.05h-1.77v-3.8h7.68a13.46,13.46,0,0,0-.74-1.64l1.87-.52a17.34,17.34,0,0,1,1,2.16h6.73v3.8h-1.84V11.71h-13Zm10.76,5.73c1.33,1.66,3.16,4,4,5.34l-1.64,1c-.24-.37-.53-.86-.84-1.35-7.8.66-8.75.76-9.41,1a17.82,17.82,0,0,0-.59-1.73A3.34,3.34,0,0,0,198,22.72a29.55,29.55,0,0,0,3.37-5.46l1.89.63a37.88,37.88,0,0,1-3.74,5.67l6.08-.47c-.67-.94-1.39-1.87-2-2.69Z" fill="#1a131b"/>
    <path d="M224.73,16.77a11.65,11.65,0,0,0,4.76,2.93,7,7,0,0,0-1.19,1.46,12.39,12.39,0,0,1-5.59-4.39h-4.92a15.88,15.88,0,0,1-5.12,4.55,4.86,4.86,0,0,0-1.35-1.21,15,15,0,0,0,4.25-3.34h-4v-1.5h5.12a9.67,9.67,0,0,0,.8-1.34h-3.88V12.51h4.54a12.51,12.51,0,0,0,.45-1.25h-6V9.8H219c.12-.57.22-1.17.3-1.74l1.91.16c-.1.52-.2,1-.34,1.58h7.18v1.46h-7.55c-.13.43-.29.82-.44,1.25h7.23v1.42h-7.84c-.21.47-.45.9-.68,1.34H229v1.5Zm.69,3.2c-.55.59-1.15,1.23-1.76,1.79,1.46.71,2.89,1.45,3.84,2l-1,1.39a54.52,54.52,0,0,0-5.23-2.79v1.79c0,.84-.17,1.23-.78,1.46a8.89,8.89,0,0,1-2.78.24,5,5,0,0,0-.57-1.44c.92,0,1.8,0,2,0s.35-.1.35-.32V22.76c-2.07.82-4.23,1.64-5.93,2.26l-.81-1.52c1.13-.35,2.65-.86,4.3-1.44a11.89,11.89,0,0,0-2-1.91l1.2-.94a10.1,10.1,0,0,1,2.07,1.87l-1.19,1c.8-.28,1.58-.55,2.36-.84V17.38h1.75v3.27l1,.43a25.5,25.5,0,0,0,1.73-2Z" fill="#1a131b"/>
    <path d="M247.53,13.32a21.7,21.7,0,0,1-2.24,7.49,9.42,9.42,0,0,0,3.63,3.57,6.55,6.55,0,0,0-1.29,1.56,10.73,10.73,0,0,1-3.45-3.42A12.49,12.49,0,0,1,239.85,26a9.14,9.14,0,0,0-1.07-1.63,10.38,10.38,0,0,0,4.43-3.65A24,24,0,0,1,241.65,16a14,14,0,0,1-1.15,1.86,11,11,0,0,0-1.13-1,17.47,17.47,0,0,1-2.85,2.56V20c1.19-.12,2.42-.27,3.63-.41l0,1.54-3.65.45v2.55c0,.82-.15,1.27-.74,1.5a6.91,6.91,0,0,1-2.69.28,5.76,5.76,0,0,0-.54-1.54c.87,0,1.71,0,1.94,0s.34-.06.34-.28V21.8l-3.79.45-.19-1.62c1.09-.11,2.48-.25,4-.42V19a14.06,14.06,0,0,0,1.94-1.54h-2.59a22.69,22.69,0,0,1-2.26,1.5,12.15,12.15,0,0,0-1.25-1.39,16.19,16.19,0,0,0,4-2.78h-3.82V13.17H234V11.53h-2.4V10H234V8.08h1.67V10h1.89v1.17a18.81,18.81,0,0,0,1.33-2.61L240.6,9a20.47,20.47,0,0,1-2.32,4.13h1.94v1.52a22.78,22.78,0,0,0,2-6.63l1.84.29a28.48,28.48,0,0,1-.75,3.28h5.46v1.69Zm-11.83-.15h.45a13.86,13.86,0,0,0,1.21-1.64H235.7Zm3.47,3.23a10.24,10.24,0,0,0,1-1.65H237c-.37.43-.76.84-1.15,1.23h2.28l.33-.1Zm3.63-3.08a26,26,0,0,0,1.48,5.44,20.69,20.69,0,0,0,1.38-5.44Z" fill="#1a131b"/>
    <path d="M267.8,11.45h-4.64a26.73,26.73,0,0,1,3.92,3.38l-1.54,1H266V24c0,1-.29,1.46-1.05,1.69a16.91,16.91,0,0,1-3.81.22,6.33,6.33,0,0,0-.46-1.56c1.13.06,2.57.06,2.88,0s.47-.12.47-.41v-2c-3,.64-6,1.25-8.34,1.7L255.13,22c2.13-.29,5.58-.84,8.89-1.4V17.3h-9.2v1.79c0,2.19-.33,5.11-2.18,7.06A5.23,5.23,0,0,0,251.17,25c1.7-1.72,1.88-4.13,1.88-6V15.8h12.41a13.11,13.11,0,0,0-1.19-1.27c-9.7.43-10.78.45-11.52.72a12.49,12.49,0,0,0-.54-1.69,4.31,4.31,0,0,0,1.67-1,16.11,16.11,0,0,0,1.35-1.13h-4.46V9.86h6.12c.58-.63,1.2-1.35,1.75-2l1.83.72c-.39.45-.78.88-1.21,1.31h8.54Zm-5.07,1.72c-.54-.43-1.07-.86-1.6-1.25l.78-.47h-4.28a29.13,29.13,0,0,1-2.34,2Zm-6.8,4.72a30.5,30.5,0,0,1,6.86,1.67l-.56,1.29A31,31,0,0,0,255.37,19Z" fill="#1a131b"/>
    <path d="M284.54,13.17a20.15,20.15,0,0,1-4.31,7.27,19.31,19.31,0,0,0,7.62,3.7,8.46,8.46,0,0,0-1.23,1.68,19.36,19.36,0,0,1-7.79-4.06,22.38,22.38,0,0,1-8,4.18,9.75,9.75,0,0,0-1.13-1.74,20.24,20.24,0,0,0,7.75-3.74,21.93,21.93,0,0,1-4.42-7.29h-3V11.41h8.44a16.28,16.28,0,0,0-1.31-2.94l1.91-.56a15.07,15.07,0,0,1,1.44,3l-1.73.54h8.75v1.76Zm-9.59,0a18.71,18.71,0,0,0,3.9,6,16.69,16.69,0,0,0,3.66-6Z" fill="#1a131b"/>
    <path d="M296,8.71a29.93,29.93,0,0,1-1.91,3.68V25.94h-1.72V14.88a19.81,19.81,0,0,1-2.32,2.6,9.74,9.74,0,0,0-1-1.84,21.16,21.16,0,0,0,5.28-7.48Zm8,15c1.05,0,1.22-.82,1.38-4.09a5.42,5.42,0,0,0,1.64.8c-.26,3.64-.7,4.93-2.91,4.93h-3.49c-2.14,0-2.74-.64-2.74-3v-14h1.73v5.15h6.86v1.73h-6.86v7.18c0,1.09.2,1.3,1.17,1.3Z" fill="#1a131b"/>
    <path d="M316,9.21a26.27,26.27,0,0,1-5.73,8.34,14.65,14.65,0,0,0-1.6-1.5A20.14,20.14,0,0,0,314,8.59Zm5.48,9.1a59.2,59.2,0,0,1,4.3,6.59l-1.83,1a19.66,19.66,0,0,0-1-1.89c-9.77.72-10.94.8-11.79,1.13a10.27,10.27,0,0,0-.72-1.95c.58-.16,1.11-.74,1.87-1.64a39,39,0,0,0,4.83-7.5l2.11.85a48.87,48.87,0,0,1-5.5,7.92l8.17-.49c-.73-1.13-1.49-2.26-2.17-3.24Zm.37-9.76a13.19,13.19,0,0,0,5.08,7.21,10.57,10.57,0,0,0-1.4,1.79,16.69,16.69,0,0,1-5.07-7.15h-3.39V8.55Z" fill="#1a131b"/>
    <path d="M346,23.75v1.6h-17.6v-1.6h2.4V17.89h12.88v5.86Zm-.35-10.35H328.75V11.8h4.84a21.18,21.18,0,0,0-1.85-3l1.54-.68a15.19,15.19,0,0,1,2,3.18l-1.05.52h6l-1.07-.39a21.45,21.45,0,0,0,1.91-3.33l1.83.55a30.06,30.06,0,0,1-2.12,3.17h4.89Zm-10.21,1.44a31.16,31.16,0,0,1-5.64,3.4,7.56,7.56,0,0,0-1.09-1.47,21.87,21.87,0,0,0,5.48-2.8Zm-3,8.91h2.06V19.43h-2.06Zm3.72,0h2.09V19.43h-2.09ZM339.8,14a52.41,52.41,0,0,1,6,2.47l-1,1.45a48.76,48.76,0,0,0-5.9-2.64Zm.12,9.76H342V19.43h-2.11Z" fill="#1a131b"/>
    <path d="M361.69,18.78a11.06,11.06,0,0,0,4.13,2.65,7.67,7.67,0,0,0-1.19,1.41,12.38,12.38,0,0,1-4.91-4.06h-5.81a12.58,12.58,0,0,1-1.71,2h3.56V19.29h1.84v1.46h3.86v1.44H357.6v1.74h6.54v1.5H349.47v-1.5h6.29V22.19H352V20.91a13.82,13.82,0,0,1-3.21,2.14,6.21,6.21,0,0,0-1.17-1.38,11.75,11.75,0,0,0,4.21-2.89h-4v-1.5h3.78v-6h-2.82V9.78h2.82V8.08h1.81v1.7h6.63V8.1h1.85V9.78h2.79v1.48h-2.79v6h3.67v1.5Zm-8.25-6.43h6.63V11.26h-6.63Zm0,2.44h6.63V13.68h-6.63Zm0,2.49h6.63V16.11h-6.63Z" fill="#1a131b"/>
    <path d="M377.12,15.45v2.36h6.53v1.63h-6.53v4.35h7.47v1.66H367.86V23.79h7.33V19.44h-6.43V17.81h6.43V15.45h-4.07v-1a22.26,22.26,0,0,1-2.83,1.24A7,7,0,0,0,367.08,14c3.63-1.11,7.16-3.26,9-6.12l1.69.76c-.17.25-.33.5-.5.74A21,21,0,0,0,385.39,14a7.57,7.57,0,0,0-1.25,1.57,19.76,19.76,0,0,1-2.91-1.34v1.19Zm-5.4,4.19A15.8,15.8,0,0,1,373.56,23l-1.58.68a17.28,17.28,0,0,0-1.74-3.47Zm8.64-5.87a21.63,21.63,0,0,1-4.13-3.15,17.9,17.9,0,0,1-3.92,3.15Zm-1.76,9.36a18.13,18.13,0,0,0,1.89-3.49l1.76.64c-.74,1.23-1.6,2.56-2.26,3.43Z" fill="#1a131b"/>
    <polygon points="57.34 31.39 58.93 34.89 60.55 31.39 62.24 31.39 59.64 36.26 59.64 39.05 58.02 39.05 58.02 36.23 55.42 31.39 57.34 31.39" fill="#1a131b"/>
    <rect x="62.02" y="37.64" width="1.35" height="1.42" fill="#1a131b"/>
    <polygon points="65.19 31.37 66.88 31.37 66.88 37.75 70.18 37.75 70.18 39.05 65.19 39.05 65.19 31.37" fill="#1a131b"/>
    <rect x="71.44" y="37.64" width="1.35" height="1.42" fill="#1a131b"/>
    <polygon points="74.61 31.37 76.29 31.37 76.29 37.75 79.59 37.75 79.59 39.05 74.61 39.05 74.61 31.37" fill="#1a131b"/>
    <rect x="80.7" y="31.34" width="1.65" height="7.72" fill="#1a131b"/>
    <polygon points="84.06 31.36 86.44 31.36 89.33 37.42 89.33 31.36 90.86 31.36 90.86 39.05 88.59 39.05 85.61 32.67 85.61 39.05 84.06 39.05 84.06 31.36" fill="#1a131b"/>
    <polygon points="95.78 31.36 97.43 31.36 97.43 34.44 100.34 34.44 100.34 31.36 102.01 31.36 102.01 39.05 100.36 39.05 100.36 35.68 97.43 35.68 97.43 39.05 95.78 39.05 95.78 31.36" fill="#1a131b"/>
    <path d="M105.44,31.38v4.68c0,.84.06,1.9,1.67,1.9a1.7,1.7,0,0,0,1.49-.67,2.17,2.17,0,0,0,.25-1.31v-4.6h1.61v4.8c0,2.29-1.83,3-3.38,3a3.34,3.34,0,0,1-2.9-1.33,3.27,3.27,0,0,1-.39-1.89v-4.6Z" fill="#1a131b"/>
    <polygon points="112.34 31.36 114.73 31.36 117.61 37.42 117.61 31.36 119.15 31.36 119.15 39.05 116.88 39.05 113.9 32.67 113.9 39.05 112.34 39.05 112.34 31.36" fill="#1a131b"/>
    <path d="M126,33.72a1.41,1.41,0,0,0-.22-.78,1.46,1.46,0,0,0-1.28-.59c-1.88,0-2.25,1.74-2.25,2.93a3.07,3.07,0,0,0,.64,2.06,2.17,2.17,0,0,0,1.81.66,3.47,3.47,0,0,0,1.25-.15V36.23h-1.49V35h3.14V38.8a7.81,7.81,0,0,1-2.81.43,4.3,4.3,0,0,1-3.27-1,4,4,0,0,1-1-2.87,3.83,3.83,0,0,1,4-4.19,3.48,3.48,0,0,1,2.62,1,2.36,2.36,0,0,1,.55,1.61Z" fill="#1a131b"/>
    <polygon points="132.75 32.63 130.46 32.63 130.46 31.36 136.7 31.36 136.7 32.63 134.41 32.63 134.41 39.05 132.75 39.05 132.75 32.63" fill="#1a131b"/>
    <path d="M140.86,31.36l2.68,7.7h-1.67l-.55-1.67h-3l-.58,1.67h-1.57l2.77-7.7Zm0,4.79-1.07-3.28-1.14,3.28Z" fill="#1a131b"/>
    <rect x="144.67" y="31.34" width="1.65" height="7.72" fill="#1a131b"/>
    <polygon points="151.27 31.36 156.42 31.36 156.42 32.61 152.92 32.61 152.92 34.45 156.2 34.45 156.2 35.7 152.92 35.7 152.92 37.78 156.54 37.78 156.54 39.05 151.27 39.05 151.27 31.36" fill="#1a131b"/>
    <path d="M158,31.38h2.54a4.64,4.64,0,0,1,2.65.69,3.68,3.68,0,0,1,1.31,3c0,2.36-1.26,3.59-2.72,3.86a7.73,7.73,0,0,1-1.39.08H158Zm1.67,6.41.65,0a2.32,2.32,0,0,0,1.79-.53,3.26,3.26,0,0,0,.69-2.17,2.2,2.2,0,0,0-1.41-2.38,5.51,5.51,0,0,0-1.72-.11Z" fill="#1a131b"/>
    <path d="M167.63,31.38v4.68c0,.84.06,1.9,1.67,1.9a1.71,1.71,0,0,0,1.49-.67A2.19,2.19,0,0,0,171,36v-4.6h1.61v4.8c0,2.29-1.82,3-3.37,3a3.33,3.33,0,0,1-2.9-1.33A3.27,3.27,0,0,1,166,36v-4.6Z" fill="#1a131b"/>
    <path d="M178.83,33.87c0-.27-.13-1.35-1.25-1.35s-1.73,1.28-1.73,2.86c0,.46,0,2.64,1.61,2.64a1.35,1.35,0,0,0,1.38-1.46h1.74a2.66,2.66,0,0,1-.7,1.81,3,3,0,0,1-2.24.87c-2.65,0-3.52-2-3.52-3.87,0-2.44,1.37-4.06,3.53-4.06a2.59,2.59,0,0,1,2.86,2.56Z" fill="#1a131b"/>
    <path d="M185.92,31.36l2.68,7.7h-1.67l-.55-1.67h-3l-.58,1.67h-1.57l2.77-7.7Zm.05,4.79-1.07-3.28-1.14,3.28Z" fill="#1a131b"/>
    <polygon points="190.35 32.63 188.07 32.63 188.07 31.36 194.31 31.36 194.31 32.63 192.02 32.63 192.02 39.05 190.35 39.05 190.35 32.63" fill="#1a131b"/>
    <rect x="195.33" y="31.34" width="1.65" height="7.72" fill="#1a131b"/>
    <path d="M202.06,31.2a3.55,3.55,0,0,1,2.7,1,4.43,4.43,0,0,1,1,2.9,4.7,4.7,0,0,1-1,3,3.64,3.64,0,0,1-2.73,1.1,3.71,3.71,0,0,1-2.73-1.06,4.22,4.22,0,0,1-.95-2.87c0-2,.93-4.12,3.7-4.12m-1.4,6.22a1.59,1.59,0,0,0,1.4.61,1.56,1.56,0,0,0,1.44-.71,3.75,3.75,0,0,0,.52-2.2,4.44,4.44,0,0,0-.19-1.38,1.79,1.79,0,0,0-1.76-1.36,1.77,1.77,0,0,0-1.42.65,3.6,3.6,0,0,0-.56,2.23,3.62,3.62,0,0,0,.57,2.16" fill="#1a131b"/>
    <polygon points="207.24 31.36 209.62 31.36 212.51 37.42 212.51 31.36 214.04 31.36 214.04 39.05 211.77 39.05 208.79 32.67 208.79 39.05 207.24 39.05 207.24 31.36" fill="#1a131b"/>
    <path d="M222.19,31.36l2.67,7.7H223.2l-.55-1.67H219.6L219,39.06h-1.58l2.78-7.7Zm0,4.79-1.06-3.28L220,36.15Z" fill="#1a131b"/>
    <polygon points="226.12 31.36 228.5 31.36 231.39 37.42 231.39 31.36 232.92 31.36 232.92 39.05 230.66 39.05 227.67 32.67 227.67 39.05 226.12 39.05 226.12 31.36" fill="#1a131b"/>
    <path d="M234.6,31.38h2.54a4.64,4.64,0,0,1,2.65.69,3.68,3.68,0,0,1,1.31,3c0,2.36-1.27,3.59-2.72,3.86a7.73,7.73,0,0,1-1.39.08H234.6Zm1.67,6.41.65,0a2.32,2.32,0,0,0,1.79-.53,3.26,3.26,0,0,0,.69-2.17A2.2,2.2,0,0,0,238,32.73a5.51,5.51,0,0,0-1.72-.11Z" fill="#1a131b"/>
    <path d="M250.16,33.87c0-.27-.13-1.35-1.25-1.35s-1.74,1.28-1.74,2.86c0,.46,0,2.64,1.61,2.64a1.36,1.36,0,0,0,1.39-1.46h1.73a2.59,2.59,0,0,1-.69,1.81,3,3,0,0,1-2.25.87c-2.65,0-3.51-2-3.51-3.87,0-2.44,1.36-4.06,3.52-4.06a2.6,2.6,0,0,1,2.87,2.56Z" fill="#1a131b"/>
    <path d="M254.87,31.38v4.68c0,.84.07,1.9,1.68,1.9a1.71,1.71,0,0,0,1.49-.67,2.19,2.19,0,0,0,.24-1.31v-4.6h1.61v4.8c0,2.29-1.82,3-3.38,3a3.32,3.32,0,0,1-2.89-1.33,3.19,3.19,0,0,1-.4-1.89v-4.6Z" fill="#1a131b"/>
    <polygon points="261.74 31.37 263.43 31.37 263.43 37.75 266.73 37.75 266.73 39.05 261.74 39.05 261.74 31.37" fill="#1a131b"/>
    <polygon points="268.62 32.63 266.33 32.63 266.33 31.36 272.57 31.36 272.57 32.63 270.29 32.63 270.29 39.05 268.62 39.05 268.62 32.63" fill="#1a131b"/>
    <path d="M275.38,31.38v4.68c0,.84.06,1.9,1.67,1.9a1.71,1.71,0,0,0,1.49-.67,2.19,2.19,0,0,0,.24-1.31v-4.6h1.61v4.8c0,2.29-1.82,3-3.37,3a3.33,3.33,0,0,1-2.9-1.33,3.27,3.27,0,0,1-.39-1.89v-4.6Z" fill="#1a131b"/>
    <path d="M282.15,31.36h3a3.4,3.4,0,0,1,2.33.52,1.94,1.94,0,0,1,.67,1.48,1.9,1.9,0,0,1-1.61,1.88c1.16.11,1.25.77,1.39,1.77a14,14,0,0,0,.23,1.49,1.3,1.3,0,0,0,.24.55h-1.82c-.08-.42-.31-2.37-.42-2.67s-.55-.43-.83-.43h-1.45v3.1h-1.68Zm1.63,3.36h1.33a1.37,1.37,0,0,0,.84-.21,1.07,1.07,0,0,0,.43-.9,1,1,0,0,0-.41-.86,1.8,1.8,0,0,0-1.08-.18h-1.11Z" fill="#1a131b"/>
    <polygon points="289.67 31.36 294.82 31.36 294.82 32.61 291.32 32.61 291.32 34.45 294.6 34.45 294.6 35.7 291.32 35.7 291.32 37.78 294.94 37.78 294.94 39.05 289.67 39.05 289.67 31.36" fill="#1a131b"/>
    <path d="M304,33.87c0-.27-.13-1.35-1.25-1.35S301,33.8,301,35.38c0,.46,0,2.64,1.61,2.64A1.35,1.35,0,0,0,304,36.56h1.74a2.66,2.66,0,0,1-.7,1.81,3,3,0,0,1-2.24.87c-2.65,0-3.52-2-3.52-3.87,0-2.44,1.37-4.06,3.53-4.06a2.59,2.59,0,0,1,2.86,2.56Z" fill="#1a131b"/>
    <polygon points="306.96 31.36 308.62 31.36 308.62 34.44 311.52 34.44 311.52 31.36 313.19 31.36 313.19 39.05 311.54 39.05 311.54 35.68 308.62 35.68 308.62 39.05 306.96 39.05 306.96 31.36" fill="#1a131b"/>
    <path d="M319,31.36l2.67,7.7H320l-.55-1.67h-3l-.57,1.67h-1.58l2.78-7.7Zm0,4.79L318,32.87l-1.14,3.28Z" fill="#1a131b"/>
    <path d="M322.8,31.36h2.95a3.4,3.4,0,0,1,2.33.52,1.94,1.94,0,0,1,.67,1.48,1.91,1.91,0,0,1-1.6,1.88c1.16.11,1.24.77,1.38,1.77s.18,1.28.23,1.49a1.3,1.3,0,0,0,.24.55h-1.82c-.08-.42-.31-2.37-.42-2.67s-.55-.43-.83-.43h-1.45v3.1H322.8Zm1.63,3.36h1.33a1.36,1.36,0,0,0,.84-.21,1.07,1.07,0,0,0,.43-.9,1,1,0,0,0-.41-.86,1.8,1.8,0,0,0-1.08-.18h-1.11Z" fill="#1a131b"/>
    <rect x="330.17" y="31.34" width="1.65" height="7.72" fill="#1a131b"/>
    <polygon points="335.2 32.63 332.91 32.63 332.91 31.36 339.15 31.36 339.15 32.63 336.86 32.63 336.86 39.05 335.2 39.05 335.2 32.63" fill="#1a131b"/>
    <polygon points="341.42 31.39 343 34.89 344.62 31.39 346.31 31.39 343.72 36.26 343.72 39.05 342.09 39.05 342.09 36.23 339.49 31.39 341.42 31.39" fill="#1a131b"/>
    <polygon points="350.76 32.63 348.47 32.63 348.47 31.36 354.71 31.36 354.71 32.63 352.42 32.63 352.42 39.05 350.76 39.05 350.76 32.63" fill="#1a131b"/>
    <path d="M355.73,31.36h2.95a3.4,3.4,0,0,1,2.33.52,1.94,1.94,0,0,1,.67,1.48,1.91,1.91,0,0,1-1.6,1.88c1.16.11,1.24.77,1.38,1.77s.18,1.28.23,1.49a1.3,1.3,0,0,0,.24.55h-1.82c-.08-.42-.31-2.37-.42-2.67s-.55-.43-.83-.43h-1.45v3.1h-1.68Zm1.63,3.36h1.33a1.36,1.36,0,0,0,.84-.21,1.07,1.07,0,0,0,.43-.9,1,1,0,0,0-.41-.86,1.8,1.8,0,0,0-1.08-.18h-1.11Z" fill="#1a131b"/>
    <path d="M364.88,31.38v4.68c0,.84.06,1.9,1.67,1.9a1.7,1.7,0,0,0,1.49-.67,2.17,2.17,0,0,0,.25-1.31v-4.6h1.6v4.8c0,2.29-1.82,3-3.37,3a3.34,3.34,0,0,1-2.9-1.33,3.27,3.27,0,0,1-.39-1.89v-4.6Z" fill="#1a131b"/>
    <path d="M373.07,36.6a1.25,1.25,0,0,0,1.39,1.45c.9,0,1.46-.42,1.46-1.07s-.48-.8-1.46-1c-1.83-.46-2.83-1-2.83-2.34s.91-2.38,3.05-2.38a2.89,2.89,0,0,1,2.32.9,2.23,2.23,0,0,1,.44,1.43h-1.59a1.15,1.15,0,0,0-1.25-1.17c-.76,0-1.26.42-1.26,1s.56.84,1.67,1.12c1.33.32,2.64.68,2.64,2.18s-1.15,2.51-3.28,2.51c-2.95,0-3-1.9-3-2.64Z" fill="#1a131b"/>
    <polygon points="380.61 32.63 378.32 32.63 378.32 31.36 384.56 31.36 384.56 32.63 382.27 32.63 382.27 39.05 380.61 39.05 380.61 32.63" fill="#1a131b"/>
    <path d="M14.57,33.13A2.62,2.62,0,0,0,16,28.32a2.11,2.11,0,0,1,1.35.71.21.21,0,0,0,.17.07.22.22,0,0,0,.17-.07,2.18,2.18,0,0,1,1-.64c0,.05.05.1.08.14a2.62,2.62,0,1,0,4.33,2V28.19A2.62,2.62,0,0,0,22.06,26a2.16,2.16,0,0,1,1.3.71.24.24,0,0,0,.34,0A2.14,2.14,0,0,1,25,26a2.61,2.61,0,0,0-1.1,2.14l0,2.32a2.63,2.63,0,1,0,4.34-2l.06-.11a1.93,1.93,0,0,1,1.07.65.23.23,0,0,0,.34,0,2.17,2.17,0,0,1,1.31-.7,2.63,2.63,0,0,0,1.51,4.77A2.66,2.66,0,0,0,35,30.5V16.69a.22.22,0,0,0-.16-.22A21.39,21.39,0,0,1,24.5,9.24l0,0V9.18H22.62v.09l-.05,0a21.26,21.26,0,0,1-10.38,7.23.23.23,0,0,0-.15.22V30.5a2.66,2.66,0,0,0,2.53,2.63m3-4.58a2.62,2.62,0,0,0-1.79-.71,3.1,3.1,0,0,0-.76.1.23.23,0,0,0,0,.45,2.16,2.16,0,0,1,1.73,2.11s0,.07,0,.1a3.58,3.58,0,1,1,1.67-7,5.57,5.57,0,0,0-.38,2A5.47,5.47,0,0,0,18.53,28a2.62,2.62,0,0,0-1,.58m13.82-5a4.11,4.11,0,0,0-1.85-.45,4,4,0,0,0-.91.12V16.69a.24.24,0,0,0-.12-.2c-2.68-1.46-3.82-4.57-4.24-6.16a14.05,14.05,0,0,0,7.12,6.52ZM21.7,16.69v3.78a5.55,5.55,0,0,0-2.76,2.15v-5.8a9.85,9.85,0,0,0,4.17-5.73,20.46,20.46,0,0,1-1.38,5.49.43.43,0,0,0,0,.11m.46,0a20.85,20.85,0,0,0,1.38-5.49,20.87,20.87,0,0,0,1.4,5.49v3.6a5.59,5.59,0,0,0-1.42-.19,5.65,5.65,0,0,0-1.37.18Zm3.21-.16A20.43,20.43,0,0,1,24,11.12a9.81,9.81,0,0,0,4.15,5.7v5.86a5.52,5.52,0,0,0-2.75-2.19v-3.8a.22.22,0,0,0,0-.11m-6.77-.09a.22.22,0,0,0-.12.2v6.5a3.74,3.74,0,0,0-.94-.13,4,4,0,0,0-1.83.44V16.85a13.93,13.93,0,0,0,7.12-6.53c-.42,1.6-1.55,4.71-4.23,6.17m.49,12.43a5.67,5.67,0,0,0,.82.88,3.56,3.56,0,0,1-1.53.79V30.5a2.12,2.12,0,0,1,.71-1.58m1.45,3.75a2.18,2.18,0,0,1-2.09-1.62,4.11,4.11,0,0,0,1.82-1,5.54,5.54,0,0,0,2.35,1,2.17,2.17,0,0,1-2.08,1.59m3.82-4.48A2.16,2.16,0,0,1,26,26.08a.23.23,0,0,0,0-.45,6.82,6.82,0,0,0-.69-.07,2.62,2.62,0,0,0-1.79.71,2.62,2.62,0,0,0-1.79-.71,6.52,6.52,0,0,0-.68.07.23.23,0,0,0,0,.45,2.16,2.16,0,0,1,1.67,2.11V30.5a.5.5,0,0,1,0,.12,5,5,0,1,1,1.65,0s0-.07,0-.11Zm2.14,4.48a2.16,2.16,0,0,1-2.08-1.59,5.56,5.56,0,0,0,2.35-1,4,4,0,0,0,1.81,1,2.15,2.15,0,0,1-2.08,1.63m2.16-2.17s0,.06,0,.09a3.6,3.6,0,0,1-1.52-.8,5.63,5.63,0,0,0,.82-.87,2.14,2.14,0,0,1,.71,1.58m3.4-2.12a.23.23,0,0,0,.19-.21.24.24,0,0,0-.17-.23,2.69,2.69,0,0,0-.7-.06H31.3a2.61,2.61,0,0,0-1.79.7,2.4,2.4,0,0,0-1-.59,5.4,5.4,0,0,0,.14-4.35,3.73,3.73,0,0,1,.88-.12,3.58,3.58,0,0,1,.83,7.07s0-.06,0-.09a2.18,2.18,0,0,1,1.73-2.12m2.52-11.53V30.5a2.22,2.22,0,0,1-2.08,2.17,2.16,2.16,0,0,1-2.09-1.62,4,4,0,0,0,1.41-7.26v-7.1a.24.24,0,0,0-.15-.22,13.43,13.43,0,0,1-6.94-6.2,22.5,22.5,0,0,0,9.85,6.58m-22.09,0a22.43,22.43,0,0,0,9.85-6.58,13.39,13.39,0,0,1-6.94,6.2.23.23,0,0,0-.14.22v7.08a4,4,0,0,0,1.4,7.28,2.16,2.16,0,0,1-2.09,1.62,2.22,2.22,0,0,1-2.08-2.17Z" fill="#1a131b"/>
    <path d="M23.54,39.81A16.27,16.27,0,1,0,7.27,23.54,16.29,16.29,0,0,0,23.54,39.81m0-32.08A15.81,15.81,0,1,1,7.73,23.54,15.82,15.82,0,0,1,23.54,7.73" fill="#1a131b"/>
    <path d="M23.54,1.21A22.33,22.33,0,1,0,45.86,23.54,22.36,22.36,0,0,0,23.54,1.21m0,44.19A21.87,21.87,0,1,1,45.4,23.54,21.89,21.89,0,0,1,23.54,45.4" fill="#1a131b"/>
    <path d="M23.54,0A23.54,23.54,0,1,0,47.07,23.54,23.57,23.57,0,0,0,23.54,0m0,46.62A23.08,23.08,0,1,1,46.62,23.54,23.11,23.11,0,0,1,23.54,46.62" fill="#1a131b"/>
    <polygon points="10.62 11.1 10.98 10.74 10.36 10.12 9.85 8.48 9.47 8.86 9.9 9.98 8.77 9.57 8.35 10 9.99 10.48 10.62 11.1" fill="#1a131b"/>
    <rect x="11.44" y="9.61" width="0.42" height="0.44" transform="translate(-3.59 10.04) rotate(-40.95)" fill="#1a131b"/>
    <polygon points="13.76 8.49 13.52 8.15 12.69 8.76 11.52 7.14 11.1 7.45 12.5 9.39 13.76 8.49" fill="#1a131b"/>
    <rect x="14.08" y="7.7" width="0.42" height="0.44" transform="translate(-2.04 8.39) rotate(-30.64)" fill="#1a131b"/>
    <polygon points="16.6 6.98 16.43 6.61 15.5 7.05 14.64 5.26 14.17 5.49 15.2 7.65 16.6 6.98" fill="#1a131b"/>
    <rect x="16.63" y="4.39" width="0.51" height="2.41" transform="translate(-0.89 6.21) rotate(-20.32)" fill="#1a131b"/>
    <polygon points="18.61 6.29 18.13 4.35 19.51 6.06 20.2 5.89 19.62 3.56 19.15 3.67 19.61 5.51 18.28 3.89 17.56 4.08 18.14 6.4 18.61 6.29" fill="#1a131b"/>
    <polygon points="22.5 5.63 22.46 4.58 23.38 4.55 23.41 5.6 23.92 5.59 23.85 3.19 23.32 3.2 23.36 4.16 22.45 4.19 22.42 3.23 21.9 3.25 21.98 5.65 22.5 5.63" fill="#1a131b"/>
    <path d="M25.57,5.77A.94.94,0,0,0,26.72,5l.17-1.49-.5,0-.16,1.42a.8.8,0,0,1-.12.4.54.54,0,0,1-.49.15c-.5,0-.48-.38-.45-.64l.16-1.45-.51-.06-.16,1.42a.94.94,0,0,0,.06.6,1,1,0,0,0,.85.52" fill="#1a131b"/>
    <polygon points="28.25 4.17 28.62 6.34 29.3 6.52 29.94 4.21 29.48 4.08 28.98 5.9 28.61 3.85 27.89 3.65 27.26 5.96 27.72 6.09 28.25 4.17" fill="#1a131b"/>
    <path d="M31,7.28a2.5,2.5,0,0,0,.85.24l.49-1.1L31.43,6l-.17.37.43.19L31.48,7a1.23,1.23,0,0,1-.37-.12.7.7,0,0,1-.44-.42,1,1,0,0,1,.09-.67c.15-.34.48-.79,1-.55a.48.48,0,0,1,.29.34.45.45,0,0,1,0,.25l.49.21a.7.7,0,0,0,.05-.52A1.07,1.07,0,0,0,31.94,5a1.2,1.2,0,0,0-1.69.67,1.26,1.26,0,0,0-.07,1,1.3,1.3,0,0,0,.8.71" fill="#1a131b"/>
    <polygon points="33.85 8.87 34.98 7.21 35.57 7.61 35.79 7.28 34.18 6.18 33.96 6.51 34.55 6.92 33.42 8.57 33.85 8.87" fill="#1a131b"/>
    <path d="M34.76,9.54l.47-.28.72.63-.21.5.39.34.95-2.36L36.62,8,34.39,9.21Zm1.77-1-.42,1-.52-.45Z" fill="#1a131b"/>
    <rect x="36.3" y="10.2" width="2.41" height="0.52" transform="translate(3 28.5) rotate(-43.19)" fill="#1a131b"/>
    <path d="M32.53,33.63a10.9,10.9,0,0,0-9,2.17,10.9,10.9,0,0,0-9-2.17.23.23,0,0,0-.19.26.24.24,0,0,0,.27.19,10.36,10.36,0,0,1,8.75,2.19.24.24,0,0,0,.16.07.26.26,0,0,0,.16-.07,10.31,10.31,0,0,1,8.74-2.19.23.23,0,0,0,.27-.19.23.23,0,0,0-.18-.26" fill="#1a131b"/>
    <path d="M32.53,34.76a10.69,10.69,0,0,0-9,2.32,10.67,10.67,0,0,0-9-2.32.23.23,0,0,0-.19.27.24.24,0,0,0,.27.18,10.13,10.13,0,0,1,8.74,2.34.23.23,0,0,0,.17.07.2.2,0,0,0,.16-.07,10.13,10.13,0,0,1,8.74-2.34.23.23,0,1,0,.09-.45" fill="#1a131b"/>
    <polygon points="6.28 13.56 6.84 13.88 6.34 14.77 6.68 14.96 7.18 14.07 7.68 14.35 7.14 15.3 7.49 15.5 8.27 14.1 6.18 12.92 5.38 14.35 5.72 14.55 6.28 13.56" fill="#1a131b"/>
    <path d="M5.4,17.45a1.11,1.11,0,0,0,1,0,1.43,1.43,0,0,0,.51-.68l.3-.74L5,15.11l-.27.7a2.42,2.42,0,0,0-.14.41,1.09,1.09,0,0,0,.81,1.23m-.3-1.52a1.08,1.08,0,0,1,.08-.19l1.49.6a1.48,1.48,0,0,1-.23.49.7.7,0,0,1-.85.13A1,1,0,0,1,5,16.51a.74.74,0,0,1,.06-.58" fill="#1a131b"/>
    <path d="M4.38,20.09l1.46.34L6,19.94l-1.39-.33a.67.67,0,0,1-.38-.16.53.53,0,0,1-.1-.5c.11-.49.44-.44.69-.38l1.42.34.12-.5-1.39-.33a1,1,0,0,0-.61,0,1,1,0,0,0-.61.78.94.94,0,0,0,.68,1.24" fill="#1a131b"/>
    <path d="M4,22.83l0-.54a.42.42,0,0,1-.42-.47c0-.5.72-.44.87-.43.49.05.87.24.84.62a.4.4,0,0,1-.45.35l-.05.52a.8.8,0,0,0,.87-.82,1.11,1.11,0,0,0-1.16-1.2,1.06,1.06,0,0,0-1.3,1,.93.93,0,0,0,.21.72.79.79,0,0,0,.54.26" fill="#1a131b"/>
    <path d="M5.62,24.11l-2.45-.74,0,.49.53.15,0,.95-.51.2,0,.52,2.36-1Zm-1.46.7,0-.68,1,.3Z" fill="#1a131b"/>
    <polygon points="5.62 27.49 6.01 27.43 5.69 25.51 5.3 25.57 5.41 26.28 3.44 26.6 3.52 27.11 5.5 26.79 5.62 27.49" fill="#1a131b"/>
    <rect x="3.84" y="28.17" width="2.41" height="0.51" transform="translate(-7.09 2.23) rotate(-14.79)" fill="#1a131b"/>
    <path d="M6.11,31.48a1.31,1.31,0,0,0,.74-.61,1.19,1.19,0,0,0-1.61-1.52,1.36,1.36,0,0,0-.74.6,1.2,1.2,0,0,0,0,.91,1.13,1.13,0,0,0,.63.68,1.46,1.46,0,0,0,1-.06m-.88-.41a.46.46,0,0,1-.37-.34.49.49,0,0,1,0-.47,1.1,1.1,0,0,1,.56-.41,1.17,1.17,0,0,1,.72-.09.56.56,0,0,1,.35.34.57.57,0,0,1-.2.67,1.32,1.32,0,0,1-.38.21,1.13,1.13,0,0,1-.7.09" fill="#1a131b"/>
    <polygon points="8.28 32.96 6.63 33.91 7.83 32.18 7.46 31.54 5.37 32.73 5.61 33.15 7.34 32.16 6.08 33.96 6.43 34.58 8.51 33.38 8.28 32.96" fill="#1a131b"/>
    <path d="M9.84,35.12l-2.37.93.32.37.51-.21.62.71-.27.48.34.39,1.26-2.21Zm-.71,1.45-.45-.52,1-.4Z" fill="#1a131b"/>
    <polygon points="12.39 37.59 11.16 39.03 11.7 37.01 11.13 36.53 9.58 38.36 9.95 38.67 11.24 37.15 10.66 39.27 11.2 39.73 12.75 37.9 12.39 37.59" fill="#1a131b"/>
    <path d="M13.91,38.68l-.67-.42-1.26,2,.63.4a2,2,0,0,0,.38.2,1.1,1.1,0,0,0,1.36-.57,1.15,1.15,0,0,0,.15-1,1.47,1.47,0,0,0-.59-.62m0,1.36a1,1,0,0,1-.54.46.69.69,0,0,1-.56-.16l-.17-.11.85-1.36a1.67,1.67,0,0,1,.44.31.69.69,0,0,1,0,.86" fill="#1a131b"/>
    <path d="M17.45,40.39A1.11,1.11,0,0,0,16,41.2a1.07,1.07,0,0,0,.62,1.51,1,1,0,0,0,.75,0,.78.78,0,0,0,.39-.46l-.51-.18a.41.41,0,0,1-.56.27c-.47-.17-.23-.81-.19-.94.17-.47.46-.79.82-.66a.4.4,0,0,1,.22.53l.49.18a.8.8,0,0,0-.56-1" fill="#1a131b"/>
    <path d="M20,42.6a.67.67,0,0,1-.16.38.51.51,0,0,1-.5.11c-.49-.1-.44-.43-.39-.69L19.29,41l-.51-.11-.29,1.4a.88.88,0,0,0,.79,1.2.94.94,0,0,0,1.23-.7l.31-1.47-.49-.1Z" fill="#1a131b"/>
    <polygon points="22 41.41 21.48 41.37 21.3 43.76 22.85 43.87 22.88 43.47 21.85 43.39 22 41.41" fill="#1a131b"/>
    <polygon points="24.97 41.44 23.03 41.49 23.04 41.88 23.75 41.87 23.81 43.87 24.32 43.85 24.27 41.85 24.98 41.83 24.97 41.44" fill="#1a131b"/>
    <path d="M27.48,41.06l-.5.09.23,1.41a.79.79,0,0,1,0,.42.55.55,0,0,1-.43.28c-.49.08-.57-.24-.61-.5l-.24-1.44-.51.08.24,1.42a1,1,0,0,0,.21.56,1.05,1.05,0,0,0,1,.27.94.94,0,0,0,.89-1.11Z" fill="#1a131b"/>
    <path d="M30.53,42.47a3.63,3.63,0,0,1-.21-.42c-.14-.28-.22-.47-.58-.4a.59.59,0,0,0,.3-.71.63.63,0,0,0-.34-.38,1.07,1.07,0,0,0-.74.07l-.88.28.73,2.29.5-.16-.3-.92.43-.14c.09,0,.21-.07.29.05s.32.64.38.76l.54-.17a.41.41,0,0,1-.12-.15m-1-1a.41.41,0,0,1-.23.14l-.4.13-.2-.65L29,41a.56.56,0,0,1,.34,0,.34.34,0,0,1,.2.22.34.34,0,0,1,0,.31" fill="#1a131b"/>
    <polygon points="31.7 41.73 31.43 41.14 32.36 40.71 32.19 40.35 31.27 40.78 31.02 40.27 32.02 39.8 31.85 39.45 30.39 40.13 31.4 42.31 32.9 41.61 32.73 41.25 31.7 41.73" fill="#1a131b"/>
    <path d="M35.43,39.06a.43.43,0,0,1-.08.63c-.4.29-.8-.26-.89-.38-.29-.4-.4-.81-.09-1a.42.42,0,0,1,.57.11l.42-.31A.81.81,0,0,0,34.17,38,1.11,1.11,0,0,0,34,39.63a1.07,1.07,0,0,0,1.6.33.93.93,0,0,0,.41-.63.82.82,0,0,0-.16-.59Z" fill="#1a131b"/>
    <polygon points="36.3 36.14 36.96 36.83 36.31 37.46 35.64 36.77 35.27 37.13 36.94 38.86 37.31 38.5 36.58 37.74 37.24 37.11 37.97 37.87 38.34 37.51 36.67 35.78 36.3 36.14" fill="#1a131b"/>
    <path d="M37.5,34.79,38.86,37l.3-.39-.3-.46.59-.75.51.19.32-.41-2.41-.82Zm1.56.43-.42.54-.59-.91Z" fill="#1a131b"/>
    <path d="M41.48,32.79,41,32.62c-.29-.12-.48-.2-.69.1a.61.61,0,0,0-.26-.73.6.6,0,0,0-.51,0,1,1,0,0,0-.5.54l-.46.8,2.08,1.2L41,34l-.84-.49.23-.39c0-.07.1-.18.24-.15s.66.26.79.3l.28-.49a.44.44,0,0,1-.18,0M40,33l-.21.36L39.2,33l.17-.3c.08-.14.13-.22.22-.26a.3.3,0,0,1,.3,0,.33.33,0,0,1,.17.26A.4.4,0,0,1,40,33" fill="#1a131b"/>
    <rect x="40.72" y="30.21" width="0.51" height="2.41" transform="translate(-4.54 55.79) rotate(-65.65)" fill="#1a131b"/>
    <polygon points="41.2 28.55 40.82 28.42 40.19 30.26 40.57 30.39 40.8 29.71 42.7 30.36 42.86 29.87 40.97 29.22 41.2 28.55" fill="#1a131b"/>
    <polygon points="41.32 26.13 41.22 26.65 42.19 27.36 41.02 27.63 40.9 28.22 42.54 27.73 43.4 27.91 43.5 27.41 42.65 27.23 41.32 26.13" fill="#1a131b"/>
    <polygon points="41.89 23.24 41.49 23.23 41.42 25.17 41.82 25.19 41.84 24.47 43.84 24.54 43.86 24.03 41.86 23.96 41.89 23.24" fill="#1a131b"/>
    <path d="M42.56,21.35a.59.59,0,0,0-.63-.45.58.58,0,0,0-.44.25,1,1,0,0,0-.1.74l.08.91,2.4-.21,0-.52-1,.08,0-.45a.23.23,0,0,1,.12-.27c.09,0,.68-.16.81-.2l-.05-.57a.31.31,0,0,1-.16.09,2.8,2.8,0,0,1-.46.12c-.31.07-.51.11-.51.48m-.75.91,0-.34a.58.58,0,0,1,0-.34.36.36,0,0,1,.55,0,.45.45,0,0,1,.09.25l0,.42Z" fill="#1a131b"/>
    <path d="M42.21,18l-1.46.35.11.48,1.4-.33a.76.76,0,0,1,.42,0,.53.53,0,0,1,.31.41c.11.48-.2.58-.46.64l-1.42.34.12.5,1.39-.33a1,1,0,0,0,.55-.26,1,1,0,0,0,.2-1A.94.94,0,0,0,42.21,18" fill="#1a131b"/>
    <path d="M41.09,16.44c0,.35.07.53-.14.61s-.36,0-.44-.24a.36.36,0,0,1,.19-.5l-.18-.46a.7.7,0,0,0-.36.29.89.89,0,0,0,0,.78c.25.62.67.75,1,.61s.43-.51.35-1.09c0-.31-.06-.46.14-.54s.37,0,.48.3a.39.39,0,0,1-.27.57l.2.49c.21-.09.76-.31.42-1.17-.24-.62-.7-.82-1.1-.67s-.39.6-.33,1" fill="#1a131b"/>
    <polygon points="40.07 15.57 39.72 14.94 41.48 13.97 41.23 13.52 39.47 14.49 39.13 13.86 38.78 14.05 39.72 15.76 40.07 15.57" fill="#1a131b"/>
  </g>
</svg>
