<svg xmlns="http://www.w3.org/2000/svg" viewBox="0 0 326.99 47.07">
  <title>logo2</title>
  <g>
    <polygon points="57.49 26.14 59.04 29.58 60.63 26.14 62.29 26.14 59.74 30.92 59.74 33.67 58.14 33.67 58.14 30.9 55.59 26.14 57.49 26.14" fill="#1a131b"/>
    <rect x="62.07" y="32.28" width="1.33" height="1.39" fill="#1a131b"/>
    <polygon points="65.19 26.12 66.84 26.12 66.84 32.38 70.08 32.38 70.08 33.67 65.19 33.67 65.19 26.12" fill="#1a131b"/>
    <rect x="71.31" y="32.28" width="1.33" height="1.39" fill="#1a131b"/>
    <polygon points="77.33 26.12 78.98 26.12 78.98 32.38 82.22 32.38 82.22 33.67 77.33 33.67 77.33 26.12" fill="#1a131b"/>
    <rect x="83.31" y="26.09" width="1.62" height="7.58" fill="#1a131b"/>
    <polygon points="86.6 26.11 88.94 26.11 91.77 32.06 91.77 26.11 93.28 26.11 93.28 33.67 91.05 33.67 88.13 27.4 88.13 33.67 86.6 33.67 86.6 26.11" fill="#1a131b"/>
    <polygon points="98.11 26.11 99.72 26.11 99.72 29.13 102.58 29.13 102.58 26.11 104.22 26.11 104.22 33.67 102.6 33.67 102.6 30.36 99.72 30.36 99.72 33.67 98.11 33.67 98.11 26.11" fill="#1a131b"/>
    <path d="M107.58,26.13v4.6c0,.83.07,1.86,1.64,1.86a1.69,1.69,0,0,0,1.47-.66,2.17,2.17,0,0,0,.24-1.28V26.13h1.58v4.72c0,2.24-1.79,3-3.32,3a3.26,3.26,0,0,1-2.84-1.3,3.18,3.18,0,0,1-.39-1.86V26.13Z" fill="#1a131b"/>
    <polygon points="114.35 26.11 116.69 26.11 119.53 32.06 119.53 26.11 121.03 26.11 121.03 33.67 118.81 33.67 115.88 27.4 115.88 33.67 114.35 33.67 114.35 26.11" fill="#1a131b"/>
    <path d="M127.78,28.43a1.39,1.39,0,0,0-.21-.76,1.45,1.45,0,0,0-1.26-.59c-1.84,0-2.21,1.72-2.21,2.88a3.05,3.05,0,0,0,.63,2,2.16,2.16,0,0,0,1.78.65,3.82,3.82,0,0,0,1.23-.14V30.9h-1.46V29.64h3.08v3.78a8,8,0,0,1-2.76.41,4.22,4.22,0,0,1-3.21-1,3.94,3.94,0,0,1-1-2.82,3.75,3.75,0,0,1,4-4.11,3.39,3.39,0,0,1,2.57,1,2.31,2.31,0,0,1,.54,1.58Z" fill="#1a131b"/>
    <polygon points="134.38 27.37 132.13 27.37 132.13 26.11 138.25 26.11 138.25 27.37 136.01 27.37 136.01 33.67 134.38 33.67 134.38 27.37" fill="#1a131b"/>
    <path d="M142.34,26.11,145,33.67h-1.63L142.79,32h-3l-.56,1.63h-1.55l2.73-7.56Zm0,4.7-1-3.21-1.12,3.21Z" fill="#1a131b"/>
    <rect x="146.07" y="26.09" width="1.62" height="7.58" fill="#1a131b"/>
    <polygon points="56.2 36.35 61.26 36.35 61.26 37.58 57.82 37.58 57.82 39.38 61.04 39.38 61.04 40.61 57.82 40.61 57.82 42.65 61.37 42.65 61.37 43.9 56.2 43.9 56.2 36.35" fill="#1a131b"/>
    <path d="M62.75,36.37h2.5a4.55,4.55,0,0,1,2.6.68,3.6,3.6,0,0,1,1.29,3c0,2.32-1.25,3.54-2.68,3.8a7.32,7.32,0,0,1-1.36.08H62.75Zm1.64,6.29.64,0a2.28,2.28,0,0,0,1.76-.52A3.27,3.27,0,0,0,67.47,40a2.17,2.17,0,0,0-1.38-2.33,5.53,5.53,0,0,0-1.7-.1Z" fill="#1a131b"/>
    <path d="M72.25,36.37V41c0,.83.06,1.87,1.64,1.87a1.71,1.71,0,0,0,1.47-.66,2.21,2.21,0,0,0,.24-1.29V36.37h1.57v4.71c0,2.25-1.78,3-3.31,3A3.27,3.27,0,0,1,71,42.74a3.17,3.17,0,0,1-.39-1.86V36.37Z" fill="#1a131b"/>
    <path d="M83.24,38.81c0-.26-.12-1.32-1.22-1.32s-1.7,1.25-1.7,2.81c0,.45,0,2.59,1.58,2.59a1.32,1.32,0,0,0,1.35-1.43H85a2.58,2.58,0,0,1-.68,1.77,3,3,0,0,1-2.21.85c-2.6,0-3.44-1.92-3.44-3.79,0-2.4,1.33-4,3.45-4a2.55,2.55,0,0,1,2.82,2.51Z" fill="#1a131b"/>
    <path d="M90.2,36.35l2.63,7.55H91.2l-.55-1.63h-3L87.1,43.9H85.55l2.73-7.55Zm0,4.7-1-3.22-1.12,3.22Z" fill="#1a131b"/>
    <polygon points="94.55 37.6 92.31 37.6 92.31 36.35 98.43 36.35 98.43 37.6 96.18 37.6 96.18 43.9 94.55 43.9 94.55 37.6" fill="#1a131b"/>
    <rect x="99.43" y="36.32" width="1.62" height="7.58" fill="#1a131b"/>
    <path d="M106,36.19a3.51,3.51,0,0,1,2.65,1,4.37,4.37,0,0,1,1,2.85,4.62,4.62,0,0,1-1,2.95,3.92,3.92,0,0,1-5.36,0,4.11,4.11,0,0,1-.93-2.82c0-2,.91-4,3.63-4m-1.37,6.1a1.53,1.53,0,0,0,1.37.61,1.55,1.55,0,0,0,1.41-.7A3.67,3.67,0,0,0,108,40a4.24,4.24,0,0,0-.19-1.34,1.74,1.74,0,0,0-1.72-1.34,1.7,1.7,0,0,0-1.39.64,3.48,3.48,0,0,0-.56,2.19,3.47,3.47,0,0,0,.57,2.11" fill="#1a131b"/>
    <polygon points="110.7 36.35 113.04 36.35 115.87 42.29 115.87 36.35 117.37 36.35 117.37 43.9 115.15 43.9 112.22 37.63 112.22 43.9 110.7 43.9 110.7 36.35" fill="#1a131b"/>
    <polygon points="122.22 36.36 127.09 36.36 127.09 37.57 123.84 37.57 123.84 39.43 126.87 39.43 126.87 40.68 123.84 40.68 123.84 43.9 122.22 43.9 122.22 36.36" fill="#1a131b"/>
    <path d="M131.64,36.19a3.51,3.51,0,0,1,2.65,1,4.32,4.32,0,0,1,1,2.85A4.62,4.62,0,0,1,134.3,43a3.92,3.92,0,0,1-5.36,0,4.16,4.16,0,0,1-.93-2.82c0-2,.91-4,3.63-4m-1.37,6.1a1.54,1.54,0,0,0,1.37.61,1.53,1.53,0,0,0,1.41-.7,3.67,3.67,0,0,0,.51-2.17,4.24,4.24,0,0,0-.19-1.34,1.74,1.74,0,0,0-1.72-1.34,1.7,1.7,0,0,0-1.39.64,3.48,3.48,0,0,0-.55,2.19,3.46,3.46,0,0,0,.56,2.11" fill="#1a131b"/>
    <path d="M137.92,36.37V41c0,.83.06,1.87,1.64,1.87a1.7,1.7,0,0,0,1.46-.66,2.13,2.13,0,0,0,.24-1.29V36.37h1.58v4.71c0,2.25-1.79,3-3.31,3a3.27,3.27,0,0,1-2.84-1.31,3.17,3.17,0,0,1-.39-1.86V36.37Z" fill="#1a131b"/>
    <polygon points="144.69 36.35 147.03 36.35 149.86 42.29 149.86 36.35 151.37 36.35 151.37 43.9 149.14 43.9 146.22 37.63 146.22 43.9 144.69 43.9 144.69 36.35" fill="#1a131b"/>
    <path d="M153,36.37h2.5a4.57,4.57,0,0,1,2.6.68,3.59,3.59,0,0,1,1.28,3c0,2.32-1.24,3.54-2.67,3.8a7.39,7.39,0,0,1-1.36.08H153Zm1.64,6.29.64,0a2.26,2.26,0,0,0,1.75-.52,3.21,3.21,0,0,0,.68-2.14,2.16,2.16,0,0,0-1.38-2.33,5.42,5.42,0,0,0-1.69-.1Z" fill="#1a131b"/>
    <path d="M164.42,36.35,167,43.9h-1.63l-.54-1.63h-3l-.56,1.63h-1.55l2.73-7.55Zm0,4.7-1-3.22-1.12,3.22Z" fill="#1a131b"/>
    <polygon points="168.77 37.6 166.52 37.6 166.52 36.35 172.64 36.35 172.64 37.6 170.4 37.6 170.4 43.9 168.77 43.9 168.77 37.6" fill="#1a131b"/>
    <rect x="173.65" y="36.32" width="1.62" height="7.58" fill="#1a131b"/>
    <path d="M180.25,36.19a3.53,3.53,0,0,1,2.66,1,4.37,4.37,0,0,1,1,2.85,4.68,4.68,0,0,1-1,2.95,3.92,3.92,0,0,1-5.36,0,4.11,4.11,0,0,1-.93-2.82c0-2,.9-4,3.62-4m-1.37,6.1a1.54,1.54,0,0,0,1.37.61,1.53,1.53,0,0,0,1.41-.7,3.67,3.67,0,0,0,.51-2.17,4.51,4.51,0,0,0-.18-1.34,1.76,1.76,0,0,0-1.73-1.34,1.73,1.73,0,0,0-1.39.64,3.48,3.48,0,0,0-.55,2.19,3.46,3.46,0,0,0,.56,2.11" fill="#1a131b"/>
    <polygon points="184.91 36.35 187.25 36.35 190.09 42.29 190.09 36.35 191.59 36.35 191.59 43.9 189.36 43.9 186.44 37.63 186.44 43.9 184.91 43.9 184.91 36.35" fill="#1a131b"/>
    <path d="M59,17a12.09,12.09,0,0,1-2.65,4.17,16,16,0,0,0-1.45-1.07,8.65,8.65,0,0,0,2.37-3.53Zm4-.75H56V4h7ZM61.15,5.45H57.67V7.59h3.48Zm0,3.55H57.67v2.19h3.48Zm0,3.55H57.67v2.23h3.48Zm.26,4a14.63,14.63,0,0,1,2.1,3.1l-1.54.8a16.14,16.14,0,0,0-2-3.24ZM73,9.49H70.64V19c0,1-.23,1.5-.82,1.81a7.66,7.66,0,0,1-3,.36,6.7,6.7,0,0,0-.64-1.78c1,0,1.93,0,2.2,0s.43-.1.43-.41V11.81a19,19,0,0,1-4.62,6.25A8.13,8.13,0,0,0,63,16.75a17.38,17.38,0,0,0,5.21-7.26H63.47V7.79h5.37V3.28h1.8V7.79H73Z" fill="#1a131b"/>
    <path d="M91.47,4V21.09H89.74v-.92H77.2v1H75.54V4ZM89.74,5.41H77.2V18.74H89.74Zm-.55,10.33H86.53V17.3c0,.64-.15.86-.62,1a8.74,8.74,0,0,1-2.35.16,3.29,3.29,0,0,0-.39-1c.67,0,1.37,0,1.57,0s.27-.07.27-.25v-1.5H77.76V14.68H85V14h1.52v.64h2.66ZM87,12.22a14.24,14.24,0,0,1,1.88,1.72l-1,.74a10.7,10.7,0,0,0-.76-.82l-9.06.26L78,13.06c1.29,0,2.89,0,4.63,0v-.8h-4V8.3h4V7.59H78V6.52h4.67v-.8h1.5v.8h4.76V7.59H84.15V8.3h4.16v3.92Zm-5.78,5.92a9.2,9.2,0,0,0-1.54-1.82l1.15-.58a9,9,0,0,1,1.6,1.73Zm-1.17-8.3h2.58V9.12H80.07Zm2.58.8H80.07v.74h2.58Zm1.5-.8h2.7V9.12h-2.7Zm2.7.8h-2.7v.74h2.7ZM86.2,13l-.35-.29.72-.47H84.15V13Z" fill="#1a131b"/>
    <path d="M97.7,12.08A18.19,18.19,0,0,0,94.11,10l1-1.37a17.22,17.22,0,0,1,3.64,2Zm-3,7.6a51.6,51.6,0,0,0,3.69-6.19l1.33,1.21c-1,2-2.31,4.38-3.46,6.21ZM96.2,3.43a19.31,19.31,0,0,1,3.67,2l-1.06,1.5a16.73,16.73,0,0,0-3.63-2.17Zm13.86,17.7a10.06,10.06,0,0,0-.8-1.84c-6.89.84-7.77,1-8.36,1.27a18.78,18.78,0,0,0-.62-1.82c.41-.09.78-.54,1.25-1.27a27.17,27.17,0,0,0,2.4-4.51h-4V11.24h4.82V8.08h-4V6.36h4V3.22h1.85V6.36h4.16V8.08h-4.16v3.16h4.91V13H106.1A36.69,36.69,0,0,1,103,18.37l5.43-.58c-.47-.78-1-1.57-1.52-2.29l1.46-.7a23.51,23.51,0,0,1,3.34,5.51Z" fill="#1a131b"/>
    <path d="M123.47,3.28c0,.74,0,1.76-.13,2.91.27,2.44,1.46,10.23,8.27,13.26A5.37,5.37,0,0,0,130.29,21c-4.59-2.17-6.72-6.46-7.76-10a15.54,15.54,0,0,1-7.45,10.06,5.68,5.68,0,0,0-1.51-1.45c8-4.14,7.77-13.24,7.83-16.36Z" fill="#1a131b"/>
    <path d="M140.4,14.43c-.41-.69-1.21-1.84-1.91-2.79v9.47h-1.78V12.38a18.84,18.84,0,0,1-2.85,5.31,9.78,9.78,0,0,0-1-1.74A18.92,18.92,0,0,0,136.42,9h-3V7.32h3.3V3.2h1.78V7.32h2.65V9h-2.65v.39c.62.58,2.61,2.89,3.06,3.44ZM147.49,9a20.72,20.72,0,0,0,3.75,7.48,6.7,6.7,0,0,0-1.39,1.42,21.78,21.78,0,0,1-2.79-5.7v8.87h-1.82V12.36a19,19,0,0,1-3.71,6,8.29,8.29,0,0,0-1.05-1.66A18.81,18.81,0,0,0,144.91,9h-3V7.32h3.36V3.2h1.82V7.32h3.57V9Z" fill="#1a131b"/>
    <path d="M159.22,16.28c-2.09.86-4.34,1.74-6.07,2.42l-.61-1.85c.68-.22,1.49-.49,2.38-.8V9.62h-2.07V7.91h2.07V3.47h1.74V7.91h2V9.62h-2V15.4c.72-.23,1.49-.52,2.21-.8Zm9.76-5c-.21-.31-.48-.7-.84-1.15-7.22.47-8.12.57-8.73.8-.09-.35-.39-1.21-.58-1.7.43-.07.84-.46,1.41-1,.25-.23.68-.76,1.23-1.43h-2.58V5.11h3.77a19.92,19.92,0,0,0,1.23-1.95l1.87.63c-.29.44-.6.87-.92,1.32h5.49v1.6h-3a31.29,31.29,0,0,1,3.13,3.52Zm.06,8.13c0,.86-.17,1.23-.74,1.48a8.25,8.25,0,0,1-2.77.24,5.49,5.49,0,0,0-.43-1.43c.82,0,1.66,0,1.87,0s.33-.08.33-.31V17.06c-1.69.43-3.41.86-4.82,1.2L162,16.89c1.37-.29,3.36-.72,5.35-1.19V12.9h-5.41v2.76c0,1.77-.21,4.06-1.42,5.54a8.15,8.15,0,0,0-1.39-1.09,6.92,6.92,0,0,0,1.14-4.47V11.5H169ZM163.61,6.71a22.42,22.42,0,0,1-2,2.21l5.23-.29-1.07-1.17,1.09-.75Zm-.86,6.64a16.32,16.32,0,0,1,3.91,1.27L166,15.81a19.33,19.33,0,0,0-3.89-1.42Z" fill="#1a131b"/>
    <path d="M178.18,17.34c-2.05.62-4.22,1.25-5.92,1.74l-.33-1.68c.7-.16,1.52-.39,2.44-.63v-5.1h-2.05V10.09h2.05v-4h-2.21V4.45h6.14V6.07h-2.21v4h2v1.58h-2V16.3l1.87-.54Zm6.13-4.18c-.74,4.22-2.77,6.77-5.57,8a5.52,5.52,0,0,0-.8-1.19,7.44,7.44,0,0,0,3.21-2.5c-.43-.47-.94-1-1.43-1.46a9.15,9.15,0,0,1-.72.88,11.23,11.23,0,0,0-1-1,9.82,9.82,0,0,0,2.35-4.47l1.28.27c-.11.41-.23.8-.35,1.19h1.88l.25,0ZM183,8.67a10.28,10.28,0,0,1-3.59,3,5.56,5.56,0,0,0-1.06-1.16,9.33,9.33,0,0,0,3.42-2.3Zm.49-.69h-4.67V6.56h2.33a17.48,17.48,0,0,0-1.45-2.31l1.23-.66a13.13,13.13,0,0,1,1.56,2.25l-1.23.72h2.23V3.2h1.66V6.56h4.71V8h-4.71v4h-1.66Zm-2.73,6.37-.34.64c.49.45,1,1,1.45,1.41a10.82,10.82,0,0,0,.82-2Zm9.35,4h-1.56v2.8h-1.43v-2.8h-3a39.38,39.38,0,0,0,.8-4.08h-.44V13h2.59V11.56h1.43V13h1.36v1.29h-1.36v2.66h1.56ZM186.52,8a19.24,19.24,0,0,1,3.39,2.33l-1,1A24.09,24.09,0,0,0,185.56,9Zm.56,8.89V14.27h-.84c-.15.88-.33,1.82-.5,2.66ZM189,4.16c-.71.87-1.43,1.79-2,2.36L185.87,6a17,17,0,0,0,1.62-2.48Z" fill="#1a131b"/>
    <path d="M209.14,10.07v1.72H199a23.14,23.14,0,0,1-5.78,8.36,12.7,12.7,0,0,0-1.52-1.37,19.05,19.05,0,0,0,5.23-7h-4.8V10.07h5.52a24.9,24.9,0,0,0,.9-2.77l1.9.43c-.24.8-.49,1.58-.77,2.34ZM194.11,9h-1.78V5.21H200a12.14,12.14,0,0,0-.75-1.64L201.16,3a17.43,17.43,0,0,1,1,2.17h6.74V9h-1.84V6.87h-13Zm10.78,5.74c1.33,1.66,3.16,4,4,5.35l-1.64,1c-.23-.38-.53-.86-.84-1.35-7.81.66-8.77.76-9.43,1a17.94,17.94,0,0,0-.59-1.74,3.18,3.18,0,0,0,1.35-1.17,29.45,29.45,0,0,0,3.38-5.46l1.89.62a36.77,36.77,0,0,1-3.75,5.68l6.1-.47c-.67-.93-1.39-1.87-2-2.69Z" fill="#1a131b"/>
    <path d="M224.59,12a11.65,11.65,0,0,0,4.76,2.93,7.37,7.37,0,0,0-1.19,1.46,12.36,12.36,0,0,1-5.6-4.39h-4.92a16.07,16.07,0,0,1-5.14,4.55,4.86,4.86,0,0,0-1.35-1.21A15.09,15.09,0,0,0,215.41,12h-4V10.44h5.13a8.78,8.78,0,0,0,.8-1.34h-3.88V7.67H218c.17-.43.31-.82.45-1.25h-6V5h6.37c.11-.57.21-1.17.29-1.74l1.91.16c-.09.52-.19,1-.33,1.58h7.19V6.42h-7.56c-.14.43-.29.82-.45,1.25h7.25V9.1h-7.85c-.22.47-.45.9-.69,1.34h10.23V12Zm.68,3.2c-.54.59-1.15,1.23-1.76,1.8,1.47.7,2.89,1.44,3.85,2l-1,1.38a55.88,55.88,0,0,0-5.24-2.79v1.8c0,.84-.17,1.23-.78,1.46a8.93,8.93,0,0,1-2.79.24A5.21,5.21,0,0,0,217,19.6c.92,0,1.8,0,2,0s.35-.1.35-.31V17.94c-2.06.82-4.23,1.64-5.93,2.27l-.82-1.53c1.13-.35,2.65-.85,4.31-1.44a12,12,0,0,0-2-1.91l1.21-.94a9.85,9.85,0,0,1,2.07,1.87l-1.19,1c.8-.27,1.58-.55,2.36-.84V12.55h1.76v3.28l1,.43a24.1,24.1,0,0,0,1.74-2Z" fill="#1a131b"/>
    <path d="M247.43,8.49a22,22,0,0,1-2.24,7.5,9.28,9.28,0,0,0,3.63,3.57,6.6,6.6,0,0,0-1.29,1.57,10.76,10.76,0,0,1-3.46-3.42,12.7,12.7,0,0,1-4.33,3.49,9.28,9.28,0,0,0-1.08-1.64,10.35,10.35,0,0,0,4.44-3.65,24.18,24.18,0,0,1-1.57-4.74A13.85,13.85,0,0,1,240.38,13a10.07,10.07,0,0,0-1.13-1,17.83,17.83,0,0,1-2.85,2.55v.65c1.19-.12,2.42-.27,3.63-.41l0,1.54-3.65.45v2.56c0,.82-.16,1.27-.74,1.5a7,7,0,0,1-2.7.28,5.52,5.52,0,0,0-.55-1.55c.88,0,1.72,0,2,0s.33-.06.33-.27V17l-3.79.44-.19-1.62c1.09-.11,2.48-.25,4-.43V14.13a13.41,13.41,0,0,0,2-1.54h-2.6a21.16,21.16,0,0,1-2.26,1.51,10.67,10.67,0,0,0-1.25-1.39,16.41,16.41,0,0,0,4-2.79h-3.82V8.34h3.18V6.69h-2.4V5.15h2.4V3.24h1.68V5.15h1.89V6.32a19.38,19.38,0,0,0,1.33-2.61l1.68.49a20.55,20.55,0,0,1-2.32,4.14h2V9.86a22.94,22.94,0,0,0,2-6.64l1.84.29a29,29,0,0,1-.75,3.28h5.47v1.7Zm-11.85-.15H236a14,14,0,0,0,1.21-1.65h-1.66Zm3.47,3.24a10.08,10.08,0,0,0,1-1.66h-3.16c-.38.43-.77.84-1.16,1.23H238l.33-.1Zm3.64-3.09a26.3,26.3,0,0,0,1.48,5.45,21.15,21.15,0,0,0,1.39-5.45Z" fill="#1a131b"/>
    <path d="M267.74,6.62h-4.65A26.2,26.2,0,0,1,267,10l-1.54,1h.45v8.16c0,1-.29,1.47-1.05,1.7a16.91,16.91,0,0,1-3.81.22,6.23,6.23,0,0,0-.47-1.56c1.13.05,2.58.05,2.89,0s.47-.11.47-.41v-2c-3,.65-6,1.25-8.36,1.7L255,17.16c2.13-.29,5.59-.84,8.91-1.4V12.47h-9.22v1.8c0,2.19-.33,5.12-2.19,7.07a5,5,0,0,0-1.46-1.11c1.7-1.72,1.87-4.14,1.87-6V11h12.44A13.11,13.11,0,0,0,264.2,9.7c-9.72.43-10.8.45-11.54.72a12.19,12.19,0,0,0-.55-1.69,4.26,4.26,0,0,0,1.68-1c.28-.2.77-.61,1.35-1.13h-4.47V5h6.13c.59-.63,1.21-1.35,1.76-2l1.83.73c-.39.45-.78.88-1.21,1.31h8.56Zm-5.08,1.72c-.55-.43-1.07-.86-1.6-1.25l.78-.47h-4.3c-.78.72-1.56,1.38-2.34,2Zm-6.82,4.72a30.53,30.53,0,0,1,6.88,1.68L262.15,16a31.43,31.43,0,0,0-6.87-1.84Z" fill="#1a131b"/>
    <path d="M283.71,14a11,11,0,0,0,4.14,2.65,8.07,8.07,0,0,0-1.2,1.41A12.48,12.48,0,0,1,281.73,14h-5.81a12.65,12.65,0,0,1-1.72,2h3.57V14.47h1.84v1.46h3.86v1.45h-3.86v1.73h6.56v1.51H271.46V19.11h6.31V17.38H274V16.09a13.82,13.82,0,0,1-3.22,2.15,6.26,6.26,0,0,0-1.17-1.39A11.66,11.66,0,0,0,273.86,14h-4v-1.5h3.79v-6H270.8V4.94h2.83V3.24h1.82v1.7h6.64V3.26h1.85V4.94h2.79V6.42h-2.79v6h3.67V14Zm-8.26-6.45h6.64V6.42h-6.64Zm0,2.45h6.64V8.84h-6.64Zm0,2.5h6.64V11.28h-6.64Z" fill="#1a131b"/>
    <path d="M299.17,10.62V13h6.54v1.64h-6.54V19h7.48v1.66H289.89V19h7.35V14.62h-6.45V13h6.45V10.62h-4.09v-1a20.44,20.44,0,0,1-2.83,1.25,7.07,7.07,0,0,0-1.21-1.68c3.63-1.11,7.17-3.26,9-6.13l1.7.76c-.17.26-.33.51-.5.75a20.94,20.94,0,0,0,8.12,4.64,7.69,7.69,0,0,0-1.25,1.59,20.94,20.94,0,0,1-2.91-1.35v1.19Zm-5.41,4.2a15.62,15.62,0,0,1,1.84,3.38l-1.59.68a16.49,16.49,0,0,0-1.73-3.48Zm8.65-5.88a22.06,22.06,0,0,1-4.14-3.16,17.71,17.71,0,0,1-3.92,3.16Zm-1.76,9.37a17.88,17.88,0,0,0,1.9-3.49l1.75.64c-.74,1.23-1.6,2.56-2.26,3.44Z" fill="#1a131b"/>
    <path d="M319.12,3.69c-.1.11-.17.25-.29.37A18.87,18.87,0,0,0,327,7.87a7,7,0,0,0-1.15,1.38c-.47-.13-1-.29-1.46-.47v5.06H311.17V8.92c-.48.18-.95.33-1.44.47a7.08,7.08,0,0,0-1-1.39c3.54-.9,7-2.59,8.77-4.88Zm5.18,5.07a19.73,19.73,0,0,1-3.13-1.38v.56h-6.75V7.48a21.39,21.39,0,0,1-2.84,1.28Zm-12,5.86h11.13v6.43h-1.86v-.53h-7.48v.61h-1.79Zm2.65-4.55a8.34,8.34,0,0,1,1,2.15l-1.29.43H317V10h-4.23v2.69h1.87a8.43,8.43,0,0,0-.92-2.19ZM314.08,17h7.48V15.87h-7.48Zm7.48,1.25h-7.48v1.09h7.48ZM320,6.69a12.82,12.82,0,0,1-2.15-1.64,13.51,13.51,0,0,1-2.13,1.64ZM322.77,10h-4.33v2.69h2.19l-1.21-.37a14.29,14.29,0,0,0,1-2.29l1.53.43c-.43.84-.86,1.66-1.22,2.23h2.07Z" fill="#1a131b"/>
    <path d="M14.57,33.13A2.62,2.62,0,0,0,16,28.32a2.11,2.11,0,0,1,1.35.71.24.24,0,0,0,.34,0,2.18,2.18,0,0,1,1-.64l.07.13a2.67,2.67,0,0,0-.9,2,2.62,2.62,0,1,0,5.24,0V28.19A2.62,2.62,0,0,0,22.06,26a2.2,2.2,0,0,1,1.3.7.23.23,0,0,0,.34,0A2.17,2.17,0,0,1,25,26a2.61,2.61,0,0,0-1.1,2.14l0,2.32a2.63,2.63,0,1,0,4.34-2l.06-.11a1.93,1.93,0,0,1,1.07.65.23.23,0,0,0,.34,0,2.17,2.17,0,0,1,1.31-.7,2.63,2.63,0,0,0,1.51,4.77A2.66,2.66,0,0,0,35,30.5V16.69a.24.24,0,0,0-.16-.22A21.46,21.46,0,0,1,24.5,9.24l0,0V9.18H22.62v.09l-.05,0a21.26,21.26,0,0,1-10.38,7.23.23.23,0,0,0-.15.22V30.5a2.66,2.66,0,0,0,2.53,2.63m3-4.58a2.62,2.62,0,0,0-1.79-.71,3.1,3.1,0,0,0-.76.1.23.23,0,0,0,0,.45,2.16,2.16,0,0,1,1.73,2.11.41.41,0,0,1,0,.11,3.59,3.59,0,0,1,.81-7.09,3.7,3.7,0,0,1,.87.11A5.48,5.48,0,0,0,18.53,28a2.62,2.62,0,0,0-1,.58m13.82-5a4.11,4.11,0,0,0-1.85-.45,4,4,0,0,0-.91.11V16.69a.23.23,0,0,0-.12-.2c-2.68-1.46-3.82-4.57-4.24-6.17a14,14,0,0,0,7.12,6.53ZM21.7,16.69v3.78a5.55,5.55,0,0,0-2.76,2.15v-5.8A9.8,9.8,0,0,0,23.1,11.1a20.67,20.67,0,0,1-1.38,5.48.43.43,0,0,0,0,.11m.46,0a20.85,20.85,0,0,0,1.38-5.49,20.49,20.49,0,0,0,1.4,5.49v3.6a5.35,5.35,0,0,0-2.79,0Zm3.21-.16A20.35,20.35,0,0,1,24,11.13a9.79,9.79,0,0,0,4.15,5.69v5.86a5.52,5.52,0,0,0-2.75-2.19v-3.8a.22.22,0,0,0,0-.11m-6.77-.09a.21.21,0,0,0-.12.2v6.48a4.24,4.24,0,0,0-.94-.11,4,4,0,0,0-1.83.44V16.85a14,14,0,0,0,7.12-6.53c-.42,1.6-1.56,4.71-4.23,6.17m.48,12.42a5.06,5.06,0,0,0,.84.89,3.56,3.56,0,0,1-1.54.8v-.1a2.12,2.12,0,0,1,.7-1.59m1.46,3.76a2.17,2.17,0,0,1-2.09-1.61,4.06,4.06,0,0,0,1.83-1,5.49,5.49,0,0,0,2.35,1,2.18,2.18,0,0,1-2.09,1.59m3.82-4.48A2.16,2.16,0,0,1,26,26.08a.23.23,0,0,0,0-.45,6.82,6.82,0,0,0-.69-.07,2.62,2.62,0,0,0-1.79.71,2.62,2.62,0,0,0-1.79-.71,6.52,6.52,0,0,0-.68.07.23.23,0,0,0,0,.45,2.16,2.16,0,0,1,1.67,2.11V30.5s0,.08,0,.12a5,5,0,1,1,1.64,0,.49.49,0,0,1,0-.12Zm2.14,4.48a2.17,2.17,0,0,1-2.09-1.59,5.54,5.54,0,0,0,2.35-1,4.09,4.09,0,0,0,1.83,1,2.18,2.18,0,0,1-2.09,1.62m2.16-2.17v.1a3.52,3.52,0,0,1-1.53-.8,5.85,5.85,0,0,0,.82-.9,2.17,2.17,0,0,1,.71,1.6m3.4-2.12a.23.23,0,0,0,.19-.21.24.24,0,0,0-.17-.23,2.69,2.69,0,0,0-.7-.06H31.3a2.61,2.61,0,0,0-1.79.7,2.3,2.3,0,0,0-1-.59A5.39,5.39,0,0,0,29,25.65a5.46,5.46,0,0,0-.39-2,3.72,3.72,0,0,1,.88-.11,3.59,3.59,0,0,1,.83,7.08s0-.06,0-.1a2.18,2.18,0,0,1,1.73-2.12m2.52-11.53V30.5a2.21,2.21,0,0,1-2.08,2.17,2.17,2.17,0,0,1-2.09-1.61,4,4,0,0,0,1.41-7.27v-7.1a.24.24,0,0,0-.15-.22,13.43,13.43,0,0,1-6.94-6.2,22.43,22.43,0,0,0,9.85,6.58m-22.09,0a22.39,22.39,0,0,0,9.86-6.59,13.43,13.43,0,0,1-7,6.21.23.23,0,0,0-.14.22v7.08a4,4,0,0,0,1.4,7.29,2.16,2.16,0,0,1-2.09,1.61,2.21,2.21,0,0,1-2.08-2.17Z" fill="#1a131b"/>
    <path d="M23.54,39.81A16.27,16.27,0,1,0,7.27,23.54,16.29,16.29,0,0,0,23.54,39.81m0-32.08A15.81,15.81,0,1,1,7.73,23.54,15.82,15.82,0,0,1,23.54,7.73" fill="#1a131b"/>
    <path d="M23.54,1.21A22.33,22.33,0,1,0,45.86,23.54,22.36,22.36,0,0,0,23.54,1.21m0,44.19A21.87,21.87,0,1,1,45.4,23.54,21.89,21.89,0,0,1,23.54,45.4" fill="#1a131b"/>
    <path d="M23.54,0A23.54,23.54,0,1,0,47.07,23.54,23.57,23.57,0,0,0,23.54,0m0,46.62A23.08,23.08,0,1,1,46.62,23.54,23.11,23.11,0,0,1,23.54,46.62" fill="#1a131b"/>
    <polygon points="7.58 15.35 7.82 14.9 7.05 14.49 6.09 13.06 5.84 13.53 6.57 14.49 5.37 14.41 5.09 14.95 6.8 14.94 7.58 15.35" fill="#1a131b"/>
    <rect x="8.24" y="13.22" width="0.42" height="0.44" transform="translate(-7.42 12.97) rotate(-56.15)" fill="#1a131b"/>
    <polygon points="10.51 11.2 10.2 10.93 9.53 11.71 8.02 10.41 7.68 10.81 9.49 12.37 10.51 11.2" fill="#1a131b"/>
    <rect x="11.02" y="9.98" width="0.42" height="0.44" transform="matrix(0.74, -0.68, 0.68, 0.74, -3.94, 10.3)" fill="#1a131b"/>
    <polygon points="15.17 7.66 14.96 7.3 14.07 7.83 13.06 6.11 12.61 6.38 13.83 8.45 15.17 7.66" fill="#1a131b"/>
    <rect x="15.59" y="4.81" width="0.52" height="2.41" transform="translate(-1.08 6.88) rotate(-23.71)" fill="#1a131b"/>
    <polygon points="18.14 6.43 17.6 4.51 19.03 6.18 19.71 5.99 19.06 3.67 18.6 3.8 19.11 5.62 17.74 4.04 17.02 4.25 17.67 6.56 18.14 6.43" fill="#1a131b"/>
    <path d="M27,6a.94.94,0,0,0,1.22-.72l.29-1.47L28,3.7l-.28,1.41a.68.68,0,0,1-.16.39.52.52,0,0,1-.49.11c-.5-.1-.45-.42-.4-.68L27,3.5l-.5-.1-.28,1.4a1.15,1.15,0,0,0,0,.61A1.07,1.07,0,0,0,27,6" fill="#1a131b"/>
    <polygon points="30.39 4.82 30.51 7.01 31.17 7.28 32.06 5.04 31.61 4.87 30.91 6.62 30.78 4.53 30.09 4.26 29.2 6.49 29.65 6.67 30.39 4.82" fill="#1a131b"/>
    <path d="M33.2,8.5a2.7,2.7,0,0,0,.81.35l.64-1-.83-.52-.21.33.4.25-.27.43a1.32,1.32,0,0,1-.36-.17A.69.69,0,0,1,33,7.68,1,1,0,0,1,33.19,7c.19-.31.58-.71,1.08-.4a.48.48,0,0,1,.24.37.38.38,0,0,1-.08.24l.46.29A.76.76,0,0,0,35,7a1.12,1.12,0,0,0-.53-.69,1.19,1.19,0,0,0-1.76.44,1.19,1.19,0,0,0-.21.92,1.37,1.37,0,0,0,.69.82" fill="#1a131b"/>
    <polygon points="36.58 11.23 38.02 9.84 38.51 10.35 38.8 10.07 37.44 8.67 37.16 8.95 37.65 9.46 36.22 10.86 36.58 11.23" fill="#1a131b"/>
    <path d="M37.68,12.5l.53-.16.55.77-.31.45.3.42,1.46-2.09-.36-.49-2.45.7Zm2-.59-.64.87-.4-.56Z" fill="#1a131b"/>
    <rect x="39.21" y="14.27" width="2.41" height="0.51" transform="translate(-2.08 20.76) rotate(-28.11)" fill="#1a131b"/>
    <path d="M32.53,33.63a10.9,10.9,0,0,0-9,2.17,10.91,10.91,0,0,0-9-2.17.23.23,0,0,0-.19.26.24.24,0,0,0,.27.19,10.34,10.34,0,0,1,8.75,2.19.24.24,0,0,0,.16.07.26.26,0,0,0,.16-.07,10.29,10.29,0,0,1,8.74-2.19.23.23,0,0,0,.27-.19.23.23,0,0,0-.18-.26" fill="#1a131b"/>
    <path d="M32.53,34.76a10.66,10.66,0,0,0-9,2.32,10.67,10.67,0,0,0-9-2.32.23.23,0,0,0-.19.27.24.24,0,0,0,.27.18,10.13,10.13,0,0,1,8.74,2.34.23.23,0,0,0,.17.07.2.2,0,0,0,.16-.07,10.11,10.11,0,0,1,8.74-2.34.23.23,0,1,0,.09-.45" fill="#1a131b"/>
    <polygon points="23.08 4.55 23.99 4.55 23.99 5.6 24.5 5.6 24.5 3.2 23.98 3.2 23.98 4.16 23.08 4.16 23.08 3.2 22.56 3.2 22.56 5.6 23.08 5.6 23.08 4.55" fill="#1a131b"/>
    <path d="M4.88,27.76a1.09,1.09,0,0,0,.86-.56,1.41,1.41,0,0,0,.08-.85l-.13-.78L3.33,26l.12.74a2.58,2.58,0,0,0,.1.42,1.09,1.09,0,0,0,1.33.63m-.79-.62a.75.75,0,0,1-.26-.52,1.5,1.5,0,0,1,0-.2l1.58-.27a1.5,1.5,0,0,1,.06.53c0,.34-.32.5-.66.56a1,1,0,0,1-.7-.1" fill="#1a131b"/>
    <path d="M6.9,30.28l-1.34.5a.73.73,0,0,1-.41.07.54.54,0,0,1-.36-.36c-.17-.47.13-.61.37-.7l1.37-.51-.18-.48L5,29.3a1,1,0,0,0-.51.32,1,1,0,0,0-.08,1,.94.94,0,0,0,1.25.66l1.41-.52Z" fill="#1a131b"/>
    <path d="M6.39,33.85c-.26-.43.32-.78.45-.86.42-.25.85-.32,1,0a.4.4,0,0,1-.16.55L8,34a.82.82,0,0,0,.23-1.18,1.13,1.13,0,0,0-1.66-.29,1.07,1.07,0,0,0-.47,1.56.94.94,0,0,0,.59.46.78.78,0,0,0,.6-.1L7,34a.43.43,0,0,1-.61-.14" fill="#1a131b"/>
    <path d="M7.44,36l.32.37.51-.21.63.72-.28.47.34.39,1.26-2.21-.4-.46Zm1.66.53L8.65,36l1-.41Z" fill="#1a131b"/>
    <polygon points="12.74 37.88 11.25 36.63 10.99 36.93 11.54 37.39 10.25 38.92 10.64 39.26 11.94 37.72 12.48 38.19 12.74 37.88" fill="#1a131b"/>
    <rect x="12.08" y="39.43" width="2.41" height="0.51" transform="translate(-27.33 29.6) rotate(-57.55)" fill="#1a131b"/>
    <path d="M16.32,39.9a1.13,1.13,0,0,0-1.58.71,1.3,1.3,0,0,0-.09.94,1.2,1.2,0,0,0,.65.64,1.11,1.11,0,0,0,.91,0,1.48,1.48,0,0,0,.66-.73,1.39,1.39,0,0,0,.09-1,1.12,1.12,0,0,0-.64-.64m.06,1.36a1.12,1.12,0,0,1-.43.57.51.51,0,0,1-.5,0,.53.53,0,0,1-.32-.35,1.18,1.18,0,0,1,.11-.69,1.14,1.14,0,0,1,.44-.57.58.58,0,0,1,.82.61,1.17,1.17,0,0,1-.12.41" fill="#1a131b"/>
    <polygon points="19.67 42.99 19.22 40.94 18.49 40.78 17.95 43.12 18.43 43.23 18.87 41.28 19.33 43.44 20.02 43.59 20.56 41.25 20.09 41.15 19.67 42.99" fill="#1a131b"/>
    <path d="M28.05,41.2a1.18,1.18,0,0,0-1.76,1.34,1.26,1.26,0,0,0,.47.82,1.18,1.18,0,0,0,.9.15,1.13,1.13,0,0,0,.76-.51,1.46,1.46,0,0,0,.11-1,1.37,1.37,0,0,0-.48-.82M28,42.83a.47.47,0,0,1-.39.31.5.5,0,0,1-.47-.1,1.41,1.41,0,0,1-.28-1.34.57.57,0,0,1,1,0,1.48,1.48,0,0,1,.14.4,1.17,1.17,0,0,1,0,.71" fill="#1a131b"/>
    <path d="M31.33,39.73l-.46.19.55,1.32a.68.68,0,0,1,.08.41.53.53,0,0,1-.34.37c-.47.19-.61-.1-.71-.35l-.56-1.35-.48.2L30,41.85a1.09,1.09,0,0,0,.34.5,1,1,0,0,0,1,0,.94.94,0,0,0,.62-1.27Z" fill="#1a131b"/>
    <polygon points="33.92 38.17 34.96 39.74 33.17 38.66 32.55 39.08 33.88 41.08 34.28 40.81 33.18 39.15 35.06 40.3 35.65 39.91 34.32 37.9 33.92 38.17" fill="#1a131b"/>
    <path d="M36.65,36.11a1.46,1.46,0,0,0-.74.42l-.58.55L37,38.8l.54-.52a2,2,0,0,0,.29-.32,1.1,1.1,0,0,0-.23-1.46,1.17,1.17,0,0,0-1-.39m.6,1.91-.15.13L36,37a1.42,1.42,0,0,1,.41-.35.69.69,0,0,1,.83.22,1.07,1.07,0,0,1,.32.64.77.77,0,0,1-.29.51" fill="#1a131b"/>
    <path d="M37.91,34.27l1.44,2.11.28-.4-.31-.45.55-.77.53.16.3-.42-2.44-.73Zm1.57.37-.4.55-.62-.88Z" fill="#1a131b"/>
    <polygon points="40.33 30.97 39.97 30.79 39.09 32.52 39.44 32.7 39.77 32.07 41.55 32.98 41.79 32.52 40 31.61 40.33 30.97" fill="#1a131b"/>
    <rect x="41.34" y="28.64" width="0.51" height="2.41" transform="translate(-0.25 59.33) rotate(-70.83)" fill="#1a131b"/>
    <path d="M42.53,26a1.34,1.34,0,0,0-1,.13,1.09,1.09,0,0,0-.47.77,1.13,1.13,0,0,0,1,1.37,1.29,1.29,0,0,0,.93-.13,1.1,1.1,0,0,0,.48-.77,1.13,1.13,0,0,0-.17-.9,1.43,1.43,0,0,0-.87-.47m.67,1.29a.51.51,0,0,1-.27.4,1.16,1.16,0,0,1-.69.05,1.13,1.13,0,0,1-.65-.3.53.53,0,0,1-.12-.48.57.57,0,0,1,.52-.46,1.48,1.48,0,0,1,.43,0,1.26,1.26,0,0,1,.65.29.48.48,0,0,1,.13.48" fill="#1a131b"/>
    <polygon points="23.25 43.88 23.77 43.88 23.77 42.85 24.73 42.85 24.73 42.45 23.77 42.45 23.77 41.86 24.8 41.86 24.8 41.48 23.25 41.48 23.25 43.88" fill="#1a131b"/>
    <polygon points="3.61 23.2 4.26 23.2 4.26 24.22 4.65 24.22 4.65 23.2 5.22 23.2 5.22 24.29 5.62 24.29 5.62 22.68 3.21 22.68 3.21 24.32 3.61 24.32 3.61 23.2" fill="#1a131b"/>
    <polygon points="43.87 22.67 41.46 22.67 41.46 23.16 43.46 23.16 41.46 24.09 41.46 24.8 43.87 24.8 43.87 24.32 41.97 24.32 43.87 23.42 43.87 22.67" fill="#1a131b"/>
  </g>
</svg>
