<svg xmlns="http://www.w3.org/2000/svg" xmlns:xlink="http://www.w3.org/1999/xlink" viewBox="0 0 917.83 532.66">
  <defs>
    <style>
      .a, .aa, .af, .aj, .al, .h, .j, .k, .m, .r, .v, .x, .y {
        fill: none;
      }

      .b {
        isolation: isolate;
      }

      .c {
        clip-path: url(#a);
      }

      .ac, .ag, .ai, .an, .d, .l, .w {
        fill: #f2f2f2;
      }

      .e, .n {
        fill: #ccc;
      }

      .e, .h, .i, .j, .k, .l {
        stroke: gray;
      }

      .e, .i {
        stroke-miterlimit: 10;
      }

      .f {
        fill: gray;
      }

      .aq, .g {
        fill: #fff;
      }

      .aa, .ab, .ac, .ad, .ae, .af, .ag, .ai, .aj, .ak, .al, .am, .an, .ao, .aq, .h, .j, .k, .l, .m, .p, .q, .r, .s, .t, .u, .v, .w, .x, .y, .z {
        stroke-linecap: round;
        stroke-linejoin: round;
      }

      .ai, .aj, .ak, .h {
        stroke-width: 2px;
      }

      .ae, .ao, .i, .o {
        fill: #231815;
      }

      .j, .l, .r, .s, .w {
        stroke-width: 2.21px;
      }

      .k {
        stroke-width: 2.08px;
      }

      .m {
        stroke: #fff;
      }

      .aa, .m {
        stroke-width: 3px;
      }

      .n {
        mix-blend-mode: multiply;
      }

      .p, .q {
        fill: #040000;
      }

      .ag, .p, .q, .r, .s, .t, .u, .v, .w {
        stroke: #000;
      }

      .p {
        stroke-width: 2.47px;
      }

      .q, .v {
        stroke-width: 2.28px;
      }

      .t {
        stroke-width: 2px;
      }

      .u {
        fill: #060001;
        stroke-width: 2.58px;
      }

      .aa, .ab, .ac, .ad, .ae, .af, .ai, .aj, .ak, .al, .am, .an, .ao, .aq, .x, .y, .z {
        stroke: #231815;
      }

      .x, .z {
        stroke-width: 1.97px;
      }

      .y {
        stroke-width: 4px;
      }

      .ak, .z {
        fill: #221714;
      }

      .ab, .ah {
        fill: #f6e105;
      }

      .ab, .ac, .ad, .ae, .af {
        stroke-width: 2.9px;
      }

      .ad, .am, .ap {
        fill: #f5f1df;
      }

      .ag {
        stroke-width: 2.57px;
      }

      .al, .am, .an, .ao, .aq {
        stroke-width: 2.5px;
      }
    </style>
    <clipPath id="a">
      <rect class="a" x="0.28" width="916" height="533" rx="142" ry="142"/>
    </clipPath>
  </defs>
  <title>q5</title>
  <g class="b">
    <g class="c">
      <rect class="d" x="0.28" width="916" height="533" rx="142" ry="142"/>
      <polygon class="e" points="-21.5 378.7 378.93 257.92 600.21 257.92 953.45 370.08 953.45 533 -21.5 533 -21.5 378.7"/>
      <path class="f" d="M72.67,348.54l76.6-23.28,38.3-11.62,38.4-11.3,153.57-45.25a1,1,0,0,1,.29,0H600a1.45,1.45,0,0,1,.3,0L770,310.83l84.84,26.86L876,344.4l21.15,6.89,42.31,13.79-.14,0,53.51.45-53.51.45-.13,0h0l-42.54-13.08-21.26-6.54-21.21-6.72-84.84-26.87L599.67,259l.3.05H379.83l.28,0L226.53,304.25l-38.39,11.32-38.49,11Z"/>
      <path class="f" d="M855.19,337.32,854,307.54l-.14-3.73c0-1.24,0-2.48,0-3.72,0-2.48-.06-5,0-7.45l.23-14.89c.19-9.94.12-19.86.18-29.79l.08-29.78.05-14.9-.06-14.89c-.06-9.92-.06-19.85-.19-29.78s-.28-19.86-.27-29.79L853.89,99a1,1,0,0,1,.76-1l43.49-10.5L909,85c3.63-.85,7.25-1.75,10.91-2.47L941.85,78h0a.42.42,0,0,1,.27,0l16.19,8.22-16.57-7.42.29,0L920.38,84.4c-3.61,1-7.25,1.74-10.88,2.58l-10.9,2.53L855.12,100l.77-1-.08,29.78c0,9.93.18,19.86.27,29.79s.13,19.86.19,29.79l.06,14.89-.05,14.9L856.2,248c-.06,9.93,0,19.86-.18,29.79l-.18,14.89c-.11,5-.44,9.92-.4,14.88Z"/>
      <path class="f" d="M854.74,144.8c-8.16.16-16.3.2-24.45.29l.9-.88c.06,2,.15,4,.12,6l0,6.06,0,12.11c0,8.07-.11,16.14-.18,24.21s-.21,16.15-.1,24.22l.17,24.21-1-1,24.62,1.32h-.12L894.82,239c3.34-.29,6.68-.53,10-.85s6.69-.35,10-.53c6.7-.32,13.4-.66,20.1-.93-6.66.84-13.32,1.6-20,2.38-3.34.36-6.67.81-10,1.12s-6.69.53-10,.8L854.8,243.4h-.11l-24.62-1.33a1,1,0,0,1-.94-1L829,216.86c-.11-8.08,0-16.15.1-24.22s.19-16.15.18-24.22l0-12.11v-6.05c0-2,.09-4,.15-6.06v-.06a.85.85,0,0,1,.88-.82h0C838.46,143.81,846.6,144.24,854.74,144.8Z"/>
      <path class="f" d="M869.08,267.18c.41,3.18.7,6.35,1,9.52l0,9.52,0,19-.24,19-.12,9.52c-.34,3.16-.68,6.33-1.12,9.5-.36-3.18-.61-6.35-.88-9.53l.12-9.51.24-19,0-19V276.7C868.35,273.53,868.65,270.36,869.08,267.18Z"/>
      <path class="f" d="M876.63,267.18c.35,2.82.58,5.64.81,8.45l-.21,8.42-.4,16.85.45,16.85.22,8.42c-.23,2.81-.46,5.63-.78,8.45-.48-2.8-.85-5.6-1.22-8.41l-.22-8.43-.45-16.88.4-16.87.19-8.43C875.78,272.79,876.14,270,876.63,267.18Z"/>
      <path class="f" d="M854.91,260.19c3.32-.56,6.65-1,10-1.43l10-.42,20-.84,20-.67,10-.33c3.35.19,6.69.37,10,.66-3.32.52-6.65.92-10,1.34l-10,.33-20,.67-20,.84-10,.43C861.62,260.62,858.27,260.46,854.91,260.19Z"/>
      <path class="f" d="M859.72,267.63c3.15-.56,6.31-1,9.47-1.43l9.51-.4,19-.83,19-.34,9.52-.17c3.18.25,6.36.48,9.54.83-3.17.46-6.33.81-9.5,1.17l-9.52.17-19,.33-19,.84-9.51.42C866.09,268.06,862.9,267.9,859.72,267.63Z"/>
      <path class="f" d="M939.32,319.39q-2.31.84-4.62,1.62l-2.33.75a12,12,0,0,1-2.35.63l-9.51,2-19,4,.79-1v15.09c0,.51,0,1,0,1.51a12.87,12.87,0,0,1-.15,1.51c-.26,2-.54,4-.87,6-.34-2-.62-4-.87-6a11,11,0,0,1-.15-1.51c0-.5,0-1,0-1.51V327.44a1,1,0,0,1,.79-1l19-4,9.51-2A12.11,12.11,0,0,1,932,320l2.43-.25C936.06,319.64,937.69,319.5,939.32,319.39Z"/>
      <path class="f" d="M918.45,124.4c-4.67,1.39-9.37,2.7-14.07,4-2.33.71-4.74,1.08-7.11,1.64l-7.13,1.55-28.59,5.94.69-.52-3.8,7.45L857.37,143l31.67-6,15.72-3.52c5.31-.86,10.6-1.79,15.93-2.59-5.15,1.57-10.34,3-15.52,4.51L889.44,139l-31.7,6a1,1,0,0,1-1.17-.8,1,1,0,0,1,.09-.64l3.79-7.45a1,1,0,0,1,.69-.52l28.58-5.94,7.13-1.56c2.39-.48,4.73-1.15,7.15-1.47C908.81,125.84,913.62,125.08,918.45,124.4Z"/>
      <path class="f" d="M862.6,143.35c.43,3.69.77,7.38,1.1,11.07.24,1.84.12,3.69.19,5.54l.09,5.54-1.14-1,29-4.25,28.83-5-.82,1,0-5c0-.84-.07-1.67,0-2.51l.18-2.5c.24-3.34.44-6.68.74-10,.34,3.34.59,6.67.87,10l.2,2.5c.08.83,0,1.67,0,2.5l0,5a1,1,0,0,1-.83,1l-28.87,5-29,4.25a1,1,0,0,1-1.14-.85s0-.09,0-.13l-.09-5.54c0-1.84-.18-3.69,0-5.54C862.09,150.75,862.31,147.05,862.6,143.35Z"/>
      <path class="f" d="M862.57,165.7a12.15,12.15,0,0,1,1.87.21c.4.34.82.66,1.23,1l2.49,2,2.48,2,1.24,1a12.83,12.83,0,0,1,.62,1.78,13.68,13.68,0,0,1-1.87-.22l-1.24-1-2.48-2-2.49-2c-.41-.33-.82-.67-1.24-1A10.93,10.93,0,0,1,862.57,165.7Z"/>
      <path class="f" d="M872.76,141.89a24.24,24.24,0,0,1,1.06,2.64c0,.89,0,1.77,0,2.66l.1,5.32.1,5.32.05,2.66a25.85,25.85,0,0,1-1,2.67c-.41-.87-.72-1.76-1-2.64l-.05-2.66-.1-5.31-.1-5.32c0-.89,0-1.77-.06-2.66A24.66,24.66,0,0,1,872.76,141.89Z"/>
      <path class="f" d="M892.51,138a23.67,23.67,0,0,1,.91,2.69c0,.89-.07,1.77-.11,2.66l-.2,5.32-.19,5.32-.1,2.66c-.34.87-.67,1.75-1.1,2.62-.37-.9-.63-1.8-.9-2.7l.1-2.66.2-5.32.19-5.31c0-.89.08-1.78.09-2.66A23.61,23.61,0,0,1,892.51,138Z"/>
      <path class="f" d="M881.63,140a16,16,0,0,1,1,2.13c0,.71,0,1.43,0,2.14l.06,4.29.07,4.28,0,2.14a22.77,22.77,0,0,1-1,2.16,20.74,20.74,0,0,1-1-2.13l0-2.14-.07-4.28-.06-4.29c0-.71,0-1.43-.05-2.14A18.74,18.74,0,0,1,881.63,140Z"/>
      <path class="f" d="M911.45,135.18a17.77,17.77,0,0,1,1,2.17c0,.71,0,1.43,0,2.14l-.09,4.29-.09,4.28,0,2.14a23.17,23.17,0,0,1-1,2.13,21.48,21.48,0,0,1-1-2.17l0-2.14.09-4.28.09-4.29c0-.71,0-1.43,0-2.14A17.58,17.58,0,0,1,911.45,135.18Z"/>
      <path class="f" d="M899.76,136.05a18.71,18.71,0,0,1,1,2.18c0,.71-.05,1.42-.07,2.14l-.12,4.28-.12,4.29-.06,2.14a23.27,23.27,0,0,1-1.06,2.12,21.25,21.25,0,0,1-.94-2.17l.06-2.15.12-4.28.12-4.29c0-.71.05-1.43.05-2.14A17.56,17.56,0,0,1,899.76,136.05Z"/>
      <path class="f" d="M864.32,157.29c2.27-.83,4.56-1.54,6.86-2.25l7-1.25,14.08-2.5,14.14-2.13,7.07-1.06c2.41-.06,4.81-.12,7.22-.08-2.29.75-4.6,1.4-6.91,2l-7.07,1.06-14.13,2.13-14.06,2.51-7,1.26C869.13,157.15,866.74,157.28,864.32,157.29Z"/>
      <path class="f" d="M918.31,182.86c-4.69,1.35-9.41,2.62-14.13,3.88-2.35.69-4.77,1-7.15,1.57l-7.16,1.48L861,194.37l.76-.57-3.3,7.13-1.09-1.4,31.57-5.6,15.88-2.12c5.34-.39,10.67-.84,16-1.16-5.24,1.11-10.49,2.07-15.74,3.11L889.2,195.9l-31.52,5.6a1,1,0,0,1-1.16-.81,1.1,1.1,0,0,1,.08-.6l3.3-7.13a1,1,0,0,1,.75-.57l28.86-4.56,7.15-1.49c2.39-.45,4.74-1.11,7.16-1.41C908.64,184.21,913.47,183.49,918.31,182.86Z"/>
      <path class="f" d="M863.41,200.18q.45,5.16.76,10.31c.05.86.12,1.72.15,2.58s-.05,1.71,0,2.57l0,5.15-1.12-1,28.8-3.39,28.83-3.21-.89,1-.1-5.57a51.56,51.56,0,0,1,0-5.56c.22-3.72.39-7.43.68-11.15.42,3.7.73,7.41,1.09,11.11a54.48,54.48,0,0,1,.22,5.57l.1,5.56a1,1,0,0,1-.89,1l-28.82,3.21-28.8,3.4a1,1,0,0,1-1.11-.88v-.13l0-5.15c0-.85,0-1.71,0-2.57s.13-1.72.2-2.57C862.75,207.05,863.05,203.61,863.41,200.18Z"/>
      <path class="f" d="M862.66,221.28a10.83,10.83,0,0,1,1.87.25c.39.35.81.68,1.21,1l2.43,2,2.43,2.05,1.22,1a14.84,14.84,0,0,1,.57,1.78,15.18,15.18,0,0,1-1.86-.25l-1.22-1-2.43-2.05-2.43-2c-.41-.34-.8-.69-1.22-1A12.52,12.52,0,0,1,862.66,221.28Z"/>
      <path class="f" d="M872.28,198.45a25.64,25.64,0,0,1,1.09,2.63c0,.88,0,1.77.08,2.66l.17,5.31.17,5.32.08,2.66a28.39,28.39,0,0,1-.91,2.69c-.43-.87-.75-1.75-1.09-2.62l-.08-2.66-.17-5.32-.17-5.32c0-.89-.05-1.77-.1-2.66A23.83,23.83,0,0,1,872.28,198.45Z"/>
      <path class="f" d="M892,195.4a24.86,24.86,0,0,1,1,2.68c0,.88,0,1.77-.05,2.66l-.06,5.31-.07,5.32,0,2.66c-.31.88-.62,1.77-1,2.65-.39-.89-.68-1.78-1-2.67l0-2.66.07-5.32.06-5.32c0-.89,0-1.77,0-2.66A26.4,26.4,0,0,1,892,195.4Z"/>
      <path class="f" d="M881.53,197a19,19,0,0,1,1.06,2.12c0,.72,0,1.43,0,2.14l.11,4.29.11,4.29,0,2.14a19.34,19.34,0,0,1-.95,2.17A23.14,23.14,0,0,1,880.9,212l0-2.14-.11-4.29-.11-4.29c0-.71,0-1.42-.06-2.14A17.77,17.77,0,0,1,881.53,197Z"/>
      <path class="f" d="M911.59,192.61a18.56,18.56,0,0,1,.92,2.19c0,.71-.07,1.43-.11,2.14l-.18,4.29-.18,4.28-.09,2.15a21,21,0,0,1-1.09,2.1,21.19,21.19,0,0,1-.91-2.19l.09-2.14.18-4.29.19-4.28c0-.72.07-1.43.08-2.15A17.64,17.64,0,0,1,911.59,192.61Z"/>
      <path class="f" d="M899.9,193.48a18.61,18.61,0,0,1,.94,2.18c-.05.71-.06,1.43-.08,2.14l-.14,4.29-.14,4.28-.07,2.15c-.33.7-.65,1.4-1.07,2.11a21.28,21.28,0,0,1-.93-2.18l.07-2.14.14-4.29.14-4.28c0-.72,0-1.43.06-2.15A17.55,17.55,0,0,1,899.9,193.48Z"/>
      <path class="f" d="M864.23,212.38c2.3-.72,4.62-1.33,6.94-1.93l7.09-.93,14.16-1.88,14.08-2.38,7-1.2c2.39-.09,4.79-.2,7.2-.2-2.28.79-4.58,1.48-6.88,2.18l-7,1.19-14.1,2.39-14.18,1.88-7.09.94C869,212.46,866.64,212.48,864.23,212.38Z"/>
      <path class="f" d="M896.84,267.18c.42,1.56.71,3.12,1,4.68l0,4.68,0,9.36,0,9.35,0,4.68c-.31,1.55-.61,3.11-1,4.67-.4-1.56-.69-3.12-1-4.68l0-4.68,0-9.35,0-9.35v-4.68C896.12,270.3,896.42,268.74,896.84,267.18Z"/>
      <path class="f" d="M904.85,266.75c.45,1.19.77,2.38,1.09,3.57l.08,3.59.16,7.17.17,7.18.08,3.59c-.28,1.2-.55,2.41-.92,3.61-.43-1.18-.75-2.37-1.08-3.56l-.08-3.59-.17-7.18L904,274l-.1-3.59C904.2,269.16,904.46,268,904.85,266.75Z"/>
      <path class="f" d="M854.91,116.65q5.36-1.52,10.74-2.89c.89-.22,1.78-.49,2.69-.67l2.73-.49,5.45-1,21.8-4.09,43.39-9.21a1,1,0,0,1,.58,0l2.06.84c.69.28,1.4.51,2.06.83l4,2,4,2c1.33.65,2.65,1.34,4,2-1.42-.45-2.85-.87-4.26-1.34l-4.24-1.37-4.24-1.38c-.71-.23-1.37-.56-2.06-.84l-2.06-.84.58.06-43.41,9.21-21.81,4.09-5.45,1-2.72.53c-.92.16-1.84.23-2.76.35C862.29,115.89,858.6,116.3,854.91,116.65Z"/>
      <path class="f" d="M884.55,90.55q-.42-4.1-.75-8.19c-.1-1.36-.22-2.73-.31-4.09v-4.1a1,1,0,0,1,.69-1l28.56-9.47,28.88-8.47a1,1,0,0,1,.81.11L946.63,58c.69.45,1.41.84,2.1,1.3s1.33,1,2,1.47c2.64,2,5.31,3.93,7.93,6-3-1.47-5.88-3-8.82-4.56-.73-.39-1.47-.76-2.19-1.16s-1.38-.91-2.08-1.33l-4.19-2.63.81.11-28.84,8.46-28.54,9.46.69-1,0,4.1c-.07,1.37-.19,2.73-.28,4.1C885.05,85.09,884.81,87.82,884.55,90.55Z"/>
      <path class="f" d="M854.62,98.81c-.25-11.48-.35-23-.52-34.46l1.19.84c-2.48,1-5,2-7.48,3L840.27,71l-15.06,5.68.64-1,.43,34.17.12,34.18v.08l-.46,5.66v-.09l.23,44.28.09,22.14c.06,3.7,0,7.38-.14,11.07l-.26,11.06-.26,11.06-.12,5.54c-.06,1.84.06,3.68.08,5.53l.54,22.12c.29,7.38-.13,14.76-.35,22.14l-.8,22.14-.36-22.14-.16-11.06c0-3.69-.36-7.38-.35-11.07l-.52-22.13c0-1.84-.14-3.69-.08-5.53l.12-5.54.26-11.07.26-11.06c.09-3.69.2-7.38.14-11.07L824.17,194l-.23-44.27v-.08l.46-5.66v.08l-.12-34.16-.43-34.16a1,1,0,0,1,.65-.95l15.07-5.68,7.52-2.87c2.5-1,5-1.82,7.58-2.71h0a.87.87,0,0,1,1.11.53.93.93,0,0,1,0,.32C855.45,75.85,855.1,87.33,854.62,98.81Z"/>
      <path class="f" d="M855.48,64.64c1.39,0,2.73.13,4.08.26l3.76,1.23,7.52,2.45L878.36,71l3.77,1.22c1.16.7,2.32,1.39,3.45,2.18-1.38,0-2.73-.16-4.07-.27l-3.76-1.23-7.53-2.44L862.7,68l-3.77-1.21C857.77,66.13,856.61,65.44,855.48,64.64Z"/>
      <path class="f" d="M833.38,88.59c.28.8.53,1.6.74,2.4.09.4.23.8.29,1.19s0,.8,0,1.2v14.38l-1.22-1,4.14-.94a5.66,5.66,0,0,1,2.14-.13c.73,0,1.47.09,2.21.16-.63.39-1.28.76-1.92,1.1a5.72,5.72,0,0,1-2,.82l-4.14.94a1,1,0,0,1-1.19-.76.83.83,0,0,1,0-.22V93.38c0-.4,0-.8,0-1.2s.2-.79.29-1.19C832.86,90.19,833.11,89.39,833.38,88.59Z"/>
      <path class="f" d="M833.38,119c.27.69.5,1.38.71,2.07l.3,1a1.81,1.81,0,0,1,0,.52v12.92l-1.22-1,4.14-.94c.34-.06.68-.17,1-.24l1.1.06c.73,0,1.48.12,2.22.22-.63.41-1.26.8-1.91,1.16l-1,.53c-.35.08-.7.13-1,.22l-4.14.94a1,1,0,0,1-1.19-.75.83.83,0,0,1,0-.22V122.66a1.81,1.81,0,0,1,0-.52l.3-1C832.88,120.42,833.12,119.73,833.38,119Z"/>
      <path class="f" d="M834,248.91c.27.89.52,1.78.73,2.67.09.44.23.88.29,1.33s0,.89,0,1.33v16l-1-1h4.78a6.8,6.8,0,0,1,2.39.35c.8.19,1.6.41,2.4.65-.8.24-1.6.46-2.4.65a6.8,6.8,0,0,1-2.39.35H834a1,1,0,0,1-1-1v-16c0-.44,0-.89,0-1.33s.2-.89.3-1.33C833.51,250.69,833.76,249.8,834,248.91Z"/>
      <path class="f" d="M824.88,84c-4.68,1.76-9.37,3.47-14.06,5.17-2.34.86-4.7,1.67-7,2.64-1.16.47-2.31,1-3.47,1.4s-2.35.84-3.52,1.26L768.7,104.66l.66-1,.3,18.52-.73,18.5v-.09l.83,18.34a.41.41,0,0,1,0,.11l-1.13,18.29-.67,18.3L767.89,214c.1,3.05.16,6.1.28,9.16s0,6.11,0,9.16v0h0l-.85,9.14-.88,9.14.12-9.18.16-9.18v.06c-.18-3.05-.43-6.11-.55-9.16s-.16-6.12-.24-9.18l.07-18.37.67-18.36L767.77,159v.1l-.84-18.34v-.08l.73-18.45-.3-18.46a1,1,0,0,1,.65-1l28.15-10.24c1.17-.44,2.34-.89,3.52-1.29s2.38-.77,3.56-1.15c2.37-.8,4.79-1.44,7.19-2.12Q817.65,85.93,824.88,84Z"/>
      <path class="f" d="M810.16,106.82q-3.55,1.61-7.15,3.07c-.6.25-1.19.51-1.8.74s-1.24.34-1.85.55l-3.7,1.13-14.9,4.18a1,1,0,0,1-.67,0l-5.67-2.52a1,1,0,0,1,.05-1.85l18.1-7,.09,0,9.35-2.64c3.2-.59,6.4-1.17,9.63-1.65-3,1.26-6,2.44-9.08,3.6L793.21,107l.08,0-18.1,7,0-1.85,5.67,2.52-.68,0,14.88-4.17,3.69-1.13c.62-.17,1.22-.42,1.84-.58s1.27-.27,1.9-.4Q806.33,107.49,810.16,106.82Z"/>
      <path class="f" d="M781.09,115.88c.35,1.92.63,3.84.88,5.76a10,10,0,0,1,.14,1.44c0,.49,0,1,0,1.45v14.41l-1.18-1,14.86-2.81-.14,0,7.45-2.59c.32-.1.61-.25.93-.33s.65-.14,1-.21l2-.4c1.3-.25,2.61-.49,3.93-.71-1.17.65-2.35,1.28-3.53,1.89l-1.77.9c-.3.14-.59.31-.89.44s-.63.2-.94.31l-7.45,2.59-.15,0-14.86,2.81a1,1,0,0,1-1.17-.79,1.23,1.23,0,0,1,0-.19V124.52c0-.48,0-1,0-1.44a10,10,0,0,1,.15-1.44C780.46,119.72,780.74,117.8,781.09,115.88Z"/>
      <path class="f" d="M774.87,116.31a29.07,29.07,0,0,1,1,2.83c0,.94,0,1.88,0,2.83v14.14c-.31.94-.6,1.88-1,2.82-.4-.94-.7-1.88-1-2.82V122c0-1,0-1.89,0-2.83A26.65,26.65,0,0,1,774.87,116.31Z"/>
      <path class="f" d="M810.75,154.65c-2.44.82-4.9,1.58-7.36,2.31a17.69,17.69,0,0,1-1.86.51c-.63.09-1.26.21-1.88.33l-3.77.73h-.08l-15.13,1.6a1,1,0,0,1-.75-.22L776,156.64a1,1,0,0,1-.13-1.4,1,1,0,0,1,.59-.35l17.7-3.22,8.8-1.86c3-.33,6-.66,9-.88-2.85,1-5.73,1.92-8.6,2.84l-8.82,1.86-17.72,3.23.46-1.75,3.93,3.27-.75-.22,15.13-1.61h-.08l3.76-.72c.63-.12,1.25-.24,1.88-.39s1.27-.15,1.91-.22C805.61,155,808.17,154.79,810.75,154.65Z"/>
      <path class="f" d="M779.77,159.72c.38,2,.68,4,1,5.95a17.54,17.54,0,0,1,.13,3l0,3,.11,11.92-1.14-1,15.28-2.09h.11l3.72-.1c1.24,0,2.48-.06,3.71-.12a10.69,10.69,0,0,1,1.87.13l1.86.2c1.25.14,2.49.3,3.74.48-1.24.25-2.47.48-3.7.69l-1.86.3a9.65,9.65,0,0,1-1.85.23c-1.24,0-2.48.06-3.72.09l-3.72.1h.11l-15.27,2.1a1,1,0,0,1-1.13-.86.57.57,0,0,1,0-.13l-.11-11.92,0-3a16.51,16.51,0,0,1,.06-3C779.17,163.7,779.43,161.71,779.77,159.72Z"/>
      <path class="f" d="M774.87,160.16a28.16,28.16,0,0,1,1,2.83c0,.94,0,1.88,0,2.82V180c-.31,1-.6,1.89-1,2.83-.4-.94-.7-1.88-1-2.83V165.81c0-.94,0-1.88,0-2.82A25.88,25.88,0,0,1,774.87,160.16Z"/>
      <path class="f" d="M809.86,202.24c-2.41.63-4.83,1.19-7.26,1.72-.6.12-1.21.29-1.82.35s-1.23.12-1.84.19l-3.68.42-14.73,1.6a1,1,0,0,1-.95-.45l-3.08-4.74a1,1,0,0,1,.29-1.38,1,1,0,0,1,.37-.14l16.69-3.08h.1l4.28-.34c1.42-.1,2.85-.26,4.28-.33,2.87.07,5.75.14,8.63.31-2.82.62-5.65,1.14-8.48,1.66-1.42.16-2.85.22-4.27.35l-4.28.34h.1l-16.69,3.07.66-1.53,3.08,4.74-1-.45,14.73-1.6,3.67-.42c.62-.07,1.23-.13,1.84-.23a14.39,14.39,0,0,1,1.86-.07C804.89,202.18,807.37,202.18,809.86,202.24Z"/>
      <path class="f" d="M780.37,205c.37,2,.66,3.92.93,5.88a17,17,0,0,1,.1,2.94v2.94l.05,11.77-1.09-1,14.81-1.26,7.42-.43a8.92,8.92,0,0,1,1.86.05l1.87.15c1.25.12,2.5.24,3.74.39-1.22.29-2.44.55-3.67.8l-1.83.36a9,9,0,0,1-1.84.26l-7.41.41-14.78,1.26a1,1,0,0,1-1.08-.91v-.08l-.05-11.77V213.8a18.06,18.06,0,0,1,.08-2.94C779.74,208.9,780,206.93,780.37,205Z"/>
      <path class="f" d="M774.87,205.41a28.9,28.9,0,0,1,1,2.82c0,1,0,1.89,0,2.83V225.2c-.31.94-.6,1.89-1,2.83-.4-.94-.7-1.89-1-2.83V211.06c0-.94,0-1.88,0-2.83A26.49,26.49,0,0,1,774.87,205.41Z"/>
      <path class="f" d="M830.12,144.06a8.54,8.54,0,0,1,.14,1.45c-.24.26-.44.54-.66.81L828.29,148l-1.3,1.63-.66.82a9.91,9.91,0,0,1-1.43.19,9.49,9.49,0,0,1-.13-1.44l.65-.82,1.31-1.63,1.3-1.63c.22-.28.45-.54.65-.82A7.72,7.72,0,0,1,830.12,144.06Z"/>
      <path class="f" d="M767,262.4c.41,2,.71,4.06,1,6.09V305c-.31,2-.6,4.06-1,6.09-.41-2-.7-4.06-1-6.09V268.49C766.32,266.46,766.62,264.43,767,262.4Z"/>
      <path class="f" d="M824.9,258c-1.52.3-3,.57-4.55.8l-2.28.34a8.68,8.68,0,0,1-1.14,0l-1.15,0-9.13.18h-.08l-18.27-1.06h.12l-9.14.58-1.14.07a8.74,8.74,0,0,1-1.14.08l-2.31-.16c-1.53-.11-3.07-.25-4.61-.41,1.51-.35,3-.68,4.53-1l2.26-.45A8.72,8.72,0,0,1,778,257l1.14-.07,9.14-.58a.24.24,0,0,1,.12,0l18.28,1h-.08l9.13-.18,1.15,0a8.68,8.68,0,0,1,1.14,0l2.29.25C821.84,257.6,823.37,257.81,824.9,258Z"/>
      <g>
        <path class="f" d="M762.25,124.08c-2.6.11-5.2.18-7.79.23l-3.9.07c-1.3,0-2.58-.16-3.88-.2a.84.84,0,0,1-.49-.16h0l-14.51-10-14.29-10.32,1.46-.33-5.68,10.13c-1.93,3.35-3.66,6.81-5.47,10.22s-3.59,6.84-5.34,10.3c-2,3.32-3.93,6.68-6,10,1.37-3.64,2.85-7.23,4.28-10.85,1.6-3.53,3.5-6.92,5.28-10.36s3.55-6.9,5.49-10.25l5.68-10.14a1,1,0,0,1,1.36-.39l.1.07,14.27,10.3,14.5,10-.51-.18c1.29.12,2.59.06,3.87.25l3.86.52C757.11,123.3,759.68,123.67,762.25,124.08Z"/>
        <path class="f" d="M701.07,135c.3,3.55.48,7.09.65,10.63l-.37,10.6-1.42-.94,11.61-5.44c3.86-1.84,7.79-3.55,11.7-5.29S731,141,735,139.49l11.89-4.84-.63,1a20,20,0,0,1,0-3l.12-3q.14-3,.31-6c.32,2,.61,4,.89,6l.41,3a19.9,19.9,0,0,1,.28,3v.07a1,1,0,0,1-.63.91l-11.86,4.82c-4,1.56-7.85,3.36-11.76,5.08s-7.81,3.44-11.66,5.28l-11.61,5.43a1,1,0,0,1-1.33-.48,1.25,1.25,0,0,1-.09-.46l.35-10.59C700.11,142.06,700.54,138.54,701.07,135Z"/>
        <path class="f" d="M761.77,137q-3.62,0-7.23,0l-3.62,0c-1.2,0-2.39-.2-3.59-.28l1.09-1-1,19.34.26,19.37.07,19.4,0,4.85c0,.8,0,1.61,0,2.42s-.11,1.62-.16,2.42c-.27,3.24-.49,6.47-.81,9.71-.36-3.23-.6-6.47-.9-9.7-.05-.81-.16-1.61-.18-2.42s0-1.62,0-2.43l0-4.85-.07-19.39L745.43,155l1-19.4v0a1,1,0,0,1,1-.92h.07c1.19.14,2.4.13,3.58.37l3.56.61Q758.21,136.29,761.77,137Z"/>
        <path class="f" d="M746.51,233.68c.55,2.94,1,5.88,1.42,8.82l.4,8.87.3,17.75v.07l-1,17.73v-.1l.46,8.86c-.16,3-.3,5.94-.55,8.92-.55-2.93-1-5.87-1.45-8.81l-.46-8.87v-.11l1-17.73v.08l-.3-17.72-.41-8.86C746.07,239.62,746.23,236.66,746.51,233.68Z"/>
        <path class="f" d="M740.71,167.12c-.31-2.25-.6-4.49-.84-6.74-.1-1.12-.31-2.24-.31-3.37s0-2.25,0-3.37l.55.87-3.92-2,.8,0-19.46,7.28-19.65,6.74.55-.46-1.25,2.23c-.41.74-.83,1.48-1.23,2.23l.12-.6a15.59,15.59,0,0,1,.13,2.65l0,2.66q0,2.67,0,5.34c-.41-1.74-.79-3.47-1.16-5.21l-.55-2.61a16.65,16.65,0,0,1-.43-2.62v-.1a.87.87,0,0,1,.13-.5c.42-.73.83-1.48,1.25-2.22l1.24-2.23a1.07,1.07,0,0,1,.55-.46l19.63-6.72,19.43-7.27a1,1,0,0,1,.81.05l3.92,2a1,1,0,0,1,.54.87h0c0,1.12,0,2.25.07,3.37s-.15,2.26-.22,3.38C741.2,162.61,741,164.87,740.71,167.12Z"/>
        <path class="f" d="M738.14,170c-1.44.89-2.9,1.66-4.37,2.43l-4.67,1.46-9.35,2.95-9.19,3.39L706,181.93c-1.64.28-3.27.57-4.94.76,1.39-.95,2.82-1.79,4.26-2.64l4.6-1.7,9.22-3.39,9.36-3,4.68-1.48C734.8,170.31,736.45,170.1,738.14,170Z"/>
        <path class="f" d="M698.09,171.63c1.36-1,2.77-1.91,4.18-2.81l4.58-1.87,9.14-3.76,9.22-3.57,4.61-1.78c1.65-.31,3.29-.63,5-.85-1.39,1-2.82,1.83-4.24,2.71l-4.61,1.78-9.21,3.57-9.13,3.75L703,170.69C701.4,171,699.77,171.39,698.09,171.63Z"/>
        <path class="f" d="M704.26,168.64a9,9,0,0,1,1,.86c0,.28,0,.56,0,.85l0,1.68,0,1.69v.84a9.13,9.13,0,0,1-1,.83,10.92,10.92,0,0,1-1-.86v-.85l0-1.68,0-1.69c0-.28,0-.56,0-.84A7.6,7.6,0,0,1,704.26,168.64Z"/>
        <path class="f" d="M714.79,165.27a8.7,8.7,0,0,1,1,.86c0,.28,0,.55,0,.83l0,1.66,0,1.65,0,.83a10.28,10.28,0,0,1-1,.81,9.51,9.51,0,0,1-1-.86l0-.83.05-1.66,0-1.66c0-.27,0-.55,0-.82A7.85,7.85,0,0,1,714.79,165.27Z"/>
        <path class="f" d="M725.24,161.67a8.58,8.58,0,0,1,.89,1c-.06.28-.08.56-.12.84l-.22,1.69-.22,1.69-.11.84a8.18,8.18,0,0,1-1.11.71,9.54,9.54,0,0,1-.88-1l.11-.84.22-1.69.22-1.69c0-.28.09-.56.11-.85A7.91,7.91,0,0,1,725.24,161.67Z"/>
        <path class="f" d="M706.72,187.44c1.15-.89,2.34-1.67,3.54-2.45l3.9-1.5,7.81-3,7.77-3.1,3.89-1.56c1.41-.23,2.81-.47,4.26-.62-1.15.89-2.34,1.68-3.52,2.48l-3.89,1.56-7.78,3.1-7.81,3-3.9,1.52C709.58,187.1,708.17,187.33,706.72,187.44Z"/>
        <path class="f" d="M740.06,221.07c-.17-2.28-.32-4.55-.41-6.82a24.18,24.18,0,0,1-.06-3.4c.08-1.13.13-2.26.19-3.39l.45.88L736,205.51l.81.13-19.29,5.13-19.14,5.63.55-.4-2.32,3.46.17-.56a14.2,14.2,0,0,1-.12,2.6l-.25,2.61c-.19,1.74-.38,3.48-.59,5.22-.23-1.73-.44-3.47-.63-5.21l-.27-2.61a14.28,14.28,0,0,1-.14-2.61v-.09a1.06,1.06,0,0,1,.17-.47l2.32-3.45a1,1,0,0,1,.55-.41l19.16-5.63,19.31-5.14a1,1,0,0,1,.81.13l4.28,2.84a1,1,0,0,1,.45.88c-.06,1.13-.13,2.26-.17,3.39a25.77,25.77,0,0,1-.41,3.38C740.86,216.58,740.48,218.82,740.06,221.07Z"/>
        <path class="f" d="M737.82,222.93c-1.47.7-3,1.29-4.45,1.88l-4.64.87-9.27,1.77-9.18,2.2-4.59,1.1c-1.6.07-3.2.15-4.83.13,1.44-.76,2.91-1.41,4.37-2.08l4.61-1.1,9.2-2.2,9.3-1.78,4.64-.9C734.59,222.82,736.19,222.81,737.82,222.93Z"/>
        <path class="f" d="M698,220.15c1.44-.78,2.9-1.45,4.37-2.12l4.61-1.12,9.22-2.28,9.16-2.48,4.59-1.24c1.6-.12,3.21-.25,4.84-.27-1.42.8-2.88,1.5-4.33,2.2l-4.58,1.24-9.18,2.49-9.23,2.27L702.81,220C701.2,220.08,699.59,220.18,698,220.15Z"/>
        <path class="f" d="M705.39,218.67a8.27,8.27,0,0,1,.94.92c0,.28,0,.56-.07.84l-.12,1.69L706,223.8l-.06.85a9.38,9.38,0,0,1-1.06.77,8.24,8.24,0,0,1-.94-.92l.06-.84.12-1.69.13-1.68c0-.28.05-.56.05-.85A8.25,8.25,0,0,1,705.39,218.67Z"/>
        <path class="f" d="M714.39,216.18a6.87,6.87,0,0,1,1.09.72c0,.27.06.55.08.83l.19,1.65.18,1.66.09.83a8.79,8.79,0,0,1-.91.94,9.64,9.64,0,0,1-1.08-.72l-.09-.83-.18-1.66-.18-1.66c0-.27-.06-.55-.11-.82A7.32,7.32,0,0,1,714.39,216.18Z"/>
        <path class="f" d="M724.29,213.88a7.21,7.21,0,0,1,1,.88c0,.28,0,.56,0,.84l-.06,1.69-.06,1.69,0,.84a9.09,9.09,0,0,1-1,.81,7.67,7.67,0,0,1-1-.88l0-.84.06-1.69.06-1.69c0-.28,0-.56,0-.84A8.56,8.56,0,0,1,724.29,213.88Z"/>
        <path class="f" d="M706.37,235.47c1.23-.65,2.49-1.18,3.74-1.72l3.94-.72,7.86-1.46,7.92-1.09,4-.54c1.36.12,2.72.23,4.1.44-1.27.58-2.54,1.05-3.82,1.54l-4,.54-7.89,1.08L714.39,235l-3.92.74C709.11,235.69,707.75,235.64,706.37,235.47Z"/>
        <path class="f" d="M710.32,141.69c-.19-.49-.36-1-.51-1.48l-.21-.73c-.06-.25-.19-.5-.1-.73l.2-2.88.37-5.76a1,1,0,0,1,.41-.74l1.61-1.18.41-.3c.15-.07.21-.27.46-.21a11,11,0,0,1,1.34.13,11.13,11.13,0,0,1-.28,1.31c0,.27-.22.27-.34.39l-.41.29L711.66,131l.4-.74-.37,5.76-.17,2.88a1.36,1.36,0,0,1-.19.71l-.3.7C710.81,140.76,710.58,141.23,710.32,141.69Z"/>
        <path class="f" d="M719.55,135.6c-.21-.41-.39-.82-.57-1.24l-.23-.61c-.07-.21-.2-.42-.12-.62l.1-2.43.18-4.86a1.08,1.08,0,0,1,.31-.69l1.44-1.37.36-.35c.14-.09.17-.3.43-.26a9.64,9.64,0,0,1,1.34,0,10.91,10.91,0,0,1-.1,1.33c0,.27-.19.29-.29.43l-.36.34-1.43,1.38.3-.69-.18,4.87-.08,2.43c.06.2-.08.4-.17.6l-.27.6C720,134.81,719.79,135.21,719.55,135.6Z"/>
        <path class="f" d="M724,99.72c1.64-.31,3.27-.5,4.9-.7l4.84.32,9.68.62,9.67.74,4.84.37c1.59.42,3.18.84,4.76,1.37-1.64.27-3.28.44-4.91.62l-4.83-.37-9.67-.73-9.67-.62-4.84-.3C727.17,100.64,725.57,100.24,724,99.72Z"/>
        <path class="f" d="M741.3,101.48a17.67,17.67,0,0,1,2.31.93c.51.56,1,1.09,1.57,1.64l3.15,3.27,3.15,3.27,1.58,1.63a22.86,22.86,0,0,1,.85,2.33c-.81-.27-1.55-.61-2.29-.94L750,112l-3.15-3.26-3.15-3.27c-.53-.54-1-1.1-1.59-1.63A20,20,0,0,1,741.3,101.48Z"/>
        <path class="f" d="M756,101.59a8,8,0,0,1,1.57.29c.26.32.53.63.8.94l1.6,1.89,1.6,1.88.8,1a10.32,10.32,0,0,1,0,1.59,11.37,11.37,0,0,1-1.56-.3l-.8-.94L758.47,106l-1.6-1.88c-.27-.31-.52-.64-.81-.94A10.35,10.35,0,0,1,756,101.59Z"/>
        <path class="f" d="M704.41,190.18a26.87,26.87,0,0,1,1.1,2.79c0,.95.06,1.89.08,2.83l.19,5.66.18,5.65.09,2.83c-.27.95-.54,1.91-.91,2.86-.43-.93-.75-1.86-1.09-2.79l-.09-2.83-.18-5.66-.19-5.65c0-1-.05-1.89-.1-2.83A26.36,26.36,0,0,1,704.41,190.18Z"/>
        <path class="f" d="M705.06,240.65c.19,1.41.35,2.83.48,4.24l.18,2.12a9.26,9.26,0,0,1-.07,1.05l-.06,1.05-.46,8.41v-.07l.31,16.82.19,8.41,0,1.05a6.14,6.14,0,0,1,0,1l-.25,2.11c-.18,1.41-.38,2.82-.6,4.22-.29-1.39-.56-2.79-.79-4.19l-.35-2.09a6.23,6.23,0,0,1,0-1.06l0-1-.19-8.41-.31-16.83v-.07l.47-8.41,0-1.05a9.23,9.23,0,0,1,.05-1l.42-2.09C704.4,243.42,704.72,242,705.06,240.65Z"/>
        <path class="f" d="M716.2,293.72c-.48-3.43-.86-6.88-1.23-10.32-.16-3.45-.2-6.9-.31-10.35l.44-20.7a1,1,0,0,1,.88-1l16-2a1,1,0,0,1,1.11.87.62.62,0,0,1,0,.13L733,265.26l0,3.71-.35,3.71c-.25,2.48-.48,4.95-.78,7.42-.24-2.48-.42-5-.61-7.43L731,269l0-3.71.06-14.85,1.12,1-16,2,.88-1-.44,20.66c.08,3.44.21,6.88.24,10.32C716.7,286.82,716.51,290.27,716.2,293.72Z"/>
      </g>
      <path class="f" d="M700.91,235.86c-1.74.28-3.48.53-5.22.74-.88.09-1.75.26-2.62.28s-1.74,0-2.61,0H680l1-1v17.4l-1-1h10.44c.87,0,1.74,0,2.61,0s1.74.2,2.62.29c1.74.21,3.48.46,5.22.73-1.74.27-3.48.52-5.22.73-.88.1-1.75.25-2.62.29s-1.74,0-2.61,0H680a1,1,0,0,1-1-1v-17.4a1,1,0,0,1,1-1h10.44c.87,0,1.74,0,2.61,0s1.74.2,2.62.28C697.43,235.32,699.17,235.58,700.91,235.86Z"/>
      <path class="f" d="M675.24,235.86a23.78,23.78,0,0,1,1,2.5c0,.84,0,1.67,0,2.5v12.51c-.31.83-.6,1.67-1,2.5a26,26,0,0,1-1-2.5V240.86c0-.83,0-1.66,0-2.5A21.8,21.8,0,0,1,675.24,235.86Z"/>
      <path class="f" d="M600,258.05c-.42-3.77-.74-7.54-1-11.31,0-3.77,0-7.54,0-11.32V212.8a1,1,0,0,1,.63-.93L619.4,204c3.3-1.29,6.59-2.64,9.91-3.89,3.42-1,6.81-2.07,10.25-3-3.15,1.67-6.36,3.21-9.54,4.82-3.28,1.36-6.59,2.62-9.89,3.94l-19.79,7.83.63-.93v22.62c0,3.78,0,7.55,0,11.32C600.71,250.51,600.39,254.28,600,258.05Z"/>
      <path class="f" d="M687.85,115.49q-5.22,2.45-10.49,4.8l-5.26,2.35c-.88.38-1.79.68-2.69,1l-2.69,1L645.23,133l.64-.93v40.31l-1.33-.94L659.72,166l3.79-1.37a14.28,14.28,0,0,1,1.92-.61l2-.51c2.61-.68,5.22-1.38,7.85-2-2.43,1.19-4.89,2.3-7.34,3.43l-1.84.85a12.58,12.58,0,0,1-1.87.75l-3.8,1.35-15.18,5.44a1,1,0,0,1-1.28-.6,1,1,0,0,1-.06-.34V132a1,1,0,0,1,.64-.94L666,122.83l2.69-1c.89-.35,1.77-.73,2.68-1l5.48-1.79Q682.34,117.19,687.85,115.49Z"/>
      <path class="f" d="M687.85,116.82c.27,1.72.51,3.43.71,5.15l.3,2.57a9.26,9.26,0,0,1,0,1.29V158l-.74-1,3.26.87.41.11c.14,0,.29,0,.41.1l.74.52c.49.34,1,.71,1.45,1.1-.61.11-1.21.19-1.81.24l-.9.08a1.32,1.32,0,0,1-.4-.11l-.41-.11L687.6,159a1,1,0,0,1-.75-1V125.83c0-.43-.05-.86,0-1.29l.31-2.57C687.35,120.25,687.59,118.54,687.85,116.82Z"/>
      <path class="f" d="M690.46,116.07c1.41.15,2.8.32,4.18.54a.62.62,0,0,1,.5.51l.05.26.2,1.2c0,.4,0,.8,0,1.2v30a3.75,3.75,0,0,1-.1,1.2c-.27,1.61-.55,3.21-.91,4.81-.36-1.6-.64-3.2-.91-4.81a3.75,3.75,0,0,1-.1-1.2v-30c0-.4,0-.8,0-1.2l.2-1.2.55.77C692.89,117.5,691.67,116.8,690.46,116.07Z"/>
      <path class="f" d="M651.31,171.11a7.88,7.88,0,0,1,1,1c0,.32,0,.65,0,1V178a10.37,10.37,0,0,1-1,1,9.34,9.34,0,0,1-1-1v-4.89c0-.33,0-.66,0-1A7.28,7.28,0,0,1,651.31,171.11Z"/>
      <path class="f" d="M655.37,168.57a8.62,8.62,0,0,1,1,1c0,.33,0,.65,0,1v4.89a10.37,10.37,0,0,1-1,1,9.34,9.34,0,0,1-1-1v-4.89c0-.33,0-.65,0-1A7.9,7.9,0,0,1,655.37,168.57Z"/>
      <path class="f" d="M680.74,161a6.76,6.76,0,0,1,1,1c0,.32,0,.65,0,1v4.89a9.34,9.34,0,0,1-1,1,10.37,10.37,0,0,1-1-1v-4.89c0-.33,0-.66,0-1A7.88,7.88,0,0,1,680.74,161Z"/>
      <path class="f" d="M684.8,159.94a7.29,7.29,0,0,1,1,1c0,.33,0,.65,0,1v4.89a7.77,7.77,0,0,1-1,1,9.32,9.32,0,0,1-1-1V161.9c0-.33,0-.65,0-1A8.62,8.62,0,0,1,684.8,159.94Z"/>
      <g>
        <path class="f" d="M694.58,165.51q-6.8,2.73-13.62,5.34l-3.42,1.3-3.46,1.17-6.9,2.4c-4.61,1.59-9.19,3.27-13.87,4.62l-14,4.29.71-1,.35,17.54-.51,17.52v-.09l1.11,17.3v.13l-.5,8.65-.26,4.32c-.08,1.45-.1,2.89-.29,4.33v-.08c-.16,5.77-.24,11.55-.46,17.33-.55-5.76-1-11.52-1.45-17.28v-.08c0-1.45.12-2.89.21-4.33l.25-4.33.5-8.65v.12l-1.11-17.3v-.1l.51-17.47L638,183.7a1,1,0,0,1,.7-1l14-4.28c4.68-1.35,9.25-3,13.86-4.62l6.89-2.39c1.16-.39,2.28-.86,3.46-1.19l3.53-1Q687.48,167.33,694.58,165.51Z"/>
        <path class="f" d="M687.88,187.24c-1.54.84-3.11,1.55-4.68,2.27l-4.94,1.28-9.88,2.59-9.91,2.49-5,1.24c-1.72.12-3.45.25-5.19.28,1.55-.81,3.13-1.51,4.7-2.22l5-1.24,9.9-2.49,9.87-2.58,4.94-1.3C684.41,187.42,686.13,187.27,687.88,187.24Z"/>
        <path class="f" d="M651,196.43c-.23-.52-.43-1-.61-1.55s-.44-1-.28-1.54l.1-3.06a1,1,0,0,1,.68-.91L658,187a1,1,0,0,1,1.32,1l-.32,3.21a2.85,2.85,0,0,0,0,.4.63.63,0,0,1-.08.4l-.37.78c-.25.51-.53,1-.83,1.53-.2-.56-.37-1.11-.51-1.67l-.21-.83a.58.58,0,0,1,0-.41c0-.13,0-.26,0-.4l.33-3.21,1.31,1.05-7.08,2.41.68-.92-.11,3.06c.12.51-.22,1-.39,1.51S651.29,195.93,651,196.43Z"/>
        <path class="f" d="M662.61,187.1c.82-.57,1.65-1.11,2.49-1.6a3.34,3.34,0,0,1,1.3-.6l1.36-.42,5.44-1.67,10.88-3.34a1,1,0,0,1,1.25.66,1,1,0,0,1,0,.37l-.12,1.68-.06.83a2.91,2.91,0,0,1,0,.42c0,.14-.09.28-.13.42-.35,1.09-.72,2.19-1.16,3.28-.28-1.14-.48-2.28-.68-3.42,0-.14-.05-.28-.06-.42a3,3,0,0,1,0-.42l.06-.84.13-1.67,1.29,1-10.88,3.34-5.44,1.67-1.36.42a3.56,3.56,0,0,1-1.42.23C664.6,187.1,663.61,187.12,662.61,187.1Z"/>
        <path class="f" d="M687.87,206.37c-1.54.8-3.11,1.49-4.68,2.18l-4.93,1.18-9.85,2.39-.08,0-10,1.61-5,.81c-1.72,0-3.43-.05-5.17-.18,1.61-.66,3.23-1.22,4.85-1.79l5-.81,10-1.62-.07,0,9.85-2.39,4.92-1.2C684.42,206.48,686.14,206.37,687.87,206.37Z"/>
        <path class="f" d="M651.14,214.27c-.26-.53-.49-1.05-.7-1.57s-.5-1-.38-1.58L650,208a1,1,0,0,1,.71-1l7.64-2.25a1,1,0,0,1,1.28,1.06l-.32,3.25c-.06.26,0,.55-.14.8l-.37.78c-.25.53-.52,1-.81,1.56-.19-.56-.35-1.13-.5-1.69l-.2-.84c-.12-.28,0-.54,0-.81l.33-3.25,1.27,1.06-7.63,2.25.72-1,.08,3.17c.15.52-.16,1.06-.3,1.59S651.37,213.73,651.14,214.27Z"/>
        <path class="f" d="M662.68,205.2a14.55,14.55,0,0,1,5.16-2.48l5.43-1.52,10.87-3a1,1,0,0,1,1.23.69.8.8,0,0,1,0,.34l-.13,1.79-.06.89a3,3,0,0,1-.09.9c-.38,1.17-.75,2.34-1.22,3.51-.3-1.22-.5-2.44-.71-3.65a2.94,2.94,0,0,1,0-.89l.06-.9.12-1.79,1.27,1-10.87,3-5.43,1.52A14.42,14.42,0,0,1,662.68,205.2Z"/>
        <path class="f" d="M687.9,225.68c-1.56.73-3.16,1.35-4.75,2l-4.95,1-9.9,1.94-10,1.41-5,.71c-1.7-.07-3.41-.12-5.13-.29,1.61-.63,3.23-1.15,4.84-1.69l5-.7,10-1.41,9.87-1.93,4.93-1C684.47,225.63,686.18,225.6,687.9,225.68Z"/>
        <path class="f" d="M651.36,232.1a17.43,17.43,0,0,1-.93-1.6,6.68,6.68,0,0,1-.39-.81,8,8,0,0,0-.08-.84l-.4-3.38a1,1,0,0,1,.87-1.11h0l7.6-.59a1,1,0,0,1,1.07.92v0l.07,1.31c0,.44,0,.88.09,1.31a10,10,0,0,1-.38,1.34c-.15.44-.31.89-.5,1.34-.23-.43-.44-.85-.64-1.28a11.6,11.6,0,0,1-.52-1.29c0-.44,0-.87,0-1.31l-.06-1.31,1.07.94-7.59.59.91-1.12.41,3.38a8.09,8.09,0,0,0,.12.84c0,.29-.13.59-.19.88C651.74,230.92,651.56,231.51,651.36,232.1Z"/>
        <path class="f" d="M662.49,222.11c.87-.43,1.75-.83,2.63-1.17a3.11,3.11,0,0,1,1.34-.38l1.36-.18,5.46-.75,10.93-1.49a1,1,0,0,1,1.13.85v.08l.09,1.58a4.87,4.87,0,0,1,0,1.57c-.2,1.07-.43,2.13-.72,3.2-.41-1-.75-2.06-1.07-3.1a4.88,4.88,0,0,1-.19-1.56l-.08-1.58,1.13.94-10.92,1.49-5.47.75-1.36.18a3.11,3.11,0,0,1-1.39,0C664.39,222.44,663.45,222.29,662.49,222.11Z"/>
      </g>
      <path class="f" d="M694.38,188a22.63,22.63,0,0,1,1,2.56c0,.85,0,1.7,0,2.55v12.78a26,26,0,0,1-1,2.56,26,26,0,0,1-1-2.56V193.11c0-.85,0-1.7,0-2.55A22.63,22.63,0,0,1,694.38,188Z"/>
      <path class="f" d="M694.38,259.35a23.35,23.35,0,0,1,1,2.61c0,.87,0,1.74,0,2.61v13.06a27.9,27.9,0,0,1-1,2.61,27.9,27.9,0,0,1-1-2.61V264.57c0-.87,0-1.74,0-2.61A23.35,23.35,0,0,1,694.38,259.35Z"/>
      <path class="f" d="M601.28,222.81c1.13-.78,2.29-1.44,3.45-2.11l3.76-1.13,7.5-2.29L623.5,215l3.75-1.14c1.34-.09,2.68-.19,4-.19-1.14.77-2.3,1.43-3.47,2.1l-3.75,1.14-7.5,2.29-7.51,2.28-3.75,1.15C604,222.73,602.65,222.83,601.28,222.81Z"/>
      <path class="f" d="M601.93,231.2c1.15-.64,2.32-1.16,3.49-1.68l3.67-.67,7.34-1.36,7.34-1.36,3.67-.68c1.28.08,2.56.14,3.86.31-1.16.62-2.32,1.14-3.49,1.66l-3.67.68-7.35,1.36-7.34,1.36-3.67.69C604.51,231.44,603.23,231.38,601.93,231.2Z"/>
      <path class="f" d="M601.28,239.29c1.2-.54,2.43-1,3.65-1.38l3.75-.37,7.5-.76,7.51-.77,3.75-.38c1.28.18,2.56.35,3.86.62-1.22.52-2.44.94-3.66,1.37l-3.75.38-7.5.77-7.51.76-3.75.39C603.85,239.75,602.57,239.58,601.28,239.29Z"/>
      <path class="f" d="M787.92,268.18c-1.06.3-2.12.57-3.18.82l-1.59.36a7.27,7.27,0,0,1-1.59.28c-1.08,0-2.15.14-3.22.21l-3.21.22.93-1-.67,17.08.13,8.54c0,.72,0,1.43.05,2.14a4.3,4.3,0,0,1-.09,1.07l-.15,1.07c-.19,1.43-.43,2.85-.68,4.28-.3-1.42-.58-2.84-.82-4.27l-.18-1.07a4.32,4.32,0,0,1-.11-1.07c0-.71,0-1.43,0-2.14l-.13-8.58.67-17.13a1,1,0,0,1,.93-1l3.21-.22c1.08-.08,2.15-.13,3.22-.24a8,8,0,0,1,1.62.06l1.62.14C785.75,267.92,786.83,268,787.92,268.18Z"/>
      <path class="f" d="M818.78,294c-1.8.13-3.57.14-5.35.16l-5.2-.83-10.38-1.65a1,1,0,0,1-.85-1l-.34-10.87-.19-5.44c.24-1.82.49-3.64.84-5.47.46,1.8.82,3.61,1.18,5.41l.16,5.44.35,10.87-.84-.95,10.39,1.65,5.19.82C815.42,292.73,817.11,293.3,818.78,294Z"/>
      <path class="f" d="M782.79,275a25.42,25.42,0,0,1,.92,2.8c0,.92-.06,1.85-.09,2.77l-.17,5.55-.16,5.55-.09,2.77c-.33.92-.65,1.83-1.08,2.74-.37-.93-.64-1.87-.92-2.8l.09-2.77.16-5.55.17-5.55c0-.92.07-1.85.07-2.77A25.27,25.27,0,0,1,782.79,275Z"/>
      <path class="f" d="M578.51,59.54a23,23,0,0,1,1.71-9.41,23.43,23.43,0,0,1,6.2-7.5,28.84,28.84,0,0,1,18.18-5.75,42.84,42.84,0,0,1,9.51,1.19,34.43,34.43,0,0,1,9,3.46,26.79,26.79,0,0,1,4,2.79,17.83,17.83,0,0,1,3.26,3.73,12.82,12.82,0,0,1,1.34,9.45,12.8,12.8,0,0,0-3-8.36,18.35,18.35,0,0,0-6.57-5.87,37.39,37.39,0,0,0-17.52-4.39,26.81,26.81,0,0,0-16.92,5.32A21,21,0,0,0,582,51.06,26.79,26.79,0,0,0,578.51,59.54Z"/>
      <path class="f" d="M575,55.19a33.89,33.89,0,0,0-3.69.75c-.59,0-1.18.05-1.78.08s-1.17.16-1.76.23a18.18,18.18,0,0,0-6.55,2.5,17.22,17.22,0,0,0-5.09,4.79l-.53.71a7.37,7.37,0,0,0-.45.77c-.3.51-.57,1-.87,1.55-.8.93-1.47,2-2.34,3a27.31,27.31,0,0,1,.55-3.87c.3-.57.64-1.13,1-1.69a8.77,8.77,0,0,1,.49-.84l.58-.78a19,19,0,0,1,5.65-5.32,20.21,20.21,0,0,1,7.26-2.77c.64-.08,1.28-.18,1.93-.25s1.29-.12,1.93-.11A14.1,14.1,0,0,1,575,55.19Z"/>
      <path class="f" d="M552.41,79.12a10.79,10.79,0,0,0-3.71-.22,6.85,6.85,0,0,0-3.29.37,9.5,9.5,0,0,0-5,4.54,9.28,9.28,0,0,0-.87,6.67,7.76,7.76,0,0,0,1.56,3,13,13,0,0,0,2.15,3.06,9.63,9.63,0,0,1-3.69-1.78,9.93,9.93,0,0,1-2-3.74,11.26,11.26,0,0,1,1-8.12,11.46,11.46,0,0,1,6.07-5.49,9.39,9.39,0,0,1,4.21-.5A8.17,8.17,0,0,1,552.41,79.12Z"/>
      <path class="f" d="M539.44,92.8A6.67,6.67,0,0,0,536,97.66a21.91,21.91,0,0,0-.3,2.91,8,8,0,0,0,.56,2.81,6.76,6.76,0,0,0,4.11,3.69,11.78,11.78,0,0,0,2.91.62c.5,0,1,0,1.52,0s1.07,0,1.61,0l26-.28,26-.29c8.68-.3,17.37.28,26.05.71-8.67.63-17.33,1.4-26,1.29l-26,.29-26,.28c-.55,0-1.08,0-1.64,0a16.85,16.85,0,0,1-1.74,0,13.73,13.73,0,0,1-3.43-.73,10,10,0,0,1-3.12-1.81,8.18,8.18,0,0,1-2.14-3,9.89,9.89,0,0,1-.72-3.53,7.48,7.48,0,0,1,.58-3.5A7,7,0,0,1,539.44,92.8Z"/>
      <path class="f" d="M578.51,70.85a13.22,13.22,0,0,0-1.23,2,8.74,8.74,0,0,0-1.4,1.45,11,11,0,0,0-1.81,3.65,15.52,15.52,0,0,0-.59,4.15c0,.71,0,1.42.08,2.13-.21.74-.41,1.5-.71,2.31a19.07,19.07,0,0,1-1.28-2.13c0-.78-.09-1.56-.09-2.34a17.82,17.82,0,0,1,.67-4.68,13,13,0,0,1,2.15-4.31A11.84,11.84,0,0,1,576,71.28,6.09,6.09,0,0,1,578.51,70.85Z"/>
      <path class="f" d="M187.17,245a8.54,8.54,0,0,1,.46,1.34c-.17.29-.3.6-.46.9l-.89,1.79-.89,1.79-.44.89a10,10,0,0,1-1.34.46,9.28,9.28,0,0,1-.45-1.35l.44-.89.89-1.79.89-1.79c.15-.3.31-.6.44-.9A7.36,7.36,0,0,1,187.17,245Z"/>
      <path class="f" d="M271.07,75.17a41.61,41.61,0,0,1,8.29-12.26,47.32,47.32,0,0,1,12.5-8.15A59.73,59.73,0,0,1,321,50.15a67.84,67.84,0,0,1,28.22,8.7,57,57,0,0,1,11.83,9A45.43,45.43,0,0,1,369,80.39a48.23,48.23,0,0,0-9.32-11.1,54.88,54.88,0,0,0-11.42-8.71,65.85,65.85,0,0,0-27.37-8.44,57.61,57.61,0,0,0-28.17,4.45,44.4,44.4,0,0,0-12,7.81A46.94,46.94,0,0,0,271.07,75.17Z"/>
      <path class="f" d="M371.73,72.25a32.44,32.44,0,0,1,7.94-.06,48.14,48.14,0,0,1,7.61,2.34,42.38,42.38,0,0,1,13.39,8.53A43.2,43.2,0,0,1,409.92,96a53.23,53.23,0,0,1,2.86,7.41c.24,1.3.4,2.62.59,3.93s.18,2.63.25,3.94l-1.3-3.7c-.5-1.2-.93-2.42-1.45-3.59a51.27,51.27,0,0,0-2.76-7.13,41.14,41.14,0,0,0-8.82-12.31,40.48,40.48,0,0,0-12.75-8.13,45.09,45.09,0,0,0-7.29-2.22A50.49,50.49,0,0,0,371.73,72.25Z"/>
      <path class="f" d="M416,106.93a13.31,13.31,0,0,1,3.71.35c.55.24,1.07.57,1.61.85s1,.64,1.56,1a22.3,22.3,0,0,1,5.35,5,19.52,19.52,0,0,1,3.35,6.52,21.71,21.71,0,0,1,.81,3.57,21.73,21.73,0,0,1-.73,3.64c-.49-1.16-.77-2.29-1.25-3.36a20,20,0,0,0-.74-3.26,17.46,17.46,0,0,0-3-5.89,19.91,19.91,0,0,0-4.87-4.55,24.14,24.14,0,0,0-2.93-1.65C417.9,108.34,417,107.65,416,106.93Z"/>
      <path class="f" d="M431.61,127.81a23.35,23.35,0,0,1,10.56,3.29,11.63,11.63,0,0,1,1.14.85l1.06,1a10.84,10.84,0,0,1,1,1c.3.37.64.71.92,1.11a17.2,17.2,0,0,1,1.5,2.46l.62,1.31.44,1.38a14.88,14.88,0,0,1,.61,2.8l.11.71v.07s0,.19,0,.11v.3l0,.39a7.38,7.38,0,0,1-.33,1.55,7.13,7.13,0,0,1-4.26,4.39,6.24,6.24,0,0,1-1.53.38,11.43,11.43,0,0,1-1.49.07H401.15c-3.62-.34-7.25-.59-10.87-1,3.62-.41,7.25-.66,10.87-1h40.78a9.25,9.25,0,0,0,1.23-.05,4.58,4.58,0,0,0,1.09-.27,5.1,5.1,0,0,0,3.06-3.16,5.83,5.83,0,0,0,.24-1.1v-.5c0-.09,0,.1,0,.07v-.06l-.11-.63a12.26,12.26,0,0,0-.53-2.49l-.39-1.22-.55-1.15a15.44,15.44,0,0,0-1.31-2.17,16.94,16.94,0,0,0-3.68-3.54A26.05,26.05,0,0,0,431.61,127.81Z"/>
      <path class="f" d="M782.12,98.18c-.32-1.71-.58-3.42-.81-5.12,0-.43-.14-.85-.15-1.28s.05-.85,0-1.28l0-2.55.1-10.22a1,1,0,0,1,.59-.9L795,71l.1,0,6.83-2.15a8.45,8.45,0,0,1,.85-.28c.29-.06.59-.1.89-.15l1.79-.28c1.19-.18,2.39-.35,3.59-.49-1.06.58-2.14,1.13-3.22,1.67l-1.63.79-.81.39c-.28.12-.58.16-.86.26l-6.82,2.15.1,0-13,5.85.59-.91L783.22,88l0,2.55c0,.43,0,.86,0,1.28s-.12.85-.17,1.28C782.77,94.78,782.48,96.48,782.12,98.18Z"/>
      <path class="f" d="M794.79,157.48a14.06,14.06,0,0,1,.89,1.9c-.06.61-.09,1.22-.13,1.83l-.24,3.67-.24,3.66-.12,1.84a17.86,17.86,0,0,1-1.12,1.76,16,16,0,0,1-.88-1.89l.12-1.84.24-3.66.24-3.67c0-.61.09-1.22.11-1.84A14.9,14.9,0,0,1,794.79,157.48Z"/>
      <path class="f" d="M794.43,203.68a14.63,14.63,0,0,1,1,1.94c0,.65,0,1.3,0,2l.07,3.91.08,3.92,0,2a17.82,17.82,0,0,1-1,2,19.23,19.23,0,0,1-1-1.94l0-2-.08-3.92-.07-3.92c0-.65,0-1.3,0-2A15.14,15.14,0,0,1,794.43,203.68Z"/>
      <path class="f" d="M794.42,111.57a17.13,17.13,0,0,1,1.06,2c0,.68,0,1.36,0,2.05l.09,4.11.09,4.1,0,2a20.28,20.28,0,0,1-1,2.08,19.61,19.61,0,0,1-1-2l0-2-.09-4.11-.09-4.11c0-.68,0-1.36-.06-2A16,16,0,0,1,794.42,111.57Z"/>
      <path class="f" d="M805,75.61c-1.09,1-2.23,1.87-3.37,2.75a2.76,2.76,0,0,1-.92.54l-1,.47-1.89,1-7.58,3.84.54-.79-.34,3.27-1.31-1.05L797.06,83l2-.65c.33-.11.66-.21,1-.33a2.87,2.87,0,0,1,1-.24c1.4-.17,2.81-.34,4.23-.44-1.2.78-2.43,1.48-3.66,2.17a2.88,2.88,0,0,1-1,.42l-1,.32-2,.65L789.8,87.5a1,1,0,0,1-1.26-.64,1,1,0,0,1,0-.41l.34-3.28a1,1,0,0,1,.54-.79L797,78.55l1.89-1,.95-.48a3,3,0,0,1,1-.43C802.16,76.29,803.56,75.91,805,75.61Z"/>
      <path class="f" d="M819,90.43c.42,4.72.72,9.43,1,14.15v84.88c-.33,4.72-.59,9.43-1,14.15-.4-4.72-.66-9.43-1-14.15V104.58C818.24,99.86,818.54,95.15,819,90.43Z"/>
      <g>
        <path class="g" d="M408.83,282.11l-8.27,4.06h0c-3.95,2.33-7.9,4.66-11.88,6.95-2,1.16-4,2.24-5.87,3.57l-5.72,3.82h0l-8.31,4h0l-8.61,3.31.1-.05-7.49,5.35,0,0h0l-8,4.42h-.05l-8.44,3.64.05,0L312.33,334.8c-3.89,2.42-7.7,5-11.74,7.17s-8,4.44-12.07,6.63l0,0h0L280,352.11,271.65,356l.13-.08-7.51,5.36,0,0-.05,0-8.05,4.43L248,370l-.05,0-.06,0-8.62,3.25.12-.05-8.11,4.27.09,0-7.69,5.07-.08.05-.08,0L215,386.25l.12-.07-7.8,4.82,0,0h0l-6.16,3.13c-2,1.09-4.17,2-6.27,2.92s-4.21,1.89-6.37,2.68l-6.44,2.5.07,0-8.07,4.37-7.82,4.81h0l-8.26,4-.09-.18,8.09-4.33h0l7.65-5.13,8-4.6,0,0,0,0L188,398.5c2.13-.84,4.18-1.86,6.26-2.82s4.18-1.87,6.18-3l6.08-3.21-.06,0,7.73-4.93.05,0,.07,0,8.41-3.72-.15.09,7.66-5.11,0,0,0,0,8.1-4.29.06,0,.06,0,8.65-3.2-.11.05,8.17-4.16,8.07-4.34-.09,0,7.58-5.27.07-.05.06,0,8.39-3.82,8.56-3.41-.07,0c4-2.14,8.13-4.22,12.08-6.5s7.88-4.67,11.78-7.06l24-13.44,0,0h0l8.47-3.57,0,0,8.09-4.33-.05,0,7.55-5.27.05,0,0,0,8.64-3.21h0L376.8,300l0,0,5.77-3.76c1.89-1.31,3.93-2.37,5.92-3.51,4-2.25,8-4.54,12-6.82h0l8.31-4Z"/>
        <path class="g" d="M339.66,300.53l-7.83,4.63h0l-8.46,3.13h0l-8.14,3.86h0c-4.23,1.55-8.51,3-12.66,4.75-4.21,1.59-8.27,3.58-12.38,5.43-4.18,1.69-8.43,3.23-12.45,5.24-4.12,1.78-8,4.09-12,6.22l-.09.05-.11,0-9.08,1.61.17-.06-8.25,3.71,0,0-7.91,4.36,0,0,0,0L232.14,347h-.06L223.53,350l.11,0-8.16,3.87-8,4.09-.12.06-.14,0-9,1.88.31-.13-7.81,4.69-.11.06-.1,0-8.69,2.56L182,367l-7.67,5-.07,0-.07,0-8.5,3.19h0q-4.32,1.29-8.66,2.52l0,0-8.19,3.75-.09-.18,8-4.21h.05q4.26-1.47,8.54-2.89h0l8.39-3.49-.14.07,7.54-5.2.1-.06.13,0,8.63-2.74-.22.09,7.73-4.82.14-.09.18,0,9-1.93-.26.09,8.1-4.06,8.22-3.79.06,0,0,0,8.59-2.79-.06,0,8.34-3.41-.07,0,8-4.26,0,0h0l8.3-3.61.08,0,.09,0,9.09-1.5-.2.07c4-2.09,7.92-4.36,12.11-6.12,4.08-2,8.34-3.46,12.54-5.11s8.22-3.71,12.48-5.25,8.49-3.07,12.75-4.56h0l8.2-3.74h0l8.51-3,0,0,7.9-4.52Z"/>
        <path class="g" d="M573.52,287.54l8.73,3.18,8.68,3.33h0l8.16,4.42,8.37,4h0l7.92,5.06-.13-.05,9.35,1.82.09,0,.08.06,7.56,5.76-.17-.08,9.11,2.41.07,0,.06,0,8,4.64-.09,0,8.74,3.22h0l0,0,8.36,4.07h0l8.62,3.48,0,0,0,0,8.09,4.56,0,0,8.43,3.86h0l0,0,8,4.75-.19-.08,9.07,2.46.07,0,.08,0,6.25,3.13c2.11,1,4.1,2.19,6.13,3.33s4,2.33,6.11,3.33l6.22,3.13-.15-.07,8.94,2.76.09,0,.09,0,8.21,4.38,0,0,0,0,7.78,5.25-.21-.11c4.34,1.65,8.71,3.23,13,5s8.59,3.65,12.86,5.54c4.11,2.18,8.2,4.42,12.37,6.46s8.24,4.3,12.35,6.47l-.07,0,8.75,3.24h0l8.33,4.17h0l7.81,5.08-.1.17-8-4.77h0l-8.49-3.84,0,0-8.83-3h0l0,0c-4.16-2.07-8.3-4.17-12.5-6.15s-8.31-4.15-12.44-6.25c-4.26-1.81-8.46-3.73-12.82-5.3s-8.68-3.28-13-4.89l-.11,0-.1-.07-7.8-5.23.09.05-8.19-4.43.18.07-8.93-2.83-.08,0-.07,0L726.43,360c-2.09-1-4.07-2.25-6.09-3.4s-4-2.38-6.08-3.39l-6.19-3.17.16.06-9.05-2.55-.11,0-.08-.05-8-4.82.06,0-8.39-3.93,0,0h0l-8.05-4.63.08,0-8.6-3.55h0l-8.32-4.15.06,0L649,323.18l0,0,0,0-8-4.7.13.05L632,316l-.09,0-.07-.06-7.49-5.84.17.08-9.33-1.93-.07,0-.05,0L607.18,303l0,0-8.33-4.1-8.13-4.51h0L582.15,291l-8.7-3.27Z"/>
        <path class="g" d="M658.85,308.28l8.27,4.31h0l8.68,3.42,8.47,3.88-.07,0,9.18,1.85h.06l.06,0,8.12,4.68-.12-.05,9,2.37h0l0,0,8.58,3.52-.08,0,9,2.39h.06l8.73,3.23h0l0,0,8.32,4.11,8.45,3.84-.06,0,6.55,2.39c2.2.78,4.35,1.64,6.52,2.48s4.32,1.7,6.52,2.43l6.56,2.3.09,0,.09.05c2.71,1.56,5.4,3.15,8.09,4.74l-.2-.09,8.84,3-.15,0,9.34,1.66.22.05.17.12,7.55,6-.33-.14,9.24,2h.08c2.91,1.1,5.82,2.18,8.72,3.3l0,0h0l8.07,4.74-.1.18-8.33-4.26.06,0c-3-.94-5.91-1.93-8.86-2.91l.08,0-9.3-1.62-.16,0-.16-.12-7.68-5.78.39.17-9.37-1.46h-.06l-.08,0-8.87-2.86-.1,0-.09-.05c-2.71-1.57-5.41-3.14-8.1-4.74l.18.08L772.6,355c-2.21-.75-4.34-1.67-6.5-2.53s-4.31-1.77-6.48-2.58l-6.5-2.49h-.06l-8.42-4-8.29-4.22.07,0-8.69-3.34.06,0-9-2.5,0,0h0l-8.54-3.63.07,0-9-2.49-.07,0,0,0-8-4.82.12.05-9.16-2H684l-8.4-4-8.6-3.55h0l-8.2-4.44Z"/>
        <path class="g" d="M462.38,326.75l-4.92,7.37v0L453.29,342l-4.45,7.71,0,.05,0,0L442.22,356l.09-.11-4.39,7.77v0l0,0L433,371.1l.06-.1-3.5,8.31,0,.09-.07.09-5.69,6.88.07-.09L420.37,392c-1.09,2-2.41,3.74-3.65,5.58s-2.54,3.66-3.69,5.55l-3.56,5.62-.07.09-.09.09c-2.18,2.09-4.36,4.18-6.58,6.23l.21-.28c-1.37,2.64-2.7,5.31-4.1,7.93l0,.07,0,0-5.1,7.3,0,0,0,0q-2.85,3.42-5.75,6.79l.06-.08-4.68,7.58c-1.45,2.59-2.88,5.19-4.36,7.77l-.18-.09c1.23-2.71,2.51-5.4,3.77-8.1l4.29-7.83,0,0,0-.06q2.71-3.53,5.5-7l0,.06,4.88-7.45-.06.11c1.3-2.68,2.67-5.33,4-8l.08-.15.13-.13c2.18-2.09,4.4-4.15,6.61-6.2l-.16.18,3.66-5.58c1.2-1.88,2.52-3.66,3.8-5.47s2.63-3.58,3.75-5.49l3.5-5.65,0-.05,0,0,5.79-6.8-.1.17,3.63-8.25,0-.06,0-.05,5.06-7.28,0,0,4.51-7.69,0-.07.05-.05,6.69-6.13-.07.09,4.6-7.62,4.34-7.77h0l5.08-7.26Z"/>
        <path class="g" d="M473.43,360.45l.46,9h0v0l-.4,8.94v-.06l.72,8.95v.07l-.36,8.91.25,8.92v.12c-.32,3-.63,6-1,9V414c.25,1.49.45,3,.66,4.48s.42,3,.6,4.5l0,.17,0,.11c-.53,3-1.08,5.94-1.7,8.89V432c.1,1.5.22,3,.31,4.51s.17,3,.21,4.52l-.2,0c-.31-1.48-.57-3-.85-4.45s-.5-3-.75-4.46V432c.31-3,.69-6,1.09-9v.29c-.27-1.49-.51-3-.73-4.48s-.48-3-.68-4.48l0-.16,0-.12c.4-3,.84-6,1.27-8.94v.12l.05-9,.63-8.94v.07l-.43-9v-.06l.76-8.92v0l-.11-9Z"/>
        <path class="g" d="M533.27,281.57l3.36,8.54,2.79,8.75v0l3.79,8.35,3.87,8.31v.05l2.88,8.77,0-.09,4.57,8,0,.06,0,.07,2.52,8.86,0-.07,2.69,6.33c.87,2.13,1.85,4.2,2.8,6.29s1.9,4.17,2.9,6.24l3,6.22,0,.06,0,.07,2.51,8.86,0-.12,3.73,8.4-.06-.11,4.86,7.9.08.13,0,.15c.75,3,1.52,6,2.24,9l0-.15,3.57,8.45,3.75,8.38,0,.05v0l2.9,8.72,0-.13,4.35,8.15,0,.06v0c.94,2.93,1.91,5.85,2.82,8.79v0h0c.64,3,1.3,6,1.92,9.07l-.2,0c-.85-3-1.66-5.95-2.48-8.93v0c-1.1-2.88-2.15-5.77-3.22-8.66l0,.1-4.67-8,0-.05,0-.08-3.1-8.65,0,.08-4-8.31-3.64-8.46,0-.07,0-.08c-.77-3-1.48-6-2.21-9l.12.28-4.75-8,0-.06,0,0-3.59-8.46,0-.06,0-.06-2.36-8.9.05.13-2.88-6.27c-1-2.08-1.89-4.19-2.82-6.29s-1.89-4.2-2.73-6.34l-2.61-6.39,0,0v0l-2.4-8.9,0,.13-4.46-8.1,0,0v-.05l-2.73-8.82,0,0-3.73-8.38-3.64-8.41v0h0l-2.64-8.79-3.21-8.59Z"/>
      </g>
      <path class="f" d="M847.94,157.68c0,.7,0,1.41-.06,2.21a4.57,4.57,0,0,1-.81,2.31,6.47,6.47,0,0,1-4.52,1.86,6.38,6.38,0,1,1,4.52-10.89,4.72,4.72,0,0,1,.8,2.31C847.94,156.27,847.93,157,847.94,157.68Zm0,0a2.9,2.9,0,0,0-.76-1.92,6.49,6.49,0,0,0-1.53-1.18,4.39,4.39,0,0,0-6.2,0,4.39,4.39,0,0,0,0,6.2,4.37,4.37,0,0,0,3.1,1.28,4.3,4.3,0,0,0,3.09-1.29,6.76,6.76,0,0,0,1.53-1.18A2.82,2.82,0,0,0,847.94,157.68Z"/>
      <path class="f" d="M847.94,176c0,.7,0,1.41-.06,2.21a4.57,4.57,0,0,1-.81,2.31,6.47,6.47,0,0,1-4.52,1.86,6.38,6.38,0,1,1,4.52-10.89,4.75,4.75,0,0,1,.8,2.31C847.94,174.54,847.93,175.25,847.94,176Zm0,0a2.9,2.9,0,0,0-.76-1.92,6.76,6.76,0,0,0-1.53-1.18,4.39,4.39,0,0,0-6.2,0,4.39,4.39,0,0,0,0,6.2,4.37,4.37,0,0,0,3.1,1.28,4.3,4.3,0,0,0,3.09-1.29,6.76,6.76,0,0,0,1.53-1.18A2.82,2.82,0,0,0,847.94,176Z"/>
      <path class="f" d="M847.94,194.22c0,.7,0,1.42-.06,2.21a4.54,4.54,0,0,1-.81,2.31,6.47,6.47,0,0,1-4.52,1.86,6.38,6.38,0,1,1,4.52-10.89,4.75,4.75,0,0,1,.8,2.31C847.94,192.81,847.93,193.52,847.94,194.22Zm0,0a2.9,2.9,0,0,0-.76-1.92,6.76,6.76,0,0,0-1.53-1.18,4.39,4.39,0,0,0-6.2,0,4.39,4.39,0,0,0,0,6.2,4.37,4.37,0,0,0,3.1,1.28,4.3,4.3,0,0,0,3.09-1.29,6.76,6.76,0,0,0,1.53-1.18A2.8,2.8,0,0,0,847.94,194.22Z"/>
      <path class="f" d="M847.94,212.49c0,.7,0,1.42-.06,2.21a4.54,4.54,0,0,1-.81,2.31,6.39,6.39,0,0,1-9,0,6.39,6.39,0,0,1,9-9,4.75,4.75,0,0,1,.8,2.31C847.94,211.08,847.93,211.79,847.94,212.49Zm0,0a2.9,2.9,0,0,0-.76-1.92,7.07,7.07,0,0,0-1.53-1.18,4.38,4.38,0,1,0-3.1,7.49,4.31,4.31,0,0,0,3.09-1.3,6.49,6.49,0,0,0,1.53-1.18A2.8,2.8,0,0,0,847.94,212.49Z"/>
      <path class="h" d="M639.8,64.55s28.42,3,28.42,33.5"/>
      <path class="f" d="M855.38,107.74c3.46-1.16,6.93-2.21,10.41-3.25l10.63-2.27,21.25-4.54,21.12-5.12L929.34,90c3.6-.53,7.18-1.13,10.8-1.59-3.43,1.25-6.89,2.35-10.33,3.53l-10.57,2.56-21.13,5.12-21.26,4.54-10.63,2.29C862.62,106.93,859,107.39,855.38,107.74Z"/>
      <path class="f" d="M870.81,95.28a9,9,0,0,1,1,1.15c0,.38,0,.76,0,1.14l-.06,2.26-.05,2.26,0,1.13a10.29,10.29,0,0,1-1,1.11,12.27,12.27,0,0,1-1-1.15l0-1.14.05-2.26.06-2.26c0-.38,0-.76,0-1.13A8.81,8.81,0,0,1,870.81,95.28Z"/>
      <path class="f" d="M882.33,102a8.46,8.46,0,0,1,1,1.11c0,.37,0,.74,0,1.11v5.52a10.09,10.09,0,0,1-1,1.1,9.88,9.88,0,0,1-1-1.11v-5.52c0-.37,0-.73,0-1.1A9.23,9.23,0,0,1,882.33,102Z"/>
      <path class="f" d="M864,106.2a8.77,8.77,0,0,1,1.09,1c0,.35,0,.7.07,1l.17,2.09.17,2.09.08,1a9.74,9.74,0,0,1-.91,1.12,9.42,9.42,0,0,1-1.08-1l-.08-1-.17-2.09-.17-2.08c0-.35,0-.7-.09-1.05A8.11,8.11,0,0,1,864,106.2Z"/>
      <path class="f" d="M894,90.43a8.36,8.36,0,0,1,1,1.13c0,.37,0,.74,0,1.12l0,2.23,0,2.23v1.12a9.25,9.25,0,0,1-1,1.1,9.94,9.94,0,0,1-1-1.12V97.12l0-2.23,0-2.23c0-.38,0-.75,0-1.12A8.58,8.58,0,0,1,894,90.43Z"/>
      <path class="f" d="M907,96.55a8.57,8.57,0,0,1,.94,1.26c0,.4,0,.8-.07,1.21l-.14,2.41-.13,2.41-.06,1.21a12.48,12.48,0,0,1-1.07,1.15,10.17,10.17,0,0,1-.93-1.26l.06-1.21.14-2.41.13-2.41c0-.41,0-.81,0-1.21A8.8,8.8,0,0,1,907,96.55Z"/>
      <path class="f" d="M915.78,94.37c-.33-1.77-.59-3.55-.82-5.32a12.3,12.3,0,0,1-.15-1.33c0-.45,0-.89,0-1.33l0-2.66.39-10.62,1.35,1-19.36,7.23.65-.86c-.07.7-.08,1.41-.15,2.11l-.46,2.08q-.46,2.08-1,4.17c-.15-1.43-.28-2.85-.39-4.27l-.14-2.13c0-.71.13-1.41.16-2.11a1,1,0,0,1,.63-.85h0l19.36-7.23a1,1,0,0,1,1.29.58.89.89,0,0,1,.06.39l-.39,10.6,0,2.65c0,.44,0,.88,0,1.32s-.12.88-.17,1.33C916.42,90.84,916.13,92.6,915.78,94.37Z"/>
      <path class="f" d="M757.54,145.25c.42,2.28.71,4.56,1,6.85v41.11c-.3,2.28-.6,4.56-1,6.85-.4-2.29-.69-4.57-1-6.85V152.1C756.83,149.81,757.13,147.53,757.54,145.25Z"/>
      <path class="h" d="M658.07,136.11s-4.06,3.55-2.54,10.15"/>
      <path class="h" d="M662.64,134.08s6.09-2,8.62,3.55"/>
      <circle class="i" cx="657.82" cy="142.45" r="1.08"/>
      <circle class="i" cx="664.41" cy="140.42" r="1.08"/>
      <path class="h" d="M660.1,144.74s3.55.51,5.58-2"/>
      <path class="h" d="M656.55,148.29a4.57,4.57,0,0,0,4.56,2v2.54"/>
      <path class="h" d="M658.58,152.86A14.51,14.51,0,0,0,654.52,165"/>
      <line class="h" x1="662.13" y1="154.38" x2="665.68" y2="155.9"/>
      <line class="h" x1="670.76" y1="151.34" x2="667.2" y2="155.4"/>
      <path class="h" d="M673.29,149.31s6.6,2,7.62,7.61"/>
      <path class="h" d="M672.28,142.2a5.42,5.42,0,0,0,5.58.51"/>
      <path class="h" d="M672.28,139.16s2.54,1,4.06,0"/>
      <path class="h" d="M672.28,145.25s2.54,2.53,7.61,2.53"/>
      <polyline class="j" points="34.51 56.99 57.29 64.25 79.59 72.86 102.09 80.91 124.78 88.43 147.11 96.97 169.7 104.73 192.35 112.38 214.54 121.28 237.22 128.86 259.8 136.69 282.48 144.23 304.94 152.4 327.18 161.19 349.67 168.74 349.62 192.9 350.01 217.24"/>
      <polyline class="j" points="3.6 215.05 28.36 217.3 53.19 218.67 77.98 220.61 102.69 223.59 127.63 224.9 127.36 250.99 127.36 276.99 126.92 303 127.16 329"/>
      <polyline class="j" points="0.28 260.86 25.64 260.68 51.01 260.87 76.38 261.1 101.75 260.3 127.12 261.11"/>
      <polyline class="j" points="0.24 303.97 25.44 302.67 50.7 302.34 75.84 300.01 101.07 299.18 126.26 297.63"/>
      <polyline class="j" points="233.84 298.02 233.86 275.89 233.93 253.76 234.12 232.03 257.19 231.46 280.58 233.18 304.03 232.65 327.42 234.3 350.87 233.85 374.66 234.4 374.88 249.33"/>
      <polyline class="j" points="228.22 231.63 222.2 238.18 222.68 263.16 222.82 288.06"/>
      <polyline class="j" points="134.85 224.99 134.52 249.6 134.38 274.22 134.27 298.85 134.22 323.47"/>
      <polyline class="j" points="235.96 250.17 261.84 250.37 287.68 248.75 313.56 248.61 339.4 247.12 365.28 247"/>
      <polyline class="j" points="97.69 55.38 117.08 57.3 136.3 59.45 161.16 51.98 186.22 44.31 198.33 57.92 211.03 70.71"/>
      <line class="j" x1="137.61" y1="67.86" x2="137.4" y2="88.89"/>
      <line class="j" x1="96.61" y1="64" x2="97.9" y2="78.75"/>
      <polyline class="j" points="97.83 51.77 122.45 42.15 147.45 33.58 167.31 36.71 187.21 39.63"/>
      <polyline class="j" points="192.31 42.88 206.96 57.06 221.14 72.23 207.72 76.43 208.8 96.82 208.84 116.93"/>
      <polyline class="j" points="34.44 114.91 57.3 119.55 79.89 125.26 102.46 131.08 125.3 135.78 147.73 142.17 170.25 148.18 193.21 152.41 215.59 159.01 238.31 164.21 260.99 169.6 283.61 175.22 306.23 180.88 328.84 186.56"/>
      <polyline class="j" points="37.9 168.54 62.18 171.72 86.33 175.88 110.64 178.84 134.97 181.65 159.16 185.5 183.31 189.63 207.73 191.8 231.93 195.59 256.07 199.79 280.33 203.14 304.6 206.49 328.86 209.86"/>
      <g>
        <line class="d" x1="88.61" y1="232.47" x2="88.96" y2="260.8"/>
        <line class="j" x1="88.61" y1="232.47" x2="88.96" y2="260.8"/>
      </g>
      <g>
        <line class="d" x1="51.8" y1="263.99" x2="52.07" y2="291.64"/>
        <line class="j" x1="51.8" y1="263.99" x2="52.07" y2="291.64"/>
      </g>
      <polyline class="j" points="134.37 270.11 155.89 269.05 177.42 268.52 198.97 268.42 220.48 267.19"/>
      <polyline class="j" points="195.99 267.45 196.23 242.9 195.83 218.59 175.09 216.88 154.06 215.01 153.8 233.84 154.75 252.65"/>
      <polyline class="j" points="153.83 225.3 174.81 227.05 195.87 227.68"/>
      <polyline class="j" points="203.19 218.35 203.92 239.37 204.41 260.4"/>
      <polyline class="j" points="155.22 288.4 177.81 285.38 200.57 284.17 223.22 281.73"/>
      <polyline class="j" points="149.66 279.26 173.98 277.26 198.38 276.44 222.69 274.22"/>
      <circle class="j" cx="177.87" cy="76.16" r="13.3"/>
      <polyline class="j" points="178.88 70.08 178.37 76.77 185.07 76.61"/>
      <polyline class="j" points="176.8 37.86 151.01 46.99 125.88 57.76"/>
      <polyline class="j" points="165.08 35.61 138 45.69 111.06 56.12"/>
      <polyline class="j" points="53.91 118.84 54.51 94.3 75.07 100.36 95.91 106.1 95.52 119.87"/>
      <polyline class="j" points="59.06 100.57 76.98 107 95.39 111.73"/>
      <polyline class="j" points="122.43 136.55 121.86 111.84 142.66 117.76 162.53 124.72 162.34 137.57"/>
      <polyline class="j" points="126.22 119.46 144.59 124.34 162.75 129.94"/>
      <polyline class="j" points="189.05 151.96 189.33 130.54 210.06 136.91 230.04 143.54 230.71 155.28"/>
      <polyline class="j" points="194.06 137.1 212.19 142.8 230.41 148.16"/>
      <polyline class="j" points="256.56 168.56 257.46 151.46 277.31 157.65 297.98 162.96 298.29 172.98"/>
      <polyline class="j" points="261.46 157.33 279.51 163.3 298.12 167.34"/>
      <polyline class="j" points="53.91 169.74 54.66 145.36 75.13 149.28 95.04 154.56 95.82 170.77"/>
      <polyline class="j" points="58.88 152.16 77.11 155.93 95.57 158.49"/>
      <polyline class="j" points="121.96 180.73 122.07 158.54 142.54 163.53 163.12 168.37 162.96 184.05"/>
      <polyline class="j" points="126.45 165.09 144.57 169.87 163 173.28"/>
      <polyline class="j" points="189.94 189.58 189.75 173.2 210.12 176.97 230.71 181.51 230.46 195.11"/>
      <polyline class="j" points="194.01 179.13 212.19 183.13 230.49 186.53"/>
      <polyline class="j" points="257.43 199.54 257.36 185.63 277.6 188.62 297.54 193.39 297.9 205.07"/>
      <line class="j" x1="261.46" y1="191.53" x2="296.16" y2="198.66"/>
      <path class="j" d="M113.43,207.48l-.52-.16a10.53,10.53,0,0,1-7.51-10.09v-3.47a10.55,10.55,0,0,1,4.23-8.45h0a10.55,10.55,0,0,1,14,1.21l1.06,1.12a10.55,10.55,0,0,1,2.88,7.24v2.35A10.53,10.53,0,0,1,120,207.32l-.53.16A10.6,10.6,0,0,1,113.43,207.48Z"/>
      <g>
        <polygon class="d" points="116.99 223.8 113.89 223.93 114.83 199.62 116.87 199.62 116.99 223.8"/>
        <polygon class="k" points="116.99 223.8 113.89 223.93 114.83 199.62 116.87 199.62 116.99 223.8"/>
      </g>
      <path class="l" d="M238.47,215.23l-.53-.16A10.55,10.55,0,0,1,230.43,205V201.5a10.53,10.53,0,0,1,4.24-8.44h0a10.53,10.53,0,0,1,14,1.21l1.05,1.12a10.51,10.51,0,0,1,2.88,7.23V205a10.54,10.54,0,0,1-7.51,10.09l-.52.16A10.6,10.6,0,0,1,238.47,215.23Z"/>
      <g>
        <polygon class="d" points="242.75 231.65 238.85 231.69 239.15 207.26 242.7 207.27 242.75 231.65"/>
        <polygon class="k" points="242.75 231.65 238.85 231.69 239.15 207.26 242.7 207.27 242.75 231.65"/>
      </g>
      <g>
        <line class="d" x1="260.8" y1="237.16" x2="260.22" y2="248.7"/>
        <line class="j" x1="260.8" y1="237.16" x2="260.22" y2="248.7"/>
      </g>
      <g>
        <line class="d" x1="282.79" y1="250.95" x2="282.29" y2="264.86"/>
        <line class="j" x1="282.79" y1="250.95" x2="282.29" y2="264.86"/>
      </g>
      <g>
        <line class="d" x1="305.31" y1="236.05" x2="304.43" y2="245.75"/>
        <line class="j" x1="305.31" y1="236.05" x2="304.43" y2="245.75"/>
      </g>
      <g>
        <polyline class="d" points="249.2 267.74 275.79 265.1 302.4 262.66 328.95 259.64"/>
        <polyline class="j" points="249.2 267.74 275.79 265.1 302.4 262.66 328.95 259.64"/>
      </g>
      <g>
        <line class="d" x1="87.39" y1="301.34" x2="87.03" y2="323.47"/>
        <line class="j" x1="87.39" y1="301.34" x2="87.03" y2="323.47"/>
      </g>
      <g>
        <polyline class="d" points="25.76 105 25.06 126.5 24.66 148 24.57 169.5 24.84 191"/>
        <polyline class="h" points="25.76 105 25.06 126.5 24.66 148 24.57 169.5 24.84 191"/>
      </g>
      <g>
        <line class="d" x1="44.66" y1="185" x2="45.72" y2="210"/>
        <line class="h" x1="44.66" y1="185" x2="45.72" y2="210"/>
      </g>
      <g>
        <line class="d" x1="58.61" y1="187" x2="59.96" y2="203"/>
        <line class="h" x1="58.61" y1="187" x2="59.96" y2="203"/>
      </g>
      <g>
        <line class="d" x1="71.64" y1="188" x2="72.22" y2="198"/>
        <line class="h" x1="71.64" y1="188" x2="72.22" y2="198"/>
      </g>
      <polyline class="j" points="225.28 97 328.78 137.5 328.78 160.96"/>
      <line class="j" x1="228.28" y1="107" x2="228.28" y2="117"/>
      <line class="j" x1="241.28" y1="112" x2="241.28" y2="122"/>
      <line class="j" x1="254.28" y1="117" x2="254.28" y2="127"/>
      <line class="j" x1="267.28" y1="122" x2="267.28" y2="132"/>
      <line class="j" x1="280.28" y1="127" x2="280.28" y2="137"/>
      <line class="j" x1="293.28" y1="132" x2="293.28" y2="142"/>
      <line class="j" x1="306.28" y1="137" x2="306.28" y2="147"/>
      <line class="m" x1="260.78" y1="312.5" x2="149.78" y2="360.5"/>
      <path class="n" d="M769.15,456.05l-60.44-34.9A8.12,8.12,0,0,1,710,406.48l8.89-3.24a8.15,8.15,0,0,1,6.59.45l63.65,33.74a8.13,8.13,0,0,1-1,14.82l-12.1,4.4A8.13,8.13,0,0,1,769.15,456.05Z"/>
      <path class="o" d="M359.42,287.71c.16.57.34.71.56.42a3.47,3.47,0,0,1,.38-.29,8,8,0,0,0,1.19-.76c1-.58,1.95-1.13,2.94-1.68,1.9-1,3.85-2,5.67-3.23l-1.88-.68a124.19,124.19,0,0,1-10.15,8.28l2.12.5a23.18,23.18,0,0,1,9.69-6.48c1.53-.49,1.19-1.91-.38-1.41a27.1,27.1,0,0,0-11.43,7.39c-1.14,1.2,1.49,1,2.12.5A125.92,125.92,0,0,0,370.4,282c1.12-1.08-1.3-1.07-1.88-.69-2.77,1.81-5.8,3.2-8.62,4.92-.86.53-4.29,2.71-1.47,3.06,1.07.14,2.75-1.35,1-1.57Z"/>
      <g>
        <g>
          <path class="d" d="M660.28,189l-2-11-.13-.52A15.16,15.16,0,0,0,643.44,166H544.28l-77.06,32.59a10,10,0,0,0-5.55,7.87L460.28,219v73l7,1.64c0,1.49,0,2.94.07,4.36h-.07v13.52A10.48,10.48,0,0,0,477.76,322h1c5.79,0,10.48.31,10.48-5.48V303.8l13.05,3.06a94.18,94.18,0,0,0,.95,11.29v1.5a11.25,11.25,0,0,0,1.85,6.2c.79,2,1.69,3.15,2.65,3.15a1.07,1.07,0,0,0,.35-.06,11.22,11.22,0,0,0,6.5,2.06h8.3a11.35,11.35,0,0,0,11.35-11.35v-5.29l7,1.64h42v4.18A11.82,11.82,0,0,0,595.1,332h18.36a11.82,11.82,0,0,0,11.82-11.82V316H636l2.25,9h20l-1.53-9.19a9.24,9.24,0,0,0,7.44-9.28C663.75,286.56,663.78,205.62,660.28,189Z"/>
          <rect class="d" x="452.28" y="230" width="5" height="14"/>
        </g>
        <g>
          <path class="p" d="M514.63,331h8.3a11.35,11.35,0,0,0,11.35-11.35V314l-28-8-1,13C505.28,325.27,506.28,331,514.63,331Z"/>
          <path class="q" d="M477.76,322h1c5.79,0,10.48.31,10.48-5.48V300l-22-5v16.52C467.28,317.31,469.28,323,477.76,322Z"/>
          <path class="r" d="M658.28,178l-.13-.52A15.16,15.16,0,0,0,643.44,166H551.28"/>
          <line class="r" x1="547.28" y1="171" x2="541.28" y2="180"/>
          <path class="r" d="M541.28,193V316H654.93a9.28,9.28,0,0,0,5.93-2.15h0a9.28,9.28,0,0,0,3.33-7.32c-.44-20-.41-100.91-3.91-117.53"/>
          <path class="r" d="M553.28,184v12a6,6,0,0,0,6,6h86a6,6,0,0,0,6-6V184a6,6,0,0,0-6-6H565.61"/>
          <line class="r" x1="641.28" y1="189" x2="562.28" y2="189"/>
          <line class="r" x1="588.28" y1="256" x2="564.28" y2="256"/>
          <line class="r" x1="588.28" y1="261" x2="564.28" y2="261"/>
          <line class="r" x1="588.28" y1="266" x2="564.28" y2="266"/>
          <line class="r" x1="588.28" y1="271" x2="564.28" y2="271"/>
          <line class="r" x1="588.28" y1="276" x2="564.28" y2="276"/>
          <line class="r" x1="588.28" y1="281" x2="564.28" y2="281"/>
          <line class="r" x1="588.28" y1="286" x2="564.28" y2="286"/>
          <line class="r" x1="588.28" y1="291" x2="564.28" y2="291"/>
          <polyline class="r" points="662.61 252.5 655.28 253 656.28 293 663.89 293"/>
          <line class="r" x1="662.95" y1="262.16" x2="656.28" y2="262.16"/>
          <polyline class="r" points="541.28 293 552.28 293 552.28 252.5 541.28 252.5"/>
          <line class="r" x1="552.28" y1="262.16" x2="541.28" y2="262.16"/>
          <rect class="r" x="597.28" y="268" width="19" height="19" transform="translate(1213.56 555) rotate(-180)"/>
          <rect class="r" x="597.78" y="277.5" width="18" height="7.5" transform="translate(1213.56 562.5) rotate(-180)"/>
          <rect class="r" x="572.28" y="298" width="64" height="12" transform="translate(1208.56 608) rotate(-180)"/>
          <line class="r" x1="664.28" y1="298" x2="640.28" y2="298"/>
          <line class="r" x1="566.28" y1="298" x2="541.28" y2="298"/>
          <line class="r" x1="661.98" y1="237" x2="541.28" y2="237"/>
          <path class="r" d="M544.28,166l-77.06,32.59a10,10,0,0,0-5.55,7.87L460.28,219v73l81,24"/>
          <path class="s" d="M502.28,303.5c0,14.08,4,26.5,7,26.5s4-12.42,4-26.5-2.46-25.5-5.5-25.5S502.28,289.42,502.28,303.5Z"/>
          <ellipse class="t" cx="471.78" cy="293.5" rx="4.5" ry="25.5"/>
          <path class="r" d="M507.28,273s-6,2-7,17"/>
          <path class="r" d="M472.28,264s-8-1-8,18"/>
          <polyline class="r" points="486.28 307.2 486.28 216 495.28 213"/>
          <line class="r" x1="495.28" y1="219" x2="495.28" y2="281"/>
          <line class="r" x1="534.28" y1="254" x2="495.28" y2="258.5"/>
          <line class="r" x1="486.28" y1="260.1" x2="468.28" y2="256"/>
          <polyline class="r" points="468.28 261 468.28 218 460.28 221.17"/>
          <line class="r" x1="527.28" y1="199" x2="527.28" y2="254"/>
          <line class="r" x1="534.28" y1="182" x2="464.28" y2="206"/>
          <line class="r" x1="510.28" y1="200" x2="510.28" y2="250"/>
          <line class="r" x1="474.28" y1="206" x2="474.28" y2="251"/>
          <line class="r" x1="491.28" y1="220" x2="491.28" y2="300"/>
          <line class="r" x1="464.28" y1="225" x2="464.28" y2="261"/>
          <rect class="r" x="452.28" y="230" width="5" height="14" transform="translate(909.56 474) rotate(-180)"/>
          <line class="r" x1="459.28" y1="223" x2="454.28" y2="230"/>
          <path class="u" d="M595.1,316h18.36a11.82,11.82,0,0,1,11.82,11.82V332a0,0,0,0,1,0,0h-42a0,0,0,0,1,0,0v-4.18A11.82,11.82,0,0,1,595.1,316Z" transform="translate(1208.56 648) rotate(-180)"/>
          <polyline class="v" points="656.28 315.9 658.28 325 652.28 325"/>
          <polyline class="v" points="644.95 316 646.28 324 639.28 324 638.28 319"/>
          <line class="v" x1="650.03" y1="316" x2="651.28" y2="322"/>
        </g>
      </g>
      <polyline class="w" points="716.28 411 760.28 440 774.28 436 767.28 425"/>
      <path class="w" d="M760.28,430.5l-36-23V265.14a18.43,18.43,0,0,1,28.35-15.53l7.65,4.89Z"/>
      <line class="w" x1="767.28" y1="259" x2="767.28" y2="414"/>
      <line class="w" x1="749.28" y1="268" x2="749.28" y2="366"/>
      <line class="x" x1="656.28" y1="360" x2="659.28" y2="344"/>
      <line class="x" x1="666.28" y1="345" x2="673.28" y2="355"/>
      <path class="x" d="M678.28,352s19,0,20,19"/>
      <path class="x" d="M648.28,361s-9,9-2,22"/>
      <path class="x" d="M704.28,366s13,2,12,17"/>
      <path class="x" d="M638.28,389s-16,15-7,37"/>
      <path class="x" d="M619.28,426s-16,10-13,37"/>
      <path class="x" d="M651.28,436s9,18,33,16"/>
      <path class="x" d="M609.28,478s3,18,29,20"/>
      <path class="x" d="M606.28,491s-21,15-15,42"/>
      <g>
        <circle class="y" cx="312.28" cy="287.78" r="13.22"/>
        <circle class="y" cx="361.28" cy="287.78" r="13.22"/>
        <line class="x" x1="325.8" y1="284.89" x2="348.28" y2="288"/>
        <circle class="z" cx="312.28" cy="287" r="4.24"/>
        <circle class="z" cx="361.28" cy="287" r="4.24"/>
        <line class="aa" x1="311.28" y1="287" x2="328.28" y2="254"/>
        <line class="aa" x1="317.28" y1="259" x2="337.28" y2="249"/>
        <line class="x" x1="323.73" y1="281.19" x2="337.28" y2="271"/>
        <path class="z" d="M335.23,272.72l6.92,1.26.26,0h3.5a1.46,1.46,0,0,0,1.31-2.12l-1.54-3.07a1.44,1.44,0,0,0-1.31-.81h-5.7a1.53,1.53,0,0,0-.73.19L334.77,270A1.46,1.46,0,0,0,335.23,272.72Z"/>
        <line class="z" x1="346.28" y1="274" x2="351.28" y2="280"/>
        <line class="z" x1="340.28" y1="280" x2="333.28" y2="297"/>
        <polygon class="z" points="331.28 295 336.28 296 334.28 302 329.28 301 331.28 295"/>
      </g>
      <g>
        <circle class="y" cx="327.28" cy="280.78" r="13.22"/>
        <circle class="y" cx="376.28" cy="280.78" r="13.22"/>
        <line class="x" x1="340.8" y1="277.89" x2="363.28" y2="281"/>
        <circle class="z" cx="327.28" cy="280" r="4.24"/>
        <circle class="z" cx="376.28" cy="280" r="4.24"/>
        <line class="aa" x1="326.28" y1="280" x2="343.28" y2="247"/>
        <line class="aa" x1="332.28" y1="252" x2="352.28" y2="242"/>
        <line class="x" x1="338.73" y1="274.19" x2="352.28" y2="264"/>
        <path class="z" d="M350.23,265.72l6.92,1.26.26,0h3.5a1.46,1.46,0,0,0,1.31-2.12l-1.54-3.07a1.44,1.44,0,0,0-1.31-.81h-5.7a1.53,1.53,0,0,0-.73.19L349.77,263A1.46,1.46,0,0,0,350.23,265.72Z"/>
        <line class="z" x1="361.28" y1="267" x2="366.28" y2="273"/>
        <line class="z" x1="355.28" y1="273" x2="348.28" y2="290"/>
        <polygon class="z" points="346.28 288 351.28 289 349.28 295 344.28 294 346.28 288"/>
      </g>
      <g>
        <circle class="y" cx="342.28" cy="273.78" r="13.22"/>
        <circle class="y" cx="391.28" cy="273.78" r="13.22"/>
        <line class="x" x1="355.8" y1="270.89" x2="378.28" y2="274"/>
        <circle class="z" cx="342.28" cy="273" r="4.24"/>
        <circle class="z" cx="391.28" cy="273" r="4.24"/>
        <line class="aa" x1="341.28" y1="273" x2="358.28" y2="240"/>
        <line class="aa" x1="347.28" y1="245" x2="367.28" y2="235"/>
        <line class="x" x1="353.73" y1="267.19" x2="367.28" y2="257"/>
        <path class="z" d="M365.23,258.72l6.92,1.26.26,0h3.5a1.46,1.46,0,0,0,1.31-2.12l-1.54-3.07a1.44,1.44,0,0,0-1.31-.81h-5.7a1.53,1.53,0,0,0-.73.19L364.77,256A1.46,1.46,0,0,0,365.23,258.72Z"/>
        <line class="z" x1="376.28" y1="260" x2="381.28" y2="266"/>
        <line class="z" x1="370.28" y1="266" x2="363.28" y2="283"/>
        <polygon class="z" points="361.28 281 366.28 282 364.28 288 359.28 287 361.28 281"/>
      </g>
      <g>
        <circle class="y" cx="357.28" cy="266.78" r="13.22"/>
        <circle class="y" cx="406.28" cy="266.78" r="13.22"/>
        <line class="x" x1="370.8" y1="263.89" x2="393.28" y2="267"/>
        <circle class="z" cx="357.28" cy="266" r="4.24"/>
        <circle class="z" cx="406.28" cy="266" r="4.24"/>
        <line class="aa" x1="356.28" y1="266" x2="373.28" y2="233"/>
        <line class="aa" x1="362.28" y1="238" x2="382.28" y2="228"/>
        <line class="x" x1="368.73" y1="260.19" x2="382.28" y2="250"/>
        <path class="z" d="M380.23,251.72l6.92,1.26.26,0h3.5a1.46,1.46,0,0,0,1.31-2.12l-1.54-3.07a1.44,1.44,0,0,0-1.31-.81h-5.7a1.53,1.53,0,0,0-.73.19L379.77,249A1.46,1.46,0,0,0,380.23,251.72Z"/>
        <line class="z" x1="391.28" y1="253" x2="396.28" y2="259"/>
        <line class="z" x1="385.28" y1="259" x2="378.28" y2="276"/>
        <polygon class="z" points="376.28 274 381.28 275 379.28 281 374.28 280 376.28 274"/>
      </g>
      <g>
        <polygon class="d" points="826.78 226.5 890.78 232.5 906.78 288.5 850.78 340.5 856.78 317.5 861.78 315.5 860.78 308.5 856.78 297.5 832.78 268.5 826.78 226.5"/>
        <g>
          <path class="ab" d="M906.81,285l-34.59,29.12a77,77,0,0,0-27,50.89L833.35,475.55c-1.84,17.58-3.75,36,2.3,52.6L955,496c4.59-6.89,4.59-33.66,0-45.14s-6.75-26.89-5.42-54.51c1.83-37.85-6.34-79.59-38.2-103.74"/>
          <path class="ac" d="M843,216.51s-19.06,8.41-21.17,21.1S826,258.09,820.46,263s-2.08,10.75,5.24,10c-.92.15.87,9.53,1.09,10.45,1.3,5.37,5.33,9.71,10.17,12.36,6.37,3.48,15.42,4.14,21.89.52"/>
          <path class="ad" d="M825.78,280.5s7-1,11-5"/>
          <circle class="o" cx="832.39" cy="257.53" r="3.64"/>
          <path class="ae" d="M878.23,263.57c9.21-10.76,4.3-14.91,4.3-14.91-6.51-12.08-19.31-1.42-19.31-1.42-33.79-2.48-34.23-22.89-34.23-22.9-.58-.86,9.48-8.74,10.34-9.48,13.84-12,34.65-12.57,50.48-4.27,20.09,10.52,26,31.22,16.6,50.88a34.52,34.52,0,0,0-2.73,8.53l-.64,3.46-1.17.23a20.29,20.29,0,0,1-17.13-4.53Z"/>
          <path class="ae" d="M855.93,216.47s-22.52-3-30.87-8.95c0,0-9.64,19.22,7.44,21.93C845,231.43,855.93,216.47,855.93,216.47Z"/>
          <path class="ae" d="M851.84,241.2l5.5,14.83a1.55,1.55,0,0,0,1.81,1h0a1.54,1.54,0,0,0,1.2-1.37l1.5-15.54Z"/>
          <line class="af" x1="874.06" y1="312.81" x2="857.99" y2="317.4"/>
          <line class="af" x1="914.11" y1="326.31" x2="886.15" y2="342.41"/>
          <path class="ab" d="M927.47,328.63l1.32,4.86A157.51,157.51,0,0,1,934.36,375v37A186.8,186.8,0,0,1,921,481.41l-18.77,46.94L861.12,521l18.14-77.63,1.07-58"/>
          <line class="af" x1="886.15" y1="450.3" x2="906.81" y2="452.59"/>
          <polyline class="af" points="855.71 319.83 851.12 340.49 910.78 310.5 906.78 285.5"/>
          <line class="ad" x1="854.99" y1="381.2" x2="871.88" y2="379.09"/>
          <path class="ac" d="M863.44,520.54l-13.72,13.73V549h6.33v6.59a12.1,12.1,0,0,0,7.61,11.24h0a12.18,12.18,0,0,0,6.09.76l28.52-3.81L901.44,529Z"/>
          <line class="ad" x1="900.3" y1="273.24" x2="904.1" y2="282.15"/>
          <path class="ad" d="M856.63,297.74a20.72,20.72,0,0,1,4.88,12.47"/>
          <path class="ac" d="M862.18,248.7c3.32-5.08,11.46-7.91,16.38-4.69,15.21,9.94,2.28,32.06-11.54,28.79"/>
          <line class="ae" x1="866.19" y1="259" x2="873.31" y2="255.91"/>
        </g>
      </g>
      <polyline class="ag" points="276.78 305.5 276.78 315.5 310.78 315.5 310.78 305.5"/>
      <path class="ag" d="M304.28,308.5h-21.5V266.2c0-.7,3-3.7,6.7-3.7h2.92a11.88,11.88,0,0,1,11.88,11.88Z"/>
      <rect class="n" x="151.28" y="341" width="91" height="21" rx="10.5" ry="10.5"/>
      <rect class="n" x="62.28" y="494" width="104" height="21" rx="10.5" ry="10.5"/>
      <rect class="n" x="454.28" y="316" width="216" height="27" rx="13.5" ry="13.5"/>
      <g>
        <path class="d" d="M234,244.3a.92.92,0,0,0-1.39-.41l-6.65,4.7.84,0-.78.36-.37-2a1.05,1.05,0,0,0-1-.86,1,1,0,0,0-1,.86l-.55,3L221.29,253l-.71.71L218.86,252l-8.77,7.72-9.22-10.34a15.19,15.19,0,0,0-2.14-2l3-3.48a22.08,22.08,0,0,0,3.08.84c3.88.39,4.34-1.87,4.82-3.62h0c.23-.82.46-1.53,1.05-1.81,2.71-1.29-.5-1.72.24-5.3a7,7,0,0,0-.26-3.6,3.63,3.63,0,0,0,1-.79l1.5-1.62a13.4,13.4,0,0,1-3.59-1.66c-2.86-2.73-7.23-2.81-10.82-1.71a7.71,7.71,0,0,0-1.07.43,8.68,8.68,0,0,0-4.63,7.38c0,.13,0,.95.08,1.9l-1.61,7.09-.82,2-1.21,1,1.21-1.29-1.42.83c-3.4,2-6.14,7.18-6.14,7.18l-.94,1.78-1.62,6.48-.22-.11a59.35,59.35,0,0,0-1.24,12v6.9a13.07,13.07,0,0,0-.94,2.11h-2.68a3.74,3.74,0,0,0-3.75,3.74v8.66a3.74,3.74,0,0,0,3.09,3.67l-.28,6.39L171.13,311s-6,14.39-9.12,16.14-2.11,6.67-2.11,6.67l1.34.95-4,8.69,16.06,7.3a2.57,2.57,0,0,0,2.82-.45,2.61,2.61,0,0,0,.81-2.12l0-.29a2.61,2.61,0,0,0-1.2-1.95l-3.84-3.71c3.49-1.4,3.14-1.76,4.19-5.26.7-2.31,9-13.9,14.59-21.55,3.17,4,7.29,9,8.93,10.67,1.92,1.92,6.15,8.46,8.62,12.39.89,1.4,1.85,2.76,3.14,2.64v4a3.94,3.94,0,0,0,3.94,3.94h14.81a3,3,0,0,0,.84-5.9L222.2,341l-.85-1.78c.34-2.06.62-4.43-1.09-6.47-.93-1.12-1.86-4.11-2.47-6.36a31.23,31.23,0,0,0-2.26-5.9L200.88,291.4l1.84-6.07a15.71,15.71,0,0,0,.1-6.26c-.17-.87-.33-1.78-.45-2.52a23.33,23.33,0,0,1-.09-4.55l.61-.61,0,0a8,8,0,0,0,10.92-.37l12-12-1.39-1.39.38-.44,0,.07,3.16-2.46,2.34-3.38a3.73,3.73,0,0,0,.64-2.47l.31-.94-.51-.51,2.95-2.1A.94.94,0,0,0,234,244.3Z"/>
        <path class="ah" d="M181.28,253s5-10,11-9l8,4,9,11,10-7,7,7-14,14s-6,2-10-2v6s2,5,0,8h-25l2-7S180.28,257,181.28,253Z"/>
        <polygon class="d" points="198.28 267 189.28 280 194.28 281 201.28 270 198.28 267"/>
        <g>
          <path class="ai" d="M161.7,333.7l-4.48,9.7,16.06,7.3a2.57,2.57,0,0,0,2.82-.45h0a2.61,2.61,0,0,0,.81-2.12l0-.29a2.61,2.61,0,0,0-1.2-1.95l-4.38-4.23.79-1.93-10.4-6"/>
          <path class="ai" d="M211.32,339.9v5.19a3.94,3.94,0,0,0,3.94,3.94h14.81a3,3,0,0,0,3-3h0a3,3,0,0,0-2.17-2.89L222.2,341l-2.26-4.75-8.62,3.69"/>
          <path class="aj" d="M209,227.16s2.75,3.29,2,6.88,2.47,4-.24,5.3c-1.85.88-.18,6-5.87,5.44a17,17,0,0,1-3.62-1.09"/>
          <circle class="o" cx="208.89" cy="236.51" r="0.74"/>
          <path class="aj" d="M209.68,241.15s-1.61.18-2.05-.84"/>
          <path class="aj" d="M202.16,234.1a2.81,2.81,0,0,0-4.29-.69c-2.64,2-.21,5.66,2.59,5.41"/>
          <polyline class="aj" points="193.59 232.73 193.63 237.3 191.29 242.79"/>
          <line class="aj" x1="203.1" y1="244.37" x2="200.64" y2="249.02"/>
          <path class="aj" d="M190.78,243.21l-1.42.83a17.71,17.71,0,0,0-7.53,8.65h0"/>
          <path class="aj" d="M180.44,259.37a59.35,59.35,0,0,0-1.24,12v6.9a12.37,12.37,0,0,0-1.4,3.86,4.61,4.61,0,0,0,.35,3.16h24.57a15.71,15.71,0,0,0,.1-6.26c-.17-.87-.33-1.78-.45-2.52a26.92,26.92,0,0,1,0-5.61"/>
          <path class="aj" d="M192.54,244.27l2.68,1.1a15.55,15.55,0,0,1,5.65,4l9.22,10.34,8.77-7.72,7,7-12,12a8,8,0,0,1-5.65,2.35h0a8,8,0,0,1-5.27-2l-11.77-10.31"/>
          <line class="aj" x1="210.09" y1="259.71" x2="212.19" y2="263.22"/>
          <line class="aj" x1="209.39" y1="260.76" x2="209.39" y2="264.27"/>
          <path class="ak" d="M202.72,285.33l-7,23.16S177.1,333.41,176,336.92s-.7,3.86-4.21,5.26l-11.93-8.42s-1.05-4.91,2.11-6.67S171.13,311,171.13,311l3.51-8.07.35-8.08,3.16-9.47Z"/>
          <path class="ak" d="M200.88,291.4l14.65,29.05a31.23,31.23,0,0,1,2.26,5.9c.61,2.26,1.54,5.24,2.47,6.36,1.76,2.1,1.41,4.56,1.06,6.67l-9.13,1.4c-1.74,1-2.93-.65-4-2.35-2.47-3.93-6.7-10.47-8.62-12.39-2.81-2.81-13-15.79-13-15.79Z"/>
          <path class="aj" d="M220.84,253.78l2.23-3.9.55-3a1,1,0,0,1,1-.86h0a1.05,1.05,0,0,1,1,.86l.54,3"/>
          <path class="aj" d="M226,248.59l6.65-4.7a.91.91,0,0,1,1.38.41h0a.92.92,0,0,1-.31,1.09l-4.33,3.09"/>
          <path class="aj" d="M230.79,247.78l.17,1a3.74,3.74,0,0,1-.63,2.6L228,254.79l-3.16,2.46"/>
          <line class="aj" x1="235.28" y1="241" x2="225.28" y2="247"/>
          <path class="ak" d="M197.76,225.09a7.71,7.71,0,0,1,1.07-.43c3.59-1.1,8-1,10.82,1.71a13.4,13.4,0,0,0,3.59,1.66l-1.5,1.62a3.71,3.71,0,0,1-2.27,1.17L208,231c-.57.07-1.72,0-2.09.49a2.94,2.94,0,0,0-.29.59c-.16.39-2.8,4.07-2.63,4.2a3.55,3.55,0,0,1-1.22-1.9l-.28-1.09s-2.32-1.82-4.31,1.1l-.47-.21a4.09,4.09,0,0,0,.54,2.81l-3.46.46c-.44.06-.64-4.67-.62-5A8.68,8.68,0,0,1,197.76,225.09Z"/>
          <path class="aj" d="M190.08,248.48s-2.45,3.16-1.05,8.42"/>
          <rect class="ai" x="171.83" y="280.42" width="23.51" height="16.14" rx="3.74" ry="3.74" transform="translate(367.18 576.97) rotate(-180)"/>
          <line class="aj" x1="201.31" y1="270.02" x2="193.98" y2="281.26"/>
          <line class="aj" x1="198.29" y1="267.37" x2="192.54" y2="276.2"/>
          <line class="aj" x1="179.64" y1="264.27" x2="173.2" y2="281.26"/>
          <path class="g" d="M180.43,299.59a16.28,16.28,0,0,0,1.17,2,18.64,18.64,0,0,0,1.47,1.85,15.44,15.44,0,0,0,1.71,1.62,13.82,13.82,0,0,0,2,1.32l.05,0a.34.34,0,0,1,.16.21l2,6.66-2.77-6.38.22.23a13.87,13.87,0,0,1-2.27-1.16,16,16,0,0,1-2-1.52,20.6,20.6,0,0,1-1.82-1.8,18.19,18.19,0,0,1-1.59-2.09,1,1,0,0,1,1.69-1.08l.06.1Z"/>
        </g>
      </g>
      <g>
        <path class="d" d="M171.8,315.62l-5.41-21.46-.11.08v0l.11-.06A112,112,0,0,0,159,270.44c-5.73-13.08-13.52-16.19-23.18-20.47l.17.54-.66-.51,1.09-2.19c2-1.37,4.11-5.39,3.69-6.54a2,2,0,0,0-.15-.29l.23-.41a21.26,21.26,0,0,0,2.19-4v0h0a18.06,18.06,0,0,0,.62-12.65c-3.11-9.33-11.66-22.54-35-16.32,0,0-16.33,1.55-13.22,23.32l.14-.18c-1.94,2.85-2.15,8,2.14,11.59l-.71,5.34A143.37,143.37,0,0,0,74.21,256,27.84,27.84,0,0,0,61,269.89a233.88,233.88,0,0,0-10,27.9l10.23,2.69V301l-10.23-3.2-2.78,13.95a19.62,19.62,0,0,0,3.94,16.12,2.8,2.8,0,0,0-3.74,2.31l-4,34.85A11.33,11.33,0,0,0,51.84,377l18.35,6.71.46.13c-.74,8.13-.93,16.6.63,21.52,3.69,11.6-.11,25.76,3.19,37.16s7,17,5.45,25.19,2.83,6.56,3.1,10.64-2.66,5.63-.37,8.61a6.59,6.59,0,0,0,3,1.95H84.51l-3.78,6.6a8.46,8.46,0,0,0-1.08,3.77c-.19,3.63,1.82,6.88,4.76,7.74,3.3,1,7.56,1.64,10.79.15,6.08-2.8,10-4.84,10.86-10.93V489c2.35-1.07,4-3.06,3.78-6.79-.59-8.17-3.84-9.09-2.31-14.68s1-13.81,1.18-19.32S115.43,411,115.43,411a93.47,93.47,0,0,1,4.8,23c1,11.76-2.93,27.33-2.39,29.85,1.16,5.4,6.25,9,4.78,11.71s-2.83,5,.54,8.08h2.55c-.4,3.46-1,10.25.28,13.36a43.19,43.19,0,0,0,4.41,7.64,6.47,6.47,0,0,0,4.45,2.72,21.21,21.21,0,0,0,9.55-.73c5.91-2.05,2.93-9.63,2.93-9.63l-4.06-14c1.79-.85,4.09-2.67,2.58-6.22-2.33-5.46-.29-7.85.47-12.76s3.77-9.6,3.71-17.15,5.87-44.35,3.63-60.64-1.19-23.88-1.19-23.88l-.13.12c.29-1.31.61-2.83.94-4.45.05-.26.08-.51.12-.76l.13.53s.8-5.11-2.1-8.56l-.15-.21-1.48-5.41L148.32,338l2.36-3.15,4.58.37a15.76,15.76,0,0,0,12.86-5h0A15.74,15.74,0,0,0,171.8,315.62ZM98.28,229v.09a2.84,2.84,0,0,0-.72-.1A2.9,2.9,0,0,1,98.28,229Zm-2,19h0l0-.05Z"/>
        <path class="ah" d="M98.28,255s13,17,17,21l5-1s9-13,10-15l5-10,15,7,9,15,7,21-18,11v11h-14l1-8-1-2-17-1-1,2-3,7-6-2-12,4-7-1h-10l-2-10-25-6,9-27,9-12,14-7,15-5Z"/>
        <path class="d" d="M74.21,256l9.07-4s6,42,5,62l-8-1S76.15,258.92,74.21,256Z"/>
        <polygon class="ah" points="148.28 335 148.28 344 150.28 348 153.28 352 152.28 362 117.28 380 76.28 371 71.28 335 115.28 331 148.28 335"/>
        <g>
          <path class="al" d="M100.11,215.2c3.39-4.23,10.56-7,16-7.4,14.9-1.15,26.69,11.74,23.46,25.16,0,0-1.93,5.27-3.15,9s-1.1,16.89-11.73,20.94c0,0-12.76,5.2-20.8-9.52"/>
          <path class="al" d="M125.49,242.32l-1.65,4.83s2.33,7-3.9,5.55"/>
          <path class="al" d="M117,256.45a43,43,0,0,0,4.63.44"/>
          <circle class="o" cx="114.93" cy="246.71" r="2.02"/>
          <circle class="o" cx="129.47" cy="247.95" r="2.02"/>
          <path class="al" d="M100.65,230.49s-3.2-3.35-5.64,0-2.42,10.21,5.1,13.71"/>
          <line class="am" x1="98.06" y1="236.6" x2="101.01" y2="238.62"/>
          <path class="am" d="M98.06,243a47.4,47.4,0,0,1,0,11.52"/>
          <path class="am" d="M100.65,257.53s7,11.33,14.53,18.47"/>
          <path class="am" d="M120.69,275.28s8.38-10.83,10.27-17"/>
          <path class="al" d="M96.42,247.58A143.94,143.94,0,0,0,74.21,256,27.84,27.84,0,0,0,61,269.89a233.88,233.88,0,0,0-10,27.9l25.16,6.62"/>
          <path class="al" d="M51.05,297.79l-2.78,13.95A19.61,19.61,0,0,0,54,329.81h0a19.59,19.59,0,0,0,15,5.31l29.37-2.28L115.32,331s2.06-.2,1.78-3.79a4.47,4.47,0,0,0-.5-4.88l8.26-2.5,2.07-3.89-13.75,2.34-4-2.34"/>
          <path class="al" d="M68.7,316.79a29.85,29.85,0,0,1,11.12-3.37v-5"/>
          <line class="al" x1="95.17" y1="314.54" x2="94.51" y2="319.86"/>
          <path class="al" d="M135.77,250c9.66,4.28,17.45,7.39,23.18,20.47a112,112,0,0,1,7.44,23.72l-14.85,8.27"/>
          <line class="al" x1="117.2" y1="278.26" x2="117.2" y2="299.43"/>
          <path class="al" d="M96.47,256.89l-2.91,7.87,11.63,16.93s1.92-8.67,5.9-8.86"/>
          <path class="al" d="M133.62,257.6l2.53,4.49-6.58,18.36a6.43,6.43,0,0,0-4.93-4.46"/>
          <path class="al" d="M152.24,362.57c-6.33,7.76-19.65,11.69-39.77,12.14-12.76.28-27.55-2.79-36.67-5.08a16,16,0,0,1-12-17.7,17.9,17.9,0,0,1,2.19-6.69c2.89-4.67,1.22-10.5,1.22-10.5"/>
          <path class="al" d="M71.39,343.05s11.85,12.43,28.91,14.72"/>
          <path class="al" d="M148.3,337.88s-2,7,2.12,10.32,3.11,9.57,3.11,9.57"/>
          <line class="al" x1="114.73" y1="337.55" x2="114.73" y2="357.77"/>
          <path class="an" d="M166.39,294.16l5.41,21.46a15.77,15.77,0,0,1-3.68,14.52h0a15.76,15.76,0,0,1-12.86,5L128.73,333s-8.21.94-13.41-2"/>
          <path class="al" d="M137.51,238.62s2.07,1.33,2.55,2.65-2.33,6.47-4.6,7"/>
          <path class="ao" d="M73.67,362.33s-6.08,31.38-2.39,43-.11,25.76,3.19,37.16,7,17,5.45,25.19,2.83,6.56,3.1,10.64-2.66,5.63-.37,8.61,9.88,3.41,14.43,3.36,13.35.08,12.76-8.08-3.84-9.09-2.31-14.68,1-13.81,1.18-19.32S115.43,411,115.43,411a93.47,93.47,0,0,1,4.8,23c1,11.77-2.93,27.33-2.39,29.85,1.16,5.4,6.25,9,4.78,11.71s-2.83,5,.54,8.08h18.32s6.69-1.39,4.37-6.85-.29-7.85.47-12.76,3.77-9.6,3.71-17.15,5.87-44.35,3.63-60.64-1.19-23.88-1.19-23.88-12.79,11.9-40,12.38C112.47,374.71,82.92,374,73.67,362.33Z"/>
          <path class="al" d="M84.51,488.87l-3.78,6.6a8.5,8.5,0,0,0-1.08,3.77h0c-.19,3.63,1.82,6.88,4.76,7.74,3.3,1,7.56,1.64,10.79.15,6.08-2.79,10-4.84,10.86-10.93v-7.33Z"/>
          <path class="al" d="M143,481.88,147.33,497s3,7.58-2.93,9.63a21.21,21.21,0,0,1-9.55.73,6.47,6.47,0,0,1-4.45-2.72A43.19,43.19,0,0,1,126,497c-1.72-4.27,0-15.48,0-15.48Z"/>
          <path class="ap" d="M126.93,388.51a16.34,16.34,0,0,1-.58,3.81A20.17,20.17,0,0,1,125,396a17.14,17.14,0,0,1-2.12,3.37A11,11,0,0,1,119.7,402l.39-.33c-.47.62-1,1.35-1.43,2.07s-.89,1.48-1.27,2.26a24.54,24.54,0,0,0-1.08,2.39c-.35.82-.6,1.67-.88,2.56a10.43,10.43,0,0,1-.16-2.79,13.93,13.93,0,0,1,.48-2.79,17,17,0,0,1,1-2.66,15.93,15.93,0,0,1,1.42-2.52.9.9,0,0,1,.28-.27l.1-.06a15.91,15.91,0,0,0,4.65-4.94c.69-1,1.29-2.05,1.91-3.12Z"/>
          <line class="al" x1="127.49" y1="292.78" x2="140.06" y2="292.78"/>
          <path class="al" d="M148.29,282a35.84,35.84,0,0,0-2.1,13.62c.49,6.93,2.25,8.85,2.1,13.53a51.52,51.52,0,0,0,0,5.83,141.7,141.7,0,0,0-14.34-.07l1.86-5.94a3.15,3.15,0,0,0-2.75-4.08l-13.78-1.12a3.14,3.14,0,0,0-3.22,2l-4.26,11.67"/>
          <path class="al" d="M124.87,316,121,312.61l.53-.52a3.07,3.07,0,0,1,3.29-.7l9.11,3.54V321"/>
          <path class="ao" d="M115,219.19s2.54,8.15,2.69,13.73a4.59,4.59,0,0,0,3.68,4.35c5,1,13.14,2.16,16.86-.67l.3,2.77,1.34,1.59s6.22-7.78,3.11-17.11-11.66-22.54-35-16.32c0,0-16.33,1.55-13.22,23.32,0,0,3.11-4.66,7,.78l1.85,6.78a.7.7,0,0,0,1.3.12l1.51-3S117.31,234,115,219.19Z"/>
          <path class="al" d="M74.55,256.5s5.88,41.53,5.27,56.92l15.35,1.12,10.53-3.46a4.25,4.25,0,0,1,2.57,0l4.91,1.54"/>
          <path class="al" d="M83.25,252s6.07,34.8,5.29,62"/>
          <path class="an" d="M52.34,327.89l36.2,14.91-3.19,31.37a11.33,11.33,0,0,1-15.16,9.5L51.84,377A11.33,11.33,0,0,1,44.47,365l4-34.86A2.82,2.82,0,0,1,52.34,327.89Z"/>
          <line class="al" x1="88.54" y1="333.61" x2="88.54" y2="342.8"/>
          <line class="aq" x1="51.23" y1="349.02" x2="79.99" y2="359.9"/>
        </g>
        <polygon class="ah" points="147.28 308 147.28 314 135.28 314 147.28 308"/>
      </g>
    </g>
  </g>
</svg>
