<svg xmlns="http://www.w3.org/2000/svg" viewBox="0 0 774 1358">
  <defs>
    <style>
      .a {
        fill: #e0e4e5;
        stroke-width: 0.5px;
      }

      .a, .d, .f, .h, .i {
        stroke: gray;
      }

      .a, .d {
        stroke-miterlimit: 10;
      }

      .a, .b, .d, .h, .i {
        opacity: 0.21;
      }

      .c {
        fill: gray;
      }

      .d, .g {
        fill: #231815;
      }

      .d {
        stroke-width: 0.5px;
      }

      .e {
        fill: #fff;
      }

      .f, .h, .i {
        fill: none;
        stroke-linecap: round;
        stroke-linejoin: round;
      }

      .f, .i {
        stroke-width: 1.25px;
      }

      .h {
        stroke-width: 1.25px;
      }
    </style>
  </defs>
  <title>result-mobile</title>
  <g>
    <polygon class="a" points="-43.48 827.74 351.44 708.54 420.27 708.54 788.5 825.5 791.5 1378.5 -43.48 1378.5 -43.48 827.74"/>
    <g class="b">
      <path class="c" d="M49.45,798l75.65-22.73,37.84-11.36,37.89-11.16,151.55-44.65a.55.55,0,0,1,.18,0h67.75l.19,0,167.44,53,83.72,26.51,41.86,13.24c14,4.44,27.86,9,41.78,13.51l-.11,0,52.81.38-52.81.37-.11,0c-14-4.34-28-8.6-41.94-13L671.28,788.8l-83.72-26.51-167.43-53,.18,0H352.56l.17,0L201.18,753.92l-37.89,11.17-37.94,11Z"/>
    </g>
    <g class="b">
      <path class="c" d="M672.38,786.9l-.86-29.36c-.08-2.45-.15-4.9-.15-7.35s0-4.89,0-7.34l.11-14.68c.18-19.58-.78-39.15-.32-58.74l.52-58.73c0-9.79.14-19.58.08-29.36L671.47,552a.63.63,0,0,1,.48-.61l42.84-10.43,10.71-2.63c3.57-.88,7.13-1.8,10.72-2.6l21.49-4.94h0a.23.23,0,0,1,.18,0l15.85,8.74-16.1-8.27.18,0-21.33,5.58c-3.55.95-7.13,1.79-10.7,2.66l-10.71,2.63-42.85,10.44.48-.62.26,29.37c.06,9.79-.06,19.59-.08,29.38l-.52,58.73c-.45,19.57.5,39.15.32,58.72l-.1,14.69c0,4.89-.26,9.79-.21,14.68Z"/>
    </g>
    <g class="b">
      <path class="c" d="M671.72,596.74l-24.59-.21.58-.56c.16,4,.09,8,.13,12l.07,12,.19,23.92c.17,16,.22,31.9.31,47.85l-.57-.62,23.95,2h-.11l39.55-3.51,9.91-.6c3.31-.17,6.62-.26,9.93-.39l19.84-.71-19.78,1.61c-3.3.25-6.6.56-9.9.76l-9.9.57-39.54,3.51h-.1l-24-2a.63.63,0,0,1-.58-.62c-.09-15.95-.14-31.9-.31-47.85l-.19-23.92-.07-12c0-4-.12-8,0-12v0a.55.55,0,0,1,.56-.53h0Z"/>
    </g>
    <g class="b">
      <path class="c" d="M685.35,717.69c.33,3.12.55,6.25.81,9.38l.18,9.39.36,18.79L686.43,774l-.14,9.39c-.26,3.13-.46,6.26-.76,9.39-.21-3.13-.33-6.27-.49-9.4l.14-9.39.27-18.78-.36-18.77-.19-9.39C685.05,724,685.15,720.82,685.35,717.69Z"/>
    </g>
    <g class="b">
      <path class="c" d="M693,717.69c.24,2.77.37,5.55.56,8.32l-.08,8.32L693.31,751l.32,16.63.16,8.32c-.16,2.77-.27,5.55-.47,8.32-.31-2.76-.52-5.53-.78-8.3l-.16-8.32L692.06,751l.15-16.65.06-8.32C692.5,723.23,692.69,720.46,693,717.69Z"/>
    </g>
    <g class="b">
      <path class="c" d="M671.92,711.23c3.27-.44,6.55-.78,9.83-1.16l9.88-.53,19.74-1.06,19.76-.53,9.88-.27c3.3.13,6.6.2,9.9.36-3.28.35-6.57.6-9.86.9l-9.88.26-19.75.53-19.74,1.06-9.86.54C678.52,711.3,675.22,711.32,671.92,711.23Z"/>
    </g>
    <g class="b">
      <path class="c" d="M676.62,717.53c3.13-.29,6.26-.48,9.39-.71l9.39-.08,18.79-.16,18.78-.43,9.39-.21c3.14.14,6.27.23,9.41.41-3.13.32-6.26.56-9.38.84l-9.4.21-18.78.43-18.79.16-9.4.09C682.89,717.9,679.76,717.77,676.62,717.53Z"/>
    </g>
    <g class="b">
      <path class="c" d="M755.19,769.21c-1.24.47-2.49.92-3.74,1.35l-1.88.67a12.46,12.46,0,0,1-1.89.57l-7.68,2-15.35,4,.47-.61V792c0,.5,0,1,0,1.49s-.06,1-.09,1.49c-.18,2-.33,4-.54,6-.22-2-.37-4-.55-6,0-.5-.1-1-.09-1.49s0-1,0-1.49V777.15a.63.63,0,0,1,.47-.61l15.35-4,7.67-2a12.62,12.62,0,0,1,1.94-.41l2-.33C752.57,769.61,753.88,769.39,755.19,769.21Z"/>
    </g>
    <g class="b">
      <path class="c" d="M727.82,780.3c1.19,0,2.37,0,3.54,0l3.42.66,6.84,1.3,6.85,1.31,3.42.65c1.1.43,2.21.8,3.3,1.27-1.19,0-2.36,0-3.54,0l-3.42-.65-6.84-1.31-6.84-1.3-3.43-.65C730,781.17,728.91,780.77,727.82,780.3Z"/>
    </g>
    <g class="b">
      <path class="c" d="M734.47,576.18c-4.62,1.31-9.26,2.54-13.89,3.8-2.3.67-4.66,1.12-7,1.68l-7,1.63-28,6.47.41-.32L675,597.05l-.7-.9,31.13-7L721.08,586c5.25-.86,10.5-1.77,15.75-2.6-5.15,1.32-10.33,2.54-15.49,3.81l-15.62,3.21-31.11,7a.64.64,0,0,1-.75-.48.66.66,0,0,1,0-.42l3.94-7.62a.65.65,0,0,1,.41-.32l28-6.47,7-1.63c2.35-.51,4.66-1.15,7-1.56C725,578,729.74,577,734.47,576.18Z"/>
    </g>
    <g class="b">
      <path class="c" d="M679.79,595.49c.22,3.69.35,7.38.52,11.07.13,1.85,0,3.69,0,5.54l0,5.53-.72-.62,28.54-4.46,28.41-5.25-.51.62,0-4.86c-.06-1.62,0-3.25.1-4.87.14-3.24.26-6.49.44-9.73.22,3.24.38,6.48.56,9.73.08,1.62.2,3.24.16,4.86l0,4.87a.64.64,0,0,1-.51.62l-28.43,5.25-28.56,4.46a.62.62,0,0,1-.71-.52.34.34,0,0,1,0-.1l0-5.54c0-1.84-.06-3.69.08-5.53C679.38,602.87,679.54,599.18,679.79,595.49Z"/>
    </g>
    <g class="b">
      <path class="c" d="M679.54,617.44a13,13,0,0,1,1.59.56l1.18,1,2.36,2.06,2.35,2.07,1.18,1c.27.49.54,1,.77,1.5a14.86,14.86,0,0,1-1.59-.56l-1.18-1-2.36-2.06L681.48,620l-1.18-1A14.2,14.2,0,0,1,679.54,617.44Z"/>
    </g>
    <g class="b">
      <path class="c" d="M736.76,608.39a17.36,17.36,0,0,1,1.64,1.1l1.13,1.48,2.28,3,2.27,3,1.13,1.48c.23.61.46,1.21.64,1.86-.57-.34-1.1-.72-1.63-1.1l-1.14-1.48-2.27-3-2.27-3-1.14-1.47C737.17,609.65,736.94,609,736.76,608.39Z"/>
    </g>
    <g class="b">
      <path class="c" d="M689.46,594.05c.28.87.47,1.74.67,2.61l0,2.63.07,5.24.07,5.25,0,2.63c-.17.87-.35,1.75-.59,2.63-.26-.87-.46-1.74-.66-2.62l0-2.62-.07-5.25-.07-5.25,0-2.62C689,595.8,689.21,594.92,689.46,594.05Z"/>
    </g>
    <g class="b">
      <path class="c" d="M708.67,590.18c.26.88.44,1.75.63,2.63v15.74c-.19.88-.38,1.75-.63,2.62-.25-.87-.43-1.75-.62-2.62V592.81C708.22,591.93,708.41,591.06,708.67,590.18Z"/>
    </g>
    <g class="b">
      <path class="c" d="M698.11,592.15c.28.7.48,1.4.69,2.1l.06,2.11.12,4.23.13,4.23.06,2.11c-.17.71-.33,1.42-.56,2.14-.27-.7-.48-1.4-.69-2.1l-.06-2.11-.13-4.23-.12-4.23-.07-2.12A21,21,0,0,1,698.11,592.15Z"/>
    </g>
    <g class="b">
      <path class="c" d="M727.52,587.43c.25.7.43,1.41.61,2.12l0,2.11-.05,4.23,0,4.23,0,2.12c-.2.7-.39,1.4-.65,2.1-.24-.7-.42-1.41-.6-2.12l0-2.11,0-4.23.05-4.23,0-2.12C727.06,588.83,727.25,588.13,727.52,587.43Z"/>
    </g>
    <g class="b">
      <path class="c" d="M716.22,588.29c.27.7.47,1.4.67,2.1l0,2.11.08,4.23.07,4.23,0,2.12c-.18.71-.35,1.41-.59,2.12-.26-.7-.46-1.4-.66-2.1l0-2.12-.08-4.22-.07-4.23,0-2.12C715.8,589.7,716,589,716.22,588.29Z"/>
    </g>
    <g class="b">
      <path class="c" d="M681.21,609.45c2.26-.68,4.55-1.26,6.83-1.9l6.94-1.27,13.89-2.56,14-1.68,7-.85c2.36-.07,4.72-.19,7.08-.22-2.3.53-4.62,1-6.92,1.46l-7,.85-14,1.68-13.87,2.56-6.93,1.28C685.91,609,683.57,609.29,681.21,609.45Z"/>
    </g>
    <g class="b">
      <path class="c" d="M740.74,584.15c.52.37,1,.75,1.54,1.14l.74.6a4.57,4.57,0,0,1,.63.69l2.44,2.84a.62.62,0,0,1,.15.4l.14,8.11.08,4.06,0,1c0,.34-.11.68-.17,1-.12.68-.26,1.36-.41,2-.18-.67-.34-1.35-.48-2-.07-.34-.15-.67-.21-1v-1l-.07-4-.14-8.12.15.4-2.44-2.84a5.89,5.89,0,0,1-.59-.73l-.47-.83C741.32,585.29,741,584.72,740.74,584.15Z"/>
    </g>
    <g class="b">
      <path class="c" d="M734.58,635.15c-4.69,1-9.4,1.94-14.1,2.92-2.34.52-4.73.8-7.09,1.23l-7.09,1.17-28.21,5.69.43-.32L675,652.36l-.65-.91,31.19-5.17,15.6-2.61c5.23-.67,10.46-1.39,15.7-2-5.16,1.12-10.33,2.15-15.5,3.22l-15.59,2.63-31.2,5.17a.62.62,0,0,1-.72-.51.59.59,0,0,1,.07-.4l3.51-6.52a.68.68,0,0,1,.43-.32l28.23-5.69,7.1-1.18c2.38-.36,4.72-.86,7.11-1.12C725.05,636.34,729.81,635.7,734.58,635.15Z"/>
    </g>
    <g class="b">
      <path class="c" d="M680.13,651.57c.17,3.46.27,6.92.39,10.38,0,.86.08,1.73.08,2.59l-.05,2.6-.07,5.18-.71-.63,28.58-3.88,28.7-2.89-.56.63L736.4,660c0-1.84-.13-3.69,0-5.53.12-3.69.21-7.38.37-11.08.29,3.69.5,7.37.74,11.06.17,1.84.11,3.69.16,5.53l.09,5.53a.63.63,0,0,1-.56.64l-28.68,2.88-28.56,3.88a.62.62,0,0,1-.7-.53.28.28,0,0,1,0-.09l.07-5.19,0-2.59c0-.87.1-1.73.15-2.59C679.68,658.48,679.87,655,680.13,651.57Z"/>
    </g>
    <g class="b">
      <path class="c" d="M679.65,672.26a15,15,0,0,1,1.6.55l1.18,1,2.36,2.06,2.36,2.07,1.18,1c.27.49.54,1,.77,1.5a15.68,15.68,0,0,1-1.59-.56l-1.18-1L684,676.86l-2.36-2.07-1.18-1A14.25,14.25,0,0,1,679.65,672.26Z"/>
    </g>
    <g class="b">
      <path class="c" d="M736.35,665.17a13.63,13.63,0,0,1,1.37.92l.84,1.27,1.69,2.54,1.69,2.54.84,1.27c.13.53.25,1.06.33,1.62a13.63,13.63,0,0,1-1.37-.92l-.84-1.27-1.69-2.54-1.69-2.54-.85-1.27A13.66,13.66,0,0,1,736.35,665.17Z"/>
    </g>
    <g class="b">
      <path class="c" d="M689.06,649.86c.28.87.49,1.74.69,2.61l.06,2.62.12,5.25.12,5.25.06,2.62c-.17.88-.33,1.76-.57,2.64-.27-.87-.47-1.74-.68-2.61l-.06-2.62-.12-5.25-.13-5.25-.06-2.62C688.65,651.62,688.82,650.74,689.06,649.86Z"/>
    </g>
    <g class="b">
      <path class="c" d="M708.73,646.85c.26.88.43,1.76.61,2.63l0,2.63,0,5.24,0,5.25,0,2.63c-.19.87-.39,1.74-.64,2.62-.25-.88-.43-1.76-.61-2.63l0-2.63,0-5.25,0-5.24,0-2.63C708.27,648.6,708.46,647.73,708.73,646.85Z"/>
    </g>
    <g class="b">
      <path class="c" d="M698.87,648.39c.25.71.42,1.42.6,2.13l0,2.11-.07,4.23-.06,4.23,0,2.11c-.2.71-.39,1.41-.66,2.11-.24-.71-.41-1.42-.59-2.13l0-2.11.07-4.23.07-4.23,0-2.11C698.4,649.79,698.6,649.09,698.87,648.39Z"/>
    </g>
    <g class="b">
      <path class="c" d="M727.75,644.1c.24.71.4,1.42.57,2.13l-.06,2.11-.11,4.23L728,656.8l0,2.12c-.21.7-.42,1.4-.69,2.1-.23-.72-.39-1.43-.57-2.14l.06-2.11.11-4.23.12-4.23,0-2.11A21.44,21.44,0,0,1,727.75,644.1Z"/>
    </g>
    <g class="b">
      <path class="c" d="M715.91,645a20.58,20.58,0,0,1,.71,2.09l.08,2.11.17,4.23.16,4.23.09,2.12c-.16.71-.32,1.42-.54,2.13-.28-.69-.49-1.39-.71-2.09l-.09-2.11-.16-4.23-.17-4.23-.09-2.11C715.52,646.38,715.68,645.67,715.91,645Z"/>
    </g>
    <g class="b">
      <path class="c" d="M681.16,664.08c2.29-.59,4.59-1.08,6.89-1.62l7-1,14-2L722.86,657l6.94-1.27c2.35-.22,4.69-.48,7.05-.66-2.27.68-4.56,1.26-6.83,1.89l-6.94,1.27-13.89,2.54-14,2-7,1C685.87,663.84,683.52,664,681.16,664.08Z"/>
    </g>
    <g class="b">
      <path class="c" d="M741,638.9c.55.37,1.09.75,1.61,1.15l.79.6a7.49,7.49,0,0,1,.66.71l2.59,2.88a.61.61,0,0,1,.16.42V658l-.19,1c-.13.68-.28,1.36-.44,2-.17-.69-.32-1.37-.44-2l-.19-1V644.66l.16.42-2.59-2.88a8.8,8.8,0,0,1-.64-.73l-.52-.85C741.6,640.06,741.27,639.48,741,638.9Z"/>
    </g>
    <g class="b">
      <path class="c" d="M713.43,717.69c.26,1.54.46,3.07.65,4.61v4.62l0,9.23,0,9.23,0,4.61c-.21,1.54-.37,3.08-.61,4.62-.26-1.54-.43-3.08-.65-4.61v-4.62l0-9.23,0-9.23,0-4.61C713,720.77,713.17,719.23,713.43,717.69Z"/>
    </g>
    <g class="b">
      <path class="c" d="M726.61,717.26c.24,1.18.4,2.37.55,3.55l-.08,3.55-.16,7.08-.16,7.08-.09,3.55c-.23,1.17-.42,2.35-.7,3.52-.23-1.18-.36-2.37-.55-3.55l.08-3.54.16-7.09.17-7.08.07-3.54C726.11,719.61,726.33,718.43,726.61,717.26Z"/>
    </g>
    <g class="b">
      <path class="c" d="M671.89,569.17c3.54-.92,7.09-1.78,10.63-2.66.89-.21,1.77-.45,2.66-.64l2.69-.52,5.36-1.07L714.7,560l42.94-8.48h0a.72.72,0,0,1,.33,0c1.37.51,2.75,1,4.12,1.47l4,1.66c2.7,1.1,5.4,2.19,8.09,3.33-2.8-.82-5.59-1.68-8.38-2.53l-4.18-1.28c-1.39-.46-2.74-1-4.12-1.47l.33,0-42.94,8.48-21.46,4.28-5.37,1.07-2.68.55c-.89.17-1.8.28-2.7.43C679.12,568.1,675.51,568.68,671.89,569.17Z"/>
    </g>
    <g class="b">
      <path class="c" d="M758,568.56c.31,6.1.51,12.21.76,18.32l.12,18.32-.17,36.65L758,678.48l0,18.31c-.21,6.11-.36,12.21-.61,18.32-.26-6.11-.43-12.21-.64-18.32l0-18.33.77-36.63.17-36.63-.13-18.32C757.7,580.77,757.82,574.67,758,568.56Z"/>
    </g>
    <g class="b">
      <path class="c" d="M701.45,543.38c-.17-2.63-.3-5.25-.43-7.88l-.19-3.94c0-1.31,0-2.62,0-3.94a.62.62,0,0,1,.43-.59h0L729.5,518l28.07-9.57a.66.66,0,0,1,.55.07l4.11,2.75,2.07,1.37c.68.47,1.33,1,2,1.47,2.64,2,5.31,3.92,7.93,5.93-2.86-1.65-5.68-3.37-8.52-5.06-.71-.43-1.42-.83-2.12-1.28l-2.05-1.38-4.12-2.75.55.07-28.08,9.57-28.24,9.08.44-.59c0,1.31,0,2.62,0,3.93l-.2,3.94C701.75,538.13,701.62,540.75,701.45,543.38Z"/>
    </g>
    <g class="b">
      <path class="c" d="M671.68,551.54l-.34-33.9.73.52c-2.47,1-4.94,1.91-7.42,2.83l-7.47,2.73-14.92,5.49.41-.59.24,62c0,2.58,0,5.16.1,7.74,0,1.3.14,2.59.14,3.88l-.06,3.87-.23,15.5-.23,15.5-.1,15.49-.09,15.49,0,3.87.08,3.87.15,7.75L643,699l.15,7.74-.05,7.75-.11,15.5c0,2.58,0,5.16-.05,7.74s-.12,5.17-.15,7.75l-.42,31-.56-31c-.13-5.17-.14-10.33-.07-15.49l.11-15.49.05-7.75L641.7,699l-.3-15.49-.16-7.74-.07-3.87v-3.88l.1-15.5.1-15.49.23-15.49.23-15.48.06-3.88c0-1.29-.09-2.57-.14-3.86-.16-2.58-.07-5.17-.1-7.75l-.24-62a.63.63,0,0,1,.41-.59l14.92-5.49,7.45-2.76c2.49-.92,5-1.79,7.49-2.66h0a.54.54,0,0,1,.69.33.46.46,0,0,1,0,.2Z"/>
    </g>
    <g class="b">
      <path class="c" d="M672.33,518.19c1.32.15,2.62.36,3.91.58L680,520l7.44,2.36,7.45,2.36,3.72,1.18c1.17.59,2.37,1.14,3.53,1.77-1.32-.15-2.61-.39-3.91-.58l-3.72-1.18L687,523.51l-7.45-2.36L675.86,520C674.68,519.41,673.49,518.83,672.33,518.19Z"/>
    </g>
    <g class="b">
      <path class="c" d="M650.65,541.45c.17.79.33,1.57.46,2.36.06.4.15.79.18,1.18s0,.79,0,1.19v14.19l-.77-.61,4.08-.93a8.08,8.08,0,0,1,2.09-.24c.71,0,1.42-.07,2.13-.08-.65.31-1.3.58-1.95.85a8.11,8.11,0,0,1-2,.69l-4.08.93a.64.64,0,0,1-.75-.48.59.59,0,0,1,0-.13V546.18c0-.4,0-.79,0-1.19s.12-.78.18-1.18C650.32,543,650.48,542.24,650.65,541.45Z"/>
    </g>
    <g class="b">
      <path class="c" d="M650.65,571.5c.17.68.31,1.36.44,2l.19,1c0,.34,0,.68,0,1v12.23l-.77-.61,4.08-.92,1-.24,1.06,0c.71,0,1.42,0,2.14,0-.64.31-1.29.61-1.94.89l-1,.42-1,.23-4.08.93A.64.64,0,0,1,650,588a.59.59,0,0,1,0-.14V575.58c0-.34,0-.68,0-1l.19-1C650.34,572.86,650.48,572.18,650.65,571.5Z"/>
    </g>
    <g class="b">
      <path class="c" d="M651.29,699.66c.18.87.33,1.75.46,2.63.06.43.14.87.19,1.31s0,.88,0,1.31v15.78l-.63-.62H656a10,10,0,0,1,2.36.22c.79.13,1.57.25,2.36.4-.79.16-1.57.28-2.36.4a10,10,0,0,1-2.36.23h-4.73a.63.63,0,0,1-.62-.63V704.91c0-.43,0-.87,0-1.31s.13-.88.19-1.31C651,701.41,651.12,700.53,651.29,699.66Z"/>
    </g>
    <g class="b">
      <path class="c" d="M642.1,536.44l-13.48,5.81a129.56,129.56,0,0,1-13.74,5.12c-4.64,1.55-9.33,2.94-13.85,4.81l-13.67,5.27.4-.57L587.38,575,586.9,593l-.4,18,.53,18.05.16,18.09-.67,18.07-.28,9c-.11,3-.32,6-.48,9l-.63,18.06-.28-18.07c0-3,0-6,.11-9l.31-9,.67-18-.16-18-.53-18.07.4-18.08.48-18.06.38-18.06a.62.62,0,0,1,.4-.57L600.6,551c4.53-1.87,9.22-3.25,13.85-4.82,2.31-.79,4.65-1.52,7-2.22s4.62-1.59,6.91-2.42Z"/>
    </g>
    <g class="b">
      <path class="c" d="M627.62,559.06c-2.32,1.09-4.67,2.1-7,3.14-.59.26-1.17.53-1.76.77s-1.2.43-1.8.66L613.47,565l-.07,0-14.81,3.56a.55.55,0,0,1-.4,0l-5.74-2.59a.63.63,0,0,1-.31-.83.62.62,0,0,1,.39-.34l18.38-5.66,0,0,8.93-3.46c3-1,6.08-2,9.15-2.86-2.88,1.39-5.8,2.7-8.7,4l-8.93,3.44,0,0-18.39,5.66.08-1.17,5.74,2.59-.41,0,14.81-3.56-.07,0,3.59-1.33c.6-.21,1.19-.47,1.79-.67s1.22-.37,1.83-.56C622.71,560.5,625.15,559.75,627.62,559.06Z"/>
    </g>
    <g class="b">
      <path class="c" d="M597.79,568.37c.3,1.91.52,3.82.78,5.73a14.16,14.16,0,0,1,.15,1.43c0,.48,0,1,0,1.44l.12,2.88.47,11.5-.78-.58,14.91-3.86,7.53-1.64a13.46,13.46,0,0,1,1.9-.32l1.92-.24c1.28-.17,2.56-.32,3.84-.46-1.22.42-2.45.8-3.68,1.18l-1.84.58a11.84,11.84,0,0,1-1.86.49l-7.52,1.63L598.88,592a.62.62,0,0,1-.76-.45.59.59,0,0,1,0-.13l-.47-11.5-.12-2.88c0-.48,0-.95-.07-1.43a13.84,13.84,0,0,1,0-1.44C597.57,572.22,597.64,570.3,597.79,568.37Z"/>
    </g>
    <g class="b">
      <path class="c" d="M592.91,568.8c.26.93.44,1.86.63,2.79v16.75c-.19.93-.37,1.86-.62,2.79-.26-.93-.44-1.86-.63-2.79V571.59C592.46,570.66,592.64,569.73,592.91,568.8Z"/>
    </g>
    <g class="b">
      <path class="c" d="M628.42,607.28c-2.5.43-5,.78-7.52,1.16-.62.09-1.25.21-1.88.26l-1.89.14-3.78.31h.09l-14.84,3.44a.62.62,0,0,1-.6-.19L594.07,608a.63.63,0,0,1,0-.89.64.64,0,0,1,.31-.15L612,603.93l8.78-1.45c3-.28,5.91-.61,8.88-.84-2.89.73-5.79,1.37-8.68,2.06l-8.77,1.47-17.53,3.06.35-1,3.93,4.35-.61-.19,14.84-3.44.09,0,3.78-.31,1.89-.17c.63,0,1.26,0,1.9,0C623.35,607.34,625.88,607.27,628.42,607.28Z"/>
    </g>
    <g class="b">
      <path class="c" d="M598.71,611.64c.24,1.92.38,3.84.57,5.76a23.08,23.08,0,0,1,.06,2.88v14.39l-.7-.62,14.3-1.76H613l7.36,0a12.69,12.69,0,0,1,1.84.1l1.84.18c1.22.11,2.45.23,3.67.38-1.22.13-2.45.24-3.68.35l-1.84.16a12.53,12.53,0,0,1-1.84.09l-7.35,0h.07l-14.3,1.75a.62.62,0,0,1-.7-.54V620.28a23.08,23.08,0,0,1,.06-2.88C598.34,615.48,598.48,613.56,598.71,611.64Z"/>
    </g>
    <g class="b">
      <path class="c" d="M592.91,612.07c.26.93.44,1.86.63,2.79v16.75c-.19.93-.37,1.86-.62,2.79-.26-.93-.44-1.86-.63-2.79V614.86C592.46,613.93,592.64,613,592.91,612.07Z"/>
    </g>
    <g class="b">
      <path class="c" d="M627.5,654.22c-2.43.24-4.86.39-7.3.58-.6,0-1.21.11-1.82.12h-1.82l-3.65,0H613l-14.33,1.55a.66.66,0,0,1-.57-.24l-3.83-4.93a.63.63,0,0,1,.11-.88.68.68,0,0,1,.35-.13l17.17-.94h-.06l4.18-.68c1.4-.21,2.78-.49,4.19-.67,2.82-.26,5.63-.56,8.46-.77-2.75.7-5.51,1.32-8.27,2-1.38.27-2.79.45-4.18.69l-4.18.69h-.07l-17.17.94.46-1,3.83,4.93-.56-.24,14.34-1.54h.06l3.65,0,1.82,0c.61,0,1.22.06,1.83.1C622.63,653.89,625.07,654,627.5,654.22Z"/>
    </g>
    <g class="b">
      <path class="c" d="M597.92,656.29c.28,1.93.47,3.86.7,5.79a25.48,25.48,0,0,1,.13,2.9l.07,2.9.27,11.59-.67-.6L613,677.78l7.32-.09a12.65,12.65,0,0,1,1.84.08l1.83.15c1.22.09,2.44.19,3.66.31-1.21.16-2.43.29-3.65.41l-1.82.19a12.37,12.37,0,0,1-1.82.12l-7.31.08-14.57,1.08a.62.62,0,0,1-.67-.57v0l-.27-11.59-.07-2.9a25.51,25.51,0,0,1,0-2.9C597.63,660.17,597.73,658.23,597.92,656.29Z"/>
    </g>
    <g class="b">
      <path class="c" d="M592.91,656.72c.26.93.44,1.86.63,2.79v16.75c-.19.93-.37,1.86-.62,2.79-.26-.93-.44-1.86-.63-2.79V659.51C592.46,658.58,592.64,657.65,592.91,656.72Z"/>
    </g>
    <g class="b">
      <path class="c" d="M647.43,596.19a7.57,7.57,0,0,1-.15,1.2c-.22.26-.43.53-.65.8l-1.29,1.61-1.29,1.61-.64.8a8.83,8.83,0,0,1-1.13.42,10.92,10.92,0,0,1,.15-1.2l.65-.8,1.29-1.61,1.28-1.61c.22-.27.44-.54.64-.81A7.27,7.27,0,0,1,647.43,596.19Z"/>
    </g>
    <g class="b">
      <path class="c" d="M585.18,713c.26,2,.42,4,.63,6V755c-.21,2-.37,4-.62,6-.26-2-.42-4-.63-6V719C584.75,717,584.91,715,585.18,713Z"/>
    </g>
    <g class="b">
      <path class="c" d="M642.28,708.63c-2.26.21-4.52.32-6.77.47l-6.76-.16c-4.51-.18-9,0-13.52.06s-9,.11-13.51.34l-6.76.26c-2.26-.12-4.51-.19-6.78-.35,2.25-.35,4.49-.6,6.74-.9l6.76-.27c4.51-.22,9-.24,13.54-.33s9-.24,13.54-.06l6.76.15C637.78,708.1,640,708.31,642.28,708.63Z"/>
    </g>
    <g class="b">
      <path class="c" d="M757.8,530.93c-.26-.91-.45-1.81-.64-2.71V525.5l0-5.42v-8.15c.19-.9.37-1.81.62-2.71.25.9.44,1.81.63,2.71v2.71l0,5.43v5.43l0,2.71C758.24,529.12,758.06,530,757.8,530.93Z"/>
    </g>
    <g class="b">
      <path class="c" d="M754.76,725.42c.26,3.27.42,6.54.63,9.82V764.7l.08,19.64,0,9.82c-.2,3.27-.34,6.55-.58,9.82-.27-3.27-.45-6.54-.67-9.82l0-9.82-.08-19.64V735.24C754.33,732,754.49,728.69,754.76,725.42Z"/>
    </g>
    <g class="b">
      <g>
        <path class="c" d="M580.45,575.78c-2.58.25-5.17.45-7.75.65l-3.88.31c-1.3.11-2.59.07-3.89.13a.57.57,0,0,1-.4-.13h0l-13.73-11.24.05,0-14.5-9.82.91-.24-5.19,10.32c-1.65,3.48-3.68,6.75-5.57,10.11s-3.8,6.69-5.77,10-4.14,6.49-6.26,9.7c1.7-3.45,3.48-6.86,5.23-10.29s3.81-6.68,5.71-10,3.91-6.62,5.55-10.09l5.19-10.29a.63.63,0,0,1,.84-.28l.07,0,14.49,9.82.05,0,13.72,11.24-.42-.14c1.3,0,2.59-.13,3.89-.1l3.89.08C575.27,575.65,577.86,575.69,580.45,575.78Z"/>
        <path class="c" d="M520.45,587.27c0,1.75.07,3.49.08,5.24l0,5.24L520,608.19l-.89-.6,11.43-5.24c3.78-1.81,7.67-3.36,11.53-5s7.8-3.08,11.49-5l11.25-5.56-.35.54c0-.95.16-1.89.24-2.83l.3-2.83q.3-2.82.63-5.64c.05,1.89.07,3.79.09,5.68l0,2.84c0,.94.05,1.89,0,2.84v0a.61.61,0,0,1-.35.52l-11.28,5.56c-3.71,2-7.66,3.4-11.51,5s-7.76,3.17-11.53,5l-11.42,5.24a.64.64,0,0,1-.83-.31.59.59,0,0,1-.05-.29l.52-10.45.56-5.21C520,590.74,520.24,589,520.45,587.27Z"/>
        <path class="c" d="M580,588.85c-2.41,0-4.83-.09-7.24-.15l-3.62-.09c-1.2,0-2.4-.19-3.6-.26l.67-.6-.82,19.15.34,19.17v19.19l.1,4.79.06,2.4c0,.8,0,1.6-.06,2.4-.11,3.2-.19,6.4-.33,9.6-.28-3.19-.49-6.39-.73-9.58,0-.8-.14-1.6-.16-2.4l0-2.4-.1-4.8V626.09l-.33-19.2L565,587.7h0a.62.62,0,0,1,.64-.59h0c1.19.12,2.4.13,3.6.3l3.59.48C575.22,588.19,577.61,588.5,580,588.85Z"/>
        <path class="c" d="M565.38,684.63c.32,2.91.54,5.82.81,8.73l.18,8.75v0l-1,17.49v0l.43,17.5.08,8.75c-.18,2.92-.31,5.84-.54,8.76-.28-2.91-.47-5.83-.71-8.74l-.08-8.75-.43-17.49v0l1-17.49v0l-.19-8.75C565.08,690.47,565.18,687.55,565.38,684.63Z"/>
        <path class="c" d="M559.35,618.94c-.22-2.22-.38-4.45-.55-6.67-.07-1.11-.22-2.23-.21-3.34s0-2.23,0-3.34l.39.58L555,604.62h.43l-19.3,6.66-19.1,7.22.36-.34-1.75,4.07.05-.21c0,.86-.15,1.71-.24,2.56l-.32,2.55c-.2,1.71-.42,3.41-.66,5.11,0-1.72-.06-3.43-.07-5.15l0-2.57a24.44,24.44,0,0,1,.05-2.57v0a1.21,1.21,0,0,1,0-.18l1.76-4.06a.65.65,0,0,1,.35-.34l19.12-7.22L555,603.44a.66.66,0,0,1,.44,0l3.93,1.55a.65.65,0,0,1,.4.58c0,1.11,0,2.22.05,3.33s-.08,2.23-.12,3.35C559.62,614.48,559.52,616.71,559.35,618.94Z"/>
        <path class="c" d="M556.36,620.93c-1.44.78-2.9,1.49-4.36,2.2l-4.56,1.61L538.31,628l-9.2,3-4.6,1.5c-1.6.31-3.18.66-4.79.92,1.45-.75,2.93-1.4,4.4-2.11l4.59-1.5,9.19-3,9.13-3.21,4.55-1.62C553.17,621.58,554.75,621.22,556.36,620.93Z"/>
        <path class="c" d="M516.77,622.43c1.47-.74,3-1.41,4.46-2.08l4.65-1.48,9.3-3,0,0,9-3.78,4.5-1.89c1.58-.43,3.14-.91,4.74-1.31-1.4.86-2.84,1.64-4.26,2.47l-4.49,1.88-9,3.78-.05,0-9.3,3-4.65,1.49C520,621.87,518.4,622.18,516.77,622.43Z"/>
        <path class="c" d="M523.48,620.44a7.17,7.17,0,0,1,.71.78c0,.28,0,.55.07.83l.15,1.66.16,1.67.08.83a8,8,0,0,1-.55.89c-.27-.26-.48-.52-.7-.77l-.08-.84-.15-1.66-.16-1.66c0-.28,0-.56-.08-.84A7.44,7.44,0,0,1,523.48,620.44Z"/>
        <path class="c" d="M532.9,617.12a6.7,6.7,0,0,1,.67.79c0,.27,0,.55,0,.82l.07,1.63.08,1.64,0,.82a7.16,7.16,0,0,1-.59.84,6.74,6.74,0,0,1-.66-.79l0-.81-.07-1.64-.07-1.64c0-.27,0-.54-.05-.81A6.32,6.32,0,0,1,532.9,617.12Z"/>
        <path class="c" d="M542.94,613.57a5.7,5.7,0,0,1,.73.75c0,.27.07.55.11.83l.22,1.67.22,1.66.11.83a7,7,0,0,1-.51.92,7.28,7.28,0,0,1-.73-.75l-.11-.83-.22-1.67-.22-1.67c0-.27-.07-.55-.12-.83A6.56,6.56,0,0,1,542.94,613.57Z"/>
        <path class="c" d="M525.71,639.1c1.18-.73,2.39-1.39,3.61-2.05l3.83-1.46,7.67-2.92,7.74-2.72,3.88-1.36c1.36-.25,2.7-.56,4.08-.77-1.21.69-2.45,1.3-3.66,1.95L549,631.13l-7.74,2.71-7.66,2.92-3.83,1.47C528.42,638.55,527.08,638.86,525.71,639.1Z"/>
        <path class="c" d="M558.38,672.18c-.2-2.19-.35-4.38-.51-6.57-.06-1.1-.21-2.19-.17-3.29V659l.33.55-3.13-1.66.42.06-19.26,3.74.06,0-18.77,5.68.33-.25-2.23,3.27.11-.37a20.19,20.19,0,0,1,0,2.58l-.12,2.57c-.07,1.71-.16,3.43-.27,5.15-.18-1.71-.33-3.42-.48-5.14l-.23-2.56a18.44,18.44,0,0,1-.13-2.57v0a.6.6,0,0,1,.11-.34l2.23-3.26a.58.58,0,0,1,.33-.25l18.78-5.68h.06l19.26-3.74a.64.64,0,0,1,.41.06l3.13,1.66a.62.62,0,0,1,.33.55l0,3.29a32.7,32.7,0,0,1-.13,3.28C558.69,667.8,558.57,670,558.38,672.18Z"/>
        <path class="c" d="M556.32,673.91c-1.43.65-2.89,1.24-4.34,1.82l-4.51,1.21-9,2.43-9.13,2-4.56,1c-1.56.12-3.12.3-4.69.39,1.46-.59,2.95-1.08,4.42-1.61l4.55-1,9.11-2,9-2.42,4.5-1.22C553.2,674.28,554.75,674.06,556.32,673.91Z"/>
        <path class="c" d="M516.75,670.18c1.49-.52,3-1,4.52-1.42l4.63-.78,9.25-1.58-.07,0,9-2.68,4.5-1.34c1.56-.25,3.1-.54,4.67-.74-1.42.69-2.88,1.29-4.32,1.94l-4.49,1.34-9,2.68h-.08l-9.25,1.58-4.63.8C519.91,670.09,518.33,670.17,516.75,670.18Z"/>
        <path class="c" d="M523.59,669.82a6.84,6.84,0,0,1,.58.86c0,.28,0,.56,0,.84l-.09,1.66-.1,1.66,0,.84a8,8,0,0,1-.68.79,7.19,7.19,0,0,1-.57-.87l0-.83.1-1.66.09-1.66c0-.28,0-.56,0-.84A6,6,0,0,1,523.59,669.82Z"/>
        <path class="c" d="M533.12,667.35a6.22,6.22,0,0,1,.63.82c0,.27,0,.55,0,.82v4.09a7.21,7.21,0,0,1-.63.82,8.42,8.42,0,0,1-.62-.82V669c0-.28,0-.55,0-.82A5.62,5.62,0,0,1,533.12,667.35Z"/>
        <path class="c" d="M543.39,665.08a6.46,6.46,0,0,1,.65.82c0,.28,0,.56,0,.84l0,1.66,0,1.67,0,.83a9,9,0,0,1-.61.85,7.77,7.77,0,0,1-.65-.82v-.83l0-1.67,0-1.67c0-.27,0-.55,0-.83A7.15,7.15,0,0,1,543.39,665.08Z"/>
        <path class="c" d="M525.48,686.73c1.24-.51,2.49-1,3.74-1.38l3.87-.76,7.73-1.53,7.8-1.22,3.89-.6c1.33,0,2.66,0,4,0-1.26.45-2.53.81-3.79,1.22l-3.89.61L541,684.29l-7.72,1.53-3.86.77C528.14,686.66,526.82,686.73,525.48,686.73Z"/>
        <path class="c" d="M529.44,593.85a15.61,15.61,0,0,1-.6-2.87l0-2.86.07-5.73a.66.66,0,0,1,.3-.53l1.8-1.09.45-.27c.15-.08.26-.24.48-.21a7.62,7.62,0,0,1,1.19-.07c-.19.36-.4.7-.61,1s-.27.22-.41.33l-.45.27-1.8,1.09.3-.53-.07,5.73,0,2.86A16.23,16.23,0,0,1,529.44,593.85Z"/>
        <path class="c" d="M537.81,587.84a10.83,10.83,0,0,1-.49-2.46l.15-2.42.29-4.84a.65.65,0,0,1,.2-.43l1.54-1.37.38-.34c.14-.1.22-.27.43-.29.37-.1.74-.2,1.14-.27a8.92,8.92,0,0,1-.4,1.1c0,.21-.22.27-.34.4l-.38.34-1.53,1.36.21-.43-.29,4.84-.14,2.43A11.38,11.38,0,0,1,537.81,587.84Z"/>
        <path class="c" d="M542.64,553.45c1.6-.25,3.19-.43,4.79-.6l4.79,0,9.58.07h.05l9.54.81,4.77.4c1.57.35,3.14.65,4.71,1-1.61.12-3.21.15-4.82.22l-4.77-.4-9.54-.81h0l-9.58-.07-4.79,0C545.83,553.92,544.23,553.72,542.64,553.45Z"/>
        <path class="c" d="M559.9,554c.71.35,1.37.75,2,1.15l1.57,1.6,3.15,3.19,3.14,3.19,1.58,1.59c.39.67.78,1.33,1.13,2-.71-.36-1.36-.76-2-1.16l-1.58-1.59-3.14-3.19-3.15-3.19L561,556.08C560.63,555.42,560.24,554.76,559.9,554Z"/>
        <path class="c" d="M574.25,554.33a9.72,9.72,0,0,1,1.27.55l.76,1,1.55,1.88,1.55,1.89.77.95a10.94,10.94,0,0,1,.29,1.34,12,12,0,0,1-1.26-.55l-.77-.94-1.55-1.89-1.55-1.89-.77-.94A9.49,9.49,0,0,1,574.25,554.33Z"/>
        <path class="c" d="M524.45,641.7c.25.93.43,1.86.6,2.79l0,2.79-.06,5.59-.07,5.58,0,2.79c-.2.93-.4,1.85-.66,2.78-.24-.93-.41-1.86-.59-2.8l0-2.79.07-5.58.06-5.58,0-2.79C524,643.55,524.18,642.62,524.45,641.7Z"/>
        <path class="c" d="M523.91,691.5c.24,2.08.37,4.15.55,6.23l-.08,6.22c-.12,4.15.06,8.29.14,12.44l.27,12.45.11,6.22c-.17,2.08-.3,4.16-.51,6.24-.29-2.07-.49-4.14-.74-6.21l-.11-6.23-.27-12.45c-.08-4.15-.26-8.31-.14-12.46l.07-6.23C523.43,695.65,523.62,693.57,523.91,691.5Z"/>
        <path class="c" d="M534.66,743.88c-.2-3.39-.3-6.77-.46-10.15,0-3.38.09-6.76.14-10.14l.3-20.29a.62.62,0,0,1,.54-.61l15.23-1.94a.63.63,0,0,1,.71.54v.09l-.33,14.32v-.07l.33,3.69c.07,1.23.09,2.47.13,3.7.08,2.47.16,4.94.2,7.41-.38-2.44-.73-4.88-1.08-7.33-.17-1.22-.37-2.44-.52-3.67l-.31-3.69v-.07l.33-14.32.7.64-15.23,1.94.55-.61-.3,20.28c-.06,3.38-.08,6.77-.17,10.14C535.16,737.12,535,740.5,534.66,743.88Z"/>
      </g>
    </g>
    <g class="b">
      <path class="c" d="M519.92,686.78c-1.72.18-3.44.31-5.15.45-.86.06-1.72.17-2.58.19s-1.72,0-2.58,0h-10.3l.63-.62V704l-.63-.63h10.3c.86,0,1.72,0,2.58,0s1.72.13,2.58.19c1.71.14,3.43.27,5.15.45-1.72.18-3.44.31-5.15.45-.86.06-1.72.16-2.58.19s-1.72,0-2.58,0h-10.3a.63.63,0,0,1-.63-.62V686.78a.63.63,0,0,1,.63-.63h10.3c.86,0,1.72,0,2.58,0s1.72.13,2.58.19C516.48,686.46,518.2,686.59,519.92,686.78Z"/>
    </g>
    <g class="b">
      <path class="c" d="M494.59,686.78c.26.82.44,1.64.63,2.46v14.82c-.19.82-.37,1.64-.62,2.46-.25-.82-.44-1.64-.63-2.46V689.24C494.14,688.42,494.33,687.6,494.59,686.78Z"/>
    </g>
    <g class="b">
      <path class="c" d="M420.31,708.67c-.26-3.72-.44-7.44-.64-11.16l0-11.16V664a.62.62,0,0,1,.39-.58l19.54-7.73,9.77-3.85c3.33-1.09,6.65-2.24,10-3.29-3.16,1.51-6.36,2.95-9.54,4.42l-9.76,3.89-19.54,7.72.4-.58v22.33l0,11.16C420.76,701.23,420.58,705,420.31,708.67Z"/>
    </g>
    <g class="b">
      <path class="c" d="M507,568l-10.45,4.48-5.23,2.23-5.3,2-21.21,8.16.4-.59v39.78l-.84-.59,15-5.36c2.5-.89,5-1.85,7.54-2.54s5.09-1.52,7.65-2.24c-2.44,1.07-4.89,2.09-7.33,3.13s-4.95,1.92-7.44,2.83l-15,5.36a.62.62,0,0,1-.8-.38.49.49,0,0,1,0-.21V584.31a.63.63,0,0,1,.4-.58l21.21-8.16,5.3-2.05,5.37-1.85Z"/>
    </g>
    <g class="b">
      <path class="c" d="M507,569.31c.17,1.69.3,3.38.43,5.08l.2,2.53c0,.85,0,1.7,0,2.54v30.47l-.46-.61,3.22.86c.26.09.54.12.81.21l.75.41c.5.27,1,.54,1.5.84-.58,0-1.15,0-1.72,0l-.86,0c-.27,0-.53-.15-.8-.21l-3.22-.86a.63.63,0,0,1-.47-.6V579.46c0-.84,0-1.69,0-2.54l.2-2.53C506.74,572.69,506.86,571,507,569.31Z"/>
    </g>
    <g class="b">
      <path class="c" d="M509.61,568.57c1.35.24,2.7.51,4,.81a.43.43,0,0,1,.33.37v.11l.13,1.18c0,.4,0,.79,0,1.19v28.44a17.05,17.05,0,0,1-.05,2.37c-.19,1.58-.34,3.16-.57,4.74-.23-1.58-.38-3.16-.57-4.74a18.76,18.76,0,0,1-.06-2.37V572.23c0-.4,0-.79,0-1.19l.12-1.18.35.48C512.08,569.77,510.84,569.18,509.61,568.57Z"/>
    </g>
    <g class="b">
      <path class="c" d="M471,622.88a6.67,6.67,0,0,1,.64,1c0,.33,0,.65,0,1v4.83a8.38,8.38,0,0,1-.63,1,9.78,9.78,0,0,1-.62-1v-4.83c0-.32,0-.64,0-1A7.52,7.52,0,0,1,471,622.88Z"/>
    </g>
    <g class="b">
      <path class="c" d="M475,620.37a7.24,7.24,0,0,1,.63,1c0,.32,0,.64,0,1v4.82a8,8,0,0,1-.63,1,9.42,9.42,0,0,1-.63-1v-4.82c0-.33,0-.65,0-1A8.38,8.38,0,0,1,475,620.37Z"/>
    </g>
    <g class="b">
      <path class="c" d="M500,612.86a6.16,6.16,0,0,1,.63,1c0,.32,0,.64,0,1v4.83a8.87,8.87,0,0,1-.63,1,8.74,8.74,0,0,1-.62-1v-4.83c0-.32,0-.64,0-1A7,7,0,0,1,500,612.86Z"/>
    </g>
    <g class="b">
      <path class="c" d="M504,611.86a7.52,7.52,0,0,1,.63,1c0,.33,0,.65,0,1v4.83c-.2.32-.38.64-.63,1a9.94,9.94,0,0,1-.63-1v-4.83c0-.32,0-.64,0-1A6.58,6.58,0,0,1,504,611.86Z"/>
    </g>
    <g class="b">
      <g>
        <path class="c" d="M513.43,616.64c-3,1.16-5.95,2.29-8.93,3.42s-5.95,2.29-8.95,3.34l-18.16,5.94,0,0L460,636.53l.39-.59.32,16.8v.06l-1.31,17.07v-.08l.86,12.81c.41,4.26.26,8.55.3,12.84l0,6.43a57.17,57.17,0,0,1-.44,6.4l-1.27,12.79.35-12.82c.06-2.14.15-4.27.09-6.4v-6.4c0-4.26.11-8.53-.3-12.79l-.86-12.78v-.09l1.31-17.07v.06L459.1,636a.6.6,0,0,1,.38-.59L477,628.16H477l18.14-6c3-1,6.09-1.87,9.13-2.81S510.37,617.54,513.43,616.64Z"/>
        <path class="c" d="M507,638.61c-1.56.67-3.14,1.27-4.72,1.88l-4.88,1.26-9.75,2.54-9.78,2.43L473,647.94c-1.68.2-3.35.44-5,.6,1.57-.65,3.16-1.21,4.74-1.82l4.89-1.21,9.78-2.43,9.74-2.54,4.87-1.27C503.66,639,505.33,638.78,507,638.61Z"/>
        <path class="c" d="M470.93,647.86c-.12-.48-.22-1-.31-1.45l-.12-.73a2,2,0,0,1,0-.72l.17-2.86a.63.63,0,0,1,.37-.54l6.92-3.16a.62.62,0,0,1,.88.64l-.38,3.41-.09.86-.28.83c-.2.55-.41,1.11-.63,1.66-.1-.59-.19-1.18-.25-1.76l-.1-.87.1-.86.39-3.41.88.64-6.92,3.16.36-.53-.16,2.86a1.82,1.82,0,0,1-.12.72l-.2.7C471.25,646.92,471.1,647.39,470.93,647.86Z"/>
        <path class="c" d="M482.1,638.55c.84-.44,1.69-.87,2.54-1.26a4.92,4.92,0,0,1,1.32-.5l1.34-.38,5.38-1.54,10.75-3.07a.63.63,0,0,1,.78.43s0,.07,0,.1l.17,1.57a7,7,0,0,1,.11,1.58c-.06,1.07-.09,2.14-.2,3.21-.34-1-.6-2.06-.9-3.08a7,7,0,0,1-.25-1.57l-.18-1.57.8.53L493,636.08l-5.38,1.53-1.34.39a5.28,5.28,0,0,1-1.38.27C484,638.39,483,638.48,482.1,638.55Z"/>
        <path class="c" d="M507,657.22c-1.58.59-3.17,1.12-4.77,1.64l-4.89,1-9.79,2-9.65,2.59L473,665.8c-1.66.22-3.31.5-5,.69,1.54-.68,3.12-1.27,4.67-1.9l4.84-1.3,9.67-2.59,9.81-2.05,4.9-1C503.6,657.46,505.27,657.31,507,657.22Z"/>
        <path class="c" d="M470.49,665.47c-.11-.51-.2-1-.27-1.51l-.1-.74c0-.25.07-.48.07-.73l.33-2.9a.62.62,0,0,1,.47-.54l6.46-1.66a.62.62,0,0,1,.76.45.52.52,0,0,1,0,.17l-.08,2.71a3.77,3.77,0,0,1-.27,1.34c-.14.45-.28.89-.44,1.34-.13-.46-.25-.91-.36-1.36a3.78,3.78,0,0,1-.18-1.36L477,658l.78.63-6.46,1.66.47-.53-.33,2.9c-.05.24,0,.49-.09.73l-.27.7C470.9,664.53,470.71,665,470.49,665.47Z"/>
        <path class="c" d="M482.11,656.18c.86-.37,1.71-.73,2.58-1a4.45,4.45,0,0,1,1.32-.39l1.34-.28,5.36-1.11,10.73-2.21a.63.63,0,0,1,.74.48v.06l.17,1.46c0,.24.06.48.1.72s0,.5,0,.74c-.06,1-.09,2-.19,3-.33-1-.59-1.9-.87-2.85a4.79,4.79,0,0,1-.19-.72c0-.24,0-.49-.07-.73l-.17-1.46.74.54L493,654.58l-5.37,1.11-1.34.28a4.74,4.74,0,0,1-1.36.16C484,656.18,483.05,656.19,482.11,656.18Z"/>
        <path class="c" d="M507,676c-1.57.59-3.15,1.11-4.74,1.64l-4.86,1-9.73,2-9.71,2.13-4.85,1.06c-1.66.15-3.32.34-5,.45,1.57-.6,3.15-1.11,4.72-1.67l4.86-1.07,9.71-2.12,9.73-2.05,4.86-1C503.61,676.22,505.27,676.06,507,676Z"/>
        <path class="c" d="M471,683.07c-.19-.51-.36-1-.52-1.54l-.22-.78c-.05-.26,0-.52,0-.78l-.16-3.13a.63.63,0,0,1,.52-.65l7.21-1.21a.62.62,0,0,1,.72.51v.08l.12,2.7a1.74,1.74,0,0,1-.05.68l-.14.68c-.09.46-.2.92-.32,1.37-.16-.44-.3-.89-.44-1.33l-.19-.67a1.55,1.55,0,0,1-.11-.67l-.12-2.7.73.59-7.21,1.2.52-.64.16,3.13c0,.26.06.52,0,.78l-.15.79Q471.17,682.28,471,683.07Z"/>
        <path class="c" d="M482.16,674.05c.86-.34,1.73-.66,2.59-.95a4.49,4.49,0,0,1,1.32-.33l1.34-.22,5.34-.89,10.69-1.77a.63.63,0,0,1,.72.52v.08l.07,1.49c0,.24,0,.49,0,.74a4.74,4.74,0,0,1-.06.75c-.14,1-.24,2-.42,3-.26-1-.45-2-.67-3a3.93,3.93,0,0,1-.13-.75c0-.24,0-.49,0-.74l-.07-1.49.73.59L493,672.9l-5.35.88-1.33.22a4.75,4.75,0,0,1-1.36.11Q483.55,674.11,482.16,674.05Z"/>
      </g>
    </g>
    <g class="b">
      <path class="c" d="M288.64,641.94c2.66.68,5.3,1.39,7.95,2.1l4,1.07c1.33.34,2.64.72,3.94,1.17l15.65,5,0,0,16,3.82.08,0,15.14,5.66a.62.62,0,0,1,.41.57l.24,11.85c.12,3.94,0,7.9,0,11.85l-.05,5.93c0,1,0,2,0,3s-.15,2-.21,3c-.31,3.94-.59,7.88-.94,11.82-.08-3.95-.09-7.9-.12-11.85,0-1,0-2,0-3s.06-2,.06-3l0-5.92c0-3.94.11-7.89,0-11.83l-.23-11.84.41.58-15.15-5.65.07,0-16-3.82h0l-15.65-5c-1.31-.37-2.61-.81-3.89-1.3l-3.86-1.4C293.78,643.84,291.21,642.91,288.64,641.94Z"/>
    </g>
    <g class="b">
      <path class="c" d="M513.48,639.55c.26.84.44,1.68.63,2.52v15.14c-.19.84-.37,1.68-.62,2.52-.25-.84-.44-1.68-.63-2.52V642.07C513,641.23,513.22,640.39,513.48,639.55Z"/>
    </g>
    <g class="b">
      <path class="c" d="M513.48,710c.26.86.44,1.72.63,2.58V728c-.19.86-.37,1.72-.62,2.58-.25-.86-.44-1.72-.63-2.58V712.54C513,711.68,513.22,710.82,513.48,710Z"/>
    </g>
    <g class="b">
      <path class="c" d="M421.6,673.9c1.16-.63,2.34-1.18,3.52-1.73l3.71-1.13,7.4-2.25,7.41-2.26,3.7-1.12c1.3-.18,2.58-.4,3.89-.53-1.16.62-2.35,1.15-3.52,1.73L444,667.73,436.6,670l-7.41,2.25-3.7,1.13C424.2,673.57,422.91,673.77,421.6,673.9Z"/>
    </g>
    <g class="b">
      <path class="c" d="M422.25,682.17c1.16-.48,2.33-.88,3.5-1.29l3.63-.66,7.24-1.34,7.25-1.35,3.62-.67c1.25,0,2.48-.08,3.74-.05-1.17.47-2.34.85-3.51,1.28l-3.63.67-7.24,1.35-7.25,1.34-3.62.67C424.74,682.17,423.5,682.21,422.25,682.17Z"/>
    </g>
    <g class="b">
      <path class="c" d="M421.6,690.16c1.21-.38,2.43-.69,3.64-1l3.7-.37,7.41-.75,7.41-.75,3.7-.38c1.26.09,2.51.12,3.77.25-1.21.38-2.43.66-3.64,1l-3.71.37-7.4.75-7.41.76-3.7.38C424.12,690.36,422.86,690.3,421.6,690.16Z"/>
    </g>
    <g class="b">
      <path class="c" d="M605.79,719.86q-1.6.17-3.21.27c-1.06.06-2.13.21-3.2.18-2.12-.08-4.25-.12-6.38-.19l.65-.62-.22,16.91.25,8.44c0,.71,0,1.41.07,2.12s-.08,1.41-.12,2.11c-.1,1.42-.19,2.83-.33,4.24-.23-1.4-.4-2.81-.59-4.21-.07-.71-.23-1.41-.24-2.12s0-1.41-.05-2.11l-.24-8.46.22-16.94a.61.61,0,0,1,.63-.61h0c2.13,0,4.25.13,6.38.17,1.06,0,2.12.25,3.18.37S604.73,719.69,605.79,719.86Z"/>
    </g>
    <g class="b">
      <path class="c" d="M636.2,744.41c-1.76,0-3.5-.14-5.25-.24l-5.15-.86-10.3-1.71A.63.63,0,0,1,615,741l.11-10.79,0-5.4c.23-1.79.41-3.59.69-5.39.23,1.81.39,3.61.57,5.41l-.06,5.39-.1,10.79-.53-.63,10.3,1.72,5.15.86C632.84,743.41,634.53,743.87,636.2,744.41Z"/>
    </g>
    <g class="b">
      <path class="c" d="M600,725.42c.29.9.5,1.81.72,2.71l.09,2.74.18,5.47.18,5.48.09,2.73c-.16.92-.31,1.84-.54,2.76-.28-.9-.49-1.81-.71-2.71l-.09-2.74-.18-5.48-.19-5.47-.09-2.74C599.56,727.25,599.72,726.34,600,725.42Z"/>
    </g>
    <g class="b">
      <path class="c" d="M726.23,325.92a43.65,43.65,0,0,0-5.13.22,31.37,31.37,0,0,0-5,.37,23.1,23.1,0,0,0-9.33,3.44,19.38,19.38,0,0,0-3.74,3.26,20.12,20.12,0,0,0-3.72,6.45,22.24,22.24,0,0,0-.75,2.4c-.34.78-.55,1.6-.83,2.41L697,347c0-.86,0-1.73,0-2.6s.11-1.75.26-2.62a24.35,24.35,0,0,1,.79-2.51,23.6,23.6,0,0,1,1-2.43,21.27,21.27,0,0,1,2.93-4.41,20.41,20.41,0,0,1,4-3.49,24.45,24.45,0,0,1,9.83-3.63,33.91,33.91,0,0,1,5.23-.39A24.61,24.61,0,0,1,726.23,325.92Z"/>
    </g>
    <g class="b">
      <path class="c" d="M693.59,342.67a28.92,28.92,0,0,0-3.65.37c-.59,0-1.19,0-1.78.09s-1.18.15-1.77.23a18.33,18.33,0,0,0-6.6,2.51,17.22,17.22,0,0,0-5.12,4.83l-.54.71c-.17.24-.3.52-.45.77l-.87,1.56c-.72,1-1.27,2.06-2,3.1.12-.6.25-1.21.39-1.82a16.57,16.57,0,0,1,.48-1.84l.92-1.64a8.21,8.21,0,0,1,.48-.81l.56-.76a18.48,18.48,0,0,1,5.48-5.16,19.47,19.47,0,0,1,7-2.68c.62-.08,1.25-.18,1.87-.25s1.26-.12,1.88-.1A14.8,14.8,0,0,1,693.59,342.67Z"/>
    </g>
    <g class="b">
      <path class="c" d="M671.25,366.29a10.25,10.25,0,0,0-3.61-.58,7.26,7.26,0,0,0-3.42.39,9.63,9.63,0,0,0-5.1,4.66,9.46,9.46,0,0,0-.89,6.84,8,8,0,0,0,1.6,3.08,11.64,11.64,0,0,0,2.4,2.79,10.34,10.34,0,0,1-3.36-2,9.37,9.37,0,0,1-1.85-3.55,10.75,10.75,0,0,1,1-7.75,10.91,10.91,0,0,1,5.78-5.26,8.92,8.92,0,0,1,4-.47A8.32,8.32,0,0,1,671.25,366.29Z"/>
    </g>
    <g class="b">
      <path class="c" d="M658.45,379.8a6.62,6.62,0,0,0-3.68,4.7,15,15,0,0,0-.34,3,8.43,8.43,0,0,0,.58,2.91,7,7,0,0,0,4.26,3.83,11.57,11.57,0,0,0,3,.64c1,.1,2,0,3.13,0l25.7-.28,25.71-.28c8.56-.22,17.14.1,25.71.34-8.56.43-17.12.94-25.69.91l-25.69.28-25.69.28a30.13,30.13,0,0,1-3.29,0,12.47,12.47,0,0,1-3.29-.7,8.24,8.24,0,0,1-5-4.53,9.33,9.33,0,0,1-.68-3.36,7.82,7.82,0,0,1,.53-3.35A6.89,6.89,0,0,1,658.45,379.8Z"/>
    </g>
    <g class="b">
      <path class="c" d="M697,358.13a11.11,11.11,0,0,0-1.45,1.67,8.83,8.83,0,0,0-1.43,1.5,11.21,11.21,0,0,0-1.86,3.72,15.88,15.88,0,0,0-.59,4.19c0,.71,0,1.43.08,2.14s-.19,1.47-.34,2.24c-.34-.68-.62-1.4-.91-2.13,0-.76-.08-1.51-.08-2.27a17.09,17.09,0,0,1,.64-4.53,12.54,12.54,0,0,1,2.07-4.13,10.75,10.75,0,0,1,1.61-1.7A6.32,6.32,0,0,1,697,358.13Z"/>
    </g>
    <g class="b">
      <path class="c" d="M64.33,687.21c0,3,0,5.92,0,8.89l0,4.44c0,1.48-.16,3-.21,4.44v-.05l.42,13.32c.24,4.44,0,8.87,0,13.31s-.3,8.87,0,13.3l.56,13.29v.06L64,775.92c0,1.48,0,3,0,4.44l-.16,4.43-.34,8.88L63,784.78l-.24-4.45c0-1.48,0-3,0-4.44l1.06-17.75v.06l-.56-13.32c-.31-4.44-.07-8.87,0-13.31s.28-8.88,0-13.31L62.87,705h0v0c.08-1.48.11-3,.2-4.44l.41-4.42C63.75,693.1,64,690.15,64.33,687.21Z"/>
    </g>
    <g class="b">
      <path class="c" d="M146,769.21l.92-18.19v0l-1.75-36.33v-.05l.48-15.89c.11-2.65,0-5.3.07-7.95V678.92c0-1.33-.07-2.65-.1-4l-.23-8-.12-4c0-1.33-.13-2.65,0-4l.26-7.95c.47-10.61.37-21.21.67-31.81.12-5.3.32-10.6.36-15.9l.08-15.9v0l-1.39-18.18v-.09l1.17-18.55.43.63L129,545.42l-17.89-5.68c-5.84-2.24-11.69-4.45-17.47-6.84L76,526.52h.18L64,533,76,526.12a.17.17,0,0,1,.17,0h0L94,531.9c5.89,2.1,11.69,4.44,17.53,6.65l17.86,5.68,17.8,5.92a.61.61,0,0,1,.43.63l-1.17,18.55v-.09l1.39,18.18v.05l-.08,15.91c0,5.31-.24,10.61-.35,15.91-.3,10.6-.21,21.22-.68,31.8l-.26,7.95c-.08,1.32,0,2.64,0,4l.12,4,.23,7.95c0,1.32.09,2.64.1,4v11.94c0,2.66.05,5.31-.07,8l-.48,15.91v-.05l.44,9.09c.15,3,.32,6,.41,9.08l.25,18.2h0v0Z"/>
    </g>
    <g class="b">
      <path class="c" d="M75,701.8c.34,3.64.58,7.28.86,10.91.07,3.64.14,7.28.31,10.92l.44,10.92c.1,1.82.1,3.65.11,5.47l0,5.48,0,5.47v2.74c0,.91-.09,1.81-.13,2.72l-.66,10.91-.17,2.73c-.06.91-.12,1.82-.1,2.73v5.46c-.21,3.63-.37,7.27-.63,10.91-.25-3.64-.41-7.29-.62-10.94v-5.47c0-.91,0-1.82.1-2.73l.17-2.72.66-10.91c0-.91.14-1.82.13-2.73V751l0-5.46,0-5.45c0-1.82,0-3.64-.1-5.46l-.44-10.91c-.17-3.64-.24-7.28-.32-10.93C74.68,709.1,74.77,705.45,75,701.8Z"/>
    </g>
    <g class="b">
      <path class="c" d="M135.28,587.6c-.15-2.46-.27-4.93-.38-7.39l-.18-3.7c-.06-1.23-.13-2.46-.09-3.7L135,558l.4.6L120,552.71l0,0-16-4.48,0,0-16.22-6,.84-.59.06,6.23,0,3.12c0,1,.06,2.07,0,3.11-.16,4.16-.28,8.32-.48,12.47-.28-4.15-.47-8.3-.71-12.46-.08-1,0-2.07-.06-3.11l0-3.12-.06-6.23A.63.63,0,0,1,88,541a.59.59,0,0,1,.23,0l16.21,6,0,0,16,4.48,0,0,15.47,5.92a.65.65,0,0,1,.4.61l-.39,14.76c0,1.23,0,2.46-.08,3.69l-.17,3.69C135.54,582.67,135.43,585.14,135.28,587.6Z"/>
    </g>
    <g class="b">
      <path class="c" d="M89.49,548.62c1.79.33,3.55.73,5.33,1.1a19.34,19.34,0,0,1,2.6.75l2.58.81,10.33,3.27,20.47,7.08-.61.11c.43-.35.92-.63,1.38-1l1.4-.93q1.4-.93,2.82-1.83c-.78.8-1.58,1.59-2.38,2.37l-1.2,1.18c-.4.38-.78.8-1.21,1.15a.65.65,0,0,1-.61.11l-20.45-7.11-10.32-3.25L97,551.66a19.34,19.34,0,0,1-2.56-.88C92.81,550.06,91.14,549.38,89.49,548.62Z"/>
    </g>
    <g class="b">
      <path class="c" d="M129.85,562.27c.29.85.51,1.7.73,2.55l.1,2.58.2,5.15.21,5.15.1,2.58c-.15.86-.3,1.73-.52,2.6-.29-.85-.5-1.7-.73-2.55l-.1-2.58-.21-5.15-.2-5.15-.11-2.58C129.47,564,129.62,563.14,129.85,562.27Z"/>
    </g>
    <g class="b">
      <path class="c" d="M102.36,553.68c.21.75.34,1.5.48,2.25l-.17,2.2-.31,4.4-.31,4.4-.16,2.2c-.24.72-.48,1.44-.78,2.16-.2-.76-.33-1.5-.47-2.25l.16-2.2.31-4.4.32-4.4.15-2.2C101.81,555.12,102.05,554.4,102.36,553.68Z"/>
    </g>
    <g class="b">
      <path class="c" d="M115.85,558.41c.31.71.55,1.43.79,2.15l.15,2.2.32,4.4.32,4.4.16,2.2c-.14.75-.27,1.5-.46,2.25-.31-.72-.55-1.44-.79-2.16l-.16-2.2-.32-4.4-.32-4.4-.16-2.2A22.32,22.32,0,0,1,115.85,558.41Z"/>
    </g>
    <g class="b">
      <path class="c" d="M135.06,636.11c-.16-2.47-.28-4.94-.4-7.42l-.18-3.72c-.07-1.24-.11-2.48-.07-3.71l.76-14.84.47.64-15.92-3.94,0,0-15.47-5.43.07,0L88.67,594l.77-.61,0,6.06,0,3c0,1,0,2,0,3-.21,4-.39,8.08-.65,12.11-.22-4-.35-8.08-.53-12.12-.07-1,0-2,0-3l0-3,0-6.06a.63.63,0,0,1,.63-.62l.14,0,15.59,3.66.07,0,15.46,5.43,0,0,15.91,3.94a.64.64,0,0,1,.48.64l-.76,14.81c0,1.24,0,2.47-.07,3.7l-.16,3.71Q135.26,632.41,135.06,636.11Z"/>
    </g>
    <g class="b">
      <path class="c" d="M89.44,599.8c1.78.24,3.53.57,5.29.87a19.14,19.14,0,0,1,2.59.62l2.57.71,10.28,2.8,20.58,5.58-.56.11a12.69,12.69,0,0,1,1.42-1l1.45-.92c1-.62,1.94-1.23,2.93-1.82-.82.81-1.65,1.6-2.48,2.39l-1.25,1.18a12.53,12.53,0,0,1-1.29,1.14l0,0a.61.61,0,0,1-.52.09L109.85,606,99.56,603.2,97,602.5a17.79,17.79,0,0,1-2.55-.77C92.77,601.09,91.1,600.48,89.44,599.8Z"/>
    </g>
    <g class="b">
      <path class="c" d="M130.67,610.78c.26.86.45,1.72.63,2.58v15.46c-.19.86-.37,1.71-.62,2.57-.25-.86-.44-1.72-.63-2.57V613.36C130.22,612.5,130.41,611.64,130.67,610.78Z"/>
    </g>
    <g class="b">
      <path class="c" d="M102.08,603.49a19.81,19.81,0,0,1,.62,2l0,2,0,4.08,0,4.08,0,2c-.19.68-.38,1.36-.64,2-.24-.68-.42-1.36-.61-2v-2l0-4.08,0-4.08v-2A19.13,19.13,0,0,1,102.08,603.49Z"/>
    </g>
    <g class="b">
      <path class="c" d="M116.57,606.92a22.47,22.47,0,0,1,.55,2.22l-.08,2.2-.16,4.4-.17,4.4-.08,2.21c-.21.72-.42,1.45-.7,2.17-.23-.74-.38-1.48-.55-2.22l.08-2.2.16-4.4.17-4.4.07-2.2A22.15,22.15,0,0,1,116.57,606.92Z"/>
    </g>
    <g class="b">
      <path class="c" d="M135.65,686.35c-.19-2.49-.34-5-.49-7.48l-.23-3.75c-.09-1.24-.14-2.49-.11-3.74l.62-15,.5.64-11.79-2.51c-3.91-.9-7.88-1.53-11.84-2.22l-6-1c-1-.18-2-.3-3-.55l-2.94-.69-11.74-2.78.76-.6-.07,6.06,0,3c0,1,0,2-.08,3-.25,4-.46,8.07-.75,12.1-.19-4-.29-8.08-.43-12.12-.06-1,0-2,0-3l0-3,.08-6.05a.63.63,0,0,1,.64-.62H89l11.72,2.77,2.93.7c1,.25,2,.36,3,.55l5.94,1c4,.69,7.92,1.32,11.85,2.22l11.8,2.51a.63.63,0,0,1,.49.64l-.62,14.93c0,1.24,0,2.49,0,3.73l-.12,3.74Q135.81,682.61,135.65,686.35Z"/>
    </g>
    <g class="b">
      <path class="c" d="M89.45,652.88c1.76.19,3.49.46,5.23.69a17,17,0,0,1,2.57.54l2.56.61,10.2,2.44h0l20.72,3.26-.54.18a12.17,12.17,0,0,1,1.28-1.1l1.33-1.06c.88-.7,1.76-1.41,2.67-2.09-.71.88-1.44,1.75-2.17,2.61l-1.09,1.29A13.64,13.64,0,0,1,131,661.5l0,0a.64.64,0,0,1-.51.15l-20.72-3.28h0l-10.21-2.45L97,655.32a17.18,17.18,0,0,1-2.53-.68C92.77,654.06,91.1,653.51,89.45,652.88Z"/>
    </g>
    <g class="b">
      <path class="c" d="M130.27,661c.25.86.43,1.72.61,2.58l0,2.57-.05,5.16-.06,5.15,0,2.57c-.2.86-.39,1.72-.65,2.57-.24-.86-.42-1.72-.6-2.58l0-2.58.05-5.15.06-5.15,0-2.58C129.81,662.73,130,661.87,130.27,661Z"/>
    </g>
    <g class="b">
      <path class="c" d="M101.14,655.43c.31.59.56,1.18.8,1.77l.17,1.82.35,3.65.35,3.65.18,1.83c-.13.62-.26,1.25-.45,1.88-.31-.58-.55-1.17-.8-1.76l-.17-1.83-.35-3.65-.36-3.65-.18-1.82A19.22,19.22,0,0,1,101.14,655.43Z"/>
    </g>
    <g class="b">
      <path class="c" d="M115.72,658.44a19.41,19.41,0,0,1,.75,2l.12,2,.24,4.08.25,4.08.12,2c-.15.69-.3,1.38-.51,2.07-.29-.66-.51-1.33-.74-2l-.12-2-.25-4.08-.24-4.07-.13-2C115.36,659.83,115.5,659.14,115.72,658.44Z"/>
    </g>
    <g class="b">
      <path class="c" d="M127.69,722.84c.11,1.43.18,2.86.26,4.29l.11,2.15c0,.71-.08,1.42-.09,2.13l-.34,8.55v-.06l1,17.09v.07l-.48,8.55c0,.71,0,1.43-.12,2.14l-.32,2.13c-.21,1.41-.42,2.83-.66,4.25-.09-1.44-.14-2.87-.19-4.3l-.08-2.15c0-.71.1-1.42.12-2.14l.48-8.55v.07l-1-17.09v-.06l.35-8.55c0-.71,0-1.42.08-2.14l.28-2.12C127.27,725.68,127.46,724.26,127.69,722.84Z"/>
    </g>
    <g class="b">
      <path class="c" d="M134.89,722.75c-2,.17-4,.23-5.94.34L123,722.8l-11.82-.55c-3.94-.19-7.89-.28-11.82-.67l-5.9-.49c-2-.37-3.91-.7-5.85-1.11,2-.09,4-.09,5.94-.14l5.89.49c3.93.39,7.87.48,11.81.67l11.81.55,5.91.28C131,722.14,132.93,722.39,134.89,722.75Z"/>
    </g>
    <g class="b">
      <path class="c" d="M146.28,591.29l18.61,4.45c3.11.68,6.25,1.3,9.35,2l9.31,2.23,18.32,5.51,18.5,4.83a.61.61,0,0,1,.46.61l-.22,17.14-.51,17.11.06,17.1,1.1,17.08v.07l-.89,17L220,713.56v0c.14,2.84.34,5.68.42,8.53l.26,8.54-.31,17.08-.51-17.06-.64-8.51c-.21-2.84-.3-5.68-.47-8.52v0l.35-17.08L220,679.4v.07l-1.1-17.11-.06-17.16.51-17.13.22-17.13.47.62-18.52-4.83-18.31-5.51-9.3-2.2c-3.1-.73-6.17-1.59-9.26-2.38Z"/>
    </g>
    <g class="b">
      <path class="c" d="M219.69,611.82c5.57,1.4,11.11,2.88,16.66,4.32h0c1.37.45,2.71,1,4.05,1.47l4,1.51,8.06,3-.06,0,17.1,4.43a.62.62,0,0,1,.46.64l-1.18,19.87V647l1,19.5,0,19.53-.68,19.5c-.33,6.49-.65,13-1,19.48-.13-6.51-.17-13-.24-19.52l.71-19.48,0-19.48-1-19.46V647l1.19-19.86.46.64-17.1-4.43-.06,0-8.06-3-4-1.5c-1.35-.48-2.69-1-4-1.55h0C230.58,615.45,225.12,613.68,219.69,611.82Z"/>
    </g>
    <g class="b">
      <path class="c" d="M155.09,562.21c5.47,1.75,10.91,3.59,16.37,5.38,2.72.92,5.37,2,8,3.06l8,3.1,16.14,6,16.26,5.66a.65.65,0,0,1,.42.58l.36,17.33a.61.61,0,0,1-.61.63.51.51,0,0,1-.21,0L204,598.77l-16.1-4.59-8-2.4c-2.67-.81-5.36-1.54-8-2.47l-16-5,16.29,4c2.71.67,5.37,1.54,8,2.33l8,2.4,16.12,4.59,15.94,5.15-.82.61L219.11,586l.42.58-16.27-5.67-16.16-6-8-3.1c-2.67-1.06-5.38-2-8-3.15C165.73,566.52,160.39,564.41,155.09,562.21Z"/>
    </g>
    <g class="b">
      <path class="c" d="M156.32,567.85a12.24,12.24,0,0,1,.5,1.56l-.14,1.5-.27,3-.28,3-.13,1.51c-.24.48-.46,1-.76,1.44-.2-.52-.34-1-.49-1.56l.14-1.5.27-3,.27-3,.13-1.5A13.42,13.42,0,0,1,156.32,567.85Z"/>
    </g>
    <g class="b">
      <path class="c" d="M152.76,563.06a5.44,5.44,0,0,1-.43.94l-.72.38-1.44.76-1.45.76-.72.38a8,8,0,0,1-1-.18,6.68,6.68,0,0,1,.43-.93l.72-.38,1.44-.76,1.45-.76c.23-.13.48-.25.71-.39A6.64,6.64,0,0,1,152.76,563.06Z"/>
    </g>
    <g class="b">
      <path class="c" d="M210.88,600.69a6.68,6.68,0,0,1,.6.94c0,.3,0,.61,0,.91l-.07,1.82-.07,1.83,0,.91a8.5,8.5,0,0,1-.66.89,9,9,0,0,1-.59-.94l0-.91.08-1.82.07-1.83c0-.3,0-.6,0-.91A7,7,0,0,1,210.88,600.69Z"/>
    </g>
    <g class="b">
      <path class="c" d="M155.27,587.76c1.37.32,2.72.69,4.08,1l2,.55c.66.22,1.3.5,2,.73l7.85,2.91-.08,0,16.3,3.82h.05l8,2.54c.66.23,1.33.4,2,.64l1.93.82c1.29.55,2.57,1.1,3.85,1.68-1.38-.27-2.74-.57-4.11-.87l-2.05-.44c-.67-.19-1.32-.44-2-.64l-8-2.54h0l-16.29-3.81-.08,0-7.85-2.92c-.65-.26-1.32-.46-2-.72l-1.9-.91C157.78,589,156.52,588.41,155.27,587.76Z"/>
    </g>
    <g class="b">
      <path class="c" d="M153.08,582.46a7.22,7.22,0,0,1-.31,1c-.25.18-.48.37-.71.55l-1.41,1.12-1.41,1.11-.71.55a7.59,7.59,0,0,1-1.09.07,7.21,7.21,0,0,1,.32-1l.7-.56,1.41-1.11,1.41-1.11c.23-.19.48-.37.7-.56A6.46,6.46,0,0,1,153.08,582.46Z"/>
    </g>
    <g class="b">
      <path class="c" d="M162.85,643.26a6.58,6.58,0,0,1,0,1.17c-.18.27-.34.56-.52.84l-1,1.68-1,1.68-.52.84a9.17,9.17,0,0,1-1,.52,7.68,7.68,0,0,1,0-1.17l.51-.84,1-1.68,1-1.69.51-.84A7.31,7.31,0,0,1,162.85,643.26Z"/>
    </g>
    <g class="b">
      <path class="c" d="M212.17,652.44a5.45,5.45,0,0,1-.16,1l-.58.49-1.16,1-1.16,1-.57.49a6.44,6.44,0,0,1-1,0,7,7,0,0,1,.17-1l.58-.49,1.15-1,1.16-1c.19-.16.39-.32.58-.5A6.34,6.34,0,0,1,212.17,652.44Z"/>
    </g>
    <g class="b">
      <path class="c" d="M170.79,624.09c.27.66.46,1.32.66,2v2l0,4,.05,4,0,2c-.19.66-.36,1.32-.61,2-.26-.66-.45-1.32-.65-2l0-2-.05-4,0-4,0-2C170.36,625.42,170.54,624.76,170.79,624.09Z"/>
    </g>
    <g class="b">
      <path class="c" d="M188.21,628.82a16.3,16.3,0,0,1,.7,1.69l.07,1.71.15,3.44.14,3.43.08,1.72c-.17.58-.33,1.16-.55,1.74a16.3,16.3,0,0,1-.7-1.69l-.08-1.71-.14-3.44-.15-3.43-.08-1.72A14.64,14.64,0,0,1,188.21,628.82Z"/>
    </g>
    <g class="b">
      <path class="c" d="M201.67,632.25a17.68,17.68,0,0,1,.59,1.73l0,1.72-.08,3.43-.08,3.44,0,1.72c-.21.56-.4,1.13-.67,1.7a17.57,17.57,0,0,1-.58-1.73l0-1.72.08-3.43.08-3.44,0-1.72A15.06,15.06,0,0,1,201.67,632.25Z"/>
    </g>
    <g class="b">
      <path class="c" d="M169.17,615.54l3.36,4.16-.08-.05,10.8,2.45c3.59.84,7.2,1.58,10.78,2.5l21.64,4.63-.71.85-2.51-6.19.43.37-11.29-2.73c-3.76-.92-7.54-1.78-11.31-2.67s-7.56-1.7-11.29-2.78L167.78,613l.57-.13-5.54,4.8.22-.46-.22,25.85-.51-.62,12.23,2.33c4.06.87,8.2,1.32,12.32,1.87l6.18.81c1,.16,2.07.24,3.09.45l3.06.58c2,.37,4.09.81,6.12,1.26l6.1,1.32-.48.4.39-15.8.42,15.8a.39.39,0,0,1-.39.4h-.09l-6.15-1c-2-.34-4.09-.68-6.13-1.1l-3.05-.59c-1-.22-2.06-.3-3.09-.45l-6.18-.81c-4.12-.56-8.25-1-12.32-1.88l-12.27-2.33a.62.62,0,0,1-.51-.62l.22-25.85a.66.66,0,0,1,.22-.47l5.54-4.81a.63.63,0,0,1,.57-.13l11.21,3c3.71,1.08,7.5,1.88,11.27,2.78s7.54,1.74,11.3,2.66l11.3,2.73a.63.63,0,0,1,.43.38l2.51,6.19a.63.63,0,0,1-.35.82.74.74,0,0,1-.36,0l-21.67-4.62c-3.59-.89-7.13-2-10.7-2.92l-10.67-3h0a.11.11,0,0,1-.07-.06Z"/>
    </g>
    <g class="b">
      <path class="c" d="M156.89,616.39c.24,1.2.4,2.4.56,3.61l-.07,3.59-.13,7.2-.37,7.19-.19,3.59c-.27,1.19-.5,2.38-.81,3.56-.2-1.21-.29-2.41-.44-3.62l.19-3.59.37-7.17.13-7.19.06-3.59C156.4,618.78,156.61,617.58,156.89,616.39Z"/>
    </g>
    <g class="b">
      <path class="c" d="M171.35,634.53c1.74.1,3.46.28,5.18.45l5,1.08,10.09,2.14,10.09,2.13,5.05,1.06c1.64.56,3.29,1.08,4.92,1.68-1.74-.11-3.45-.3-5.18-.45l-5-1.07-10.09-2.12-10.09-2.15-5.05-1.06C174.62,635.68,173,635.14,171.35,634.53Z"/>
    </g>
    <g class="b">
      <path class="c" d="M161.71,695.43a7,7,0,0,1,.19,1.16c-.14.3-.26.6-.4.9l-.78,1.82-.78,1.82-.4.91a7.71,7.71,0,0,1-1,.66,9.84,9.84,0,0,1-.19-1.15l.4-.91.78-1.82.79-1.82c.12-.31.26-.61.38-.91A7.16,7.16,0,0,1,161.71,695.43Z"/>
    </g>
    <g class="b">
      <path class="c" d="M212.19,702.47a5.49,5.49,0,0,1-.19,1l-.59.47-1.18,1-1.18,1-.59.48a5.34,5.34,0,0,1-1,0,5.44,5.44,0,0,1,.19-1l.59-.49,1.18-1,1.18-1,.58-.49A5.45,5.45,0,0,1,212.19,702.47Z"/>
    </g>
    <g class="b">
      <path class="c" d="M172.07,676.9c.21.68.34,1.36.48,2l-.15,2-.3,4-.3,4-.15,2c-.24.65-.47,1.29-.77,1.94-.2-.68-.34-1.36-.48-2l.15-2,.3-4,.3-4,.14-2C171.53,678.19,171.76,677.54,172.07,676.9Z"/>
    </g>
    <g class="b">
      <path class="c" d="M201.84,681.62a16.83,16.83,0,0,1,.51,1.77l-.13,1.71-.24,3.44-.24,3.43-.12,1.72a16.45,16.45,0,0,1-.75,1.67c-.21-.59-.35-1.17-.5-1.76l.12-1.72.24-3.43L201,685l.12-1.71A15.46,15.46,0,0,1,201.84,681.62Z"/>
    </g>
    <g class="b">
      <path class="c" d="M169.21,668.33l3.29,4.29-.14-.09,10.89,1.06c1.82.18,3.63.35,5.44.6l5.42.71h0l21.65,4.35-.72.81-2.5-7.56.52.42-15.22-1.86h-.06l-14.88-3.36H183L167.88,666l.48-.14-5.42,4.66.22-.48.1,25.53-.56-.62c1.71.2,3.41.48,5.11.72l5.11.76L183.14,698l-10.3-.85-5.15-.44c-1.71-.16-3.43-.27-5.14-.46a.64.64,0,0,1-.56-.63l-.08-25.53a.63.63,0,0,1,.21-.48l5.43-4.66a.6.6,0,0,1,.47-.15l15.13,1.69h.06l14.88,3.36H198l15.22,1.86a.61.61,0,0,1,.52.43l2.5,7.56a.62.62,0,0,1-.4.79.7.7,0,0,1-.32,0l-21.65-4.36h0l-5.43-.69c-1.81-.21-3.61-.5-5.41-.79l-10.8-1.73h0a.2.2,0,0,1-.13-.08Z"/>
    </g>
    <g class="b">
      <path class="c" d="M155.61,666.47c.32,1.3.56,2.6.8,3.91l.17,3.93.35,7.87v0l-.23,7.87-.11,3.93c-.25,1.31-.45,2.61-.74,3.92-.22-1.32-.34-2.64-.51-4l.11-3.94.23-7.86v0l-.35-7.86-.18-3.94C155.28,669.11,155.41,667.79,155.61,666.47Z"/>
    </g>
    <g class="b">
      <path class="c" d="M178.64,754.61c-.22-3.15-.34-6.29-.51-9.43-.13-1.58,0-3.15,0-4.72l0-4.72L178,716.88l.63.62-17.91,0,.62-.6-.69,15.37v0c0,1.29,0,2.57.11,3.86s0,2.58-.08,3.87c-.07,2.58-.13,5.16-.25,7.74-.24-2.57-.44-5.14-.66-7.72-.09-1.28-.24-2.57-.28-3.85s-.07-2.58-.09-3.87v0l.69-15.38a.63.63,0,0,1,.62-.6l17.92,0a.62.62,0,0,1,.62.62l.12,18.87,0,4.72c0,1.57.06,3.15-.09,4.72C179.05,748.32,178.88,751.47,178.64,754.61Z"/>
    </g>
    <g class="b">
      <path class="c" d="M192.43,715.48c1.16-.17,2.32-.28,3.47-.38l3.42.25,6.85.49L213,716l3.43.07c1.14.23,2.28.42,3.42.69-1.15.24-2.3.37-3.45.56l-3.44-.06-6.88-.14-6.87-.49-3.43-.24C194.69,716.09,193.55,715.82,192.43,715.48Z"/>
    </g>
    <g class="b">
      <path class="c" d="M192.42,724.19c1.12-.36,2.25-.64,3.38-.92l3.43-.29,6.87-.58h.07l6.87.2,3.44.1c1.14.24,2.28.44,3.41.73-1.15.22-2.3.34-3.45.52l-3.43-.1-6.87-.2h.07l-6.87.58-3.44.3C194.74,724.44,193.58,724.35,192.42,724.19Z"/>
    </g>
    <g class="b">
      <path class="c" d="M192.47,732.72c1.1-.44,2.2-.8,3.31-1.15l3.42-.53L206,730h.08l6.89-.19,3.45-.1c1.16.18,2.31.31,3.47.53-1.15.29-2.29.48-3.43.72L213,731l-6.9.19h.08l-6.83,1.06-3.41.53C194.81,732.81,193.65,732.8,192.47,732.72Z"/>
    </g>
    <g class="b">
      <path class="c" d="M192.34,740.21c1.12-.4,2.25-.73,3.38-1.05l3.46-.41,6.92-.84,6.89-1.07,3.44-.54c1.18,0,2.35,0,3.54.09-1.11.43-2.23.77-3.35,1.15l-3.45.54-6.9,1.07-6.93.84-3.46.42C194.7,740.37,193.52,740.33,192.34,740.21Z"/>
    </g>
    <g class="b">
      <path class="c" d="M192.47,748.83c1.05-.58,2.13-1.09,3.2-1.6l3.39-1,6.76-2h.05l6.9-1.4,3.44-.7c1.19,0,2.37-.1,3.57-.09-1.1.49-2.21.88-3.32,1.32l-3.44.7-6.9,1.4,0,0-6.76,2-3.38,1C194.85,748.6,193.67,748.75,192.47,748.83Z"/>
    </g>
    <g class="b">
      <path class="c" d="M225.46,674.15q2.82-.17,5.64-.27l2.82-.12c.94,0,1.88-.08,2.81,0L248,674a.63.63,0,0,1,.61.63l.1,22.38a.63.63,0,0,1-.62.63H248l-22.73-2.24a.62.62,0,0,1-.56-.58v0a24.45,24.45,0,0,1,0-2.84l.08-2.86c.05-1.9.11-3.8.19-5.7.21,1.89.38,3.79.55,5.68l.27,2.84a27.24,27.24,0,0,1,.17,2.85l-.57-.61,22.74,2.24-.69.62-.1-22.38.61.63L236.71,675a26.31,26.31,0,0,1-2.81-.14l-2.81-.23C229.21,674.49,227.34,674.33,225.46,674.15Z"/>
    </g>
    <g class="b">
      <path class="c" d="M220.08,677.43a4.74,4.74,0,0,1,.61-.59l.57,0,1.13.08,1.14.08.56,0a.63.63,0,0,1-.08,1.25l-.57,0-1.14-.08-1.13-.08-.57,0A5.58,5.58,0,0,1,220.08,677.43Z"/>
    </g>
    <g class="b">
      <path class="c" d="M220.1,691.5a4.88,4.88,0,0,1,.67-.52l.55.11,1.11.2,1.11.2.56.1a6.86,6.86,0,0,1,.44.72,7.18,7.18,0,0,1-.67.52l-.55-.11-1.11-.2-1.11-.2c-.19,0-.37-.08-.56-.1A5.27,5.27,0,0,1,220.1,691.5Z"/>
    </g>
    <g class="b">
      <path class="c" d="M252.58,675.61a18.77,18.77,0,0,1,.57,2l-.06,1.93-.13,3.86-.12,3.86-.06,1.94c-.21.63-.42,1.27-.69,1.91-.23-.65-.39-1.3-.56-2l.06-1.93.12-3.87.13-3.86,0-1.94C252.1,676.89,252.3,676.25,252.58,675.61Z"/>
    </g>
    <g class="b">
      <path class="c" d="M239.3,714.68c.22,1.07.37,2.13.51,3.19l-.13,3.17-.24,6.33-.25,6.33-.12,3.17c-.25,1-.45,2.1-.75,3.14-.21-1.06-.33-2.12-.5-3.19l.12-3.16.25-6.34.24-6.33.12-3.17C238.77,716.78,239,715.73,239.3,714.68Z"/>
    </g>
    <g class="b">
      <path class="c" d="M255.45,737.44c-.17-2.11-.3-4.21-.43-6.31l-.2-3.15c-.07-1.05,0-2.11,0-3.16l0-12.61.6.62L234.23,712l.66-.65.69,16.07-.05,4c0,.67,0,1.34,0,2l-.15,2c-.21,2.68-.39,5.36-.64,8-.17-2.68-.27-5.36-.39-8l-.09-2c0-.67,0-1.34,0-2l.05-4-.7-16a.63.63,0,0,1,.6-.65h.06l21.14.88a.62.62,0,0,1,.6.62l0,12.62c0,1,.06,2.1,0,3.15l-.19,3.16C255.74,733.23,255.62,735.33,255.45,737.44Z"/>
    </g>
    <g class="b">
      <path class="c" d="M231.19,631.36l7,1.3,3.65.66c1.22.23,2.48.43,3.68.77l13.94,4.32a.63.63,0,0,1,.44.58l.46,20.24a.63.63,0,0,1-.61.64h-.13l-14.44-2.55h.07l-15.3-.93a.63.63,0,0,1-.59-.65l.32-6.23.17-3.12c0-1,.08-2.1.21-3.1C230.49,639.23,230.85,635.24,231.19,631.36Zm0,0c-.05,4.26-.09,8.4-.07,12.48,0,1,0,2-.09,3l-.12,3-.28,6-.58-.66,15.3.93h.07l14.44,2.55-.73.63L258.67,639l.44.58-13.9-4.29c-1.16-.24-2.27-.58-3.41-.91l-3.45-1C236,632.72,233.64,632,231.19,631.36Z"/>
    </g>
    <g class="b">
      <path class="c" d="M246.73,635.68c.27.89.47,1.79.67,2.68l0,2.68.07,5.37.07,5.36,0,2.69c-.18.89-.35,1.79-.59,2.69-.26-.89-.46-1.78-.66-2.68l0-2.68-.07-5.36-.08-5.37,0-2.68C246.31,637.48,246.48,636.58,246.73,635.68Z"/>
    </g>
    <g class="b">
      <path class="c" d="M261.11,615c2.61-.39,5.23-.75,7.85-1.1a.34.34,0,0,1,.2,0l0,0,4.9,2.71c1.65.88,3.2,1.93,4.8,2.87l9.57,5.82a.66.66,0,0,1,.3.55c-.15,7.24-.4,14.48-.47,21.7l-.13,10.85c0,.9,0,1.81,0,2.71l.11,2.71.23,5.42c.13,3.62.37,7.23.41,10.85l.17,10.87.08,5.43c0,1.81-.12,3.62-.17,5.43l-.5,10.86c-.32-7.24-.65-14.48-.66-21.71l-.17-10.85c0-3.61-.28-7.23-.41-10.85l-.23-5.43-.12-2.71c0-.9,0-1.81,0-2.72l.13-10.87c.07-7.25.31-14.48.47-21.72l.3.55-9.57-5.82c-1.58-1-3.22-1.88-4.76-2.94l-4.66-3.1.22,0Q265.07,614.86,261.11,615Z"/>
    </g>
    <g class="b">
      <path class="c" d="M269.24,623.23a8,8,0,0,1-.66-1.06c0-.35,0-.71,0-1.07l0-2.15,0-2.14,0-1.08a9.82,9.82,0,0,1,.61-1.08,8.54,8.54,0,0,1,.64,1.06l0,1.07,0,2.15,0,2.15c0,.35,0,.71,0,1.07A8.42,8.42,0,0,1,269.24,623.23Z"/>
    </g>
    <g class="b">
      <path class="c" d="M282,634.4a17.44,17.44,0,0,1,.64,1.93v11.59c-.19.64-.37,1.29-.62,1.93-.25-.64-.44-1.28-.63-1.93V636.33C281.54,635.69,281.73,635,282,634.4Z"/>
    </g>
    <g class="b">
      <path class="c" d="M281.36,661.45a17.42,17.42,0,0,1,.68,1.91l0,1.93.11,3.87.11,3.86.05,1.93c-.17.65-.33,1.3-.57,1.95-.27-.64-.47-1.27-.68-1.91l-.05-1.94-.11-3.86-.11-3.86-.06-1.93A18,18,0,0,1,281.36,661.45Z"/>
    </g>
    <g class="b">
      <path class="c" d="M281.34,685.92a15.53,15.53,0,0,1,.7,1.64l0,1.66.13,3.33.13,3.33.06,1.66c-.17.56-.33,1.12-.56,1.69-.27-.55-.48-1.1-.69-1.64l-.06-1.67L281,692.6l-.13-3.33-.07-1.67A15.84,15.84,0,0,1,281.34,685.92Z"/>
    </g>
    <g class="b">
      <path class="c" d="M232.78,680.57a3.61,3.61,0,0,1,2.43-1.91,6.63,6.63,0,0,1,3.12.5,5.54,5.54,0,0,1,1.36.82,7,7,0,0,1,1.15,1.09,6.53,6.53,0,0,1,1.25,2.91,6.92,6.92,0,0,1-1.88,5.81,6.28,6.28,0,0,1-2.69,1.63,5.9,5.9,0,0,1-1.57,0,9.44,9.44,0,0,1-1.46-.36,7.62,7.62,0,0,0,2.66-.84,5,5,0,0,0,2.16-1.32,5.61,5.61,0,0,0,1.54-4.74,5.34,5.34,0,0,0-1-2.32,6,6,0,0,0-.93-.88,4.53,4.53,0,0,0-1.09-.66,5.15,5.15,0,0,0-2.5-.39A3.55,3.55,0,0,0,232.78,680.57Z"/>
    </g>
    <g class="b">
      <path class="c" d="M230.56,666.29c1.24,0,2.47,0,3.7,0l1.85,0a11.23,11.23,0,0,1,1.84.1l7.33.76L260,668.5a.62.62,0,0,1,.57.62l.14,11.18,0,2.8c0,.47,0,.93,0,1.4a13.13,13.13,0,0,1-.07,1.4c-.16,1.87-.29,3.73-.48,5.6-.24-1.86-.41-3.73-.61-5.59a10.86,10.86,0,0,1-.11-1.4c0-.46,0-.93,0-1.39l0-2.8-.14-11.19.57.62-14.68-1.32-7.33-.75a11.4,11.4,0,0,1-1.83-.28l-1.81-.36Q232.38,666.7,230.56,666.29Z"/>
    </g>
    <g class="b">
      <path class="c" d="M222.3,603.37c1-.44,2.08-.86,3.13-1.27l1.57-.62a9.93,9.93,0,0,1,1.59-.54l6.47-1.82L248,595.48a.64.64,0,0,1,.63.17l7.08,7.59,1.77,1.9a17.64,17.64,0,0,1,1.72,2c1.05,1.39,2.12,2.76,3.14,4.17-1.34-1.11-2.63-2.28-3.94-3.42a18.69,18.69,0,0,1-1.83-1.84l-1.77-1.9-7.09-7.59.63.17-12.94,3.65-6.46,1.83a10.24,10.24,0,0,1-1.64.37l-1.67.29C224.52,603,223.42,603.21,222.3,603.37Z"/>
    </g>
    <g class="b">
      <path class="c" d="M243.94,594.42c-1,.25-2,.42-3,.59l-3,0-5.94-.09-5.94-.08-3,0c-1-.21-2-.41-3-.67,1-.24,2-.41,3-.59l3,0,5.94.08,5.93.08,3,0C242,594,243,594.15,243.94,594.42Z"/>
    </g>
    <g class="b">
      <path class="c" d="M228.64,601.91a11.28,11.28,0,0,1,.76,1.4l.12,1.45.25,2.9.25,2.9.12,1.45a14.65,14.65,0,0,1-.5,1.5c-.29-.46-.51-.93-.75-1.39l-.12-1.45-.25-2.9-.25-2.9-.13-1.45A13.33,13.33,0,0,1,228.64,601.91Z"/>
    </g>
    <g class="b">
      <path class="c" d="M261,609.1a17,17,0,0,1,.52,1.88l-.11,1.86-.23,3.7-.22,3.7-.12,1.85a18.5,18.5,0,0,1-.73,1.81c-.22-.63-.36-1.26-.52-1.88l.12-1.86.22-3.7.23-3.7.1-1.85C260.48,610.3,260.7,609.7,261,609.1Z"/>
    </g>
    <g class="b">
      <path class="c" d="M298.92,693.93c1.84-.07,3.68-.07,5.52-.06l5.46.57,10.92,1.13h-.06l11,.08,5.49,0c1.82.22,3.65.39,5.48.66-1.83.24-3.66.39-5.49.59l-5.49,0-11-.08h-.06l-10.92-1.13-5.46-.56C302.51,694.75,300.71,694.38,298.92,693.93Z"/>
    </g>
    <g class="b">
      <path class="c" d="M342.62,686.08c-1.88,0-3.74-.16-5.6-.28l-5.49-.9-11-1.79-10.86-2.44-5.43-1.22c-1.77-.61-3.55-1.17-5.3-1.83,1.87.16,3.71.41,5.56.61l5.42,1.22,10.85,2.43,11,1.79,5.48.89C339,685,340.83,685.52,342.62,686.08Z"/>
    </g>
    <g class="b">
      <path class="c" d="M342.8,674.29c-1.88-.2-3.74-.5-5.61-.76l-5.46-1.37-10.92-2.73-11-2.56-5.48-1.28c-1.78-.64-3.57-1.22-5.34-1.89,1.88.18,3.75.45,5.62.67l5.49,1.28,11,2.56L332,670.94l5.46,1.37C339.26,673,341.05,673.58,342.8,674.29Z"/>
    </g>
    <g class="b">
      <path class="c" d="M-43.25,494.31l11.57,3.29,5.78,1.64c1.92.57,3.89,1,5.84,1.46l11.69,2.81c1.95.47,3.88,1,5.8,1.6l5.78,1.64L9,508.39l2.89.83c1,.27,1.95.46,2.92.7l11.71,2.72c3.91.88,7.8,1.89,11.68,2.89l11.66,3a.63.63,0,0,1,.47.61l-.22,17.46.34,17.46-.6,17.45.61,17.43V589l-.72,15.2c-.17,2.54-.07,5.08-.1,7.61v7.61c0,10.15,0,20.31.1,30.47,0,5.07.1,10.15.22,15.23l.17,7.61c.05,2.54,0,5.08.07,7.62,0,5.08.08,10.16.07,15.24l-.07,15.24-.46-15.23c-.16-5.08-.41-10.15-.6-15.23-.1-2.54-.24-5.07-.28-7.61l-.15-7.62c-.12-5.08-.18-10.16-.22-15.24-.14-10.16-.09-20.32-.1-30.48v-7.63c0-2.54-.06-5.08.11-7.62l.72-15.23V589L48.6,571.5,49.19,554l-.33-17.45.22-17.47.47.61-11.65-3c-3.88-1-7.76-2-11.68-2.89L14.5,511.13c-1-.24-2-.43-2.92-.7l-2.9-.83L2.89,508c-3.86-1.09-7.71-2.22-11.59-3.23l-11.59-3.22c-1.93-.55-3.88-1-5.78-1.65L-31.8,498Z"/>
    </g>
    <g class="b">
      <path class="c" d="M-43.18,546.7c6.23,1.07,12.44,2.21,18.66,3.32,1.56.25,3.13.48,4.68.77l4.66.87,9.32,1.71,18.57,3.81,18.6,3.64-.74.63-.45-13.33v0l.57-13.64.46.63-18.5-5.2L-6,525.26-15.34,523l-4.68-1.1c-1.56-.37-3.1-.81-4.65-1.22l-18.59-4.93,18.84,3.88c1.57.34,3.14.65,4.7,1l4.67,1.12,9.35,2.24L13,528.66l18.52,5.2a.62.62,0,0,1,.45.63l-.57,13.64v0l.45,13.33a.64.64,0,0,1-.6.65l-.15,0-18.6-3.63L-6.1,554.6l-9.32-1.71-4.66-.85c-1.56-.29-3.1-.63-4.64-1C-30.88,549.62-37,548.2-43.18,546.7Z"/>
    </g>
    <g class="b">
      <path class="c" d="M31.68,534.92c-.79.54-1.6,1-2.41,1.51s-1.74.66-2.61,1l-5.23,1.93.41-.55-.19,3c0,.5-.08,1-.08,1.5a8,8,0,0,1-.74,1.46,8.85,8.85,0,0,1-.54-1.54c.06-.5.07-1,.11-1.5l.19-3a.62.62,0,0,1,.41-.55l5.23-1.93c.88-.3,1.73-.69,2.63-.93S30.73,535,31.68,534.92Z"/>
    </g>
    <g class="b">
      <path class="c" d="M16.34,538.88c-2.55-.27-5.09-.64-7.63-1l-7.5-1.59c-5-.93-9.92-2.42-14.86-3.72s-9.84-2.74-14.82-3.86L-35.91,527c-2.43-.79-4.88-1.54-7.3-2.38,2.54.34,5.06.78,7.6,1.17l7.45,1.78c5,1.12,9.88,2.53,14.81,3.85s9.83,2.8,14.85,3.72L9,536.68C11.43,537.41,13.9,538.09,16.34,538.88Z"/>
    </g>
    <g class="b">
      <path class="c" d="M-43.29,605.2c6.27.56,12.53,1.2,18.8,1.8,1.56.23,3.11.44,4.66.71l4.65.82,9.29,1.61,18.67,2.53,18.76,1.89-.69.64-.53-13.75.38-13.77.53.64L12.46,585.4l-18.6-3.82-9.3-1.85-4.65-.91c-1.55-.31-3.09-.68-4.63-1l-18.55-4,18.75,3c1.56.28,3.12.52,4.67.83l4.65.93,9.31,1.86,18.58,3.81,18.73,2.91a.64.64,0,0,1,.53.64l-.38,13.72.53,13.71a.61.61,0,0,1-.6.65h-.09l-18.77-1.89-18.72-2.53-9.29-1.61L-20,609c-1.55-.26-3.09-.59-4.63-.9Z"/>
    </g>
    <g class="b">
      <path class="c" d="M31.22,587.3c-.75.68-1.51,1.35-2.29,2A15.31,15.31,0,0,1,26.44,591l-5.1,3.14.29-.62.4,2.63.2,1.32c.1.21,0,.46-.12.69s-.19.48-.3.73q-.27-.3-.51-.6c-.14-.21-.35-.4-.31-.63l-.2-1.32-.4-2.64a.62.62,0,0,1,.29-.62l5.11-3.14a14.88,14.88,0,0,1,2.62-1.46C29.33,588,30.27,587.66,31.22,587.3Z"/>
    </g>
    <g class="b">
      <path class="c" d="M16.41,593c-2.52-.23-5-.56-7.54-.85l-7.42-1.47c-4.93-1.09-9.95-1.66-14.95-2.41s-10-1.31-14.95-2.4l-7.43-1.46c-2.44-.7-4.89-1.34-7.32-2.08,2.53.24,5,.57,7.54.85l7.43,1.46c4.93,1.08,10,1.66,14.94,2.4s10,1.31,15,2.41L9.1,591C11.54,591.65,14,592.29,16.41,593Z"/>
    </g>
    <g class="b">
      <path class="c" d="M83.71,689.91l-26.79-3a.42.42,0,0,1-.37-.39v0L56,677.09c-.18-3.14-.31-6.28-.41-9.42v0l.81-19.12.28-19.13v0L55.5,610.28v0l.2-14.31c.09-4.77.06-9.54.07-14.31s0-9.55.12-14.32L56.22,553a.63.63,0,0,1,.64-.61h0l26.18,2.84a.62.62,0,0,1,.56.6l.42,16.78.05,2.1-.06,2.09L84,581l-.22,8.39-.12,4.19v12.57c0,2.79,0,5.58,0,8.37l.21,8.39.21,8.38c0,2.79,0,5.59-.06,8.39L83.93,648c0,2.8-.17,5.58-.26,8.38l-.33,8.37c-.1,2.79-.3,5.58-.13,8.41Zm0,0-1-16.78c-.26-2.75-.15-5.55-.14-8.35l.07-8.38,0-8.39.09-8.38c0-2.79.08-5.58.06-8.37l-.22-8.38-.21-8.38c-.08-2.79,0-5.59,0-8.39V593.52l.11-4.18L82.7,581l.11-4.19,0-2.09,0-2.1-.42-16.75.56.61-26.18-2.83.69-.61-.33,14.31c-.16,4.76-.1,9.54-.12,14.31s0,9.54-.07,14.31l-.2,14.32v0L58,629.34v0l-.28,19.15-.8,19.13v0q.21,4.71.3,9.43l.21,9.43-.37-.41C65.81,687.33,74.69,688.67,83.71,689.91Z"/>
    </g>
    <g class="b">
      <path class="c" d="M74.93,526.21c.3.93.52,1.88.74,2.82l.09,2.84.21,5.69.21,5.69.1,2.84c-.15,1-.3,1.91-.52,2.87-.29-.94-.5-1.88-.73-2.82l-.1-2.85-.21-5.68-.21-5.69-.11-2.85C74.56,528.12,74.71,527.16,74.93,526.21Z"/>
    </g>
    <g class="b">
      <path class="c" d="M49.46,561.68a5.82,5.82,0,0,1,1-.51c.3.05.6.08.9.12l1.82.22,1.82.23.91.12a6.89,6.89,0,0,1,.83.73,8.48,8.48,0,0,1-1,.51l-.91-.12L53,562.76l-1.82-.23-.91-.11A6.22,6.22,0,0,1,49.46,561.68Z"/>
    </g>
    <g class="b">
      <path class="c" d="M52.83,571.79a4.22,4.22,0,0,1,.56-.56l.48.07,1,.13,1,.13.48.06a5.47,5.47,0,0,1,.4.69,4.78,4.78,0,0,1-.56.55l-.49-.06-1-.13-1-.13c-.16,0-.32,0-.49-.06A4.85,4.85,0,0,1,52.83,571.79Z"/>
    </g>
    <g class="b">
      <path class="c" d="M49.42,667.06a6.14,6.14,0,0,1,.95-.59c.3,0,.6,0,.91,0l1.82.1,1.83.09.91,0a8.9,8.9,0,0,1,.88.67,6.83,6.83,0,0,1-.94.58l-.91,0L53,667.87l-1.82-.09c-.31,0-.61,0-.92,0A7.45,7.45,0,0,1,49.42,667.06Z"/>
    </g>
    <g class="b">
      <path class="c" d="M52.85,676.36a4.84,4.84,0,0,1,.58-.55c.15,0,.32.05.48.08l1,.15,1,.15.48.08a5.48,5.48,0,0,1,.38.69,5.6,5.6,0,0,1-.57.54l-.49-.07-1-.15-1-.15a4,4,0,0,0-.48-.07A5,5,0,0,1,52.85,676.36Z"/>
    </g>
    <g class="b">
      <path class="c" d="M3.37,535.59c.26.84.45,1.67.63,2.51v15c-.19.84-.38,1.67-.63,2.51-.25-.84-.43-1.67-.62-2.51v-15C2.93,537.26,3.11,536.43,3.37,535.59Z"/>
    </g>
    <g class="b">
      <path class="c" d="M3.38,590.88c.26.82.46,1.64.65,2.46v2.46l0,4.92,0,4.92,0,2.46c-.19.82-.36,1.64-.61,2.46-.25-.82-.45-1.63-.64-2.45l0-2.46,0-4.92,0-4.92,0-2.46C2.94,592.53,3.12,591.71,3.38,590.88Z"/>
    </g>
    <g class="b">
      <path class="c" d="M-39.67,664.59l13.38.39c4.46.12,8.92.32,13.36.72l26.68,2h.05l18.09,2.71-.72.63L30.92,657l0-14.07.53.61L-4.08,638-13,636.89l-4.46-.53c-1.48-.18-3-.43-4.44-.64l-17.81-2.37,17.93,1.32c1.49.14,3,.25,4.47.43l4.47.54,8.92,1.08,35.52,5.55a.61.61,0,0,1,.52.61l0,14.06L32.42,671a.62.62,0,0,1-.61.64H31.7l-18.09-2.7h.05L-13,667c-4.45-.25-8.88-.8-13.32-1.15Z"/>
    </g>
    <g class="b">
      <path class="c" d="M21.64,649.43c.23.81.38,1.62.54,2.43l-.1,2.42-.18,4.83-.18,4.82-.09,2.42c-.23.8-.44,1.59-.72,2.39-.22-.81-.38-1.63-.54-2.44l.1-2.41.18-4.83.18-4.83.08-2.41C21.13,651,21.35,650.22,21.64,649.43Z"/>
    </g>
    <g class="b">
      <path class="c" d="M16.48,647.84c-2.37.06-4.73,0-7.09,0l-7-.63c-4.7-.35-9.36-1-14-1.55s-9.33-1.21-14-1.53l-7-.6c-2.33-.41-4.66-.76-7-1.22,2.37-.05,4.73,0,7.09,0l7,.59c4.7.32,9.36,1,14,1.53s9.34,1.2,14,1.55l7,.62C11.83,647,14.16,647.37,16.48,647.84Z"/>
    </g>
    <circle class="d" cx="234.7" cy="683.99" r="0.91"/>
    <circle class="d" cx="239" cy="683.56" r="0.91"/>
    <g class="b">
      <path class="c" d="M233.42,686.56l.66-.41a3.06,3.06,0,0,0,.43.13,5.06,5.06,0,0,0,.88.16,5.26,5.26,0,0,0,.89,0,3.27,3.27,0,0,0,.44,0l.56.55a3.39,3.39,0,0,1-.41.7,4.9,4.9,0,0,1-.54,0,6.42,6.42,0,0,1-1.08,0,7.62,7.62,0,0,1-1.06-.2l-.52-.15A2.47,2.47,0,0,1,233.42,686.56Z"/>
    </g>
    <g class="b">
      <path class="c" d="M-29.19,130.62a42.49,42.49,0,0,1,8.42-11.84,46.09,46.09,0,0,1,12.24-8,58.75,58.75,0,0,1,28.62-4.53,66.62,66.62,0,0,1,27.7,8.57,55.86,55.86,0,0,1,11.6,8.87,45,45,0,0,1,8.06,12.09,47.26,47.26,0,0,0-8.94-11.21,54.67,54.67,0,0,0-11.35-8.66A65.27,65.27,0,0,0,20,107.5a57.33,57.33,0,0,0-28,4.43,44.09,44.09,0,0,0-11.89,7.78A44.69,44.69,0,0,0-29.19,130.62Z"/>
    </g>
    <g class="b">
      <path class="c" d="M70.19,127.74A35.42,35.42,0,0,1,78,128a46.53,46.53,0,0,1,7.46,2.28,41.07,41.07,0,0,1,13.1,8.36,38.31,38.31,0,0,1,5.11,5.9c.79,1,1.43,2.17,2.14,3.27s1.29,2.26,1.8,3.45l.83,1.77.71,1.82c.5,1.2.87,2.44,1.27,3.68s.48,2.55.72,3.82.32,2.57.46,3.84l-1.09-3.69c-.44-1.21-.8-2.43-1.29-3.61s-.74-2.43-1.24-3.59l-.7-1.77-.8-1.73c-.49-1.16-1.17-2.24-1.75-3.36s-1.31-2.17-2.08-3.17a37,37,0,0,0-5-5.72,39.54,39.54,0,0,0-12.7-8.1,41.82,41.82,0,0,0-7.25-2.21A43,43,0,0,0,70.19,127.74Z"/>
    </g>
    <g class="b">
      <path class="c" d="M113.84,162a15,15,0,0,1,3.5.67c.55.24,1,.56,1.58.82s1,.63,1.52.94a21.36,21.36,0,0,1,5.19,4.85,19.08,19.08,0,0,1,3.25,6.32,21.78,21.78,0,0,1,.79,3.47,11.89,11.89,0,0,1-.14,1.79c-.06.59-.14,1.18-.23,1.75-.34-1.14-.49-2.28-.87-3.36a21.34,21.34,0,0,0-.74-3.28,17.88,17.88,0,0,0-3-5.93,20.29,20.29,0,0,0-4.9-4.57,23.6,23.6,0,0,0-2.94-1.66A29.93,29.93,0,0,0,113.84,162Z"/>
    </g>
    <g class="b">
      <path class="c" d="M129.3,182.59a23.57,23.57,0,0,1,5.28,1.18,22.84,22.84,0,0,1,4.94,2.36,18.39,18.39,0,0,1,4,3.85,16.13,16.13,0,0,1,1.44,2.39l.61,1.26L146,195a15,15,0,0,1,.59,2.72l.11.68c0,.36,0,.53,0,.8a7.11,7.11,0,0,1-.31,1.44,6.65,6.65,0,0,1-4,4.12,5.94,5.94,0,0,1-1.44.35,10.06,10.06,0,0,1-1.42.07H99.24c-3.58-.21-7.16-.38-10.74-.63,3.58-.25,7.16-.42,10.74-.63h40.25a10,10,0,0,0,1.26-.05,4.59,4.59,0,0,0,1.16-.29,5.39,5.39,0,0,0,3.24-3.34,5.66,5.66,0,0,0,.25-1.17c0-.17,0-.45,0-.54l-.11-.64a12.56,12.56,0,0,0-.54-2.52l-.39-1.23-.56-1.16a14.15,14.15,0,0,0-1.33-2.2,16.77,16.77,0,0,0-3.71-3.57A24.8,24.8,0,0,0,129.3,182.59Z"/>
    </g>
    <g class="b">
      <path class="c" d="M600.18,550.91c-.23-1.69-.38-3.38-.57-5.07,0-.42-.1-.84-.11-1.26v-3.81l-.07-10.13a.62.62,0,0,1,.38-.58l13-5.66,6.59-2.62a9.81,9.81,0,0,1,1.68-.58l1.71-.49c1.14-.34,2.28-.66,3.43-1-1,.57-2.1,1.12-3.15,1.65l-1.58.82a9.4,9.4,0,0,1-1.62.72l-6.57,2.62-13,5.65.37-.58.07,10.14,0,2.53,0,1.27c0,.42-.07.84-.1,1.26C600.52,547.53,600.39,549.22,600.18,550.91Z"/>
    </g>
    <g class="b">
      <path class="c" d="M611.26,609.43c.31.58.55,1.16.8,1.75l.16,1.81.33,3.62.34,3.61.17,1.81c-.14.62-.26,1.24-.46,1.87-.3-.58-.54-1.17-.79-1.75l-.17-1.81-.33-3.62L611,613.1l-.17-1.81A18,18,0,0,1,611.26,609.43Z"/>
    </g>
    <g class="b">
      <path class="c" d="M612.25,655c.22.66.37,1.31.52,2l-.11,1.93-.21,3.86-.21,3.87-.11,1.93c-.22.63-.44,1.27-.73,1.9-.21-.66-.36-1.31-.52-2l.11-1.93.21-3.87.21-3.86.1-1.93A17.74,17.74,0,0,1,612.25,655Z"/>
    </g>
    <g class="b">
      <path class="c" d="M612.22,564.12a19.72,19.72,0,0,1,.65,2v2l0,4.05,0,4v2c-.19.67-.37,1.35-.61,2-.26-.68-.45-1.35-.64-2l0-2,0-4,0-4.05,0-2C611.79,565.47,612,564.8,612.22,564.12Z"/>
    </g>
    <g class="b">
      <path class="c" d="M623.08,529.7c-1.27.68-2.55,1.31-3.83,1.92a12.29,12.29,0,0,1-2,.75l-2,.7-8,2.77.42-.64.41,5.19-.86-.53,7.72-3.13,1.93-.79,1-.4a6.44,6.44,0,0,1,1-.3c1.35-.36,2.69-.75,4.06-1.07-1.21.72-2.44,1.38-3.66,2.07a8,8,0,0,1-.92.48l-1,.38-1.93.79L607.66,541a.62.62,0,0,1-.81-.34.67.67,0,0,1-.05-.19l-.41-5.2a.63.63,0,0,1,.42-.64l8-2.77,2-.69a13.24,13.24,0,0,1,2-.63C620.27,530.25,621.67,530,623.08,529.7Z"/>
    </g>
    <g class="b">
      <path class="c" d="M636.41,543.27c.26,4.65.42,9.3.63,14V641c-.22,4.65-.38,9.31-.63,14-.25-4.65-.42-9.31-.63-14V557.23C636,552.57,636.15,547.92,636.41,543.27Z"/>
    </g>
    <g class="b">
      <g>
        <path class="e" d="M353.23,743.35l-7.5,4.94h0l-8.07,3.88h0l-7.43,5.05h0l-8.47,3.17,0,0-7.45,5h0l-15.86,8.26h0l-7.61,4.74h0l-7.92,4.16h0l-7.59,4.75h0l-8,4.12-8.08,3.88.06,0-7.44,5.05h0l-7.78,4.44L236.16,809l-7.79,4.38-7.74,4.49h0l0,0-6.07,2.87c-2,.94-4,2-6,3s-4,2-6,3l-5.93,3.14.07,0-7.36,5.2-.06,0-.06,0-8.34,3.4.08,0-5.79,3.42c-1.91,1.18-3.92,2.17-5.9,3.22s-4,2.06-5.92,3.17l-5.87,3.27h0l-8.27,3.52,0,0-7.9,4.22,0,0L134,864.61l-.08-.1,7.16-5.54h0l7.8-4.41h0l8.22-3.64,0,0,5.82-3.36c1.93-1.14,3.91-2.18,5.87-3.25s4-2.1,5.84-3.3l5.73-3.49,0,0,0,0L188.7,834l-.12.06,7.35-5.19,0,0h0l5.95-3.15c2-1.06,4-2,6-3s4-2,6-3l6.09-2.85,0,0,7.78-4.44,7.84-4.33,7.94-4.12,7.79-4.39,0,0,7.47-5,0,0h0l8.09-3.82,8-4.07h0l7.62-4.71h0l7.94-4.11h0l7.64-4.69h0L314.07,765h0l7.5-4.94h0l8.49-3.1,0,0,7.47-5h0l8.11-3.82h0l7.53-4.87Z"/>
        <path class="e" d="M313.09,751l-7.94,4.07h0l-8.57,2.56h0l-7.91,4.13h0l-8.59,2.51h0l-6,2.89c-2,1-4,1.87-6.08,2.78s-4.05,1.85-6.14,2.61L255.65,775h0l-8,4h-.05l-8.45,2.83,0,0-15.94,8h0l-16.78,6,.06,0-8,4-8.2,3.52,0,0h0l-8.6,2.47.06,0-8.2,3.42.06,0-7.84,4.31,0,0-.05,0-8.49,2.74.08,0-7.93,4.12,0,0,0,0-8.72,2.16.06,0L124.4,830l-.06-.11c5.32-2.65,10.62-5.34,16-8h.06l8.67-2.37-.1,0,7.86-4.24,0,0,0,0,8.45-2.86-.1.05,7.8-4.39,0,0h0l8.2-3.42,0,0h0l8.61-2.47-.08,0,8.18-3.47,8-3.92,0,0h0l16.83-5.83-.05,0,16-7.86,0,0h0l8.48-2.77,0,0,8-3.93h0l6.23-2.37c2.1-.75,4.11-1.69,6.15-2.56s4.09-1.73,6.09-2.71l6-2.83h0l8.61-2.43h0l7.95-4.05h0l8.59-2.47h0l8-4Z"/>
        <path class="e" d="M408.45,732.25l7.67,5h0l8.24,3.93,8.49,3.39h0l7.93,4.52,7.83,4.71,0,0,8.43,3.52h0l7.82,4.74-.06,0,8.64,3.13h0l8.21,3.95,0,0,0,0,7.47,5.41-.08-.05,8.49,3.41h0l8.06,4.28,8,4.42-.05,0,8.55,3.29,0,0,0,0,7.67,5-.06,0c4.11,2,8.29,3.86,12.28,6.07s8.14,4.11,12.23,6.11,8.05,4.31,12.13,6.32,8.22,3.93,12.35,5.85l0,0,0,0,7.63,5.1-.08-.05,8.25,3.88,8.43,3.5.06,0,0,0,7.52,5.3-.11,0,8.63,3.17h0l0,0,7.79,4.77,7.87,4.63,0,0,8.51,3.43h0l8,4.46-.06.11-8.08-4.25h0l-8.6-3.21h0l-7.93-4.54L619,841l.07,0L610.39,838l-.06,0-.05,0-7.59-5.21.11.06-8.5-3.4q-4.17-1.9-8.31-3.85l0,0,0,0-7.63-5.11.09.05c-4.14-1.92-8.33-3.75-12.38-5.87s-8.1-4.21-12.12-6.36-8.21-4-12.19-6.2-8.12-4.14-12.21-6.14l0,0,0,0-7.64-5.05.09,0-8.54-3.34,0,0h0L505.32,783l-8-4.31,0,0-8.48-3.45,0,0,0,0-7.44-5.45.06,0-8.19-4,0,0-8.62-3.18h0l0,0-7.78-4.79h0l-8.4-3.58h0l-7.79-4.76-7.9-4.58h0l-8.46-3.45-8.22-4h0l-7.64-5.08Z"/>
        <path class="e" d="M478.39,758.3l8.22,4.13h0l8.9,2.37h0L503.7,769l0,0,6.48,2.29c2.17.74,4.31,1.57,6.45,2.37s4.3,1.59,6.42,2.45l6.39,2.53h0l8.22,4.1-.06,0,8.81,2.62h0l8.55,3.27h0l8.29,3.92-.05,0,8.69,2.91,8.76,2.72h0l0,0,8.34,3.82-.07,0,8.74,2.81h.07l8.31,3.83,8.48,3.43h.05l8.15,4.27-.05,0,8.55,3.29-.05,0,9,2.32h.06l0,0,8,4.75-.06,0,8.86,2.58,0,.12-9-2.25h0l0,0L640,822.62l.1,0-9-2.1h0l0,0-8.61-3.16h0l-8.22-4.15.05,0-8.51-3.42L597.35,806l.07,0-8.74-2.82h0l0,0-8.3-3.9.07,0-8.74-2.8-8.68-3h-.06l-8.26-4,0,0-8.53-3.34h0l-8.79-2.69h0l0,0-8.19-4.16h0l-6.37-2.58c-2.11-.88-4.25-1.68-6.39-2.51s-4.26-1.67-6.41-2.44l-6.45-2.35h0l-8.13-4.31h0l-8.88-2.46h0l-8.17-4.21Z"/>
        <path class="e" d="M382.85,757.85l-4.77,8h0l-5.86,7.31,0,0-4,8.44h0l-4.62,8v0h0L358,797.06l0-.08-3.64,8.63v0l0,0-9.44,16,0,0,0,0-5.8,7.34.07-.11-3.94,8.45,0,0,0,.05L329.69,845l-5.14,7.73.05-.08-4,8.43,0,0,0,0L316.72,867c-1.26,2-2.61,3.84-3.94,5.75s-2.69,3.78-3.9,5.76l-3.75,5.87-.11-.06,3.46-6c1.12-2.05,2.44-4,3.7-5.91s2.55-3.88,3.75-5.87l3.69-5.9,0,.06,3.87-8.5,0,0,0-.05,5.12-7.78,5.5-7.51-.06.1,4-8.4,0-.06,0,0,5.9-7.27,0,.06,9.6-15.88,0,0,3.73-8.6,0,0,0,0,5.72-7.38,0,0,4.73-8h0l4.07-8.38v0l0,0,6-7.22h0l4.87-7.89Z"/>
        <path class="e" d="M404.17,809.55l1.21,8.68,0-.05,3.45,8h0l2.84,8.19,2.36,8.34,2.26,8.36,2.08,8.41,0-.08c.54,1.34,1,2.7,1.56,4.05s1,2.7,1.51,4.07l0,.05v0c.56,2.84,1.16,5.66,1.67,8.51s1.12,5.67,1.62,8.53l-.13,0c-.8-2.78-1.55-5.57-2.28-8.37s-1.35-5.62-2-8.44l0,.09c-.55-1.34-1.09-2.68-1.61-4s-1.06-2.69-1.57-4v-.08l-1.9-8.44L413.12,843l-2.19-8.36-2.66-8.23v0L405,818.32v-.05l-1-8.7Z"/>
      </g>
    </g>
    <g class="b">
      <g>
        <path class="c" d="M170.28,572.81l-1.63,4.06c-.07.16.15.26.27.27l6.44.6c.42,0,1.69-.67.9-.75l-6.44-.59.28.27,1.63-4.06c.17-.42-1.26-.25-1.45.2Z"/>
        <path class="c" d="M174.15,575.81l2.71,3.55c.3.39,1.7-.1,1.35-.56l-2.71-3.55c-.3-.39-1.7.11-1.35.56Z"/>
        <path class="c" d="M170.64,583.14l.14-2.95-1.32.47,5,.44a3.2,3.2,0,0,1,.94.09c.14.07,0-.07,0,.3,0,.85.07,1.69.1,2.54,0,.21,1.46,0,1.45-.39l-.11-2.9a.15.15,0,0,0-.12-.08l-6.09-.54c-.27,0-1.31.07-1.33.46l-.14,2.95c0,.17,1.43,0,1.45-.39Z"/>
        <path class="c" d="M183,582.68l2.52,1a1.43,1.43,0,0,0,.93-.09c.05,0,.65-.31.44-.39l-2.52-.95a1.49,1.49,0,0,0-.93.09c-.06,0-.66.31-.44.39Z"/>
        <path class="c" d="M185.23,580.9l-.07,4.15.62-.51-3,.75c-.89.23-.65,1.1.24.88l3-.75c.2,0,.61-.24.62-.51l.06-4.15c0-.69-1.45-.44-1.46.14Z"/>
        <path class="c" d="M189.29,584.72l3.12-.17c.83,0,1.1-1.15.11-1.1l-3.11.17c-.84,0-1.11,1.15-.12,1.1Z"/>
        <path class="c" d="M189.23,580.44l-.94,6.16a.12.12,0,0,0,0,.15l3.44,1.8c.39.2,1.61-.39,1.36-.53l-2.39-1.24c-.23-.12-.88-.32-1-.54.1.17.07-.32.11-.51.32-1.83.56-3.68.84-5.52.07-.43-1.38-.17-1.44.23Z"/>
        <path class="c" d="M198.05,586.39l2.93,1c.55.19,1.7-.6.86-.89l-2.92-1c-.55-.19-1.71.6-.87.89Z"/>
        <path class="c" d="M199.6,584.41l-.24,5.51c0,.68,1.44.43,1.46-.15l.24-5.51c0-.68-1.44-.43-1.46.15Z"/>
        <path class="c" d="M198.48,590.5l3-.89c.13,0,.73-.19.67-.4s-.69-.05-.78,0l-3,.89c-.12,0-.72.19-.67.4s.69,0,.79,0Z"/>
        <path class="c" d="M202.44,588.35l6,1.45-.28-.28-.29,1.42c-.11.51,1.35.28,1.44-.19l.3-1.43c0-.18-.13-.24-.27-.28l-6-1.44c-.43-.11-1.7.56-.9.75Z"/>
        <path class="c" d="M205.57,586l.88,5c.1.6,1.56.24,1.45-.39l-.87-5c-.11-.6-1.56-.24-1.46.39Z"/>
        <path class="c" d="M203.23,586.39l-.09,6.42a.47.47,0,0,0,.33.46l6.47,1.85c.66.18,1.71-.77.83-1l-6.47-1.85.32.46.08-6.42c0-.79-1.46-.59-1.47.1Z"/>
      </g>
    </g>
    <g class="b">
      <path class="c" d="M23.1,559.71c-.15-1.17-.27-2.35-.37-3.52l-.07-.88a8.44,8.44,0,0,1,0-.87l.07-1.75.3-7,.51.65L10.07,544l.73-.64.08,3.11c0,.52,0,1,.06,1.55s0,1-.06,1.56c-.12,2.08-.22,4.15-.38,6.23-.27-2.07-.47-4.14-.7-6.2-.05-.52-.13-1-.14-1.55s0-1,0-1.56l-.08-3.1a.62.62,0,0,1,.61-.64h.12L23.8,545.1a.64.64,0,0,1,.52.65l-.3,7L24,554.49a8.44,8.44,0,0,1,0,.87l-.15.87Q23.48,558,23.1,559.71Z"/>
    </g>
    <g class="b">
      <path class="c" d="M10.62,542.78c-.24.38-.5.73-.76,1.08s-.49.74-.88.92l-2,1.49.25-.54.25,4,.12,2a4,4,0,0,0,0,.5,4.91,4.91,0,0,1-.15.51c-.11.35-.25.69-.39,1a10,10,0,0,1-.51-1,3.52,3.52,0,0,1-.22-.49,4.18,4.18,0,0,0,0-.5l-.12-2-.25-4a.64.64,0,0,1,.25-.54l2-1.5a3,3,0,0,1,1.13-.57C9.78,543.05,10.19,542.91,10.62,542.78Z"/>
    </g>
    <g class="b">
      <path class="c" d="M19.39,550.78a7.12,7.12,0,0,1-1,1.3,6.39,6.39,0,0,1-1.49,1.24l-.16.09a.39.39,0,0,1-.5-.12A11.64,11.64,0,0,0,15.4,552a5.28,5.28,0,0,0-1.16-1,.25.25,0,0,1-.07-.34l.07-.11a10.94,10.94,0,0,1,.88-1.33c.33-.41.64-.84,1-1.22a.68.68,0,0,1,.94-.06A12,12,0,0,1,19.39,550.78Zm-.13,0A21.12,21.12,0,0,1,16.18,549l.93-.05c-.35.39-.75.73-1.14,1.09a10.17,10.17,0,0,1-1.26,1v-.45a5.3,5.3,0,0,0,1,1.17c.38.33.86.57,1.28.87l-.66,0a3.72,3.72,0,0,1,1.22-.91C18,551.38,18.56,551.12,19.26,550.78Z"/>
    </g>
    <g class="b">
      <path class="c" d="M23.75,613.8c-.25-1.12-.47-2.25-.66-3.38l-.14-.84a6,6,0,0,1,0-.85l-.07-1.7-.28-6.79.5.59L10,598l.76-.59-.11,3.13c0,.52,0,1,0,1.56s-.1,1-.15,1.56c-.25,2.07-.47,4.15-.76,6.23-.14-2.09-.22-4.18-.32-6.27,0-.52-.07-1.05,0-1.57s0-1,.07-1.56l.11-3.12a.63.63,0,0,1,.65-.61l.11,0,13.07,2.83a.64.64,0,0,1,.5.59L24.1,607l.07,1.7a6,6,0,0,1,0,.85l-.07.85C24,611.52,23.9,612.66,23.75,613.8Z"/>
    </g>
    <g class="b">
      <path class="c" d="M10.18,596.29c-.25.4-.52.78-.8,1.16a3.67,3.67,0,0,1-.92,1l-2.12,1.67.24-.51.12,4.12.06,2.06a4.43,4.43,0,0,0,0,.52,5.25,5.25,0,0,1-.17.52c-.12.35-.26.69-.42,1-.18-.34-.34-.67-.48-1-.07-.17-.15-.34-.21-.52a2.9,2.9,0,0,0,0-.51l0-2.06-.12-4.13a.63.63,0,0,1,.24-.51l2.11-1.66a3.31,3.31,0,0,1,1.19-.67C9.3,596.62,9.74,596.45,10.18,596.29Z"/>
    </g>
    <g class="b">
      <path class="c" d="M19,604.87a8.82,8.82,0,0,1-.76,1.88A8.48,8.48,0,0,1,17,608.62l-.11.12a.43.43,0,0,1-.6,0,.36.36,0,0,1-.1-.15,13.27,13.27,0,0,0-.81-1.89,10.85,10.85,0,0,0-1.25-1.63.29.29,0,0,1-.05-.32l.06-.13a14.64,14.64,0,0,1,.9-1.6,14.39,14.39,0,0,1,1-1.52l0,0a.64.64,0,0,1,.9-.11l.12.13A15.37,15.37,0,0,1,19,604.87Zm-.13,0a21.42,21.42,0,0,1-2.8-2.57l1.06,0a14.38,14.38,0,0,1-1.11,1.46,14.4,14.4,0,0,1-1.21,1.38v-.46a10.89,10.89,0,0,0,.87,1.86A12.29,12.29,0,0,0,17,608.1l-.81,0a6.1,6.1,0,0,1,1.09-1.61A19.8,19.8,0,0,1,18.9,604.87Z"/>
    </g>
    <g class="b">
      <path class="c" d="M-43.51,619.11c3.16.14,6.32.38,9.48.57l9.4,1.19,18.8,2.33L13,625.5,22.36,627c3.09.7,6.18,1.35,9.26,2.08-3.15-.23-6.3-.56-9.45-.84l-9.35-1.46L-6,624.44l-18.81-2.33-9.4-1.18C-37.3,620.33-40.41,619.77-43.51,619.11Z"/>
    </g>
    <g class="b">
      <path class="c" d="M-43,561.72c3.15.38,6.27.85,9.41,1.28l9.28,1.89h0l14.12,1.75c4.72.48,9.38,1.41,14.07,2.19s9.38,1.48,14,2.7c4.65,1,9.17,2.48,13.71,3.88-4.69-.79-9.39-1.44-14-2.66S8.3,570.9,3.64,570.06s-9.31-1.7-14-2.18l-14.1-1.75h-.05l-9.28-1.89C-36.87,563.4-39.93,562.61-43,561.72Z"/>
    </g>
    <g class="b">
      <path class="c" d="M77.3,571.56l-7.11,7.63a.32.32,0,0,1-.45,0l0,0h0l-6.52-7.28a.48.48,0,0,1,0-.65v0l3.11-3.57c1-1.19,2.1-2.36,3.18-3.51l0,0a.61.61,0,0,1,.86,0h0L72.22,566c.6.63,1.22,1.25,1.78,1.89C75.15,569.15,76.27,570.38,77.3,571.56Zm-.13,0-4-3.32c-.65-.53-1.24-1.08-1.86-1.61L69.52,565l.9,0c-1,1.18-2.11,2.35-3.19,3.49L64,571.91v-.68l6.24,7.52h-.47Z"/>
    </g>
    <g class="b">
      <path class="c" d="M76,592.6,70.17,599a.29.29,0,0,1-.41,0h0l-6.47-6a.5.5,0,0,1,0-.68h0l3.08-3.4c1-1.13,2.09-2.24,3.16-3.32l0,0a.6.6,0,0,1,.85,0l0,0,1.5,1.79c.49.6,1,1.19,1.45,1.79C74.31,590.32,75.21,591.49,76,592.6Zm-.12,0-3.36-3.16c-.54-.5-1-1-1.55-1.53l-1.51-1.52h.92c-1,1.13-2.09,2.23-3.18,3.31L64,592.94v-.7l6.21,6.31h-.43Z"/>
    </g>
    <g class="b">
      <path class="c" d="M77,613.63l-6.83,6.85a.31.31,0,0,1-.41,0h0L62.4,614a.49.49,0,0,1,0-.69l0,0,0,0,7.12-7,0,0a.61.61,0,0,1,.84,0l0,0C72.71,608.83,74.87,611.33,77,613.63Zm-.12,0c-2.52-2.3-5-4.4-7.36-6.46h.87L63.08,614v-.72L70.16,620h-.42Z"/>
    </g>
    <g class="b">
      <path class="c" d="M76.83,634.67l-6.66,6.76a.3.3,0,0,1-.43,0h0L63.22,635a.48.48,0,0,1,0-.65v0l3.11-3.72q1.55-1.86,3.17-3.65v0a.64.64,0,0,1,.89,0l0,0c.58.64,1.14,1.31,1.7,2s1.13,1.3,1.66,2C74.85,632.17,75.88,633.45,76.83,634.67Zm-.13,0-3.76-3.49c-.61-.55-1.17-1.12-1.75-1.68s-1.15-1.11-1.69-1.69h.93q-1.56,1.85-3.21,3.63L63.94,635l0-.66L70.18,641h-.44Z"/>
    </g>
    <g class="b">
      <polyline class="f" points="56.63 549.4 70.4 550.63 84.18 551.78"/>
    </g>
    <g class="b">
      <polyline class="f" points="123.3 707.53 134.92 709.4 134.6 716.05"/>
    </g>
    <g class="b">
      <polyline class="f" points="105.24 734.43 90.95 733.63 76.7 732.36"/>
    </g>
    <g class="b">
      <polyline class="f" points="105.23 744.49 90.49 743.18 75.73 742"/>
    </g>
    <g class="b">
      <polyline class="f" points="105.29 753.03 91 753.73 76.67 753.46"/>
    </g>
    <g class="b">
      <polyline class="f" points="105.21 760.34 90.89 762.56 76.64 765.23"/>
    </g>
    <g class="b">
      <polyline class="f" points="105.15 768.37 90.88 772.83 76.74 777.72"/>
    </g>
    <g class="b">
      <polygon class="g" points="-43.4 723.65 -24.7 723.19 -5.91 723.47 12.85 721.91 32.02 721.62 31.24 738.57 31.5 755.08 31.7 771.59 31.83 788.1 31.84 804.78 13.06 811.05 -5.91 816.21 -24.9 821.31 -43.28 827.42 -43.76 810.38 -43.75 793.02 -43.72 775.66 -43.7 758.3 -43.38 740.93 -43.4 723.65"/>
      <polygon class="f" points="-43.4 723.65 -24.7 723.19 -5.91 723.47 12.85 721.91 32.02 721.62 31.24 738.57 31.5 755.08 31.7 771.59 31.83 788.1 31.84 804.78 13.06 811.05 -5.91 816.21 -24.9 821.31 -43.28 827.42 -43.76 810.38 -43.75 793.02 -43.72 775.66 -43.7 758.3 -43.38 740.93 -43.4 723.65"/>
    </g>
    <g class="b">
      <path class="c" d="M7.17,741.09c.12,3,.14,5.95.2,8.91l-.43,8.88-.3,17.78v0l1,17.78.08,8.91c-.18,3-.31,5.94-.54,8.91-.28-3-.47-5.93-.71-8.89l-.09-8.89-1-17.75v0l.3-17.8L6.11,750C6.46,747,6.77,744,7.17,741.09Z"/>
    </g>
    <g class="b">
      <path class="c" d="M13.37,737.82c.58-.86,1.21-1.67,1.83-2.48l2.26-2,4.5-4,4.5-4,2.26-2c.87-.53,1.75-1.06,2.66-1.54-.58.86-1.21,1.66-1.83,2.47l-2.25,2-4.5,4-4.51,4-2.24,2C15.17,736.82,14.3,737.35,13.37,737.82Z"/>
    </g>
    <g class="b">
      <line class="f" x1="31.23" y1="687" x2="31.11" y2="706.04"/>
    </g>
    <g class="b">
      <polyline class="f" points="39.66 723.44 55.09 722.79 54.72 745.6"/>
    </g>
    <g class="b">
      <line class="f" x1="231.81" y1="594.24" x2="220.03" y2="599.56"/>
    </g>
    <g class="b">
      <line class="f" x1="240.6" y1="605.41" x2="252.68" y2="608.2"/>
    </g>
    <g class="b">
      <line class="f" x1="240.15" y1="609.17" x2="244.58" y2="610.48"/>
    </g>
    <g class="b">
      <line class="f" x1="248.51" y1="611.86" x2="252.39" y2="613.35"/>
    </g>
    <g class="b">
      <line class="f" x1="336.09" y1="678.49" x2="337.06" y2="683.99"/>
    </g>
    <g class="b">
      <line class="f" x1="337.01" y1="691.01" x2="336.53" y2="695.58"/>
    </g>
    <g class="b">
      <line class="f" x1="335.93" y1="666.97" x2="336.68" y2="672.92"/>
    </g>
    <g class="b">
      <line class="f" x1="324.22" y1="664.47" x2="324.36" y2="669.17"/>
    </g>
    <g class="b">
      <line class="f" x1="324.29" y1="676.99" x2="325.01" y2="682.52"/>
    </g>
    <g class="b">
      <line class="f" x1="325.03" y1="690.51" x2="324.78" y2="695.58"/>
    </g>
    <g class="b">
      <path class="c" d="M299.36,670c.22,1.73.36,3.47.5,5.21l-.14,5.19-.27,10.38.1,10.39.06,5.19c-.19,1.74-.34,3.47-.57,5.21-.28-1.73-.46-3.47-.68-5.2l-.06-5.2-.11-10.4.28-10.39.13-5.2C298.83,673.43,299.06,671.7,299.36,670Z"/>
    </g>
    <g class="b">
      <path class="c" d="M665,609.63a12,12,0,0,1-.18,2.12,4.65,4.65,0,0,1-.93,2.08,5.94,5.94,0,1,1,0-8.4,4.76,4.76,0,0,1,.92,2.07A11.17,11.17,0,0,1,665,609.63Zm0,0a3.45,3.45,0,0,0-.62-2,6,6,0,0,0-1.38-1.37,4.69,4.69,0,1,0-3.31,8,4.66,4.66,0,0,0,3.31-1.37,6.59,6.59,0,0,0,1.37-1.37A3.38,3.38,0,0,0,665,609.63Z"/>
    </g>
    <g class="b">
      <path class="c" d="M665,627.66a12,12,0,0,1-.18,2.12,4.65,4.65,0,0,1-.93,2.08,5.94,5.94,0,1,1,0-8.4,4.76,4.76,0,0,1,.92,2.07A11.17,11.17,0,0,1,665,627.66Zm0,0a3.45,3.45,0,0,0-.62-1.95,6,6,0,0,0-1.38-1.37,4.69,4.69,0,1,0-3.31,8A4.66,4.66,0,0,0,663,631a6.59,6.59,0,0,0,1.37-1.37A3.38,3.38,0,0,0,665,627.66Z"/>
    </g>
    <g class="b">
      <path class="c" d="M665,645.69a12,12,0,0,1-.18,2.12,4.65,4.65,0,0,1-.93,2.08,5.94,5.94,0,1,1,0-8.4,4.76,4.76,0,0,1,.92,2.07A11.17,11.17,0,0,1,665,645.69Zm0,0a3.45,3.45,0,0,0-.62-2,6,6,0,0,0-1.38-1.37,4.69,4.69,0,1,0-3.31,8A4.66,4.66,0,0,0,663,649a6.59,6.59,0,0,0,1.37-1.37A3.38,3.38,0,0,0,665,645.69Z"/>
    </g>
    <g class="b">
      <path class="c" d="M665,663.72a12,12,0,0,1-.18,2.12,4.65,4.65,0,0,1-.93,2.08,5.94,5.94,0,1,1,0-8.4,4.76,4.76,0,0,1,.92,2.07A11.17,11.17,0,0,1,665,663.72Zm0,0a3.45,3.45,0,0,0-.62-2A6,6,0,0,0,663,660.4a4.69,4.69,0,1,0-3.31,8A4.66,4.66,0,0,0,663,667a6.59,6.59,0,0,0,1.37-1.37A3.38,3.38,0,0,0,665,663.72Z"/>
    </g>
    <path class="h" d="M757.53,351.91s28.06,3,28.06,33.07"/>
    <g class="b">
      <path class="c" d="M47.15,380.92a24.71,24.71,0,0,1,5.13-1,33.88,33.88,0,0,1,5.22.39,24.55,24.55,0,0,1,9.84,3.63,20.7,20.7,0,0,1,4,3.49,21.23,21.23,0,0,1,2.92,4.41,23.67,23.67,0,0,1,1,2.43,22.08,22.08,0,0,1,.78,2.51c.16.87.18,1.76.27,2.62s0,1.74,0,2.6l-.67-2.49c-.28-.81-.49-1.63-.83-2.41a24.72,24.72,0,0,0-.75-2.4,20.37,20.37,0,0,0-1-2.3,19.55,19.55,0,0,0-2.75-4.15A19.32,19.32,0,0,0,66.65,385a23.14,23.14,0,0,0-9.34-3.44,31.29,31.29,0,0,0-5-.37A43.55,43.55,0,0,0,47.15,380.92Z"/>
    </g>
    <g class="b">
      <path class="c" d="M79.8,397.67a14.62,14.62,0,0,1,3.66-.89c.63,0,1.26.07,1.88.1s1.25.17,1.87.25a19.47,19.47,0,0,1,7,2.68A18.36,18.36,0,0,1,99.73,405l.57.76c.18.25.32.54.48.81l.92,1.64a16.53,16.53,0,0,1,.47,1.84c.15.61.28,1.22.39,1.82-.72-1-1.27-2.12-2-3.1l-.88-1.56a8.57,8.57,0,0,0-.45-.77l-.53-.71a17.37,17.37,0,0,0-5.13-4.83,18.19,18.19,0,0,0-6.6-2.51c-.58-.08-1.17-.17-1.76-.23S84,398,83.44,398A28.76,28.76,0,0,0,79.8,397.67Z"/>
    </g>
    <g class="b">
      <path class="c" d="M102.13,421.29a8.36,8.36,0,0,1,3.47-1.84,8.88,8.88,0,0,1,4,.47,11,11,0,0,1,5.79,5.26,10.75,10.75,0,0,1,1,7.75,9.25,9.25,0,0,1-1.86,3.55,10.13,10.13,0,0,1-3.36,2,11.64,11.64,0,0,0,2.4-2.79,8.06,8.06,0,0,0,1.61-3.08,9.56,9.56,0,0,0-.89-6.84,9.69,9.69,0,0,0-5.11-4.66,7.24,7.24,0,0,0-3.42-.39A10.29,10.29,0,0,0,102.13,421.29Z"/>
    </g>
    <g class="b">
      <path class="c" d="M114.94,434.8a6.93,6.93,0,0,1,4.74,4.36,8,8,0,0,1,.53,3.35,9.33,9.33,0,0,1-.68,3.36,8.27,8.27,0,0,1-5,4.53,12.55,12.55,0,0,1-3.29.7,30.14,30.14,0,0,1-3.29,0l-25.69-.28-25.7-.28c-8.56,0-17.12-.48-25.68-.91,8.57-.24,17.14-.56,25.71-.34l25.7.28,25.71.28c1.08,0,2.12.1,3.13,0a11.4,11.4,0,0,0,3-.64,7,7,0,0,0,4.26-3.83,8,8,0,0,0,.58-2.91,13.62,13.62,0,0,0-.34-3A6.61,6.61,0,0,0,114.94,434.8Z"/>
    </g>
    <g class="b">
      <path class="c" d="M76.36,413.13a6.32,6.32,0,0,1,2.26.7,11.75,11.75,0,0,1,1.61,1.7,12.32,12.32,0,0,1,2.06,4.13,17.52,17.52,0,0,1,.65,4.53c0,.76,0,1.51-.09,2.27a21.3,21.3,0,0,1-.91,2.13c-.15-.77-.24-1.51-.33-2.24s.07-1.43.08-2.14a16.31,16.31,0,0,0-.6-4.19,11.19,11.19,0,0,0-1.85-3.72,9.23,9.23,0,0,0-1.43-1.5A12.38,12.38,0,0,0,76.36,413.13Z"/>
    </g>
    <path class="h" d="M15.85,406.91s-28,3-28,33.07"/>
    <g class="b">
      <path class="c" d="M672.54,561.17c3.42-1.1,6.85-2.09,10.28-3.14l10.43-2.52,20.85-5.06,21-4.43,10.49-2.22c3.54-.53,7.08-1.11,10.63-1.6-3.45,1-6.91,1.88-10.36,2.83l-10.5,2.21-21,4.43-20.84,5.06-10.42,2.53C679.59,559.9,676.08,560.58,672.54,561.17Z"/>
    </g>
    <g class="b">
      <path class="c" d="M687,548.05a7.53,7.53,0,0,1,.69,1.08c0,.37.05.74.07,1.11l.13,2.24.14,2.23.06,1.12a10.88,10.88,0,0,1-.55,1.15,11,11,0,0,1-.7-1.08l-.06-1.11-.14-2.24-.13-2.23c0-.37,0-.75-.08-1.12A9.43,9.43,0,0,1,687,548.05Z"/>
    </g>
    <g class="b">
      <path class="c" d="M699,554.72a8.23,8.23,0,0,1,.63,1.09c0,.37,0,.73,0,1.09v5.45a9.29,9.29,0,0,1-.63,1.09,10.06,10.06,0,0,1-.63-1.08v-5.45c0-.37,0-.73,0-1.09A7.72,7.72,0,0,1,699,554.72Z"/>
    </g>
    <g class="b">
      <path class="c" d="M681.42,558.82a7.56,7.56,0,0,1,.6,1c0,.34,0,.69,0,1l-.06,2.06-.06,2.06,0,1a10.84,10.84,0,0,1-.66,1,9.25,9.25,0,0,1-.59-1l0-1,.06-2.06.06-2.06c0-.34,0-.68,0-1A8.38,8.38,0,0,1,681.42,558.82Z"/>
    </g>
    <g class="b">
      <path class="c" d="M710.49,543.27a9.61,9.61,0,0,1,.63,1.1c0,.37,0,.74,0,1.11l0,2.2,0,2.2V551a9.4,9.4,0,0,1-.63,1.1,10.29,10.29,0,0,1-.62-1.11v-1.1l0-2.2,0-2.21c0-.36,0-.73,0-1.1A8.83,8.83,0,0,1,710.49,543.27Z"/>
    </g>
    <g class="b">
      <path class="c" d="M722.51,549.3a11,11,0,0,1,.69,1.16l0,1.2.1,2.38.11,2.38,0,1.19a11.1,11.1,0,0,1-.58,1.21,10.51,10.51,0,0,1-.67-1.16l-.06-1.19-.1-2.38-.1-2.38-.06-1.19A9.63,9.63,0,0,1,722.51,549.3Z"/>
    </g>
    <g class="b">
      <path class="c" d="M732.07,547.15c-.24-1.71-.4-3.42-.59-5.13,0-.43-.1-.86-.13-1.29v-1.29l0-2.57.41-10.28.82.62-19.41,6.25.44-.6c0,.74,0,1.47,0,2.2s-.13,1.47-.19,2.2c-.13,1.47-.26,2.94-.43,4.4-.18-1.46-.32-2.93-.46-4.39-.07-.74-.16-1.47-.2-2.2s0-1.47,0-2.2a.62.62,0,0,1,.43-.6l19.4-6.25a.63.63,0,0,1,.79.41.76.76,0,0,1,0,.21l-.41,10.25,0,2.56,0,1.29c0,.42-.06.85-.1,1.28C732.38,543.73,732.27,545.44,732.07,547.15Z"/>
    </g>
    <g class="b">
      <path class="c" d="M743.84,544.65a10,10,0,0,1,.53,1.36l-.11,1.32-.2,2.64-.21,2.64-.1,1.32a11.79,11.79,0,0,1-.73,1.27c-.21-.46-.36-.91-.52-1.37l.1-1.32.21-2.64.2-2.63.1-1.32A10.9,10.9,0,0,1,743.84,544.65Z"/>
    </g>
    <g class="b">
      <path class="c" d="M575.81,597.36c.26,2.25.42,4.5.63,6.76v40.56c-.22,2.26-.38,4.51-.63,6.77-.25-2.26-.42-4.51-.63-6.77V604.12C575.39,601.86,575.55,599.61,575.81,597.36Z"/>
    </g>
    <path class="i" d="M477.65,588.34s-4,3.51-2.51,10"/>
    <path class="i" d="M482.15,586.34s6-2,8.52,3.5"/>
    <circle class="d" cx="477.4" cy="594.6" r="1.06"/>
    <circle class="d" cx="483.91" cy="592.6" r="1.06"/>
    <path class="i" d="M479.65,596.86s3.51.5,5.51-2"/>
    <path class="i" d="M476.14,600.36a4.52,4.52,0,0,0,4.51,2v2.51"/>
    <path class="i" d="M478.15,604.87a14.33,14.33,0,0,0-4,12"/>
    <line class="i" x1="481.65" y1="606.37" x2="485.16" y2="607.87"/>
    <line class="i" x1="490.17" y1="603.37" x2="486.66" y2="607.37"/>
    <path class="i" d="M492.67,601.36s6.51,2,7.51,7.52"/>
    <path class="i" d="M491.67,594.35a5.35,5.35,0,0,0,5.51.5"/>
    <path class="i" d="M491.67,591.35s2.5,1,4,0"/>
    <path class="i" d="M491.67,597.36s2.5,2.5,7.51,2.5"/>
  </g>
</svg>
