<svg xmlns="http://www.w3.org/2000/svg" viewBox="0 0 1920 1080">
  <defs>
    <style>
      .a {
        opacity: 0.2;
      }

      .b {
        fill: #e0e4e5;
      }

      .c {
        fill: #231815;
      }

      .d {
        fill: #fff;
      }

      .e {
        fill: none;
        stroke: #231815;
        stroke-linecap: round;
        stroke-linejoin: round;
        stroke-width: 2.5px;
      }
    </style>
  </defs>
  <title>result</title>
  <g class="a">
    <polygon class="b" points="-1.5 614.5 787.5 376.5 1223.5 376.5 1919.5 597.5 1919.5 1087 -1.5 1087 -1.5 614.5"/>
    <path class="c" d="M1223,376.76l83.92,25.41c14,4.15,27.89,8.72,41.83,13.1l41.79,13.23,167.17,52.94,334.32,105.85-.38,0c8.79,0,17.57.18,26.36.27l26.36.31,52.72.68-52.72.68-26.36.31c-8.79.09-17.57.25-26.36.27a1.2,1.2,0,0,1-.38,0L1557,483.82l-167.16-52.93L1348,417.65c-13.92-4.44-27.9-8.69-41.75-13.36Z"/>
    <path class="c" d="M184.05,555.07l18.81-5.92,18.83-5.87,37.66-11.7L335,509.29l151.3-44.57,151.31-44.58,75.65-22.29c25.33-7,50.64-14.14,76-21.09-25.07,7.92-50.2,15.66-75.3,23.49l-75.65,22.29L487,467.11l-151.3,44.58L260.06,534l-38,10.58-19,5.29Z"/>
    <path class="c" d="M1724.56,533l0-58.61V467c0-2.44-.13-4.88-.19-7.32-.14-4.89-.34-9.77-.42-14.66l-.49-29.3-.25-14.66c-.09-2.44,0-4.88.09-7.32l.18-7.33.73-29.3.36-14.66.19-7.32.08-3.67v-3.66l.1-29.3.1-29.29c0-9.77-.15-19.54-.21-29.31l-.52-58.61-.23-29.31-.11-14.66,0-7.33.09-7.33.73-58.62a1.23,1.23,0,0,1,.94-1.19L1810.83,41l21.44-4.9c7.14-1.63,14.27-3.34,21.45-4.82l43-9.19h0a.54.54,0,0,1,.36.05l31.78,16.61-32.28-15.61.38.05L1854.25,33.6c-7.1,1.78-14.26,3.33-21.4,5l-21.43,4.89-85.15,21.83.94-1.2-.73,58.6-.09,7.33,0,7.32.11,14.65.23,29.31.52,58.61c.06,9.77.23,19.54.21,29.31l-.1,29.32-.1,29.32v3.66l-.08,3.66-.19,7.33-.36,14.64-.73,29.3-.18,7.32c0,2.44-.18,4.88-.09,7.32l.25,14.65.52,29.3c.09,4.89.06,9.77.09,14.65,0,2.45,0,4.89,0,7.33l-.21,7.33Z"/>
    <path class="c" d="M1725,152.59q-12.29.1-24.57.15l-24.58.07,1.14-1.12c.29,8,.12,16,.18,24l0,24c-.12,16,.41,32,.74,47.94s1,32,.43,47.95l-.83,48-1.17-1.27,48.71,2.89h-.17l79-6,19.78-1.26c6.59-.37,13.2-.58,19.8-.87l39.6-1.58-39.49,3.38c-6.58.53-13.15,1.15-19.74,1.61l-19.77,1.22-79,6H1725l-48.71-2.9a1.25,1.25,0,0,1-1.18-1.27l.83-47.92c.56-16-.15-31.95-.43-47.93s-.85-31.94-.74-47.94l0-24c0-8-.18-16,.08-24v-.07a1.1,1.1,0,0,1,1.13-1.06h0l24.56,1C1708.65,151.86,1716.84,152.23,1725,152.59Z"/>
    <path class="c" d="M1753,394.76l.35,4.69.29,4.69.57,9.38-.06,18.75-.09,37.5.41,37.5.2,18.75c-.35,6.25-.6,12.5-1,18.76-.58-6.24-1-12.49-1.46-18.74l-.2-18.75-.41-37.51.09-37.51,0-18.75.62-9.38.31-4.69Z"/>
    <path class="c" d="M1767.54,394.76c.55,5.54,1,11.07,1.35,16.61L1769,428l.17,33.22-.6,33.23-.31,16.61c-.48,5.53-1,11.06-1.55,16.59-.4-5.55-.67-11.09-1-16.63l.31-16.6.6-33.21-.17-33.22-.1-16.6C1766.71,405.84,1767.05,400.3,1767.54,394.76Z"/>
    <path class="c" d="M1725.38,381.58l4.92-.55,4.92-.48,9.83-1,19.72-.73,39.44-1.48,39.43-1.65,19.71-.83c6.59.15,13.17.19,19.77.43-6.55.78-13.11,1.37-19.67,2.07l-19.71.83-39.43,1.65-39.44,1.48-19.72.74-9.88-.22-4.94-.12Z"/>
    <path class="c" d="M1734.78,394.05l4.69-.44,4.68-.37,9.36-.75,18.76-.29,37.5-.61,37.49-1.2,18.75-.6c6.26.22,12.52.34,18.78.65-6.23.7-12.47,1.22-18.71,1.85l-18.75.6-37.5,1.2-37.51.61-18.76.31-9.39-.44-4.69-.23Z"/>
    <path class="c" d="M1891.67,497.63q-3.72,1.41-7.47,2.74l-3.74,1.3a25.52,25.52,0,0,1-3.8,1.14l-15.32,4-30.65,7.93.94-1.21v29.74c0,1,0,2,0,3s-.12,2-.18,3c-.32,4-.67,7.93-1.09,11.9-.42-4-.77-7.93-1.09-11.9-.07-1-.2-2-.19-3s0-2,0-3V513.49a1.25,1.25,0,0,1,.94-1.21l30.64-7.93,15.32-4a27,27,0,0,1,3.87-.84l3.91-.68C1886.43,498.43,1889,498,1891.67,497.63Z"/>
    <path class="c" d="M1837,519.78c2.38-.08,4.72,0,7.07.06l6.83,1.32,13.66,2.6,13.66,2.61,6.83,1.31c2.21.8,4.42,1.6,6.6,2.53-2.37.06-4.72,0-7.06-.08l-6.84-1.3-13.66-2.61-13.66-2.61-6.83-1.29C1841.41,521.52,1839.2,520.72,1837,519.78Z"/>
    <path class="c" d="M1850.27,112.11c-9.22,2.66-18.48,5.15-27.72,7.72-4.6,1.37-9.3,2.27-14,3.43l-14,3.3L1738.49,139l.84-.66-7.7,15.15-1.37-1.79L1792.61,139l31.12-6.59c10.46-1.8,20.9-3.69,31.37-5.41-10.27,2.69-20.58,5.21-30.87,7.82l-31.11,6.63-62.36,12.71a1.25,1.25,0,0,1-1.47-1,1.27,1.27,0,0,1,.11-.82l7.7-15.15a1.29,1.29,0,0,1,.85-.65l56.1-12.46,14-3.31c4.67-1,9.29-2.35,14-3.19C1831.45,115.79,1840.84,113.86,1850.27,112.11Z"/>
    <path class="c" d="M1741.37,150.77c.24,3.58.48,7.15.67,10.73l.61,10.73c.31,3.58.15,7.15.22,10.73l.08,10.73-1.42-1.23,56.75-7.61,56.33-10.3-1,1.24,0-9.76c0-1.63-.09-3.26,0-4.88l.22-4.88c.29-6.51.53-13,.9-19.53.43,6.5.75,13,1.1,19.51l.27,4.88c.09,1.63,0,3.26,0,4.89l0,9.76a1.24,1.24,0,0,1-1,1.23l-56.38,10.31-56.81,7.62a1.25,1.25,0,0,1-1.41-1.07.86.86,0,0,1,0-.16l-.08-10.73c0-3.58-.2-7.15.05-10.73l.44-10.74C1741,157.93,1741.18,154.35,1741.37,150.77Z"/>
    <path class="c" d="M1741,194.19a28,28,0,0,1,3.21,1c.79.69,1.6,1.34,2.4,2l4.8,4,4.81,4,2.4,2a33.36,33.36,0,0,1,1.6,3c-1.12-.28-2.16-.67-3.2-1l-2.4-2-4.81-4-4.81-4c-.8-.66-1.59-1.34-2.41-2A29,29,0,0,1,1741,194.19Z"/>
    <path class="c" d="M1854.21,177a38.2,38.2,0,0,1,3.2,2.28c.71,1,1.45,2,2.17,3l4.36,6.05,4.36,6,2.18,3c.42,1.23.84,2.45,1.16,3.75-1.13-.71-2.16-1.5-3.19-2.29l-2.18-3-4.36-6-4.36-6c-.73-1-1.44-2-2.19-3A36.55,36.55,0,0,1,1854.21,177Z"/>
    <path class="c" d="M1760.83,147.89c.5,1.75.84,3.51,1.19,5.26l-.08,5.24-.14,10.47-.13,10.48-.07,5.24c-.41,1.75-.8,3.49-1.32,5.23-.48-1.76-.83-3.51-1.18-5.26l.07-5.24.13-10.48.14-10.48.06-5.24C1759.89,151.37,1760.28,149.63,1760.83,147.89Z"/>
    <path class="c" d="M1799.08,140.17c.48,1.76.81,3.52,1.15,5.27l-.13,5.24-.22,10.48-.23,10.48-.11,5.24c-.42,1.74-.83,3.48-1.37,5.21-.46-1.76-.79-3.51-1.13-5.26l.11-5.24.23-10.48.22-10.48.11-5.24C1798.12,143.65,1798.52,141.91,1799.08,140.17Z"/>
    <path class="c" d="M1779.43,144.1c.47,1.43.79,2.85,1.12,4.27-.07,1.41-.1,2.81-.15,4.22l-.29,8.45-.28,8.44-.14,4.22c-.43,1.4-.84,2.79-1.39,4.18-.46-1.42-.78-2.84-1.11-4.26l.14-4.22.28-8.45.29-8.44c0-1.41.1-2.82.13-4.23C1778.45,146.89,1778.86,145.49,1779.43,144.1Z"/>
    <path class="c" d="M1836.21,134.68c.55,1.39.94,2.79,1.34,4.19,0,1.41,0,2.82.08,4.22l.16,8.45L1838,160l.09,4.23c-.35,1.41-.69,2.83-1.17,4.24-.53-1.39-.92-2.79-1.33-4.19l-.09-4.23-.17-8.44-.16-8.44c0-1.41-.05-2.82-.1-4.23A41.91,41.91,0,0,1,1836.21,134.68Z"/>
    <path class="c" d="M1814,136.39c.52,1.41.88,2.82,1.26,4.22,0,1.41,0,2.82,0,4.22V166c-.38,1.4-.75,2.81-1.26,4.22-.5-1.41-.86-2.82-1.24-4.23V144.83c0-1.4,0-2.81,0-4.22A42.28,42.28,0,0,1,1814,136.39Z"/>
    <path class="c" d="M1743.8,177.67c4.58-1.15,9.18-2.15,13.78-3.15l14-1.88,27.89-3.8,27.75-4.79,13.87-2.4c4.69-.42,9.37-.86,14.08-1.16-4.54,1.29-9.1,2.45-13.67,3.63l-13.88,2.4-27.76,4.79-27.92,3.8-14,1.91C1753.22,177.29,1748.52,177.55,1743.8,177.67Z"/>
    <path class="c" d="M1863.37,127.6c1.1.75,2.16,1.54,3.2,2.34l1.54,1.21a3.22,3.22,0,0,1,.67.71c.2.25.42.49.63.73l5.09,5.82a1.23,1.23,0,0,1,.3.85l-.37,16.33-.18,8.16c0,.68,0,1.36,0,2l-.43,2c-.29,1.36-.62,2.71-1,4.06-.29-1.37-.56-2.73-.79-4.1l-.33-2.05c0-.68.06-1.36.06-2l.18-8.16.38-16.33.3.86-5.09-5.82c-.21-.24-.41-.49-.64-.72a3.4,3.4,0,0,1-.61-.75l-1-1.7C1864.62,129.94,1864,128.78,1863.37,127.6Z"/>
    <path class="c" d="M1850.36,229.07c-9.35,2.27-18.73,4.35-28.09,6.53-2.34.55-4.69,1.07-7.06,1.47s-4.72.89-7.08,1.33L1794,241.1l-56.9,9.24.94-.72-6.4,14.17L1730.3,262l62.42-9.07,31.11-5.2c10.44-1.33,20.86-2.76,31.31-4-10.29,2.23-20.61,4.29-30.91,6.44l-31.12,5.24-62.45,9.07a1.25,1.25,0,0,1-1.32-1.75l6.41-14.17a1.26,1.26,0,0,1,.93-.72l56.86-9.23,14.15-2.7c2.35-.46,4.72-.88,7.07-1.36s4.72-.88,7.09-1.23C1831.35,231.92,1840.84,230.41,1850.36,229.07Z"/>
    <path class="c" d="M1740.52,262.75c.29,3.4.59,6.79.83,10.19l.77,10.2c.12,1.69.28,3.39.36,5.09l.11,5.11.27,10.2-1.4-1.2,56.52-6.89,56.49-7.11-1.09,1.22.14-10.78c0-1.79.06-3.59,0-5.39s.15-3.59.24-5.38c.46-7.19.85-14.37,1.38-21.55.35,7.19.55,14.38.82,21.57,0,1.8.17,3.6.1,5.4s-.07,3.59-.09,5.39l-.14,10.78a1.26,1.26,0,0,1-1.1,1.22l-56.5,7.11-56.52,6.89a1.26,1.26,0,0,1-1.39-1.09.49.49,0,0,1,0-.12l-.27-10.21-.17-5.1c0-1.7.06-3.4.09-5.11l.22-10.22C1740.29,269.57,1740.41,266.16,1740.52,262.75Z"/>
    <path class="c" d="M1740.78,304.13a28.15,28.15,0,0,1,3.22,1c.8.68,1.62,1.33,2.42,2l4.85,4,4.86,4,2.42,2a33.24,33.24,0,0,1,1.64,2.94,31.82,31.82,0,0,1-3.22-1l-2.43-2-4.85-4-4.85-4c-.81-.66-1.61-1.33-2.43-2A27.08,27.08,0,0,1,1740.78,304.13Z"/>
    <path class="c" d="M1853.16,290.55a26.27,26.27,0,0,1,2.86,1.63c.6.82,1.24,1.61,1.86,2.42l3.73,4.81,3.73,4.81,1.86,2.41c.32,1,.65,2.06.88,3.17a31.75,31.75,0,0,1-2.86-1.64l-1.86-2.41-3.73-4.81-3.73-4.81c-.63-.8-1.23-1.61-1.87-2.4A26,26,0,0,1,1853.16,290.55Z"/>
    <path class="c" d="M1759.38,259.33c.53,1.75.9,3.49,1.28,5.24v5.24l0,10.48,0,10.48,0,5.24c-.38,1.74-.74,3.49-1.24,5.24-.51-1.75-.88-3.49-1.26-5.24l0-5.24,0-10.48,0-10.48,0-5.24C1758.5,262.83,1758.87,261.08,1759.38,259.33Z"/>
    <path class="c" d="M1797.61,253.33c.52,1.75.9,3.49,1.28,5.24v5.24l0,10.48,0,10.47,0,5.24c-.38,1.75-.74,3.5-1.24,5.25-.5-1.75-.88-3.49-1.26-5.24l0-5.24,0-10.48,0-10.48,0-5.24C1796.73,256.83,1797.09,255.08,1797.61,253.33Z"/>
    <path class="c" d="M1778.38,256.4c.52,1.41.89,2.82,1.27,4.22,0,1.41,0,2.82,0,4.23v8.44l0,8.44V286c-.38,1.4-.75,2.81-1.25,4.22-.5-1.41-.87-2.81-1.25-4.22v-4.22l0-8.45v-8.44c0-1.41,0-2.81,0-4.22C1777.5,259.22,1777.86,257.81,1778.38,256.4Z"/>
    <path class="c" d="M1837.06,247.83c.49,1.42.82,2.84,1.16,4.26-.06,1.4-.08,2.81-.12,4.22l-.22,8.44-.22,8.45-.1,4.22c-.42,1.4-.83,2.79-1.36,4.19-.47-1.42-.8-2.84-1.14-4.26l.11-4.22.21-8.44.22-8.45c0-1.4.08-2.81.09-4.22C1836.1,250.62,1836.51,249.22,1837.06,247.83Z"/>
    <path class="c" d="M1814.59,249.55a42.82,42.82,0,0,1,1.24,4.22c0,1.41,0,2.82,0,4.23l0,8.44,0,8.45,0,4.22c-.39,1.4-.77,2.81-1.27,4.21-.5-1.41-.86-2.82-1.23-4.23l0-4.22,0-8.44,0-8.45c0-1.41,0-2.81,0-4.22C1813.69,252.35,1814.06,251,1814.59,249.55Z"/>
    <path class="c" d="M1743.92,288.17c4.54-1.3,9.11-2.45,13.68-3.6l13.89-2.35,27.77-4.71,27.91-3.84,14-1.92c4.7-.27,9.41-.54,14.12-.69-4.58,1.14-9.18,2.15-13.77,3.16l-14,1.92L1799.64,280l-27.76,4.71L1758,287.06C1753.32,287.48,1748.63,287.9,1743.92,288.17Z"/>
    <path class="c" d="M1863.38,237.32c1.1.75,2.16,1.54,3.2,2.34l1.56,1.21a2.92,2.92,0,0,1,.66.7c.2.26.43.49.64.74l5.12,5.81a1.27,1.27,0,0,1,.31.84l-.16,16.33-.08,8.16c0,.69,0,1.37,0,2.05l-.41,2c-.27,1.36-.58,2.72-.92,4.08-.31-1.37-.6-2.73-.84-4.09l-.37-2c0-.68.05-1.36,0-2l.08-8.17.16-16.33.31.84-5.12-5.81c-.21-.24-.42-.49-.65-.72a3.4,3.4,0,0,1-.61-.75l-1-1.69C1864.63,239.66,1864,238.51,1863.38,237.32Z"/>
    <path class="c" d="M1807,394.76c.59,3.06,1,6.13,1.47,9.19l.2,9.22.41,18.43.42,18.43.21,9.21c-.31,3.08-.61,6.16-1,9.25-.57-3.06-1-6.13-1.46-9.19l-.21-9.22-.41-18.43-.42-18.43-.22-9.21C1806.22,400.93,1806.52,397.85,1807,394.76Z"/>
    <path class="c" d="M1834.08,393.91c.51,2.35.88,4.71,1.25,7.07v42.43c-.38,2.36-.75,4.72-1.25,7.07-.5-2.35-.87-4.71-1.25-7.07V401C1833.18,398.62,1833.55,396.26,1834.08,393.91Z"/>
    <path class="c" d="M1725.23,97.6c7.07-1.78,14.18-3.41,21.27-5.1,1.77-.41,3.54-.87,5.33-1.23l5.37-1,10.73-2,42.94-8.11L1896.55,63a1.15,1.15,0,0,1,.69.06l4.08,1.57c1.35.52,2.73,1,4.07,1.58l8,3.52,8,3.52,8,3.58-8.31-2.73-8.29-2.78-8.28-2.78c-1.39-.47-2.72-1-4.08-1.58l-4.07-1.57.7.06-85.69,17.2-42.95,8.11-10.73,2-5.36,1.05c-1.8.32-3.61.53-5.41.8C1739.68,95.6,1732.47,96.68,1725.23,97.6Z"/>
    <path class="c" d="M1896.2,97l.48,9.14.42,9.14.84,18.28.47,36.59-.5,73.16-.36,73.15.13,36.58c-.38,12.19-.66,24.39-1.12,36.58-.55-12.19-.92-24.38-1.38-36.58l-.13-36.58.36-73.16.5-73.15-.49-36.56.35-18.3.18-9.14Z"/>
    <path class="c" d="M1784.65,46.72c-.19-2.64-.43-5.28-.59-7.92l-.53-7.93L1783,23c-.07-1.32,0-2.64,0-4l-.07-4a1.25,1.25,0,0,1,.87-1.21l56.39-18.26,56.27-18.65a1.26,1.26,0,0,1,1.12.17l8.06,5.71,4.05,2.83c1.32,1,2.59,2,3.9,3,5.17,4.08,10.38,8.12,15.51,12.27-5.62-3.47-11.16-7-16.73-10.56-1.38-.89-2.79-1.75-4.16-2.67l-4-2.87-8.07-5.71,1.12.17L1840.93-2.08l-56.4,18.27.86-1.21.07,4c0,1.32.1,2.65.07,4l-.26,7.94-.28,7.93C1784.91,41.43,1784.76,44.08,1784.65,46.72Z"/>
    <path class="c" d="M1724.38,63l-.13-33.82-.06-33.81,1.47,1.05c-5,1.89-9.91,3.78-14.89,5.59l-15,5.39-29.91,10.85.83-1.18.19,61.9,0,61.87v7.73c0,1.29,0,2.58,0,3.86l.21,3.87c.12,2.57.32,5.14.38,7.72l0,7.74.19,31,.19,31-.19,30.95c-.13,20.63-.27,41.26-.28,61.89l-.05,30.94,0,15.47.19,15.48.4,30.95c.07,5.15.17,10.31.18,15.47l0,7.74-.25,7.73-2.08,61.89.08-61.89-.8-61.88-.19-15.47,0-15.48.05-30.95c0-20.64.15-41.27.28-61.9l.19-30.94-.19-30.93-.19-30.93,0-7.74c-.06-2.57-.25-5.15-.38-7.72l-.21-3.87c0-1.29,0-2.58,0-3.87V140.9l0-61.92-.19-61.89a1.24,1.24,0,0,1,.82-1.18L1695,5.06l15-5.44c5-1.81,10-3.54,15-5.26l0,0a1.09,1.09,0,0,1,1.38.68.89.89,0,0,1,.06.39l-1,33.8Z"/>
    <path class="c" d="M1726.33-3.87c2.63.29,5.22.72,7.81,1.15l7.42,2.38,14.86,4.72,14.85,4.72,7.43,2.36c2.36,1.15,4.73,2.29,7,3.55-2.63-.3-5.21-.74-7.8-1.17l-7.43-2.36-14.86-4.72L1740.8,2l-7.43-2.35C1731-1.45,1728.64-2.59,1726.33-3.87Z"/>
    <path class="c" d="M1682.93,42.87c.35,1.57.66,3.15.92,4.72.12.79.29,1.57.37,2.36s0,1.57,0,2.36V80.64l-1.52-1.22,8.14-1.85a17.06,17.06,0,0,1,4.17-.49c1.42-.07,2.83-.12,4.26-.14q-1.93.9-3.9,1.71a17,17,0,0,1-4,1.36l-8.15,1.85a1.25,1.25,0,0,1-1.5-.94,1.33,1.33,0,0,1,0-.28V52.31c0-.79,0-1.57,0-2.36s.25-1.57.37-2.36C1682.28,46,1682.58,44.44,1682.93,42.87Z"/>
    <path class="c" d="M1682.93,102.87c.34,1.36.63,2.72.88,4.08l.38,2a5.79,5.79,0,0,1,0,1v25.45l-1.52-1.22,8.14-1.85c.69-.14,1.36-.33,2-.48l2.12-.09c1.41-.05,2.84-.07,4.27-.06-1.29.62-2.58,1.22-3.88,1.78l-1.95.84c-.68.16-1.37.28-2,.45l-8.15,1.85a1.26,1.26,0,0,1-1.5-.94,1.33,1.33,0,0,1,0-.28V110a5,5,0,0,1,0-1l.37-2C1682.31,105.59,1682.6,104.23,1682.93,102.87Z"/>
    <path class="c" d="M1684.22,358.76c.34,1.75.65,3.5.91,5.25.12.88.29,1.75.37,2.63s0,1.75,0,2.62v31.5l-1.25-1.25h9.43a21.47,21.47,0,0,1,4.71.44c1.58.24,3.15.51,4.72.81-1.57.31-3.14.57-4.72.82a20.86,20.86,0,0,1-4.71.43h-9.43a1.24,1.24,0,0,1-1.25-1.25v-31.5c0-.87,0-1.75,0-2.62s.25-1.75.37-2.63C1683.57,362.26,1683.88,360.51,1684.22,358.76Z"/>
    <path class="c" d="M1665.73,32.5q-13.57,5.63-27.21,11.13c-4.53,1.85-9.08,3.66-13.59,5.59l-6.79,2.84c-2.27.93-4.56,1.79-6.84,2.67-9.15,3.53-18.18,7.38-27.55,10.28l-27.89,9.35.85-1.17-.37,36.19-1.47,36.17v-.11l1.68,36.13v.1l-1.14,36.14-2.06,36.09v-.15l2.36,36.14a.34.34,0,0,1,0,.1c-.06,6-.17,12-.19,18.06s-.39,12-.58,18.06l-1,18.05-1,18,0-18.07.11-18.06c-.05-6-.19-12-.16-18.06s.16-12,.24-18.05v.09l-2.36-36.14v-.15l2.05-36.06,1.14-36.11v.1l-1.68-36.13v-.11l1.47-36.13.37-36.16a1.25,1.25,0,0,1,.86-1.17l27.84-9.33c9.36-2.9,18.38-6.73,27.51-10.27,2.27-.91,4.53-1.84,6.82-2.7l6.9-2.54c4.58-1.71,9.22-3.31,13.84-4.94Q1651.84,37.3,1665.73,32.5Z"/>
    <path class="c" d="M1637.37,79.39q-7.27,2.44-14.59,4.71c-1.22.37-2.43.78-3.66,1.13s-2.49.57-3.72.9L1608,88l.11,0-28.89,10a1.25,1.25,0,0,1-1-.06l-11-5.49a1.27,1.27,0,0,1-.56-1.68,1.28,1.28,0,0,1,.7-.62l35.94-12.84,18-6.43c6.12-1.79,12.23-3.57,18.4-5.23-5.82,2.62-11.68,5.12-17.55,7.61l-18,6.41-35.94,12.84.14-2.3,11,5.49-1-.06,28.89-10,.11,0,7.42-1.84c1.24-.28,2.46-.66,3.71-.94s2.51-.47,3.76-.71Q1629.8,80.64,1637.37,79.39Z"/>
    <path class="c" d="M1579.06,96.63c.41,3.86.74,7.72,1,11.57.06,1,.18,1.93.16,2.9s0,1.92,0,2.89l0,5.78-.12,23.13-1.6-1.2,29.79-8.66,15.06-3.7a17.18,17.18,0,0,1,1.88-.46l1.92-.31L1631,128c2.56-.39,5.13-.77,7.71-1.11-2.44.89-4.89,1.74-7.34,2.59l-3.68,1.24-1.84.62c-.61.21-1.25.31-1.88.46l-15,3.7-29.74,8.64a1.25,1.25,0,0,1-1.55-.85,1.49,1.49,0,0,1,0-.36l.13-23.13,0-5.78c0-1,0-1.93,0-2.9s.12-1.92.2-2.89C1578.23,104.34,1578.6,100.49,1579.06,96.63Z"/>
    <path class="c" d="M1567.63,97.49c.53,1.86.89,3.71,1.27,5.57l0,5.57v27.86c-.38,1.86-.74,3.72-1.25,5.58-.5-1.86-.87-3.72-1.25-5.58V103.06C1566.75,101.2,1567.11,99.35,1567.63,97.49Z"/>
    <path class="c" d="M1638.32,173c-4.91,1.14-9.84,2.2-14.76,3.22-1.23.25-2.46.55-3.7.72s-2.49.32-3.73.5l-7.46,1.07L1579,183.92a1.27,1.27,0,0,1-1.08-.32l-7.64-7.17a1.25,1.25,0,0,1,.68-2.15l35.08-5-.11,0,17.29-4.09,8.78-1.48c2.92-.49,5.86-.95,8.8-1.39q-4.24,1.38-8.49,2.7l-8.52,2.61-17.29,4.09-.11,0-35.07,5,.68-2.15,7.63,7.17-1.08-.32,29.68-5.47,7.47-1.07c1.25-.17,2.49-.35,3.73-.56s2.51-.25,3.77-.35C1628.25,173.61,1633.28,173.24,1638.32,173Z"/>
    <path class="c" d="M1579.54,183c.46,3.81.81,7.63,1.14,11.44a52,52,0,0,1,.12,5.72V228.8l-1.31-1.25,28.44-1.3h-.09l14.53-1.8a24.7,24.7,0,0,1,3.65-.26l3.67-.13c2.45-.06,4.9-.12,7.36-.14-2.39.57-4.78,1.11-7.17,1.64l-3.6.76a23.1,23.1,0,0,1-3.61.63l-14.53,1.78h-.09l-28.44,1.31a1.25,1.25,0,0,1-1.31-1.19V200.19a49.69,49.69,0,0,1,.11-5.72C1578.74,190.66,1579.09,186.84,1579.54,183Z"/>
    <path class="c" d="M1567.63,183.88c.53,1.86.89,3.72,1.27,5.58l0,5.57v27.86c-.38,1.86-.74,3.71-1.25,5.57-.5-1.86-.87-3.71-1.25-5.57V189.46C1566.75,187.6,1567.11,185.74,1567.63,183.88Z"/>
    <path class="c" d="M1636.62,267.14c-4.74.89-9.51,1.69-14.27,2.47-1.2.18-2.39.42-3.59.53s-2.4.19-3.59.31l-7.2.69-28.89.86a1.25,1.25,0,0,1-1-.42l-7.06-7.85a1.25,1.25,0,0,1,.8-2.08l33.61-3.64,16.86-1.23c5.65,0,11.29-.08,17,0-5.58.91-11.17,1.69-16.75,2.48l-16.84,1.24-33.56,3.63.79-2.07,7.06,7.85-1-.41,28.81-.85L1615,268c1.19-.11,2.39-.23,3.58-.38s2.4-.11,3.6-.16C1627,267.28,1631.79,267.17,1636.62,267.14Z"/>
    <path class="c" d="M1578.15,272.18c.42,3.92.74,7.83,1,11.75a54.56,54.56,0,0,1,.06,5.86l0,5.87-.2,23.48-1.33-1.26,29.64-2,14.82-1a27,27,0,0,1,3.71-.06l3.73.06c2.48.07,5,.14,7.46.24-2.45.44-4.91.85-7.36,1.25L1626,317a27.13,27.13,0,0,1-3.69.45l-14.82,1-29.64,2a1.25,1.25,0,0,1-1.33-1.17v-.09l.2-23.48,0-5.87a57.34,57.34,0,0,1,.17-5.86C1577.28,280,1577.67,276.09,1578.15,272.18Z"/>
    <path class="c" d="M1567.63,273c.53,1.85.89,3.71,1.27,5.57l0,5.57V312c-.38,1.86-.74,3.72-1.25,5.57-.5-1.85-.87-3.71-1.25-5.57V278.61C1566.75,276.75,1567.11,274.89,1567.63,273Z"/>
    <path class="c" d="M1676.5,152.17a14.86,14.86,0,0,1-.3,2.39c-.44.52-.86,1.07-1.29,1.6l-2.57,3.22-2.57,3.21-1.29,1.61a18.21,18.21,0,0,1-2.26.82,17.76,17.76,0,0,1,.31-2.38l1.28-1.61,2.57-3.22,2.58-3.21c.42-.54.86-1.06,1.27-1.62A15.92,15.92,0,0,1,1676.5,152.17Z"/>
    <path class="c" d="M1552.2,385.33c.52,4,.9,8,1.26,12v72c-.38,4-.74,8-1.25,12-.5-4-.87-8-1.25-12v-72C1551.31,393.34,1551.69,389.33,1552.2,385.33Z"/>
    <path class="c" d="M1666.22,377.43c-4.53.27-9,.4-13.54.53l-13.48-.74c-9-.73-18-.35-27-.34l-27,.23-13.5.13c-4.51-.33-9-.65-13.52-1.11,4.49-.54,9-1,13.49-1.38l13.51-.14,27-.23c9,0,18-.39,27,.34l13.5.72C1657.27,376.05,1661.75,376.66,1666.22,377.43Z"/>
    <path class="c" d="M1897.16,21.87c-.51-1.81-.86-3.62-1.23-5.43l0-5.42.07-10.84.06-10.83,0-5.42c.39-1.81.77-3.61,1.28-5.41.49,1.81.85,3.62,1.22,5.42l0,5.42L1898.55.2,1898.48,11l0,5.42C1898.08,18.26,1897.7,20.06,1897.16,21.87Z"/>
    <path class="c" d="M1890.93,410.19l.39,4.91.32,4.9.64,9.8.08,19.61.17,39.22-.14,39.22-.06,19.61c-.45,6.54-.79,13.07-1.32,19.61-.49-6.54-.79-13.08-1.18-19.61l.06-19.61.14-39.22-.17-39.21-.1-19.61.55-9.81.28-4.9Z"/>
    <g>
      <path class="c" d="M1542.77,110.93l-7.64.49-7.64.42-7.65.41c-2.54.19-5.09,0-7.64.09a1.16,1.16,0,0,1-.75-.24h0l-28.06-21.46-28.85-20.38,1.85-.48L1442.72,98a.54.54,0,0,0,0,.11l-15.94,26.37c-1.29,2.22-2.41,4.54-3.81,6.69l-4.09,6.54c-2.72,4.36-5.44,8.73-8.22,13.06,2.23-4.64,4.52-9.25,6.81-13.87l3.43-6.92c1.11-2.33,2.5-4.49,3.72-6.76l16-26.41-.06.11,13.65-28.23a1.25,1.25,0,0,1,1.67-.59l.18.11,28.88,20.41L1513,110.1l-.76-.26c2.54,0,5.09-.14,7.64,0l7.65.34,7.65.34Z"/>
      <path class="c" d="M1420.71,134.36l.48,5.1.41,5.11.81,10.21.43,20.45-1.73-1.13,45.83-19.34c7.61-3.27,15.37-6.22,22.7-10.09l22.28-11-.7,1.06c0-1.91.31-3.81.51-5.71l.64-5.71c.42-3.81.85-7.61,1.34-11.41.07,3.83.1,7.66.11,11.49l0,5.74c0,1.92.08,3.83-.11,5.74v.05a1.26,1.26,0,0,1-.7,1l-22.34,11c-7.35,3.88-15.12,6.84-22.75,10.12l-45.87,19.35a1.24,1.24,0,0,1-1.64-.66,1.52,1.52,0,0,1-.1-.46l-.45-20.45.38-10.23.19-5.12Z"/>
      <path class="c" d="M1541.91,136.87c-2.47,0-4.94,0-7.41-.08l-7.4-.15-7.4-.15c-1.24,0-2.47-.12-3.69-.23s-2.46-.18-3.69-.28l1.34-1.29,1.28,38.44.33,38.49L1514,250l.14,9.6c0,1.6.06,3.2.09,4.8s-.1,3.2-.15,4.8c-.25,6.41-.45,12.81-.78,19.23-.51-6.4-.9-12.81-1.33-19.22-.1-1.6-.25-3.21-.29-4.81s0-3.21,0-4.81l-.14-9.62,1.28-38.42-.33-38.41-1.28-38.4a1.27,1.27,0,0,1,1.21-1.3h.13c1.23.08,2.46.19,3.69.25s2.46.14,3.68.3l7.35.92,7.35.92C1537,136.18,1539.46,136.54,1541.91,136.87Z"/>
      <path class="c" d="M1512.18,328.76q.63,4.33,1.18,8.69l1.06,8.7,1,17.47a.86.86,0,0,1,0,.16l-2.7,34.93v-.11l.54,34.93.38,17.47c-.25,5.82-.49,11.65-.86,17.49-.63-5.81-1.13-11.63-1.64-17.44l-.38-17.47-.54-34.94v-.12l2.7-34.93v.17l-1-17.47.08-8.76C1512,334.61,1512.09,331.68,1512.18,328.76Z"/>
      <path class="c" d="M1499.24,197.6q-.12-6.75-.1-13.48v-3.37a31.35,31.35,0,0,1,.12-3.36c.18-2.24.3-4.47.46-6.71l.82,1.26-8.55-3h.8L1454,181.41l.11,0-37.38,16.31.63-.61-3.44,7.25.12-.52a48.06,48.06,0,0,1-.26,5.09l-.39,5.1c-.28,3.39-.57,6.79-.89,10.18q-.33-5.1-.6-10.2l-.25-5.11c-.06-1.7-.23-3.4-.12-5.1v-.07a1.16,1.16,0,0,1,.12-.45l3.45-7.24a1.25,1.25,0,0,1,.63-.61l37.38-16.31.12-.05,38.78-12.5a1.32,1.32,0,0,1,.81,0l8.55,3a1.26,1.26,0,0,1,.83,1.26c-.14,2.24-.31,4.47-.42,6.71a31.34,31.34,0,0,1-.3,3.35l-.43,3.34C1500.51,188.7,1499.89,193.15,1499.24,197.6Z"/>
      <path class="c" d="M1495,202.42c-2.84,1.61-5.73,3.08-8.62,4.56l-9.06,3.36-18.11,6.75-18.3,6.23-9.15,3.11c-3.17.68-6.34,1.37-9.55,1.93,2.89-1.51,5.82-2.9,8.74-4.29l9.14-3.12,18.28-6.22,18.1-6.74,9-3.38C1488.61,203.84,1491.76,203.06,1495,202.42Z"/>
      <path class="c" d="M1415.86,205.19c2.83-1.66,5.72-3.18,8.62-4.7l9.08-3.5,18.15-7,18.17-7,9.09-3.48c3.17-.81,6.33-1.63,9.54-2.32-2.85,1.63-5.75,3.14-8.64,4.65l-9.09,3.49-18.17,7-18.15,7-9.07,3.53C1422.23,203.67,1419.07,204.5,1415.86,205.19Z"/>
      <path class="c" d="M1428.5,200.6a13.61,13.61,0,0,1,1.56,1.42c.08.56.2,1.11.3,1.67L1431,207l.64,3.32L1432,212a16.34,16.34,0,0,1-.91,1.9,15.44,15.44,0,0,1-1.55-1.43l-.32-1.66-.63-3.32-.64-3.32c-.11-.56-.2-1.11-.33-1.66A12.19,12.19,0,0,1,1428.5,200.6Z"/>
      <path class="c" d="M1449.69,194a13.12,13.12,0,0,1,1.07,1.78c-.09.54-.13,1.08-.2,1.63l-.36,3.26-.36,3.27-.19,1.63a13.16,13.16,0,0,1-1.42,1.5,15.31,15.31,0,0,1-1.06-1.77l.18-1.64.37-3.26.36-3.27c.06-.54.13-1.09.17-1.63A11.82,11.82,0,0,1,1449.69,194Z"/>
      <path class="c" d="M1467.49,186.87a11.77,11.77,0,0,1,1.42,1.53c0,.56.11,1.11.16,1.67l.33,3.32.34,3.33.16,1.66a14.09,14.09,0,0,1-1.07,1.79,13.3,13.3,0,0,1-1.41-1.54l-.17-1.66-.33-3.33-.34-3.32c-.06-.56-.1-1.11-.18-1.67A12.73,12.73,0,0,1,1467.49,186.87Z"/>
      <path class="c" d="M1432.57,236.08c2.44-1.36,4.92-2.58,7.41-3.79l7.8-2.59,15.61-5.19,15.57-5.32,7.78-2.65c2.72-.53,5.43-1.06,8.19-1.47-2.43,1.36-4.91,2.59-7.38,3.84l-7.79,2.65-15.57,5.32-15.61,5.19-7.8,2.61C1438.06,235.19,1435.34,235.71,1432.57,236.08Z"/>
      <path class="c" d="M1499.53,303.9c-.33-4.43-.62-8.86-.84-13.28l-.18-3.32a30.7,30.7,0,0,1-.06-3.32c.06-2.21.06-4.43.09-6.64l.55,1.06-7.67-5.1,1,.16-37.89,10.82L1416.12,293l.9-.79-2.89,8.07.06-.26c-.11.85-.17,1.71-.34,2.55l-.51,2.52-1,5.05c-.69,3.36-1.39,6.73-2.13,10.08.18-3.43.4-6.86.62-10.28l.36-5.14.19-2.57c.05-.85.22-1.7.34-2.54h0a1,1,0,0,1,.06-.25l2.9-8.07a1.24,1.24,0,0,1,.9-.79l38.37-8.67,37.83-10.81a1.27,1.27,0,0,1,1,.16l7.68,5.1a1.3,1.3,0,0,1,.56,1.06c0,2.21-.06,4.42,0,6.63a30.7,30.7,0,0,1-.12,3.32l-.25,3.32Q1500.16,297.27,1499.53,303.9Z"/>
      <path class="c" d="M1494.47,306.78c-2.92,1.16-5.88,2.17-8.83,3.19l-9.11,1.94-18.2,3.91-18,4.6-9,2.3c-3.1.4-6.19.8-9.33,1.09,2.89-1.26,5.81-2.38,8.73-3.52l9-2.3,18.06-4.61,18.22-3.91,9.11-2C1488.21,307.21,1491.33,306.92,1494.47,306.78Z"/>
      <path class="c" d="M1416.08,302.07c2.9-1.27,5.83-2.39,8.76-3.51l9.08-2.28,18.15-4.59,18.19-4.41,9.1-2.21c3.12-.36,6.24-.74,9.39-1-2.92,1.22-5.86,2.32-8.8,3.42l-9.09,2.21-18.19,4.41-18.14,4.58-9.07,2.3C1422.34,301.41,1419.23,301.81,1416.08,302.07Z"/>
      <path class="c" d="M1428.93,299.18a12.27,12.27,0,0,1,1.28,1.65c0,.55,0,1.11,0,1.66l0,3.32,0,3.32,0,1.66a16.29,16.29,0,0,1-1.23,1.68,14,14,0,0,1-1.27-1.65l0-1.66,0-3.32,0-3.32c0-.55,0-1.11,0-1.66A11.3,11.3,0,0,1,1428.93,299.18Z"/>
      <path class="c" d="M1447.62,294.26a13,13,0,0,1,1.4,1.52c0,.54.1,1.09.15,1.63l.3,3.27.31,3.26.15,1.64a17.12,17.12,0,0,1-1.09,1.75,15,15,0,0,1-1.4-1.52l-.15-1.63-.31-3.27-.3-3.27c-.06-.54-.09-1.09-.17-1.63A11.81,11.81,0,0,1,1447.62,294.26Z"/>
      <path class="c" d="M1468,289.73a12.75,12.75,0,0,1,1.35,1.6c0,.56,0,1.11.07,1.67l.16,3.32.17,3.33.08,1.66a14.52,14.52,0,0,1-1.16,1.73,14.44,14.44,0,0,1-1.33-1.6l-.09-1.66-.16-3.33-.17-3.33c0-.55,0-1.11-.1-1.66A13.29,13.29,0,0,1,1468,289.73Z"/>
      <path class="c" d="M1433.41,333.77c2.47-1,5-1.82,7.46-2.66l7.7-1.41,15.38-2.84,15.22-3.61,7.61-1.8c2.62-.23,5.24-.48,7.9-.59-2.43,1.09-4.88,2.05-7.34,3l-7.62,1.81-15.26,3.61-15.41,2.85-7.7,1.44C1438.71,333.69,1436.07,333.81,1433.41,333.77Z"/>
      <path class="c" d="M1441.65,147.5c-.35-.95-.63-1.89-.93-2.84l-.4-1.43a3.72,3.72,0,0,1-.25-1.43l-.32-5.77-.64-11.55a1.24,1.24,0,0,1,.55-1.1l3.73-2.52.93-.62c.33-.18.55-.53,1-.52a21.38,21.38,0,0,1,2.49-.33,22.93,22.93,0,0,1-1.25,2.18c-.16.42-.56.5-.85.74l-.94.63-3.72,2.51.54-1.11.65,11.55.33,5.77a3.77,3.77,0,0,1-.09,1.45l-.24,1.46C1442.06,145.55,1441.88,146.52,1441.65,147.5Z"/>
      <path class="c" d="M1459.87,135.5c-.33-.79-.61-1.58-.89-2.37l-.39-1.19a2.83,2.83,0,0,1-.24-1.2l-.26-4.83-.53-9.67a1.25,1.25,0,0,1,.4-1l3-2.78.75-.7c.28-.2.42-.55.85-.59a18.65,18.65,0,0,1,2.26-.57,20.46,20.46,0,0,1-.75,2.21c-.08.42-.44.53-.66.79l-.76.7-3,2.77.4-1,.53,9.66.28,4.83a2.84,2.84,0,0,1-.11,1.22l-.26,1.22C1460.31,133.86,1460.12,134.68,1459.87,135.5Z"/>
      <path class="c" d="M1467.29,66.5c3.21-.3,6.41-.45,9.61-.6l9.52.66,19,1.3,19.09.52,9.55.26c3.17.46,6.34.92,9.51,1.51-3.2.41-6.4.69-9.59,1l-9.56-.26-19.12-.52-19.07-1.3-9.54-.64C1473.58,67.83,1470.43,67.24,1467.29,66.5Z"/>
      <path class="c" d="M1500.82,69c1.4.71,2.7,1.54,4,2.36,1,1.09,2.06,2.16,3.09,3.24l6.18,6.46,6.19,6.47,3.09,3.23c.76,1.34,1.52,2.67,2.19,4.1-1.39-.73-2.69-1.55-4-2.37l-3.1-3.23-6.18-6.47-6.19-6.46c-1-1.08-2-2.17-3.1-3.23C1502.24,71.74,1501.47,70.4,1500.82,69Z"/>
      <path class="c" d="M1530.71,68.32a19.75,19.75,0,0,1,2.5,1.14c.48.65,1,1.28,1.49,1.92l3,3.84,3,3.83,1.51,1.92a24.18,24.18,0,0,1,.52,2.69,24.74,24.74,0,0,1-2.49-1.14l-1.51-1.92-3-3.84-3-3.83c-.51-.64-1-1.29-1.52-1.91A18.71,18.71,0,0,1,1530.71,68.32Z"/>
      <path class="c" d="M1429.39,243c.53,1.86.92,3.71,1.3,5.57l0,5.57.08,11.14.09,11.15,0,5.57c-.37,1.86-.72,3.72-1.21,5.58-.52-1.85-.9-3.71-1.29-5.56l0-5.57-.09-11.15-.08-11.14-.06-5.57C1428.53,246.75,1428.88,244.89,1429.39,243Z"/>
      <path class="c" d="M1429.79,342.47c.39,4.16.64,8.31.88,12.46l-.38,12.41c-.44,8.27,0,16.56.16,24.84s.47,16.55.47,24.85l.1,12.44c-.35,4.15-.69,8.29-1.16,12.44-.53-4.14-.93-8.28-1.34-12.42l-.1-12.43c0-8.28-.28-16.57-.47-24.87s-.6-16.58-.16-24.87l.37-12.44C1428.65,350.74,1429.14,346.6,1429.79,342.47Z"/>
      <path class="c" d="M1451.85,447.06c-.73-6.81-1.26-13.62-1.9-20.44-.31-6.82-.49-13.64-.72-20.47l.86-41a1.25,1.25,0,0,1,1.12-1.21l31.92-3.43a1.25,1.25,0,0,1,1.37,1.11v.09l1,29v.12l-.44,7.36-.85,7.34-.87,7.34c-.27,2.44-.62,4.88-.92,7.33,0-2.47,0-4.93,0-7.39l0-7.39.07-7.38.47-7.36v.12l-1-29,1.38,1.2-31.91,3.43,1.11-1.21-.86,40.89c.19,6.81.5,13.62.64,20.44C1452.19,433.4,1452.12,440.22,1451.85,447.06Z"/>
    </g>
    <path class="c" d="M1421.9,333c-3.42.35-6.85.67-10.28.93-1.72.11-3.43.32-5.15.35s-3.43,0-5.14,0h-20.57L1382,333v34.29l-1.25-1.25h20.57c1.71,0,3.43,0,5.14,0s3.43.24,5.15.36c3.43.26,6.86.57,10.28.91q-5.13.51-10.28.92c-1.72.11-3.43.31-5.15.36s-3.43,0-5.14,0h-20.57a1.25,1.25,0,0,1-1.25-1.25V333a1.25,1.25,0,0,1,1.25-1.25h20.57c1.71,0,3.43,0,5.14,0s3.43.24,5.15.35Q1416.77,332.52,1421.9,333Z"/>
    <path class="c" d="M1371.33,333c.52,1.65.89,3.29,1.26,4.93v29.58c-.38,1.64-.75,3.28-1.25,4.93-.5-1.65-.87-3.29-1.25-4.93V342.9l0-4.93C1370.44,336.33,1370.81,334.69,1371.33,333Z"/>
    <path class="c" d="M1223,376.76l-.37-5.57-.31-5.57c-.2-3.72-.44-7.43-.6-11.15.06-7.43,0-14.85,0-22.28V287.61a1.25,1.25,0,0,1,.79-1.16l39-15.43c6.51-2.56,13-5.18,19.51-7.68,6.66-2.2,13.27-4.48,20-6.59-6.32,3-12.7,5.89-19,8.84-6.48,2.64-13,5.16-19.49,7.75l-39,15.43.79-1.16v44.58c0,7.43,0,14.85,0,22.28-.16,3.72-.41,7.43-.6,11.15l-.31,5.57Z"/>
    <path class="c" d="M1396.19,95.88c-6.93,3-13.9,6-20.86,9l-10.45,4.43c-1.74.73-3.53,1.36-5.3,2l-5.29,2L1312,129.62l.8-1.16v79.43l-1.67-1.18L1341,196l7.48-2.69c1.23-.48,2.49-.88,3.77-1.25l3.81-1.13c5.09-1.5,10.17-3,15.28-4.46-4.86,2.13-9.76,4.17-14.64,6.24l-3.67,1.55c-1.21.53-2.44,1-3.7,1.43l-7.49,2.67-29.91,10.71a1.24,1.24,0,0,1-1.67-1.17V128.46a1.24,1.24,0,0,1,.8-1.17L1353.39,111l5.3-2c1.76-.68,3.5-1.41,5.29-2l10.72-3.71C1381.86,100.75,1389,98.27,1396.19,95.88Z"/>
    <path class="c" d="M1396.19,98.5c.33,3.38.63,6.76.88,10.14l.38,5.07c.06.84,0,1.69,0,2.53V179.6l-.93-1.21,6.43,1.71.8.22a3.71,3.71,0,0,1,.81.21l1.51.8c1,.53,2,1.1,3,1.7-1.16,0-2.31,0-3.44,0l-1.71-.06a3.8,3.8,0,0,1-.8-.22l-.81-.21-6.42-1.71a1.26,1.26,0,0,1-.93-1.21V116.24c0-.84-.07-1.69,0-2.53l.37-5.07C1395.56,105.26,1395.85,101.88,1396.19,98.5Z"/>
    <path class="c" d="M1401.33,97q4,.74,8,1.62a.84.84,0,0,1,.66.74l0,.21.25,2.37c0,.79,0,1.58,0,2.37v59.15a11.77,11.77,0,0,1-.11,2.37c-.34,3.15-.7,6.31-1.14,9.46-.45-3.15-.81-6.31-1.14-9.46a11.09,11.09,0,0,1-.12-2.37V104.33c0-.79-.07-1.58,0-2.37l.26-2.37.69,1C1406.24,99.43,1403.78,98.25,1401.33,97Z"/>
    <path class="c" d="M1324.18,205.46a13.53,13.53,0,0,1,1.26,1.93c0,.64,0,1.28,0,1.93V219a17.51,17.51,0,0,1-1.25,1.93,17.51,17.51,0,0,1-1.25-1.93v-9.64c0-.65,0-1.29,0-1.93A13.53,13.53,0,0,1,1324.18,205.46Z"/>
    <path class="c" d="M1332.18,200.46a13.53,13.53,0,0,1,1.26,1.93c0,.64,0,1.28,0,1.93V214a17.51,17.51,0,0,1-1.25,1.93,17.51,17.51,0,0,1-1.25-1.93v-9.64c0-.65,0-1.29,0-1.93A13.53,13.53,0,0,1,1332.18,200.46Z"/>
    <path class="c" d="M1382.18,185.46a13.53,13.53,0,0,1,1.26,1.93c0,.64,0,1.28,0,1.93V199a17.51,17.51,0,0,1-1.25,1.93,17.51,17.51,0,0,1-1.25-1.93v-9.64c0-.65,0-1.29,0-1.93A13.53,13.53,0,0,1,1382.18,185.46Z"/>
    <path class="c" d="M1390.18,183.46a13.53,13.53,0,0,1,1.26,1.93c0,.64,0,1.28,0,1.93V197a17.51,17.51,0,0,1-1.25,1.93,17.51,17.51,0,0,1-1.25-1.93v-9.64c0-.65,0-1.29,0-1.93A13.53,13.53,0,0,1,1390.18,183.46Z"/>
    <g>
      <path class="c" d="M1409.46,194.51c-8.85,3.59-17.76,7-26.65,10.55l-6.68,2.61c-2.22.89-4.54,1.47-6.81,2.21l-13.67,4.27c-9.1,2.88-18.25,5.61-27.26,8.77l-27.11,9.18.85-1.19-.07,34.14-.27,34.1,1.15,34.13c-.33,11.38-.58,22.77-1,34.15v-.09l.16,17.07q.11,8.54.11,17.08-.72-8.5-1.36-17l-1.31-17v-.09c.22-11.36.61-22.72.9-34.08l-1.15-34.09.27-34.15.07-34.13a1.25,1.25,0,0,1,.85-1.18l27.13-9.19c9-3.16,18.16-5.89,27.26-8.76l13.66-4.27c2.28-.72,4.55-1.45,6.8-2.24l6.81-2.17C1391.24,200.23,1400.33,197.3,1409.46,194.51Z"/>
      <path class="c" d="M1395.94,236.07c-3.1,1.36-6.25,2.58-9.4,3.79l-9.73,2.56-19.44,5.13-19.41,5.3-9.7,2.65c-3.33.52-6.67,1-10,1.44,3.1-1.36,6.24-2.6,9.37-3.85l9.71-2.65,19.41-5.31,19.45-5.13,9.73-2.58C1389.23,236.93,1392.57,236.43,1395.94,236.07Z"/>
      <path class="c" d="M1323.8,255.35c-.32-1-.59-2-.84-3.06l-.36-1.53a1.78,1.78,0,0,1,0-.76c0-.25,0-.51,0-.76l0-6.11a1.24,1.24,0,0,1,.91-1.2l13.77-3.9a1.26,1.26,0,0,1,1.55.86,1.32,1.32,0,0,1,0,.34v6a8.6,8.6,0,0,1-.43,3q-.36,1.5-.81,3c-.31-1-.58-2-.83-3a8.66,8.66,0,0,1-.43-3v-6l1.59,1.2-13.77,3.89.91-1.19,0,6.1c0,.26,0,.51,0,.77a1.64,1.64,0,0,1-.06.76l-.36,1.53C1324.4,253.31,1324.13,254.33,1323.8,255.35Z"/>
      <path class="c" d="M1346.28,236.39q2.52-1.32,5.1-2.49a9.9,9.9,0,0,1,2.63-1l2.69-.76,10.76-3L1389,223a1.25,1.25,0,0,1,1.54.86,1.16,1.16,0,0,1,0,.36l0,3.21c0,.53,0,1.07,0,1.6a5.51,5.51,0,0,1-.16,1.61c-.36,2.13-.75,4.26-1.22,6.39-.41-2.14-.73-4.29-1-6.43A6.24,6.24,0,0,1,1388,229c0-.53,0-1.06,0-1.6l0-3.21,1.59,1.23-21.53,6.09-10.76,3.05-2.69.76a9.85,9.85,0,0,1-2.76.53Q1349.13,236.2,1346.28,236.39Z"/>
      <path class="c" d="M1396,273.65c-3.07,1.41-6.18,2.67-9.29,3.93l-9.63,2.71-19.25,5.43-.13,0-19.71,3.31-9.86,1.66c-3.35.17-6.7.36-10.07.42,3.2-1.05,6.43-2,9.65-2.89l9.86-1.66,19.72-3.31-.14,0,19.26-5.43,9.62-2.73C1389.29,274.61,1392.6,274.06,1396,273.65Z"/>
      <path class="c" d="M1322.45,290.49c-.17-1-.28-2.05-.38-3.07l-.12-1.53a1.66,1.66,0,0,1,.07-.74c.06-.25.09-.49.13-.74l.93-5.89a1.27,1.27,0,0,1,.9-1l13.44-3.72a1.24,1.24,0,0,1,1.54.87,1.17,1.17,0,0,1,0,.26l.31,5.69a8.32,8.32,0,0,1-.3,2.87c-.19,1-.41,1.92-.65,2.89-.35-.93-.66-1.87-1-2.8a8.09,8.09,0,0,1-.59-2.82l-.3-5.69,1.58,1.14-13.44,3.72.9-1-.93,5.89c0,.25-.08.49-.11.74a1.68,1.68,0,0,1-.15.73l-.6,1.41C1323.36,288.63,1322.93,289.56,1322.45,290.49Z"/>
      <path class="c" d="M1346.14,270.83c1.72-.77,3.45-1.5,5.19-2.17a10.9,10.9,0,0,1,2.65-.84l2.7-.59,10.8-2.37,21.61-4.75a1.24,1.24,0,0,1,1.49.95,1.12,1.12,0,0,1,0,.36l-.25,3.36-.13,1.68c0,.28,0,.56,0,.84a6.11,6.11,0,0,1-.17.83c-.52,2.21-1,4.42-1.67,6.62-.3-2.27-.49-4.53-.67-6.8a5.91,5.91,0,0,1,0-.84c0-.28.07-.56.09-.84l.12-1.68.26-3.35,1.51,1.31L1368,267.3l-10.8,2.37-2.7.6a11,11,0,0,1-2.76.35C1349.9,270.74,1348,270.8,1346.14,270.83Z"/>
      <path class="c" d="M1396,311.35c-3.09,1.31-6.21,2.47-9.33,3.64L1377,317.4l-19.27,4.85-.16,0-19.75,2.34-9.87,1.17c-3.33,0-6.67,0-10-.07,3.23-.89,6.48-1.65,9.73-2.41l9.87-1.17,19.74-2.35-.15,0,19.27-4.84,9.64-2.44C1389.33,312.1,1392.64,311.65,1396,311.35Z"/>
      <path class="c" d="M1324,325.64c-.33-1-.61-2-.87-3l-.37-1.51a2.36,2.36,0,0,1,0-.75v-6.78a1.24,1.24,0,0,1,1-1.22l13.78-2.65a1.26,1.26,0,0,1,1.46,1v.09l.65,5.28a3.63,3.63,0,0,1,.1.66l-.08.68-.17,1.36c-.12.91-.26,1.82-.44,2.73-.38-.84-.74-1.69-1.09-2.54l-.49-1.28-.24-.64a3.7,3.7,0,0,1-.07-.66l-.65-5.29,1.48,1.08-13.78,2.64,1-1.23v6.78a2.69,2.69,0,0,1,0,.75l-.38,1.51C1324.61,323.63,1324.33,324.64,1324,325.64Z"/>
      <path class="c" d="M1346.64,308.27q2.55-1.06,5.14-2l1.29-.47a6.66,6.66,0,0,1,1.33-.26l2.66-.49,10.65-2,21.3-3.95a1.26,1.26,0,0,1,1.46,1v.09l.34,3a14,14,0,0,1,.2,3c-.1,2.05-.22,4.11-.43,6.17-.65-2-1.23-4-1.78-5.93a13.9,13.9,0,0,1-.48-3l-.33-3,1.47,1.09-21.3,3.95-10.65,2-2.67.49a7.41,7.41,0,0,1-1.33.24l-1.37,0C1350.32,308.33,1348.48,308.33,1346.64,308.27Z"/>
    </g>
    <path class="c" d="M661.5,244c5.31,1.25,10.6,2.56,15.88,3.89l7.93,2c1.32.33,2.64.64,4,1s2.6.77,3.91,1.17l31.62,8.24,31.28,9.63L786.86,281a1.28,1.28,0,0,1,.83,1.09l2.11,31.2v.14l-1.51,31.71c0,2.65-.29,5.28-.49,7.92l-.63,7.92c-.41,5.28-.84,10.55-1.32,15.83q-.12-8-.14-15.89l0-7.95c0-2.65-.08-5.3.1-7.94l1.53-31.72v.15l-2.11-31.2.83,1.09-30.73-11-31.17-9.59-31.61-8.24c-1.31-.37-2.63-.72-3.93-1.14s-2.58-.87-3.87-1.31L677,249.34C671.8,247.59,666.64,245.82,661.5,244Z"/>
    <path class="c" d="M1409.05,238.75c.52,1.68.89,3.35,1.26,5V274c-.38,1.68-.75,3.36-1.25,5-.51-1.68-.87-3.36-1.25-5V248.82l0-5C1408.16,242.1,1408.52,240.43,1409.05,238.75Z"/>
    <path class="c" d="M1409.05,379.33c.52,1.72.89,3.43,1.26,5.15v30.86c-.38,1.71-.75,3.43-1.25,5.14-.51-1.71-.87-3.43-1.25-5.14V389.62l0-5.14C1408.16,382.76,1408.52,381.05,1409.05,379.33Z"/>
    <path class="c" d="M1225.6,307.33c2.31-1.25,4.67-2.36,7-3.46l7.4-2.24,14.79-4.5,14.78-4.5,7.4-2.25c2.57-.39,5.15-.79,7.76-1.06-2.32,1.23-4.68,2.34-7,3.45l-7.4,2.25-14.78,4.5-14.79,4.5-7.39,2.26C1230.78,306.68,1228.21,307.07,1225.6,307.33Z"/>
    <path class="c" d="M1226.88,323.85c2.32-1,4.66-1.76,7-2.58l7.23-1.32,14.47-2.68,14.46-2.68,7.24-1.34c2.48-.07,5-.16,7.46-.11-2.32.94-4.67,1.75-7,2.57l-7.23,1.34L1256,319.73l-14.46,2.68-7.23,1.35C1231.87,323.84,1229.39,323.92,1226.88,323.85Z"/>
    <path class="c" d="M1225.6,339.81c2.41-.77,4.84-1.39,7.26-2l7.4-.73,14.79-1.5,14.78-1.5,7.4-.75c2.5.12,5,.24,7.52.49-2.42.75-4.85,1.36-7.27,2l-7.4.75-14.78,1.5-14.79,1.5-7.39.77C1230.62,340.19,1228.11,340.08,1225.6,339.81Z"/>
    <path class="c" d="M1593.35,397.23q-3.12.58-6.24,1.09l-3.13.49a25.49,25.49,0,0,1-3.13.39c-2.1.07-4.19.22-6.29.33l-6.28.35,1.18-1.26.28,33.7-.83,16.83c-.06,1.4-.16,2.8-.19,4.2a13.35,13.35,0,0,1-.22,2.1l-.31,2.1c-.41,2.79-.87,5.58-1.36,8.37-.21-2.82-.39-5.64-.52-8.45l-.11-2.11a13.38,13.38,0,0,1,0-2.1c.1-1.4.14-2.8.22-4.2l.83-16.79-.28-33.63a1.25,1.25,0,0,1,1.18-1.26l6.28-.35c2.1-.13,4.2-.21,6.29-.37a23.68,23.68,0,0,1,3.15,0l3.16.14C1589.13,397,1591.24,397.07,1593.35,397.23Z"/>
    <path class="c" d="M1654.34,446c-3.49.09-6.95,0-10.42,0l-10.28-1.24-20.55-2.5a1.26,1.26,0,0,1-1.1-1.18l-1.07-21.42-.55-10.71c.19-3.58.39-7.17.72-10.77.69,3.55,1.25,7.1,1.8,10.65l.52,10.71,1.08,21.41-1.1-1.17,20.55,2.5,10.28,1.25C1647.6,444.33,1651,445.1,1654.34,446Z"/>
    <path class="c" d="M1583,410.19c.55,1.82,1,3.63,1.36,5.45l.08,5.46.19,10.93.2,10.93.09,5.47c-.35,1.83-.68,3.65-1.15,5.48-.53-1.81-.94-3.62-1.35-5.44l-.09-5.46-.2-10.93-.19-10.93-.11-5.47C1582.13,413.85,1582.47,412,1583,410.19Z"/>
    <path class="c" d="M1173.88-22.94a55.74,55.74,0,0,0-7.28.73,41.91,41.91,0,0,0-7.08.66,37.2,37.2,0,0,0-13.2,5,33.33,33.33,0,0,0-5.6,4.3,14.74,14.74,0,0,0-1.25,1.25c-.41.43-.82.85-1.21,1.3-.74.92-1.54,1.8-2.19,2.79l-1,1.45L1134.11-4c-.66,1-1.14,2.08-1.72,3.12s-1.33,2-2,3-1.25,2.11-1.91,3.17c.2-1.22.41-2.46.68-3.69s.62-2.43,1-3.63a4.35,4.35,0,0,1,.43-.83c.16-.27.3-.56.45-.83a17.64,17.64,0,0,1,.94-1.63l1-1.61L1134-8.41c.7-1.05,1.55-2,2.33-3,.42-.47.86-.92,1.29-1.38A17.07,17.07,0,0,1,1139-14.1a36.17,36.17,0,0,1,6-4.61,39.78,39.78,0,0,1,14.08-5.3,49.48,49.48,0,0,1,7.49-.73A30.67,30.67,0,0,1,1173.88-22.94Z"/>
    <path class="c" d="M1129.31,24.21A20.77,20.77,0,0,0,1122.1,23a14.53,14.53,0,0,0-6.82.79,19.32,19.32,0,0,0-10.2,9.29,19,19,0,0,0-1.78,13.67,16.05,16.05,0,0,0,3.21,6.13,24.75,24.75,0,0,0,4.79,5.58,20,20,0,0,1-6.71-4,18.67,18.67,0,0,1-3.71-7.08,21.55,21.55,0,0,1,2-15.48,21.81,21.81,0,0,1,11.56-10.48,17.56,17.56,0,0,1,8-.94A16.86,16.86,0,0,1,1129.31,24.21Z"/>
    <path class="c" d="M1103.75,51.17a12.55,12.55,0,0,0-4.86,3.87,14.24,14.24,0,0,0-2.47,5.5,27.79,27.79,0,0,0-.7,5.95,16.43,16.43,0,0,0,1.17,5.8,14,14,0,0,0,8.5,7.66,23.3,23.3,0,0,0,5.93,1.26,26.17,26.17,0,0,0,3.07.09c1,0,2.12-.06,3.19-.07l51.3-.57,51.3-.56c17.1-.44,34.22.21,51.32.69-17.09.84-34.17,1.87-51.27,1.81l-51.28.56-51.28.57c-1.07,0-2.12,0-3.22.07a31,31,0,0,1-3.34-.09,26.23,26.23,0,0,1-6.57-1.41,18.75,18.75,0,0,1-5.92-3.43,15.15,15.15,0,0,1-4-5.62,18.55,18.55,0,0,1-1.37-6.69,15.63,15.63,0,0,1,1.06-6.7,16.08,16.08,0,0,1,3.73-5.61A11.92,11.92,0,0,1,1103.75,51.17Z"/>
    <path class="c" d="M1180.74,7.92a23.42,23.42,0,0,0-2.89,3.34c-.22.27-.54.42-.78.67s-.48.49-.73.74a14.5,14.5,0,0,0-1.35,1.57,22.64,22.64,0,0,0-3.69,7.42l-.54,2-.32,2.09-.16,1-.06,1.07-.11,2.12c0,1.43.1,2.86.16,4.28-.19,1.46-.37,2.94-.67,4.48-.69-1.37-1.25-2.8-1.82-4.26-.07-1.51-.16-3-.17-4.53l.12-2.27.06-1.14.17-1.13.35-2.27.59-2.22a25,25,0,0,1,4.12-8.25,16.1,16.1,0,0,1,1.52-1.77,19.86,19.86,0,0,1,1.69-1.62A12.72,12.72,0,0,1,1180.74,7.92Z"/>
    <path class="c" d="M211.74,333.9c.36,2.94.75,5.88,1.08,8.82l1,8.83,1,8.83c.16,1.47.21,2.95.3,4.43l.31,4.43v.17l-2.28,35.42v-.16l2.33,35.43v.14l-1.7,35.43v-.13L215.68,511v.12l-.18,4.43c-.06,1.47-.06,3-.18,4.43l-.76,8.84-.75,8.84-.82,8.84-.09-8.88,0-8.87,0-8.87c0-1.48.12-3,.18-4.43l.18-4.43v.12l-1.88-35.44a.24.24,0,0,1,0-.12L213,440.12v.14l-2.32-35.43v-.16L213,369.25v.16l-.31-4.43c-.12-1.47-.27-2.94-.32-4.42l-.22-8.89-.22-8.88C211.81,339.83,211.79,336.86,211.74,333.9Z"/>
    <path class="c" d="M377.5,497.63c-.7-18.14-1.51-36.27-1.67-54.44l-.23-13.62c-.14-4.54,0-9.08.09-13.61l.71-27.22c.2-18.14.56-36.28.44-54.41.34-18.14-.92-36.25-1.64-54.36h0v-.08l.75-27.21c.41-9.07.1-18.16,0-27.24s-.5-18.17.3-27.24L377.84,171v.11L376.92,144c-.37-9-.47-18-.65-27.07s-.38-18-.41-27.07l-.22-27.07.83,1.17-70-25.12C294.78,34.74,283,30.8,271.42,26.41L237,12.25l.42,0L212.74,25.34l24.21-14a.47.47,0,0,1,.4,0h0l34.8,13.07c5.87,2,11.77,3.89,17.6,6l17.54,6.15,70,25.12a1.24,1.24,0,0,1,.82,1.16l.22,27.06c0,9,.26,18,.41,27.05s.28,18,.65,27l.92,27.05a.45.45,0,0,1,0,.11l-1.55,27.16c-.8,9-.34,18.13-.3,27.2s.38,18.14,0,27.23l-.75,27.24v-.09c.72,18.15,2,36.28,1.64,54.46.12,18.17-.24,36.32-.44,54.47L378.24,416l-.2,6.8c-.12,2.27-.12,4.54-.16,6.8l-.21,13.61C377.25,461.33,377.55,479.48,377.5,497.63Z"/>
    <path class="c" d="M236.77,363.05c.11,4.37.15,8.74.18,13.1l.05,6.54c0,1.09,0,2.18,0,3.27l-.18,3.26c-.67,8.7-.15,17.43,0,26.16s.58,17.43.14,26.17l-.73,26.19v-.12l2.43,34.89v.14l-.37,8.73c-.07,1.45-.05,2.91-.18,4.36l-.42,4.35c-.57,5.8-1.09,11.6-1.73,17.4-.16-5.83-.2-11.66-.29-17.48l-.06-4.38c0-1.45.15-2.9.19-4.36l.36-8.72v.14l-2.43-34.89v-.13l.73-26.14c.44-8.71,0-17.45-.14-26.17s-.64-17.46,0-26.19l.12-3.27c.05-1.09.18-2.18.29-3.27l.67-6.53C235.81,371.74,236.26,367.39,236.77,363.05Z"/>
    <path class="c" d="M356.38,135c-.27-4.91-.47-9.83-.67-14.74l-.3-7.37-.15-3.68c0-1.23,0-2.46,0-3.68l-.41-29.47.88,1.18-23.87-7.37c-8-2.26-15.74-5.4-23.57-8.22s-15.6-5.81-23.48-8.48L261.25,45l1.66-1.18-.05,12.3,0,6.15c0,2,.06,4.1-.09,6.15l-.62,12.29q-.28,6.15-.67,12.3c-.21-4.1-.41-8.2-.57-12.3l-.51-12.3c-.13-2-.06-4.1,0-6.15l0-6.15.05-12.3a1.26,1.26,0,0,1,1.26-1.24,1.05,1.05,0,0,1,.4.07l23.59,8.19c7.88,2.66,15.66,5.6,23.46,8.47s15.53,6,23.54,8.21l23.82,7.35a1.25,1.25,0,0,1,.88,1.18l.44,29.49c0,1.22,0,2.45,0,3.68l-.19,3.69-.37,7.37C357,125.2,356.7,130.11,356.38,135Z"/>
    <path class="c" d="M263.37,59.13c3.58.62,7.14,1.32,10.68,2a23,23,0,0,1,2.64.62c.86.3,1.72.54,2.59.81l5.18,1.55,20.73,6.24,41.23,13.22-1.3.34a28,28,0,0,1,2.53-2.34l2.6-2.27c1.75-1.51,3.5-3,5.28-4.47-1.39,1.84-2.8,3.66-4.22,5.48l-2.14,2.7A31.44,31.44,0,0,1,347,85.71l0,0a1.29,1.29,0,0,1-1.26.29l-41.2-13.25-20.72-6.23L278.55,65c-.86-.26-1.72-.53-2.6-.75a23.49,23.49,0,0,1-2.54-.94C270.05,62,266.7,60.59,263.37,59.13Z"/>
    <path class="c" d="M346.4,84.44c.49,1.73.82,3.45,1.16,5.17l-.11,5.14-.2,10.29-.2,10.29-.1,5.14c-.41,1.71-.81,3.42-1.35,5.12-.46-1.72-.8-3.44-1.15-5.17l.1-5.14.2-10.29.2-10.28.09-5.15C345.44,87.86,345.84,86.15,346.4,84.44Z"/>
    <path class="c" d="M289.47,67.3c.45,1.49.75,3,1,4.45-.09,1.47-.14,2.93-.22,4.4l-.41,8.78-.42,8.79-.21,4.39c-.45,1.45-.89,2.9-1.46,4.34-.43-1.49-.73-3-1-4.46L287,93.6l.42-8.79.42-8.78c.06-1.47.15-2.93.19-4.4C288.44,70.19,288.88,68.74,289.47,67.3Z"/>
    <path class="c" d="M317.32,76.73c.57,1.44,1,2.9,1.42,4.35,0,1.46.1,2.92.15,4.39l.32,8.79.33,8.78.16,4.4c-.32,1.47-.64,3-1.09,4.44-.55-1.45-1-2.9-1.41-4.35l-.16-4.4-.32-8.78-.33-8.79c-.06-1.46-.09-2.93-.17-4.39C316.54,79.69,316.85,78.21,317.32,76.73Z"/>
    <path class="c" d="M357.05,231.89c-.51-4.88-.95-9.77-1.38-14.66L355,209.9l-.31-3.67c-.1-1.23-.11-2.45-.16-3.68l.09-29.42.92,1.21-31.41-8.51L293.37,155.2l.11,0-31.38-7.59,1.55-1.22v18.22c0,2,.08,4-.06,6.08L263,182.88q-.27,6.08-.62,12.15c-.23-4.05-.45-8.1-.63-12.15l-.57-12.15c-.14-2-.07-4-.06-6.07V146.43a1.25,1.25,0,0,1,1.25-1.25.92.92,0,0,1,.29,0l31.38,7.59.11,0,30.69,10.6,31.33,8.49a1.26,1.26,0,0,1,.92,1.21l-.07,29.36c.06,1.22.15,2.44.16,3.67v3.67l0,7.34C357.16,222.08,357.14,227,357.05,231.89Z"/>
    <path class="c" d="M263.45,161.12c3.55.3,7.08.7,10.6,1.12a40,40,0,0,1,5.22,1l5.18,1.11,20.74,4.42,41.24,9.91-.95.14c.93-.48,1.89-.91,2.84-1.37l2.86-1.36q2.86-1.35,5.76-2.64c-1.68,1.3-3.36,2.57-5.05,3.83l-2.55,1.87c-.85.62-1.69,1.26-2.56,1.86a1.08,1.08,0,0,1-.87.16l-.08,0-41.2-9.94-20.72-4.42-5.18-1.11a41.47,41.47,0,0,1-5.15-1.23C270.19,163.37,266.81,162.29,263.45,161.12Z"/>
    <path class="c" d="M345.69,181.31c.48,1.73.8,3.45,1.13,5.18l-.15,5.14-.26,10.29-.27,10.28-.13,5.15c-.42,1.7-.83,3.41-1.38,5.11-.46-1.73-.78-3.45-1.12-5.18l.14-5.14.26-10.29.27-10.28.12-5.15C344.71,184.72,345.13,183,345.69,181.31Z"/>
    <path class="c" d="M287.67,166.74a42.34,42.34,0,0,1,1.31,4c0,1.36,0,2.72,0,4.08l.11,8.14.11,8.14.05,4.08c-.36,1.36-.71,2.72-1.19,4.08-.52-1.35-.91-2.7-1.31-4.05l-.05-4.07-.11-8.15-.11-8.14c0-1.36,0-2.72-.06-4.07A39.55,39.55,0,0,1,287.67,166.74Z"/>
    <path class="c" d="M316.54,173.6c.52,1.46.88,2.93,1.25,4.39,0,1.47,0,2.93,0,4.4v8.78l0,8.79v4.39c-.38,1.47-.75,2.93-1.25,4.39-.5-1.46-.87-2.93-1.25-4.39V200l0-8.78v-8.79c0-1.46,0-2.93,0-4.39C315.64,176.52,316,175.06,316.54,173.6Z"/>
    <path class="c" d="M355.36,332.19c0-5,0-10,0-14.95l.05-7.47c0-1.24,0-2.49,0-3.73s.16-2.48.21-3.72l.07-29.85,1,1.22L333.34,268l-5.85-1.41c-1-.22-1.94-.49-2.93-.68l-3-.54-11.83-2.15c-7.89-1.45-15.8-2.79-23.67-4.4l-23.63-4.67L264,253l-.42,12.09-.22,6.05c-.06,2-.06,4-.27,6l-1,12.07c-.31,4-.67,8.05-1,12.08q-.13-6.06-.2-12.12l-.14-12.11c-.06-2,.07-4,.15-6.05L261,265l.42-12.09a1.27,1.27,0,0,1,1.3-1.21l.2,0,23.61,4.66c7.86,1.62,15.79,3,23.69,4.41L322.12,263l3,.54c1,.19,1.95.46,2.93.69l5.86,1.41,23.43,5.67a1.25,1.25,0,0,1,1,1.22l-.07,29.9c0,1.25-.08,2.5-.16,3.74s-.24,2.48-.36,3.73l-.74,7.45C356.43,322.27,355.93,327.23,355.36,332.19Z"/>
    <path class="c" d="M263.7,266.57c3.51.2,7,.49,10.5.81a25.11,25.11,0,0,1,2.61.3c.85.2,1.71.35,2.57.51l5.15.94,20.6,3.79,41.18,7.74-1,.2a22.58,22.58,0,0,1,2.9-1.79l3-1.69c2-1.11,4-2.22,6-3.29q-2.55,2.28-5.15,4.51l-2.6,2.21a22.38,22.38,0,0,1-2.68,2.11l-.09.06a1.27,1.27,0,0,1-.87.15l-41.17-7.75-20.6-3.79-5.15-.95c-.85-.15-1.71-.32-2.58-.44a25.51,25.51,0,0,1-2.54-.64C270.43,268.61,267.06,267.63,263.7,266.57Z"/>
    <path class="c" d="M345.37,281.61c.51,1.72.86,3.44,1.22,5.15l-.06,5.15-.09,10.28-.09,10.29-.05,5.14c-.39,1.71-.78,3.43-1.29,5.14-.49-1.72-.84-3.44-1.21-5.16l.05-5.14.09-10.29.09-10.29,0-5.14C344.45,285,344.84,283.32,345.37,281.61Z"/>
    <path class="c" d="M289.63,270.46a35.18,35.18,0,0,1,1.05,3.72c-.09,1.21-.14,2.43-.21,3.64l-.41,7.29-.4,7.28-.21,3.65c-.44,1.19-.88,2.38-1.45,3.57-.43-1.24-.73-2.48-1-3.71l.2-3.65.41-7.28.4-7.29c.06-1.21.15-2.43.19-3.64A35,35,0,0,1,289.63,270.46Z"/>
    <path class="c" d="M317.85,276.47a41.48,41.48,0,0,1,1.27,4.07c0,1.35,0,2.71,0,4.07l0,8.14V305c-.38,1.35-.75,2.71-1.25,4.07-.5-1.36-.87-2.71-1.25-4.07V292.75l0-8.14c0-1.36,0-2.71,0-4.07A41.32,41.32,0,0,1,317.85,276.47Z"/>
    <path class="c" d="M338.69,405.05c.55,2.82,1.07,5.64,1.54,8.47l.7,4.23c.1.71.09,1.43.15,2.14l.16,2.13,1.3,17.07v.09l.1,34.14-.07,17.07v2.13c0,.71.06,1.43,0,2.14l-.39,4.26c-.27,2.85-.58,5.69-.91,8.53-.31-2.84-.59-5.69-.83-8.53l-.36-4.27c-.07-.71,0-1.42,0-2.13v-2.14l.07-17.06-.1-34.13v.09l-1.29-17.07-.17-2.13c-.05-.71-.17-1.42-.17-2.13l0-4.3Q338.52,409.36,338.69,405.05Z"/>
    <path class="c" d="M354.66,404.85c-4,.36-7.91.59-11.87.8L331,405.19c-7.87-.23-15.75-.78-23.62-1.23s-15.76-.76-23.59-1.77L272,400.94c-3.88-.8-7.76-1.59-11.62-2.51,4-.08,7.92,0,11.87,0L284,399.7c7.82,1,15.68,1.26,23.53,1.77s15.7,1,23.58,1.22l11.8.44C346.82,403.65,350.74,404.18,354.66,404.85Z"/>
    <path class="c" d="M377.92,140.55c12.36,2.76,24.69,5.64,37,8.48l9.19,2.37c3.07.8,6.14,1.56,9.18,2.45,6.08,1.78,12.18,3.47,18.28,5.2L488,169.93l36.2,11.5a1.25,1.25,0,0,1,.87,1.19l0,21.23v10.61c0,3.54.12,7.08.17,10.62l.4,21.22c.1,3.54.06,7.09,0,10.63l0,10.62-.05,10.63,0,5.32c0,1.77-.12,3.53-.17,5.3L524.54,310l-.2,5.3c-.08,1.77-.15,3.54-.13,5.3l0,10.61-.06,21.22v-.09l2.42,34.06a.38.38,0,0,1,0,.15l-.45,8.52c-.12,2.84-.27,5.68-.51,8.51l-1.31,17v-.07l.32,17,.26,17.05-1.14-17-1.08-17v-.07l.54-17.06c.07-2.84.22-5.68.41-8.52l.47-8.51v.16l-2.42-34.06v-.09l.06-21.25,0-10.62c0-1.77,0-3.54.13-5.31L522,310l.81-21.21c.06-1.77.16-3.54.17-5.31l0-5.3.05-10.6,0-10.61c0-3.53.06-7.07,0-10.61l-.4-21.22c-.05-3.54-.17-7.08-.17-10.62V203.86l0-21.24.87,1.19-36.18-11.49-36.36-10.87c-6.09-1.71-12.17-3.46-18.27-5.13-3.05-.83-6.07-1.79-9.09-2.71l-9.07-2.79C402.29,147.42,390.09,144,377.92,140.55Z"/>
    <path class="c" d="M523.91,183.56c8.35,2.27,16.67,4.65,25,7,4.16,1.18,8.31,2.37,12.51,3.43l12.46,3.58c8.31,2.39,16.67,4.64,24.87,7.41l24.71,7.94a1.25,1.25,0,0,1,.87,1.23l-1,29.32c-.49,9.77-.32,19.56-.33,29.34s.15,19.57-.21,29.36L622,331.52v-.11l1.37,19.46c.46,6.48.88,13,1.39,19.46h0v.14c-.23,3.24-.54,6.48-.81,9.72l-.84,9.71q-.81,9.72-1.73,19.43.15-9.75.38-19.5l.21-9.75c.08-3.25.12-6.5.24-9.74v.15c-.4-6.49-.89-13-1.34-19.46l-1.36-19.46v-.12l.72-29.33c.36-9.77.19-19.57.21-29.35s-.16-19.57.33-29.36l1-29.35.87,1.23L598,207.36c-8.19-2.76-16.54-5-24.85-7.39l-12.48-3.53c-4.16-1.2-8.21-2.74-12.3-4.16C540.21,189.39,532,186.52,523.91,183.56Z"/>
    <path class="c" d="M394.9,84.52c10.86,3.74,21.65,7.64,32.46,11.46,2.76.82,5.49,1.69,8.18,2.67l8.15,2.78L460,107l32.31,11.91,32.4,11.61a1.23,1.23,0,0,1,.83,1.19L525,165.15a1.27,1.27,0,0,1-1.54,1.2l-31.67-7.6-.09,0L468,151.09c-7.85-2.75-16-4.58-24-6.72l-6.05-1.56c-2-.51-4-1-6-1.59-4-1.06-7.91-2.62-11.84-4-7.85-2.84-15.69-5.67-23.5-8.57,8,2.28,16,4.62,24,7,4,1.14,7.95,2.44,12.05,3.25,2,.46,4,1,6,1.55l6.05,1.57c8.05,2.14,16.17,4,24.06,6.72l23.81,7.65-.09,0,31.66,7.6-1.54,1.2.48-33.47.83,1.19-32.41-11.61-32.3-11.91-16.3-5.54L434.68,101q-4.1-1.32-8.11-2.87C416,93.6,405.42,89.15,394.9,84.52Z"/>
    <path class="c" d="M397.93,95.59a23.78,23.78,0,0,1,1.21,3c0,1,0,2-.06,3l-.1,6-.1,6-.05,3a32.05,32.05,0,0,1-1.3,3,29.16,29.16,0,0,1-1.2-3l.05-3,.1-6,.1-6c0-1,.05-2,0-3A25,25,0,0,1,397.93,95.59Z"/>
    <path class="c" d="M389,84.21a11.23,11.23,0,0,1-.31,2c-.41.35-.79.73-1.19,1.1l-2.35,2.21-2.36,2.22-1.18,1.11a15.86,15.86,0,0,1-2,.2,14.73,14.73,0,0,1,.32-2L381.05,90l2.35-2.22,2.36-2.21c.39-.38.79-.73,1.17-1.12A11.79,11.79,0,0,1,389,84.21Z"/>
    <path class="c" d="M507.36,161.17a12.79,12.79,0,0,1,1.28,1.81c0,.6,0,1.21,0,1.82l0,3.64,0,3.64v1.82a15.15,15.15,0,0,1-1.24,1.83,18.07,18.07,0,0,1-1.26-1.82v-1.82l0-3.63,0-3.64c0-.61,0-1.22,0-1.82A13.23,13.23,0,0,1,507.36,161.17Z"/>
    <path class="c" d="M394.59,137.91q4.2.36,8.37.83l4.17.49c.7.09,1.37.3,2.05.44l2.05.42,16.38,3.41.11,0,32,9.77,15.67,5.85,1.95.73c.66.25,1.33.42,2,.73l3.79,1.82c2.52,1.22,5,2.46,7.53,3.74q-4.08-1-8.13-2.11l-4-1.1c-.68-.18-1.31-.49-2-.73l-1.95-.73-15.63-5.83L427,145.92l.11,0-16.38-3.41-2.05-.42c-.68-.15-1.38-.22-2.05-.42l-4-1.22Q398.58,139.25,394.59,137.91Z"/>
    <path class="c" d="M391.53,125.64a13.74,13.74,0,0,1-.83,2c-.52.29-1,.62-1.52.94l-3,1.9-3,1.91-1.51,1a16.34,16.34,0,0,1-2.17-.11,15.35,15.35,0,0,1,.84-2l1.51-1,3-1.9,3-1.91c.5-.32,1-.62,1.5-1A12.68,12.68,0,0,1,391.53,125.64Z"/>
    <path class="c" d="M410.61,246.23a13.75,13.75,0,0,1-.08,2.34c-.4.53-.76,1.08-1.13,1.62l-2.25,3.25-2.25,3.25-1.12,1.62a18.29,18.29,0,0,1-2.15.92,17.82,17.82,0,0,1,.09-2.34l1.13-1.62,2.24-3.25,2.25-3.25c.37-.55.76-1.08,1.11-1.63A14.15,14.15,0,0,1,410.61,246.23Z"/>
    <path class="c" d="M508.3,263.82a11.29,11.29,0,0,1-.28,1.95c-.39.32-.76.68-1.14,1l-2.25,2-2.25,2-1.13,1a13.72,13.72,0,0,1-2,.09,13.88,13.88,0,0,1,.29-1.94l1.12-1,2.26-2,2.25-2c.37-.34.76-.66,1.12-1A11.38,11.38,0,0,1,508.3,263.82Z"/>
    <path class="c" d="M429,207.89c.41,1.36.67,2.71.94,4.06-.13,1.32-.22,2.65-.34,4l-.64,7.93-.65,7.93-.32,4c-.49,1.29-1,2.58-1.57,3.86-.39-1.36-.65-2.71-.92-4.06l.32-4,.65-7.93.64-7.93c.1-1.32.23-2.64.31-4A40.69,40.69,0,0,1,429,207.89Z"/>
    <path class="c" d="M460.48,217.32a33.66,33.66,0,0,1,1.46,3.35c0,1.14.13,2.29.19,3.43l.41,6.86.41,6.85.21,3.43c-.31,1.17-.61,2.33-1.05,3.51-.57-1.12-1-2.24-1.45-3.36l-.2-3.43-.41-6.85-.41-6.86c-.08-1.14-.13-2.29-.22-3.43A29.14,29.14,0,0,1,460.48,217.32Z"/>
    <path class="c" d="M488.57,224.17a34.22,34.22,0,0,1,1.1,3.49c-.08,1.14-.11,2.29-.17,3.43l-.32,6.86-.32,6.86-.16,3.42c-.43,1.13-.85,2.26-1.4,3.38-.45-1.17-.77-2.33-1.09-3.49l.16-3.43.31-6.86L487,231c.05-1.14.12-2.28.15-3.43A30.26,30.26,0,0,1,488.57,224.17Z"/>
    <path class="c" d="M422.4,191.26l7.11,8.62-.18-.11,21.91,4.51,11,2.26c3.66.76,7.32,1.46,10.94,2.37l43.11,12-1.53,1.54-4.54-16.24,1,.89-22.78-4.43c-7.61-1.38-15.14-3.17-22.69-4.85s-15.1-3.37-22.63-5.13l-22.6-5.22,1-.21-11,8,.51-1,.77,50.8-1-1.21,24.63,4.84,6.16,1.21c2.05.4,4.08.89,6.13,1.33l12.24,2.71,12.25,2.72,3.06.68,3.08.56,6.17,1.11c2.06.37,4.12.71,6.17,1.11l6.15,1.25,12.28,2.52-1,.87-.49-16.83L507.18,231l1.33,16.79,1.27,16.8a.82.82,0,0,1-.76.88h-.23l-12.41-1.95-6.2-1c-2.06-.35-4.11-.76-6.17-1.14l-6.18-1.12-3.08-.56-3.07-.68-12.25-2.72-12.25-2.71c-2.05-.44-4.08-.93-6.13-1.33l-6.15-1.21-24.62-4.83a1.24,1.24,0,0,1-1-1.21l-.78-50.81a1.26,1.26,0,0,1,.52-1l11-8a1.3,1.3,0,0,1,1-.21l22.6,5.22c7.53,1.76,15.07,3.42,22.61,5.12s15.05,3.47,22.66,4.85l22.75,4.43a1.26,1.26,0,0,1,1,.89l4.54,16.23a1.25,1.25,0,0,1-.87,1.54,1.27,1.27,0,0,1-.67,0l-43.08-11.89c-3.64-.81-7.24-1.75-10.84-2.67l-10.83-2.77-21.65-5.55h0a.31.31,0,0,1-.16-.11Z"/>
    <path class="c" d="M398.9,192.5c.42,2.41.7,4.81,1,7.21l-.29,7.16L399,221.2l.39,14.33.19,7.16c-.31,2.4-.62,4.8-1.05,7.2-.57-2.38-1-4.76-1.45-7.15l-.19-7.19-.39-14.37.58-14.36.27-7.19C397.82,197.25,398.28,194.87,398.9,192.5Z"/>
    <path class="c" d="M427.21,229.85c3.47.2,6.9.55,10.34.89l10.07,2.14,20.15,4.25,20.16,4.26L498,243.53c3.28,1.08,6.56,2.15,9.82,3.35-3.47-.22-6.9-.57-10.34-.91l-10.07-2.13-20.15-4.26-20.15-4.26L437,233.21C433.75,232.14,430.46,231.07,427.21,229.85Z"/>
    <path class="c" d="M409.22,350.88a14,14,0,0,1,0,2.34c-.38.54-.72,1.1-1.08,1.65l-2.15,3.3-2.15,3.31-1.08,1.65a16.57,16.57,0,0,1-2.12,1,18,18,0,0,1,0-2.33l1.07-1.65,2.15-3.31,2.15-3.3c.36-.56.73-1.1,1.07-1.66A14.43,14.43,0,0,1,409.22,350.88Z"/>
    <path class="c" d="M508.09,363.48a11,11,0,0,1,0,2c-.34.38-.65.78-1,1.17L505.21,369l-1.92,2.36-1,1.18a13.56,13.56,0,0,1-1.94.4,14.38,14.38,0,0,1,0-2l1-1.19,1.92-2.36,1.93-2.36c.32-.4.65-.78.95-1.19A10.93,10.93,0,0,1,508.09,363.48Z"/>
    <path class="c" d="M428.62,313.33a39.82,39.82,0,0,1,1,4c-.11,1.32-.17,2.64-.25,4l-.49,7.93-.48,7.93-.24,4c-.46,1.29-.91,2.59-1.49,3.88-.42-1.35-.7-2.69-1-4l.24-4,.48-7.93.48-7.93c.07-1.32.17-2.64.23-4A41.25,41.25,0,0,1,428.62,313.33Z"/>
    <path class="c" d="M488.08,322.76a30.43,30.43,0,0,1,1.37,3.39c0,1.14.07,2.28.1,3.42l.21,6.86.22,6.86.11,3.43c-.35,1.15-.68,2.31-1.15,3.47-.53-1.13-.94-2.26-1.35-3.39l-.11-3.43-.22-6.86-.21-6.86c0-1.14-.06-2.28-.12-3.42A31.31,31.31,0,0,1,488.08,322.76Z"/>
    <path class="c" d="M422.8,296.45l7,7.93-.24-.14,21.73,3c7.26.89,14.43,2.32,21.64,3.49l43.21,7.4-1.35,1.72L509,306.3l.84.72-29.21-7.38.15,0-30-3.67-30.07-3.46.81-.18-12.72,8,.58-1.08.58,26,.29,13c.1,4.33.16,8.65.31,13L409.31,350c3.49.26,7,.73,10.44,1.09l10.44,1.15q10.46,1.14,20.88,2.37-10.5-.44-21-1l-10.49-.51c-3.49-.2-7-.29-10.49-.58h0a1.26,1.26,0,0,1-1.15-1.24c-.05-4.33-.18-8.66-.26-13l-.29-13-.58-26a1.25,1.25,0,0,1,.59-1.08l12.72-8.05a1.29,1.29,0,0,1,.81-.18L451,293.52l30.06,3.67.15,0,29.21,7.37a1.27,1.27,0,0,1,.84.72l5.87,13.55a1.26,1.26,0,0,1-.65,1.65,1.25,1.25,0,0,1-.71.08l-43.21-7.39c-7.19-1.27-14.43-2.29-21.58-3.86L429.47,305h0a.3.3,0,0,1-.21-.13Z"/>
    <path class="c" d="M397.83,292.5c.51,2.62.87,5.24,1.24,7.85l0,7.86,0,15.7.39,15.69.2,7.85c-.32,2.63-.62,5.25-1.06,7.88-.56-2.6-1-5.21-1.44-7.82l-.2-7.86-.39-15.72,0-15.71v-7.86C396.92,297.74,397.3,295.12,397.83,292.5Z"/>
    <path class="c" d="M442.55,468.49c-.62-6.21-1.08-12.42-1.61-18.63-.12-1.56-.29-3.11-.31-4.66s-.05-3.11-.1-4.67l-.25-9.33-.3-37.33,1.19,1.24-36.12-1.93,1.31-1.32,1.67,32v.1h0c0,2.58-.16,5.15-.18,7.72s-.39,5.14-.58,7.7l-.63,7.71c-.2,2.57-.46,5.13-.69,7.7-.09-2.58-.21-5.15-.27-7.73l-.22-7.72c0-2.58-.19-5.16-.16-7.73s.15-5.14.23-7.71v.1l-1.67-32a1.24,1.24,0,0,1,1.18-1.31h.13l36.12,1.93a1.24,1.24,0,0,1,1.18,1.24l.3,37.31.25,9.32c0,1.55.09,3.11.16,4.66s0,3.11-.05,4.67C443,456,442.83,462.26,442.55,468.49Z"/>
    <path class="c" d="M469.55,390.16c2.33-.29,4.65-.43,7-.58l6.85.68L497,391.61h-.17l13.75-.54,6.87-.27c2.3.29,4.61.57,6.92,1-2.27.59-4.55,1.05-6.82,1.52l-6.87.27L497,394.1h-.17l-13.69-1.35-6.84-.66C474,391.5,471.78,390.91,469.55,390.16Z"/>
    <path class="c" d="M469.51,405.51c2.32-.35,4.63-.56,6.93-.77l6.84.5,13.69,1,13.71.22,6.86.11c2.27.42,4.55.82,6.84,1.36-2.3.46-4.6.8-6.9,1.14l-6.87-.11-13.75-.22-13.72-1-6.86-.48C474,406.73,471.76,406.2,469.51,405.51Z"/>
    <path class="c" d="M469.62,424.79c2.21-.79,4.45-1.44,6.68-2.09l6.84-.82,13.68-1.66,13.72-1.14,6.87-.56c2.32.19,4.64.37,7,.68-2.25.68-4.5,1.24-6.75,1.81l-6.86.56-13.7,1.13-13.65,1.67-6.83.84C474.28,425.12,472,425,469.62,424.79Z"/>
    <path class="c" d="M469.31,439.45c2.23-.83,4.48-1.52,6.73-2.21l6.91-.95,13.81-1.93,13.87-1.48,6.93-.74c2.35.13,4.7.26,7.07.51-2.26.74-4.53,1.35-6.79,2l-6.93.74-13.84,1.47-13.79,1.93-6.9,1C474,439.69,471.69,439.65,469.31,439.45Z"/>
    <path class="c" d="M469.35,455.73c2.18-1,4.4-1.82,6.62-2.66l6.89-1.42,13.77-2.85,13.85-2.38,6.93-1.2c2.37,0,4.74-.05,7.14,0-2.23.89-4.47,1.65-6.71,2.43l-6.92,1.19-13.83,2.38-13.74,2.85-6.87,1.43C474.11,455.65,471.74,455.76,469.35,455.73Z"/>
    <path class="c" d="M535.55,306.63c3.71-.08,7.42-.1,11.13-.1l5.56,0H555c.93,0,1.85.11,2.77.17L580,308a1.25,1.25,0,0,1,1.17,1.25l.08,43.37a1.25,1.25,0,0,1-1.25,1.25h-.11l-44.57-3.94a1.25,1.25,0,0,1-1.14-1.3h0c0-.94.05-1.88.14-2.81l.31-2.8.65-5.61c.42-3.74.86-7.47,1.35-11.2.09,3.76.12,7.52.15,11.28l0,5.64,0,2.82c0,.94-.11,1.88-.16,2.81l-1.14-1.31,44.57,3.94-1.36,1.25-.08-43.38,1.18,1.25-22.17-1.3c-.93-.05-1.85-.06-2.78-.16l-2.76-.33-5.52-.67C542.91,307.6,539.22,307.14,535.55,306.63Z"/>
    <path class="c" d="M524.92,313.48a10.11,10.11,0,0,1,1.23-1.17c.38.05.76.06,1.13.1l2.26.17,2.27.18,1.13.09a12.83,12.83,0,0,1,1,1.33,10.92,10.92,0,0,1-1.23,1.16l-1.13-.09-2.26-.17-2.26-.18c-.38,0-.76-.07-1.14-.08A11.15,11.15,0,0,1,524.92,313.48Z"/>
    <path class="c" d="M524.74,342.73a8.82,8.82,0,0,1,1.17-1.24c.38,0,.76,0,1.14,0l2.29.05,2.28.05,1.15,0a14.64,14.64,0,0,1,1.12,1.27,12.77,12.77,0,0,1-1.17,1.23l-1.15,0-2.28-.05L527,344c-.38,0-.76,0-1.15,0A10.43,10.43,0,0,1,524.74,342.73Z"/>
    <path class="c" d="M590.07,310.75a39.09,39.09,0,0,1,1.13,3.91c-.07,1.28-.1,2.57-.15,3.85l-.28,7.72-.27,7.71-.14,3.86c-.42,1.27-.84,2.55-1.38,3.82-.46-1.31-.78-2.61-1.11-3.91l.13-3.85.28-7.72.27-7.71c0-1.29.1-2.58.12-3.86C589.09,313.29,589.51,312,590.07,310.75Z"/>
    <path class="c" d="M562.75,388.76c.48,2.12.81,4.24,1.14,6.35l-.13,6.32-.24,12.65-.25,12.64-.12,6.32c-.42,2.1-.83,4.2-1.37,6.3-.46-2.12-.79-4.23-1.13-6.35l.12-6.32L561,414l.24-12.65.11-6.32C561.78,393,562.19,390.86,562.75,388.76Z"/>
    <path class="c" d="M596,434.2c-.44-4.16-.79-8.32-1.16-12.47l-.54-6.24c-.1-1-.11-2.08-.11-3.12s-.05-2.08-.07-3.13l-.63-25,1.21,1.22-41-1.24L555,383l-.28,31.61-.14,7.9c-.05,1.32,0,2.64-.06,4s-.2,2.63-.3,3.94c-.43,5.27-.8,10.53-1.31,15.79-.32-5.28-.51-10.55-.76-15.82,0-1.32-.13-2.63-.16-3.95s.08-2.63.09-3.95l.14-7.9.28-31.6a1.24,1.24,0,0,1,1.26-1.24h0l41,1.24A1.26,1.26,0,0,1,596,384.2l.63,25c0,1,0,2.08.09,3.12s.09,2.09,0,3.13l-.23,6.25C596.42,425.85,596.27,430,596,434.2Z"/>
    <path class="c" d="M546.62,222.18c4.5,1.12,9.14,2.22,13.9,3.34l7.22,1.69c2.43.58,4.9,1.11,7.3,1.88l-.09,0c2.51.55,5,1,7.55,1.57l7.56,1.56,15.13,3.11a1.25,1.25,0,0,1,1,1.22l.2,42.45a1.25,1.25,0,0,1-1.25,1.25h-.2l-29.21-4.8-14.65-2.08-14.65-2.06a1.26,1.26,0,0,1-1.08-1.24l0-12.24,0-6.13c0-2.06,0-4.09.16-6.07C546,237.62,546.34,229.79,546.62,222.18Zm0,0c.27,8.34.59,16.46,1,24.44.12,2,.19,4,.15,5.89l0,5.84,0,11.69-1.08-1.24,14.67,2.06L576.1,273l29.23,4.8L603.88,279l-.2-42.45,1,1.22-15.12-3.11L582,233.09c-2.52-.51-5-1.05-7.57-1.54h0l-.07,0c-2.28-.58-4.48-1.41-6.74-2.19L560.79,227C556.19,225.38,551.47,223.76,546.62,222.18Z"/>
    <path class="c" d="M576.18,231c.57,1.77,1,3.54,1.42,5.32l.14,5.36.31,10.71.31,10.71.15,5.36c-.33,1.8-.64,3.59-1.09,5.39-.56-1.77-1-3.54-1.41-5.32l-.15-5.35-.31-10.72-.31-10.71-.17-5.36C575.39,234.63,575.71,232.84,576.18,231Z"/>
    <path class="c" d="M606.67,190.2q7.55-.62,15.09-1.11a.58.58,0,0,1,.32.06l0,0,9.8,5.12c3.31,1.64,6.42,3.63,9.63,5.43l19.14,11a1.28,1.28,0,0,1,.63,1l1.21,34.52v.11L660.69,281l-.41,34.62.07,34.62.14,4.33c0,1.44,0,2.89,0,4.33l-.13,8.66c-.08,5.78-.17,11.56-.32,17.34-.45-5.77-.84-11.54-1.22-17.31L658.2,359c-.09-1.45-.21-2.89-.27-4.33l-.08-4.33-.07-34.68.41-34.68,1.86-34.62v.11l-1.21-34.52.63,1-19.15-11c-3.18-1.87-6.45-3.56-9.53-5.61l-9.34-5.91.36.09C616.76,190.41,611.72,190.33,606.67,190.2Z"/>
    <path class="c" d="M621.18,206.17a16.06,16.06,0,0,1-1-2.27c.1-.72.16-1.43.24-2.15l.45-4.28.46-4.29.23-2.14a17.72,17.72,0,0,1,1.47-2,19.5,19.5,0,0,1,1,2.27l-.23,2.15-.45,4.28-.46,4.29c-.07.71-.16,1.43-.21,2.14A15.78,15.78,0,0,1,621.18,206.17Z"/>
    <path class="c" d="M647.72,228.46a35.91,35.91,0,0,1,1.21,3.87c0,1.29,0,2.58-.06,3.86l-.11,7.72-.1,7.71-.06,3.86c-.39,1.28-.78,2.56-1.3,3.84-.48-1.29-.83-2.58-1.2-3.87l.06-3.86.1-7.72.11-7.71c0-1.29,0-2.57,0-3.86C646.8,231,647.19,229.74,647.72,228.46Z"/>
    <path class="c" d="M646.36,282.47a38.1,38.1,0,0,1,1.4,3.81c0,1.28.09,2.57.13,3.86l.27,7.71.28,7.72.14,3.85c-.33,1.3-.66,2.6-1.11,3.91-.55-1.27-1-2.54-1.39-3.82l-.14-3.85-.27-7.72-.28-7.71c0-1.29-.08-2.58-.15-3.86A38.09,38.09,0,0,1,646.36,282.47Z"/>
    <path class="c" d="M648.44,331.33a29.34,29.34,0,0,1,1.27,3.32c0,1.1,0,2.21,0,3.32l0,6.64,0,6.65v3.32c-.38,1.11-.74,2.21-1.24,3.32a34.43,34.43,0,0,1-1.26-3.31v-3.33l0-6.64,0-6.64c0-1.11,0-2.22,0-3.33A30.67,30.67,0,0,1,648.44,331.33Z"/>
    <path class="c" d="M550.11,320.65a7.2,7.2,0,0,1,4.84-3.81,13.23,13.23,0,0,1,6.24,1,13.1,13.1,0,0,1,5,3.82,12.41,12.41,0,0,1,2.5,5.8A13.74,13.74,0,0,1,565,339.08a12.85,12.85,0,0,1-5.37,3.27,12.38,12.38,0,0,1-6.06-.73,15,15,0,0,0,5.31-1.65,10.45,10.45,0,0,0,4.34-2.64,11.28,11.28,0,0,0,3.07-9.49,9.77,9.77,0,0,0-2-4.63,10.51,10.51,0,0,0-4-3.07,10.28,10.28,0,0,0-5-.79A7.07,7.07,0,0,0,550.11,320.65Z"/>
    <path class="c" d="M545.92,290.07c2.46.18,4.92.41,7.37.65l3.67.39a23.15,23.15,0,0,1,3.64.54l14.45,2.83-.16,0,29.75,1.91a1.24,1.24,0,0,1,1.17,1.28l-.72,22.43-.19,5.61c0,.94-.07,1.87-.06,2.81s-.18,1.86-.27,2.79c-.45,3.73-.92,7.46-1.46,11.18-.3-3.75-.53-7.5-.73-11.25,0-.93-.14-1.87-.09-2.81s.08-1.87.12-2.8l.18-5.61.73-22.43,1.16,1.29L574.73,297l-.16,0-14.45-2.82a23.6,23.6,0,0,1-3.58-.86l-3.55-1C550.63,291.53,548.27,290.82,545.92,290.07Z"/>
    <path class="c" d="M529.64,168c2.06-1,4.12-2,6.19-2.91l3.11-1.39a20.4,20.4,0,0,1,3.16-1.26L555,158.08l25.72-8.73a1.26,1.26,0,0,1,1.31.32L596.58,165l3.64,3.84a38.88,38.88,0,0,1,3.54,3.94c2.2,2.78,4.37,5.58,6.49,8.44q-4.11-3.41-8.09-6.92a38.94,38.94,0,0,1-3.75-3.74l-3.65-3.84-14.57-15.36,1.31.32-25.73,8.73-12.86,4.38a21.12,21.12,0,0,1-3.27.93l-3.32.78C534.1,167,531.88,167.53,529.64,168Z"/>
    <path class="c" d="M572.36,150.75c-2,.42-4,.68-6,.95l-5.93-.32-11.85-.61-11.85-.61-5.92-.31c-2-.48-3.91-.95-5.86-1.56,2-.39,4-.66,6-.94l5.92.31,11.85.61,11.85.62,5.93.29C568.45,149.66,570.41,150.13,572.36,150.75Z"/>
    <path class="c" d="M541.71,163.6a25.27,25.27,0,0,1,1.53,2.77c.06,1,.17,1.94.26,2.9l.54,5.79.55,5.79.27,2.9c-.29,1-.57,2-1,3a29.15,29.15,0,0,1-1.52-2.78l-.27-2.89-.55-5.79-.54-5.79c-.1-1-.17-1.94-.29-2.9A24,24,0,0,1,541.71,163.6Z"/>
    <path class="c" d="M604,177.94a36.8,36.8,0,0,1,1.5,3.61c0,1.24.15,2.47.23,3.7l.47,7.39.48,7.4.24,3.69c-.3,1.26-.59,2.51-1,3.78-.58-1.2-1-2.41-1.49-3.62l-.24-3.69-.47-7.4-.48-7.39c-.08-1.23-.15-2.46-.25-3.69A36,36,0,0,1,604,177.94Z"/>
    <path class="c" d="M682.07,349.21c3.65-.5,7.31-.85,11-1.2l11,.06,21.91.11H726l21.8,2.34,10.89,1.17c3.6.77,7.19,1.52,10.77,2.41-3.69.11-7.36.09-11,.08L747.55,353l-21.8-2.34h.13L704,350.57l-11-.05C689.37,350.14,685.72,349.75,682.07,349.21Z"/>
    <path class="c" d="M769.38,331.83c-3.72-.33-7.42-.8-11.11-1.28L747.44,328l-21.65-5,.12,0-22.06-2.72-11-1.36c-3.63-.84-7.26-1.66-10.87-2.61,3.74,0,7.46.05,11.18.12l11,1.37,22.06,2.72.13,0,21.66,5,10.83,2.49C762.36,329.29,765.89,330.49,769.38,331.83Z"/>
    <path class="c" d="M769.4,309.59c-3.75-.51-7.45-1.15-11.16-1.81l-10.82-3-21.64-6-21.9-5.06-10.94-2.52c-3.57-1.22-7.13-2.42-10.67-3.75,3.76.36,7.5.84,11.24,1.31l11,2.53,21.93,5.06,21.67,6,10.84,3C762.42,306.72,765.93,308.08,769.4,309.59Z"/>
    <path class="c" d="M-.84-52l23,6.74,11.49,3.4c1.91.6,3.85,1.09,5.78,1.59l5.8,1.5,23.2,6c7.7,2.12,15.44,4.11,23.17,6.13L138-14.45c7.72,2.06,15.47,4,23.21,6l23.24,5.9a1.25,1.25,0,0,1,.94,1.21q0,30.42.2,60.86l0,7.61c0,2.54-.11,5.07-.16,7.6l-.4,15.21-.2,7.6c0,2.53-.19,5.07-.11,7.6l.21,15.21c.5,20.27-.07,40.55.19,60.84l.18,15.22.08,7.61c0,1.27.06,2.54,0,3.81l-.14,3.8-1.08,30.43V242l1.35,34.77-.23,17.4c-.09,5.8-.08,11.6-.27,17.39l-.64,34.77-1.1,34.76-.17-34.77-.51-34.77c0-5.8.12-11.58.19-17.37l.23-17.37-1.35-34.72V242l1.08-30.38.14-3.79c0-1.27,0-2.54,0-3.81l-.08-7.6-.18-15.2c-.26-20.27.31-40.55-.19-60.85l-.21-15.21c-.08-2.54.07-5.07.11-7.61l.2-7.6L183,74.7c0-2.54.17-5.07.16-7.61l0-7.6q-.2-30.41-.2-60.83l.94,1.2L160.58-6c-7.75-2-15.5-3.93-23.22-6L91-24.21l-11.6-3-5.81-1.49c-1.94-.49-3.86-1.07-5.78-1.6l-23-6.79L39-38.81c-1.92-.56-3.84-1.12-5.73-1.78L21.9-44.38Z"/>
    <path class="c" d="M-1.23,55.06c9.37,1.61,18.72,3.3,28.08,5l14,2.5c4.68.78,9.31,1.88,14,2.78,9.31,1.83,18.57,4,28,5.12L111,74.51l.11,0,37.74,8.88-1.53,1.19.41-28.46v.09L146.1,29.51l.92,1.13L110.24,20.39,73.49,10l.1,0L54.73,6.32,45.29,4.47C42.15,3.84,39,3.09,35.91,2.39,23.5-.85,11.08-4-1.31-7.35,11.27-4.87,23.81-2.26,36.36.3c3.15.55,6.32,1,9.46,1.67l9.42,1.9L74.08,7.61l.09,0L110.92,18l36.77,10.25a1.25,1.25,0,0,1,.91,1.12l1.67,26.73v.09l-.41,28.47a1.25,1.25,0,0,1-1.27,1.23,1.18,1.18,0,0,1-.27,0L110.58,77l.11,0L82.44,72.91c-9.45-1.13-18.73-3.3-28.06-5.13-4.65-1-9.35-1.77-14-2.88L26.52,61.66C17.26,59.48,8,57.31-1.23,55.06Z"/>
    <path class="c" d="M148.13,28.9c-1.52,1.16-3.09,2.2-4.67,3.23a4.49,4.49,0,0,1-.59.37c-.21.1-.44.16-.65.25l-1.29.53-2.56,1.07-10.24,4.3.76-1.25.49,6c.09,1,.14,2,.27,3a16.81,16.81,0,0,1-1,3.1,16.08,16.08,0,0,1-1.51-2.9c0-1-.15-2-.22-3l-.49-6a1.24,1.24,0,0,1,.76-1.25l10.24-4.3L140,31l1.27-.54c.22-.09.42-.21.63-.29a5.35,5.35,0,0,1,.69-.17C144.4,29.57,146.24,29.18,148.13,28.9Z"/>
    <path class="c" d="M118,37.48q-5.07-.66-10.13-1.42l-5-.77c-.84-.13-1.66-.39-2.48-.58l-2.49-.57L78,29.59,38.11,21.3l-.1,0-19.6-5.7L16,14.86c-.81-.24-1.65-.4-2.45-.71L8.72,12.36C5.52,11.17,2.34,9.93-.84,8.67q5,1,10.05,2l5,1.06c.84.17,1.63.48,2.45.71l2.45.72,19.6,5.7-.09,0,39.92,8.29L98.41,31.7l2.48.57c.83.19,1.67.32,2.49.56l4.89,1.51Q113.15,35.84,118,37.48Z"/>
    <path class="c" d="M-1.12,170.2c12.43,1.58,24.81,3.32,37.19,5,3.12.23,6.25.39,9.36.69l9.34.9,18.67,1.76,37.3,4.5,37.2,5.15-1.42,1.3-1.17-26.79.63-26.8,1,1.24-36.65-9L73.14,121.5l-18.61-3.16-9.32-1.55c-3.1-.52-6.18-1.19-9.27-1.78-12.38-2.32-24.76-4.59-37.13-7,12.5,1.56,25,3.25,37.48,4.88,3.11.46,6.24.85,9.34,1.38l9.31,1.61L73.57,119l37.23,6.65,36.72,9a1.26,1.26,0,0,1,1,1.25l-.63,26.71L149,189.37a1.25,1.25,0,0,1-1.2,1.3h-.22l-37.18-5.15L73.18,181l-18.7-1.76-9.36-.85c-3.12-.29-6.22-.7-9.32-1.08C23.48,175,11.16,172.66-1.12,170.2Z"/>
    <path class="c" d="M148.36,135.5q-2.28,2-4.65,3.83a31.83,31.83,0,0,1-5,3.2l-10.3,5.94.61-1.29.86,5,.44,2.52c.21.39-.07.88-.21,1.33s-.37.93-.59,1.4c-.37-.37-.71-.74-1-1.12s-.71-.74-.64-1.19l-.43-2.52-.86-5.05a1.24,1.24,0,0,1,.6-1.29l10.3-5.95a31.82,31.82,0,0,1,5.28-2.74C144.57,136.87,146.46,136.16,148.36,135.5Z"/>
    <path class="c" d="M118.08,145.93c-5.06-.17-10.1-.49-15.15-.82L88,143c-10-1.22-19.92-3.12-29.87-4.8l-29.81-5.1-14.91-2.5c-4.9-1.21-9.81-2.41-14.7-3.74,5.05.34,10.09.81,15.12,1.27l14.91,2.51,29.79,5.09c9.94,1.68,19.84,3.58,29.84,4.8l15,2.05C108.23,143.67,113.16,144.73,118.08,145.93Z"/>
    <path class="c" d="M251.22,337.3,199,333.39a.83.83,0,0,1-.78-.83v0L198,303.94c.07-9.53,0-19.06,0-28.6-.17-19.06.1-38.13.22-57.19s.59-38.12.05-57.16c-.19-19.05-1-38.1-1.55-57.15v-.09l1.47-37a1.25,1.25,0,0,1,1.3-1.2h.06l51.82,4.64a1.25,1.25,0,0,1,1.14,1.21l1,33.24.12,4.15V113l0,8.32,0,16.64c.08,22.18-1.91,44.31-1.46,66.47L252.14,221c0,5.54-.12,11.08-.18,16.61l-.2,16.61-.07,4.15c0,1.39-.12,2.77-.08,4.16l.2,8.3.39,16.62.19,8.3.1,4.16-.13,4.2Zm0,0,0-33.28v-4.11l-.22-4.15-.44-8.3-.89-16.61-.45-8.3c-.09-2.77,0-5.54,0-8.32l.23-16.63c.06-5.54.16-11.08.18-16.63l.05-16.63c-.45-22.18,1.54-44.3,1.46-66.45l0-16.6,0-8.3v-4.16l-.12-4.15-1-33.21,1.14,1.21L199.27,68l1.36-1.19-1.47,37v-.09c.58,19.06,1.36,38.11,1.55,57.19.54,19.08.08,38.15-.05,57.22s-.39,38.11-.22,57.18l.05,14.3q.06,7.14,0,14.3l-.58,28.59-.78-.85Z"/>
    <path class="c" d="M237.15,12.44c.5,1.89.85,3.79,1.2,5.69l-.07,5.68-.12,11.36L238,46.52,238,52.2c-.4,1.89-.79,3.78-1.31,5.67-.48-1.9-.83-3.8-1.19-5.69l.06-5.68.12-11.36.12-11.36.05-5.68C236.22,16.21,236.61,14.32,237.15,12.44Z"/>
    <path class="c" d="M184.05,83.7a12.85,12.85,0,0,1,2-1c.6.1,1.21.16,1.82.23l3.63.44,3.63.44,1.81.22a16.93,16.93,0,0,1,1.67,1.46,17,17,0,0,1-2,1l-1.81-.22-3.64-.44-3.63-.44c-.6-.07-1.2-.16-1.81-.21A13.07,13.07,0,0,1,184.05,83.7Z"/>
    <path class="c" d="M190.94,102.19a8.8,8.8,0,0,1,.94-1.29c.33,0,.65,0,1,0l2-.06,2-.06,1,0a10.92,10.92,0,0,1,1,1.22,10.62,10.62,0,0,1-.94,1.28l-1,0-2,.06-2,0c-.32,0-.65,0-1,.05A10.55,10.55,0,0,1,190.94,102.19Z"/>
    <path class="c" d="M184.13,291.47a14.13,14.13,0,0,1,1.91-1.12c.61.07,1.22.1,1.82.15l3.64.28,3.64.28,1.82.14a16.33,16.33,0,0,1,1.73,1.38,15.26,15.26,0,0,1-1.92,1.11l-1.82-.14-3.64-.28-3.64-.27c-.61,0-1.21-.11-1.82-.13A12.73,12.73,0,0,1,184.13,291.47Z"/>
    <path class="c" d="M190.82,312.38a9.87,9.87,0,0,1,1.06-1.19c.32.05.64.05,1,.08l1.93.13,1.94.13,1,.07a11,11,0,0,1,.89,1.31,11.52,11.52,0,0,1-1.06,1.18l-1-.06-1.93-.14-1.94-.13c-.33,0-.65-.05-1-.05A8.76,8.76,0,0,1,190.82,312.38Z"/>
    <path class="c" d="M92.48,31.18c.48,1.68.8,3.35,1.14,5l-.14,5-.24,10-.24,10-.12,5c-.42,1.66-.83,3.31-1.37,5-.46-1.68-.79-3.36-1.13-5l.12-5,.24-10,.24-10,.11-5C91.51,34.49,91.91,32.83,92.48,31.18Z"/>
    <path class="c" d="M35.76,18.28c.56,1.79,1,3.59,1.39,5.38l.12,5.42.27,10.82.26,10.83.13,5.41c-.33,1.82-.66,3.63-1.11,5.45-.55-1.8-1-3.59-1.39-5.39l-.13-5.41L35,40l-.27-10.82-.14-5.41C35,21.91,35.28,20.1,35.76,18.28Z"/>
    <path class="c" d="M92.69,141.58c.4,1.67.66,3.33.92,5l-.34,4.91-.67,9.83-.66,9.82L91.61,176c-.49,1.61-1,3.23-1.58,4.83-.39-1.67-.65-3.33-.92-5l.33-4.91.67-9.82.66-9.82.32-4.92C91.58,144.79,92.05,143.18,92.69,141.58Z"/>
    <path class="c" d="M36.51,134.59c.43,1.74.71,3.48,1,5.21l-.28,5.14-.53,10.29-.53,10.29-.27,5.14c-.47,1.7-.92,3.39-1.51,5.08-.41-1.74-.69-3.47-1-5.21l.26-5.14.53-10.29.54-10.29.25-5.14C35.44,138,35.9,136.28,36.51,134.59Z"/>
    <path class="c" d="M6.07,289.26c11.94.61,23.87,1.38,35.8,2.08,3,.18,6,.3,8.94.53l8.93.78,17.85,1.47c11.94.71,23.88,1.33,35.81,2.11L149,300.46l-1.4,1.3-1.46-28.66V273l.65-27.45,1.12,1.27-35.69-3.6-.14,0L77,235.51l.14,0-17.84-1.89-8.93-.91c-3-.35-5.93-.78-8.89-1.17-11.74-2.4-23.47-4.75-35.16-7.24C18.18,226,30,227.75,41.79,229.48c3,.24,6,.43,8.93.71l8.9,1L77.42,233l.14,0,35.09,7.7-.15,0,35.69,3.6a1.27,1.27,0,0,1,1.13,1.27l-.65,27.46V273l1.47,28.67A1.24,1.24,0,0,1,149,303h-.22l-35.56-4.22c-11.91-.78-23.84-1.4-35.76-2.1l-17.88-1.48-8.93-.71c-3-.26-6-.64-8.92-1C29.81,292.08,17.93,290.75,6.07,289.26Z"/>
    <path class="c" d="M127.47,258.44c.53,1.61.92,3.21,1.3,4.82l0,4.83.08,9.65.07,9.65,0,4.82c-.36,1.61-.72,3.22-1.21,4.84-.51-1.61-.89-3.22-1.29-4.82l0-4.83-.07-9.65-.08-9.65,0-4.82C126.61,261.67,127,260.06,127.47,258.44Z"/>
    <path class="c" d="M117.88,258.13c-4.72-.2-9.42-.54-14.11-.9l-13.92-2.15c-9.27-1.51-18.58-2.67-27.87-4S43.41,248.38,34,247.87l-14-1.12c-4.65-.75-9.29-1.49-13.94-2.36,4.73-.13,9.44-.12,14.16-.13l14.06,1.12c9.39.52,18.68,2.06,28,3.27s18.65,2.45,27.92,4l13.93,2.13C108.73,255.82,113.32,256.91,117.88,258.13Z"/>
    <path class="c" d="M87.7,253.88c.63,1.6,1.1,3.21,1.58,4.82l.31,4.92.63,9.82.64,9.82.32,4.91c-.27,1.67-.53,3.33-.92,5-.61-1.61-1.09-3.22-1.57-4.83l-.32-4.91-.64-9.83-.64-9.82-.33-4.91C87,257.21,87.29,255.55,87.7,253.88Z"/>
    <path class="c" d="M36.54,249.46c.47,1.73.78,3.46,1.1,5.19l-.18,5.14-.33,10.29-.34,10.28-.16,5.15c-.44,1.7-.86,3.4-1.42,5.1-.45-1.73-.76-3.46-1.08-5.18l.16-5.15L34.63,270,35,259.71l.15-5.15C35.54,252.86,36,251.16,36.54,249.46Z"/>
    <circle class="c" cx="553.95" cy="327.47" r="1.82"/>
    <circle class="c" cx="562.52" cy="326.61" r="1.82"/>
    <path class="c" d="M551.38,332.61l1.33-.82a6.32,6.32,0,0,0,.84.27,11.82,11.82,0,0,0,1.76.32,10.6,10.6,0,0,0,1.78.07c.3,0,.59,0,.88-.07.34.35.7.65,1.12,1.09a6.07,6.07,0,0,1-.82,1.39c-.36,0-.72.08-1.08.09a14.14,14.14,0,0,1-2.16-.08,15.07,15.07,0,0,1-2.11-.39l-1-.31A5,5,0,0,1,551.38,332.61Z"/>
    <path class="c" d="M419.79,42.44a84.86,84.86,0,0,1,16.83-23.62A91.88,91.88,0,0,1,461,2.89c17.85-8,37.75-10.61,57.09-9a133,133,0,0,1,55.3,17.06,111.2,111.2,0,0,1,23.16,17.68,90.14,90.14,0,0,1,16.08,24.14,93.94,93.94,0,0,0-17.85-22.37,108.64,108.64,0,0,0-22.65-17.29A130.51,130.51,0,0,0,517.93-3.65c-19-1.55-38.47,1-55.86,8.82a88.49,88.49,0,0,0-23.75,15.51l-2.66,2.37a28.61,28.61,0,0,0-2.59,2.45l-2.46,2.6a31.84,31.84,0,0,0-2.39,2.67c-1.46,1.88-3,3.72-4.42,5.67Z"/>
    <path class="c" d="M618.13,36.68a68.16,68.16,0,0,1,15.49.61,93.3,93.3,0,0,1,14.88,4.56,83,83,0,0,1,26.16,16.67,84.22,84.22,0,0,1,18.06,25.2c.54,1.18,1.16,2.32,1.63,3.53l1.44,3.61.72,1.81.6,1.85.62,1.84c.22.61.44,1.22.6,1.85.57,2.53,1,5.09,1.46,7.62s.61,5.13.88,7.68l-2.19-7.37c-.87-2.41-1.62-4.84-2.54-7.21a18.08,18.08,0,0,1-.6-1.8l-.59-1.8-.59-1.81-.7-1.76-1.41-3.52c-.46-1.18-1.06-2.3-1.59-3.44a81.68,81.68,0,0,0-17.52-24.47,80.54,80.54,0,0,0-25.37-16.16,86.94,86.94,0,0,0-14.47-4.42A90.54,90.54,0,0,0,618.13,36.68Z"/>
    <path class="c" d="M705.25,105a30.58,30.58,0,0,1,7,1.33,52.22,52.22,0,0,1,6.17,3.52,43.13,43.13,0,0,1,10.39,9.65c.75.93,1.39,1.93,2.06,2.92s1.25,2,1.77,3.1a39.49,39.49,0,0,1,2.69,6.61,34.81,34.81,0,0,1,.9,3.44c.28,1.16.47,2.33.64,3.5,0,1.2-.13,2.39-.21,3.57s-.35,2.35-.55,3.51l-.79-3.42c-.33-1.11-.54-2.23-.93-3.31a3.89,3.89,0,0,1-.14-.83c0-.28-.08-.56-.12-.83-.07-.56-.23-1.1-.34-1.65-.21-1.1-.53-2.17-.85-3.25a36.23,36.23,0,0,0-2.53-6.19c-.48-1-1.09-2-1.65-2.91s-1.23-1.87-1.93-2.74A41,41,0,0,0,717,112a44.55,44.55,0,0,0-5.86-3.32A62.21,62.21,0,0,0,705.25,105Z"/>
    <path class="c" d="M736.11,146.17a45.63,45.63,0,0,1,10.53,2.33,46.54,46.54,0,0,1,9.88,4.7,33.48,33.48,0,0,1,12.91,17.61c.25.89.53,1.78.69,2.69a25.54,25.54,0,0,1,.47,2.73l.18,1.38v.12c0-.08,0,.17,0,.17v.18l0,.37,0,.74c-.07.48-.14,1-.23,1.46s-.22,1-.39,1.42a13.25,13.25,0,0,1-8,8.22,8.85,8.85,0,0,1-1.41.44,12.71,12.71,0,0,1-2.93.39c-.49,0-.9,0-1.36,0H676.1c-7.14-.42-14.28-.74-21.42-1.25,7.14-.5,14.28-.82,21.42-1.25h80.36a16.76,16.76,0,0,0,2.51-.1,7.81,7.81,0,0,0,1.17-.23,6.63,6.63,0,0,0,1.15-.35,10.77,10.77,0,0,0,6.45-6.67c.14-.37.21-.77.32-1.15s.12-.79.18-1.19l0-.6,0-.3v-.15s0,.2,0,.08v-.12l-.17-1.28a22.28,22.28,0,0,0-.44-2.55c-.14-.85-.41-1.66-.63-2.49a30.83,30.83,0,0,0-12-16.29A50,50,0,0,0,736.11,146.17Z"/>
    <path class="c" d="M1581.06,61.76c-.34-3.38-.6-6.76-.83-10.13,0-.85-.15-1.69-.15-2.53s.09-1.69.1-2.53l.12-5,.48-20.21a1.24,1.24,0,0,1,.73-1.1l25.83-11.74.12,0L1620.81,4c.56-.19,1.1-.43,1.67-.58L1624.2,3l3.44-.8c2.3-.52,4.6-1,6.92-1.51-2.14,1-4.28,2-6.43,3l-3.23,1.44-1.62.71c-.54.22-1.12.36-1.67.55l-13.35,4.48.11-.05-25.82,11.73.73-1.11-.48,20.21-.13,5.05c0,.84,0,1.69,0,2.53s-.18,1.68-.27,2.52C1582,55,1581.57,58.4,1581.06,61.76Z"/>
    <path class="c" d="M1605.6,178.6a34.79,34.79,0,0,1,1.35,3.58c0,1.21,0,2.41.07,3.62l.17,7.22.17,7.23.08,3.61c-.35,1.21-.69,2.42-1.16,3.64-.53-1.19-.93-2.39-1.33-3.58l-.09-3.61-.17-7.23-.17-7.22c0-1.21,0-2.41-.1-3.62A37.54,37.54,0,0,1,1605.6,178.6Z"/>
    <path class="c" d="M1605,269.64a39.92,39.92,0,0,1,1.46,3.79c0,1.28.13,2.57.19,3.86l.41,7.71.41,7.72.2,3.86c-.31,1.3-.61,2.61-1,3.92-.57-1.26-1-2.53-1.46-3.79l-.2-3.86-.41-7.72-.41-7.71c-.07-1.29-.12-2.57-.21-3.86A35.61,35.61,0,0,1,1605,269.64Z"/>
    <path class="c" d="M1605,88.14c.57,1.33,1,2.66,1.43,4,0,1.35.1,2.7.15,4.05l.34,8.09.33,8.09.17,4c-.32,1.37-.64,2.73-1.08,4.1-.56-1.33-1-2.66-1.42-4l-.17-4.05-.33-8.09-.34-8.09c-.06-1.35-.09-2.7-.18-4A41.49,41.49,0,0,1,1605,88.14Z"/>
    <path class="c" d="M1627.69,19c-2.34,1.57-4.73,3-7.12,4.49-.3.18-.59.37-.9.53s-.64.27-1,.41l-1.91.85L1613,27l-15.2,6.86.73-1-.8,6.74-1.67-1.32,15.46-5.6,3.86-1.4,1.93-.7a9,9,0,0,1,2-.59c2.69-.61,5.39-1.21,8.12-1.73-2.43,1.35-4.88,2.62-7.34,3.87a9,9,0,0,1-1.89.81l-1.94.69-3.86,1.4-15.45,5.6a1.26,1.26,0,0,1-1.67-1.32l.8-6.74a1.23,1.23,0,0,1,.73-1l15.2-6.86,3.8-1.71,1.89-.86c.32-.15.62-.32.94-.45s.67-.22,1-.33C1622.29,20.49,1625,19.67,1627.69,19Z"/>
    <path class="c" d="M1654.5,46.5l.36,7,.31,7,.59,13.94V241.63c-.42,9.29-.74,18.58-1.25,27.87-.51-9.29-.83-18.58-1.25-27.87V74.38l.59-13.94.31-7Z"/>
    <g>
      <path class="d" d="M846.75,425l-15.91,8.52h0l-16.77,6.92h0c-7.91,4.35-15.9,8.55-23.63,13.23s-15.73,8.88-23.65,13.23c-8.1,4-16.3,7.79-24.21,12.13s-16,8.4-24,12.57l0,0-15.34,9.59,0,0,0,0L687,509.09l.09-.06-14.94,10.35,0,0-.06,0c-8.13,3.94-16.2,8-24.46,11.69S631.35,539,623.29,543c-7.83,4.5-15.58,9.09-23.55,13.41-7.81,4.6-16.11,8.24-24.25,12.2l.16-.09L560.79,579l-.11.07-.12.06-16.86,6.75.23-.12L528.9,596l-.08.06-.09,0c-13.67,6.3-27.17,12.83-40.16,20.44-3.27,1.86-6.51,3.75-9.81,5.58l-9.89,5.5L466.39,629c-.82.46-1.64.92-2.5,1.3l-5.12,2.42-10.23,4.84-10.15,4.89-5.07,2.45c-.86.38-1.67.86-2.49,1.32l-2.45,1.39-9.83,5.55c-3.26,1.85-6.65,3.54-10,5.33l-5,2.63-2.5,1.32c-.83.45-1.71.78-2.57,1.18l-10.32,4.59-2.58,1.14c-.86.38-1.73.76-2.55,1.21l-5,2.6-10,5.21,0,0L352.72,688l-.14-.21,15.09-10h0l9.89-5.47,5-2.73a27.08,27.08,0,0,1,2.53-1.26l2.56-1.19,10.24-4.76c.84-.41,1.72-.76,2.54-1.22l2.47-1.35,4.94-2.72c3.28-1.83,6.61-3.56,9.85-5.48l9.78-5.68,2.44-1.42c.82-.47,1.63-1,2.48-1.35l5.08-2.51,10.14-5,10.14-4.92,5.07-2.46c.86-.39,1.67-.86,2.49-1.32l2.45-1.4c6.52-3.71,13.07-7.38,19.6-11.17l4.9-2.82c1.63-1,3.25-1.9,4.94-2.74l10-5.25c1.68-.86,3.33-1.79,5-2.57l5.13-2.37,10.26-4.76-.17.1,15.08-10.1.11-.08.12,0L559.7,577l-.23.13,14.93-10.4.07,0,.09,0c8.13-3.89,16.43-7.46,24.23-12,7.94-4.25,15.76-8.82,23.62-13.29,8.12-4,16.14-8.23,24.44-11.8s16.36-7.65,24.51-11.55l-.1.06,15-10.26,0,0,.05,0L702.64,500l-.06,0L718,490.47h0c8-4.13,16.08-8.21,24.08-12.4s16.17-8,24.3-12c7.94-4.28,16-8.4,23.72-13s15.78-8.77,23.72-13.07h0l16.82-6.8h0l16-8.41Z"/>
      <path class="d" d="M710.58,461.71l-16.46,6.73-16.82,5.75.05,0L662,483.4h-.05l-16.39,6.83h0l-17.09,5.19.07,0-16.23,7.22L596.1,510h0l0,0-16.9,5.61.11,0-11.9,6c-3.93,2.09-8,3.84-12.07,5.69s-8.09,3.72-12.19,5.44L530.82,538l0,0h0l-17,5.35.2-.09-15.56,8.78-.05,0-.07,0-16.36,6.9,0,0-.06,0-17,5.44.13,0-16.21,7.24-16.12,7.45-.07,0-.07,0-16.9,5.41L399,591l.09,0-15.92,8,0,0h0l-12.46,4.73c-4.15,1.61-8.34,3.06-12.52,4.57s-8.43,2.83-12.46,4.7l-12.26,5.21-.1-.23,12.07-5.67c4-2,8.19-3.46,12.32-5.1s8.31-3.16,12.41-4.86l12.35-5-.08,0,15.78-8.25,0,0,.06,0,16.53-6.66,16.91-5.61-.14,0,16.11-7.51,16.25-7.21.07,0,.06,0,17-5.32-.1,0,16.43-6.75-.12.06,15.65-8.64.1,0,.1,0,17-5.21-.09,0,12.28-5.17c4.11-1.69,8.14-3.53,12.2-5.33s8.14-3.53,12.08-5.59l11.91-5.94.06,0,0,0,16.94-5.49-.07,0,16.22-7.24L628,494.4l0,0h0l17.14-5h-.05l16.46-6.66,0,0,15.46-9.08,0,0h0L694,468l16.51-6.57Z"/>
      <path class="d" d="M1171.8,432.86l16.79,7.24,16.69,7.47h0l0,0,15.44,10.13,0,0,16.59,7.69,0,0,17.64,5.42h0c8.29,3.89,16.64,7.62,24.78,11.8s16.32,8.26,24.45,12.43c8.33,3.76,16.74,7.35,24.92,11.47,8.3,3.89,16.32,8.3,24.43,12.53l-.11,0,17.42,5.91h.05l0,0,16.43,8,16.72,7.36.07,0,.07,0,15.45,10.12-.13-.07,12.46,5.7c4.11,2,8.43,3.53,12.68,5.22s8.57,3.21,12.69,5.23l12.5,5.71,0,0,0,0,15.91,9.12-.21-.09,17.43,5.88h0l.06,0,16.77,7.29.09,0,.08,0,15.59,9.8-.29-.13,17.57,5.6.09,0,.08,0,16.38,8.14.06,0,0,0,15.53,9.93-.13-.07,16.59,7.7-.11,0,17.46,5.86.09,0,.07,0,15.91,9.13-.11,0,17.19,6.44.07,0,0,0,15.41,10.15-.08,0,17.54,5.74-.07.24L1667.4,668l0,0,0,0-15.66-9.76.11.06-17.3-6.16h0l-.06,0-16.06-8.85.16.07-17.53-5.64,0,0-.05,0L1584.17,630l-.07,0-.06,0-15.62-9.78.11.06-16.45-8,.18.07-17.59-5.56-.15,0-.14-.08-15.61-9.79.17.09-16.74-7.36.1,0-17.4-6-.12,0-.1-.06-15.85-9.22.09,0-12.42-5.78c-4.09-2-8.4-3.58-12.64-5.3s-8.55-3.27-12.66-5.31l-12.46-5.79-.07,0-.06,0-15.4-10.2.13.07-16.71-7.45-16.42-8.1.1,0-17.39-6-.06,0,0,0c-8.08-4.27-16.07-8.72-24.32-12.64-8.13-4.15-16.54-7.79-24.85-11.6-8.13-4.21-16.21-8.51-24.38-12.6s-16.43-8-24.68-12l.06,0-17.6-5.54h0l-16.54-7.8h0L1205,448l0,0-16.64-7.58-16.73-7.36Z"/>
      <path class="d" d="M1339.14,475.49l16.16,8.88h0l17.21,6.2h0l17.73,4.88h0l0,0,16.29,8.55,0,0,16.92,6.92-.08,0,17.85,4.58h.07l17,6.61h.06c8.24,4,16.31,8.26,24.86,11.52l25.36,10.42c8.54,3.25,17.07,6.52,25.68,9.67,8.67,3,17,6.85,25.42,10.42l-.13,0,17.55,5.33.09,0,.09,0,10.32,4.89,5.15,2.46c1.71.84,3.49,1.51,5.23,2.27l10.5,4.46c1.73.78,3.51,1.46,5.29,2.14l5.32,2.06c7.08,2.78,14.24,5.45,21.39,8.12l2.68,1c.9.33,1.79.66,2.66,1.07l5.22,2.35,10.45,4.69,0,0,17.23,6.22,16.84,7.21-.09.23-17.08-6.56L1661,606.38h0l0,0-10.53-4.42-5.27-2.21c-.87-.39-1.76-.7-2.66-1l-2.69-1c-7.17-2.56-14.34-5.12-21.5-7.81l-5.37-2c-1.79-.66-3.58-1.32-5.34-2.07L1597,581.46c-1.76-.76-3.55-1.43-5.27-2.26l-5.18-2.45-10.35-4.92.18.07-17.52-5.45-.07,0-.06,0c-8.37-3.65-16.62-7.59-25.24-10.64-8.54-3.22-17.07-6.6-25.6-9.9l-25.33-10.65c-8.54-3.33-16.61-7.71-24.83-11.74l0,0-17-6.74.07,0-17.8-4.73H1423l-16.85-7.11h0l-16.2-8.71.09,0-17.68-5.06h0l-17.14-6.38h0L1339,475.7Z"/>
      <path class="d" d="M952.42,512.43l-8.25,15.51v0l-8.09,10.31c-2.8,3.37-5.14,7.07-7.63,10.66s-5,7.18-7.3,10.89l-7.1,11v0l0,0-10.79,13.82.07-.11-8,15.64,0,0,0,0L885.61,615,876,629.54l0,0,0,0-11.25,13.51.08-.11-9.3,14.8-8.81,15.1,0,.09-.07.09-5.71,6.7-5.73,6.68.09-.12c-3.25,4.83-6.45,9.7-9.74,14.51l.08-.14-7.85,15.82-.06.12-.08.09c-3.75,4.47-7.5,8.94-11.3,13.37l-10.59,14,0-.08-8.24,15.61-.22-.11,7.48-16v0l0-.05,10.15-14.33c3.63-4.58,7.32-9.13,11-13.68l-.13.21,7.56-16,0-.06,0-.08c3.17-4.89,6.42-9.73,9.63-14.6l0-.06.05-.06,5.72-6.69,5.75-6.66-.13.18,9-15L863,641.88l0-.06,0-.05,11.4-13.38-.06.09L884.17,614l9.71-14.52,0,.07L902.06,584l0-.06,0,0,10.94-13.69,0,0,7.26-10.94c2.37-3.68,4.94-7.23,7.45-10.81s4.94-7.24,7.79-10.57l8.24-10.23,0,0,8.46-15.4Z"/>
      <path class="d" d="M973.65,578.57l1.64,17.62v0l-1.13,17.62-.32,17.64v-.08L975.42,649v.09l-.1,17.66-.53,17.63c.06,2.93,0,5.86,0,8.79s0,5.86-.05,8.8c.23,5.86.54,11.73.67,17.6v.15c-.45,2.93-.87,5.86-1.35,8.79s-.93,5.85-1.46,8.77l-.25,0c.19-3,.44-5.91.67-8.87s.52-5.9.78-8.85v.14c-.56-5.87-.94-11.75-1.41-17.63q-.12-4.43-.14-8.85c0-3-.09-5.9-.07-8.86l.89-17.64.48-17.63v.09l-1.24-17.65v-.08L973,613.8l1.57-17.61v0l-1.2-17.65Z"/>
      <path class="d" d="M1090,423.72l5.48,12.41c1.89,4.11,3.49,8.34,5.19,12.53s3.43,8.38,4.89,12.66l4.61,12.76,0-.05,8.08,16.22,7.94,16.29v0l0,0,6.11,17.08,5.39,17.31-.06-.14,8.75,15.95,0,0,0,0,6.86,16.72,0,0v.06l4.93,17.51-.09-.21,8.9,15.88,0,.07,0,.08,6.5,16.87,0-.08,7.7,16.38.06.11,0,.12,4.31,17.76-.15-.36,9.39,15.71.09.15,0,.15,4.91,17.42,6,17.06,0-.07,5.56,12.38c1.91,4.11,3.58,8.32,5.32,12.5,3.49,8.35,6.8,16.77,10.11,25.2l-.23.09-5.5-12.4c-1.8-4.15-3.71-8.25-5.53-12.39s-3.64-8.28-5.64-12.33l-5.86-12.23v0l0,0-6.31-17-5.19-17.41.13.29-9.46-15.67-.1-.17,0-.19L1178.87,641l.08.23-7.57-16.44,0,0v0L1165,607.81l.07.14-8.73-16-.06-.1,0-.11-4.78-17.56,0,.1-6.72-16.78,0,.09-8.62-16,0-.07,0-.07-5.24-17.33-6-17.1,0,.06-7.76-16.37-7.9-16.3v-.05l-4.46-12.8c-1.42-4.29-3.13-8.48-4.75-12.7s-3.2-8.45-5-12.58l-5.34-12.46Z"/>
    </g>
    <g>
      <path class="c" d="M427.05,106.22l-5.55,7.71c-.27.37,0,.7.44.74L435.3,116c.84.08,3.37-1.34,1.79-1.49l-13.35-1.3.44.75,5.55-7.71c.72-1-2.16-.72-2.68,0Z"/>
      <path class="c" d="M435.28,110.43l1.31,8.63c.14,1,3.06.29,2.9-.77l-1.31-8.64c-.14-1-3.06-.29-2.9.78Z"/>
      <path class="c" d="M426.57,126.11l-.78-7.48-2.65.93,9.31,2.63,2.06.58a2,2,0,0,1,.66.18c.27.27-.26-.33-.06.14.54,1.33.37,3.36.53,4.8.06.48,3-.07,2.9-.78l-.56-5a.32.32,0,0,0-.26-.15l-12.18-3.44c-.45-.12-2.72.24-2.65.93l.78,7.48c.05.47,3-.06,2.9-.78Z"/>
      <path class="c" d="M451.51,123l4.28,3.8c.55.49,3.12-.62,2.74-1l-4.28-3.8c-.55-.49-3.12.63-2.74,1Z"/>
      <path class="c" d="M457.14,121.64l-2.33,8.14,1.23-1-5.88,1.08c-1.82.34-1.31,2.08.46,1.75l5.89-1.08a1.61,1.61,0,0,0,1.22-1l2.33-8.14c.35-1.23-2.6-.86-2.92.28Z"/>
      <path class="c" d="M462.86,129.45l6,.87c1.47.21,2.92-1.9,1-2.18l-6-.87c-1.47-.21-2.93,1.9-1,2.18Z"/>
      <path class="c" d="M462.68,120.89c-.18,3.61-.5,7.24-.54,10.85,0,2.54,4.07,3.89,6.06,5.19.74.48,3.27-.69,2.72-1l-4.3-2.8c-1.59-1-1.65-.75-1.56-2.53l.52-10.45c0-.58-2.85-.18-2.9.78Z"/>
      <path class="c" d="M480.81,134.4l6,.79c1.29.17,3-1.64,1.06-1.9l-6-.8c-1.29-.17-3,1.65-1.06,1.91Z"/>
      <path class="c" d="M482.32,128.89l1.65,11c.18,1.17,3.09.47,2.9-.78l-1.65-11c-.17-1.17-3.08-.47-2.9.78Z"/>
      <path class="c" d="M480.13,138.61l6,2.79a2.73,2.73,0,0,0,1.86-.18c.12,0,1.31-.59.88-.79l-6-2.8a2.73,2.73,0,0,0-1.86.19c-.12,0-1.31.58-.88.79Z"/>
      <path class="c" d="M489.22,136.67l7.23,2.13c1.27.37,2.61.66,3.84,1.13.36.14.6.32.33,0a6.54,6.54,0,0,1,.64,2c.31,1,3.19.13,2.9-.78s-.39-1.89-1.12-2.4c-.88-.61-2.58-.77-3.59-1.06l-7.91-2.34c-.84-.24-3.45,1-2.32,1.36Z"/>
      <path class="c" d="M496.32,131.64l-.45,10c-.06,1.39,2.87.9,2.92-.28l.45-10c.06-1.39-2.87-.9-2.92.28Z"/>
      <path class="c" d="M491.1,132.89l1.59,11.52a1,1,0,0,0,.62.62l11.74,3.34c1.31.38,3.42-1.52,1.66-2-3.79-1.08-8.12-1.72-11.71-3.33,1.33.59.3.77.51,0a4.06,4.06,0,0,0-.14-1l-.57-4.17-.8-5.76c-.19-1.4-3.1-.67-2.9.78Z"/>
    </g>
    <path class="c" d="M133.45,79.33q-.72-3.43-1.28-6.89l-.29-1.73a12.66,12.66,0,0,1-.07-1.74l-.13-3.46-.53-13.88,1,1.18-27.23-5.53,1.5-1.2-.12,6.36c0,1.06,0,2.12,0,3.18s-.17,2.12-.25,3.18c-.4,4.23-.83,8.47-1.32,12.7-.34-4.25-.61-8.5-.85-12.74,0-1.06-.16-2.13-.13-3.19s.06-2.12.08-3.18l.12-6.36a1.25,1.25,0,0,1,1.27-1.23.85.85,0,0,1,.23,0l27.23,5.53a1.26,1.26,0,0,1,1,1.18l.52,13.87.14,3.47a14.29,14.29,0,0,1,.06,1.73l-.16,1.75C134,74.68,133.76,77,133.45,79.33Z"/>
    <path class="c" d="M106.1,45c-.51.77-1.06,1.5-1.61,2.22a6.58,6.58,0,0,1-1.85,1.9l-4.21,3.12.5-1.06.38,8.14.19,4.08a8.76,8.76,0,0,0,.08,1c-.08.34-.23.69-.33,1-.23.69-.51,1.39-.81,2.08-.36-.66-.7-1.33-1-2-.14-.33-.31-.66-.43-1a7,7,0,0,0,0-1l-.18-4.07-.38-8.15a1.25,1.25,0,0,1,.5-1.06l4.21-3.12a6.45,6.45,0,0,1,2.36-1.21C104.36,45.55,105.21,45.24,106.1,45Z"/>
    <path class="c" d="M123.71,61.49a12.47,12.47,0,0,1-.72,1.72c-.29.6-.63,1.23-1,1.86a18.68,18.68,0,0,1-2.69,3.62l-.19.19a.88.88,0,0,1-1.25,0l-.09-.1c-.46-.62-.87-1.29-1.3-1.93a12.63,12.63,0,0,0-1.44-1.8,25.91,25.91,0,0,0-3.58-2.92.76.76,0,0,1-.17-1.06l.07-.08.21-.21a37.62,37.62,0,0,1,3-2.66,26.44,26.44,0,0,1,3.19-2.38l.14-.09a1.18,1.18,0,0,1,1.49.18A31.41,31.41,0,0,1,123.71,61.49Zm-.25,0a57.72,57.72,0,0,1-5.83-3.81l1.63.09a28.48,28.48,0,0,1-3.21,2.36c-1.13.71-2.22,1.46-3.42,2.07l.1-1.35a26.12,26.12,0,0,0,2.83,3.65A12.69,12.69,0,0,0,117.33,66c.63.45,1.29.88,1.9,1.35l-1.53.09a13.34,13.34,0,0,1,2.4-2.94c.48-.47,1-.94,1.54-1.43S122.79,62.07,123.46,61.51Z"/>
    <path class="c" d="M132.58,187.33q-.57-3.5-1-7l-.21-1.75a11.36,11.36,0,0,1,0-1.75l0-3.5.06-14,1,1.23-27.94-5.84L106,153.5l0,6.5c0,1.08,0,2.17,0,3.25s-.13,2.17-.2,3.25q-.48,6.5-1.1,13c-.41-4.33-.75-8.67-1.06-13-.07-1.09-.2-2.17-.19-3.25s0-2.17,0-3.26l0-6.5a1.24,1.24,0,0,1,1.25-1.24l.25,0L133,158.12a1.25,1.25,0,0,1,1,1.22l-.06,14,0,3.5a10.23,10.23,0,0,1,0,1.75l-.23,1.75Q133.19,183.83,132.58,187.33Z"/>
    <path class="c" d="M106.63,153.67c-.35.75-.73,1.48-1.12,2.18a5.18,5.18,0,0,1-1.39,1.9l-3.37,3.17.38-.72L99.9,168l-.61,3.87c0,.33-.11.65-.12,1s-.36.6-.53.9a20.1,20.1,0,0,1-1.2,1.8c-.22-.7-.42-1.39-.58-2.08-.07-.34-.17-.69-.22-1a8.26,8.26,0,0,0,.18-1l.62-3.87,1.22-7.75a1.24,1.24,0,0,1,.38-.71l3.36-3.17a5.18,5.18,0,0,1,2-1.28C105.11,154.3,105.85,154,106.63,153.67Z"/>
    <path class="c" d="M123.11,169.5a19.38,19.38,0,0,1-1.47,3.41,24.27,24.27,0,0,1-2.25,3.45l-.09.11a1,1,0,0,1-1.45.15,1.21,1.21,0,0,1-.16-.16c-.88-1.1-1.52-2.42-2.37-3.55a16,16,0,0,0-3-3,.51.51,0,0,1-.11-.67l.1-.17c.39-.63.76-1.27,1.17-1.89s.84-1.2,1.27-1.79a41.27,41.27,0,0,1,2.74-3.41l.07-.08a1.3,1.3,0,0,1,1.83-.06,1.71,1.71,0,0,1,.21.26,38.08,38.08,0,0,1,2.07,3.78A27,27,0,0,1,123.11,169.5Zm-.25,0c-1.17-1.1-2.14-2.09-3-3a32.28,32.28,0,0,1-2.41-2.85l2.11.12a41.18,41.18,0,0,1-3,3.22c-.52.52-1,1-1.58,1.53s-1.13,1-1.69,1.43v-.84a16,16,0,0,0,2.71,3.24c1.06.94,2.31,1.7,3.34,2.67l-1.7.1a18.54,18.54,0,0,1,2.23-2.77C120.72,171.42,121.66,170.51,122.86,169.5Z"/>
    <path class="c" d="M-1.47,197.25l4.73.35L8,198l9.44.82,18.69,2.83,37.67,3.59,37.57,5L130,213.59c6.14,1.53,12.3,3,18.42,4.58-6.3-.62-12.56-1.42-18.83-2.12L111,212.71l-37.46-5-37.69-3.59-18.74-2.82-9.28-2-4.63-1Z"/>
    <path class="c" d="M-.35,82.66l4.72.48,4.71.54,9.42,1.09,18.64,3.37L74,96.63l-.13,0,37.59,4.6.1,0,18.52,3.84,9.14,2.51c3.05.82,6.09,1.68,9.13,2.56-3.14-.4-6.27-.82-9.4-1.28l-9.38-1.34-18.52-3.84h.1l-37.58-4.6-.13,0L36.64,90.59,18,87.25,8.83,85,4.24,83.86Z"/>
    <path class="c" d="M237.11,103l-11.7,12.41a.56.56,0,0,1-.76.06l0,0-14.76-11.7a1,1,0,0,1-.15-1.34l.07-.08,0,0,7.08-7.11,3.57-3.53c1.21-1.15,2.44-2.29,3.67-3.42l.05,0a1.21,1.21,0,0,1,1.71.08l0,0c2,2.47,4,5,5.87,7.45l2.74,3.67Zm-.25,0-3.43-3.38-3.26-3.26C228,94.22,226,92.1,224.06,90l1.8.09q-1.77,1.77-3.59,3.51L218.59,97l-7.42,6.75,0-1.45,14.25,12.3-.78,0Z"/>
    <path class="c" d="M239.67,145l-14.26,12.89a.61.61,0,0,1-.81,0l0,0-13.83-12.13a1,1,0,0,1-.09-1.39l.06-.06,0,0,6.64-6.34,3.35-3.13c1.13-1,2.27-2,3.43-3l0,0a1.22,1.22,0,0,1,1.61,0c2.5,2.22,4.95,4.49,7.27,6.75l3.4,3.34Zm-.25,0-7.95-5.79c-2.53-1.85-4.93-3.69-7.28-5.58l1.65,0q-1.67,1.58-3.36,3.12l-3.44,3-6.95,6v-1.48l13.34,12.68-.84,0C229.41,153,234.4,149.12,239.42,145Z"/>
    <path class="c" d="M239.87,187l-14.46,13.33a.61.61,0,0,1-.83,0l0,0L211.29,187.7a1,1,0,0,1-.07-1.32l0,0,6.35-7.45c1-1.25,2.13-2.47,3.19-3.71s2.17-2.43,3.27-3.63l0,0a1.25,1.25,0,0,1,1.77-.07l0,0c2.53,2.59,5,5.24,7.33,7.86l3.42,3.89Zm-.25,0-8.1-7c-2.57-2.24-5-4.45-7.41-6.73l1.84-.06c-1.07,1.24-2.14,2.46-3.24,3.66s-2.2,2.41-3.32,3.6l-6.69,7.14,0-1.34,12.78,13.11-.85,0C229.49,195.33,234.53,191.26,239.62,187Z"/>
    <path class="c" d="M239.28,229l-13.84,14.21a.61.61,0,0,1-.87,0l0,0-14-13.49a1,1,0,0,1,0-1.4h0l0,0,6.68-6.77,3.38-3.34c1.13-1.11,2.29-2.19,3.45-3.27l0,0a1.21,1.21,0,0,1,1.68,0c2.41,2.36,4.79,4.77,7,7.16l3.3,3.54Zm-.25,0-7.76-6.25c-2.47-2-4.81-4-7.12-6.05h1.72c-1.12,1.12-2.24,2.24-3.39,3.34L219,223.29l-7,6.44v-1.44l13.42,14h-.89Z"/>
    <polyline class="e" points="198.43 58.27 225.92 60.88 253.61 61.27"/>
    <polyline class="e" points="331.44 374.85 353.83 379.4 353.43 391.5"/>
    <polyline class="e" points="295.44 428.35 266.96 426.11 238.56 422.65"/>
    <polyline class="e" points="295.52 446.64 266.04 444.84 236.47 444.55"/>
    <polyline class="e" points="295.54 465.39 267 466.35 238.48 467.88"/>
    <polyline class="e" points="295.59 481.07 266.9 484.99 238.41 490.07"/>
    <polyline class="e" points="295.48 496.62 266.89 505.24 238.64 514.96"/>
    <g>
      <polygon class="c" points="-0.82 407.22 36.02 406.92 73.52 406.32 111.01 404.75 148.65 403.33 148.2 436.46 149.11 469.43 149.9 502.39 149.72 535.36 148.75 568.53 111.12 580.26 73.09 590.08 36.41 604.26 -1.91 615.16 -2.65 579.84 -0.35 545.17 -1.9 510.5 -2.37 475.84 -0.19 441.18 -0.82 407.22"/>
      <polygon class="e" points="-0.82 407.22 36.02 406.92 73.52 406.32 111.01 404.75 148.65 403.33 148.2 436.46 149.11 469.43 149.9 502.39 149.72 535.36 148.75 568.53 111.12 580.26 73.09 590.08 36.41 604.26 -1.91 615.16 -2.65 579.84 -0.35 545.17 -1.9 510.5 -2.37 475.84 -0.19 441.18 -0.82 407.22"/>
    </g>
    <path class="d" d="M97.6,441.5c.74,5.9,1.33,11.81,1.91,17.72l.65,17.76-.61,35.53.67,35.53-.9,17.76c-.67,5.9-1.34,11.8-2.14,17.69-.2-5.94-.27-11.86-.35-17.78L97.72,548l-.67-35.49.61-35.5L97,459.28C97.14,453.36,97.3,447.43,97.6,441.5Z"/>
    <path class="d" d="M88.51,445.7c-3.74.6-7.49,1.06-11.23,1.51L66,447.46c-7.52,0-15,.76-22.47,1.26s-15,1-22.44,1.89L9.9,451.79c-3.77,0-7.54,0-11.33-.06,3.68-.9,7.39-1.66,11.09-2.43l11.22-1.18c7.46-.9,15-1.32,22.5-1.89s15-1.27,22.54-1.27l11.28-.26C81,445,84.74,445.27,88.51,445.7Z"/>
    <path class="d" d="M112.73,435.76c1.14-1.74,2.37-3.36,3.61-5l4.47-4,8.92-8.08,8.93-8.09,4.46-4c1.74-1.07,3.48-2.14,5.3-3.12-1.15,1.72-2.39,3.34-3.62,5l-4.46,4-8.93,8.09-8.92,8.09-4.45,4C116.3,433.72,114.57,434.8,112.73,435.76Z"/>
    <line class="e" x1="147.32" y1="333.5" x2="148.08" y2="371.5"/>
    <path class="d" d="M77.42,478.72c-4.14,1-8.3,1.86-12.46,2.72L52.34,482.9C44,484,35.5,484.5,27.06,485.19s-16.88,1.25-25.28,2.15l-12.62,1.25c-4.25,0-8.49.09-12.75,0,4.16-.92,8.33-1.7,12.51-2.5l12.63-1.25c8.42-.91,16.85-1.47,25.28-2.15s16.88-1.17,25.26-2.29l12.59-1.48C68.92,478.81,73.16,478.69,77.42,478.72Z"/>
    <path class="d" d="M77.7,506.5c-3.87,1.11-7.77,2.07-11.66,3l-11.85,1.77c-7.93,1-15.74,2.74-23.59,4.23L7.07,520.08l-11.78,2.28c-4,.39-8,.79-12,1.06,3.83-1.25,7.68-2.38,11.54-3.51l11.77-2.28,23.56-4.57c7.86-1.49,15.69-3.2,23.63-4.23L65.65,507C69.66,506.81,73.67,506.58,77.7,506.5Z"/>
    <path class="d" d="M73.28,536.5c-2.37,1-4.74,2.07-7.13,3L62.57,541c-.6.24-1.24.36-1.85.54l-1.85.55-14.76,4.4-.09,0h-.1l-30.57,4.09.15,0-14.89,3.87-1.86.49c-.62.15-1.22.38-1.86.48l-3.81.6q-3.83.6-7.66,1.09c2.4-1,4.8-1.88,7.22-2.77L-5.74,553a17.51,17.51,0,0,1,1.86-.48l1.86-.49,14.89-3.87.07,0H13l30.57-4.08-.19,0,14.76-4.41,1.84-.55c.62-.18,1.22-.43,1.85-.56l3.79-.74C68.18,537.36,70.72,536.92,73.28,536.5Z"/>
    <path class="d" d="M73.35,561.94c-3.88,1.65-7.81,3.16-11.74,4.66L49.53,570c-8,2.43-16.2,4.25-24.32,6.27S8.9,580.11.94,582.69l-12,3.59c-4.12.84-8.23,1.68-12.38,2.4,3.87-1.68,7.77-3.23,11.68-4.8l12-3.6c8-2.59,16.17-4.35,24.29-6.38s16.31-3.85,24.31-6.28l12.07-3.45C65.06,563.38,69.18,562.59,73.35,561.94Z"/>
    <polyline class="e" points="164.5 405.44 195.09 405.11 193.13 450.5"/>
    <line class="e" x1="548.44" y1="148.99" x2="524.61" y2="158.81"/>
    <line class="e" x1="565.26" y1="172.47" x2="589.24" y2="178.53"/>
    <line class="e" x1="564.32" y1="180.3" x2="573.48" y2="181.57"/>
    <line class="e" x1="581.56" y1="183.25" x2="589.3" y2="186.31"/>
    <line class="e" x1="758.04" y1="316.5" x2="756.2" y2="327.47"/>
    <line class="e" x1="756.65" y1="341.5" x2="756.45" y2="350.62"/>
    <line class="e" x1="756.88" y1="293.5" x2="757.28" y2="305.38"/>
    <line class="e" x1="734.66" y1="288.5" x2="734.81" y2="297.9"/>
    <line class="e" x1="732.88" y1="313.5" x2="732.99" y2="324.54"/>
    <line class="e" x1="732.41" y1="340.5" x2="732.81" y2="350.62"/>
    <path class="c" d="M683.59,299.5c.42,3.47.7,6.94,1,10.4l-.29,10.37L683.72,341l.09,20.74,0,10.37c-.37,3.46-.72,6.92-1.21,10.38-.52-3.46-.9-6.92-1.29-10.38l0-10.38L681.22,341l.56-20.76.27-10.38C682.51,306.39,683,302.94,683.59,299.5Z"/>
    <path class="c" d="M1711.61,179a23,23,0,0,1-.37,4.24,9.25,9.25,0,0,1-1.85,4.15,12,12,0,0,1-8.39,3.47,11.86,11.86,0,1,1,8.38-20.24,9.54,9.54,0,0,1,1.85,4.14A23,23,0,0,1,1711.61,179Zm0,0a6.83,6.83,0,0,0-1.24-3.88,12.31,12.31,0,0,0-2.75-2.74,9.36,9.36,0,1,0-6.62,16,9.32,9.32,0,0,0,6.61-2.75,12.66,12.66,0,0,0,2.74-2.73A6.71,6.71,0,0,0,1711.61,179Z"/>
    <path class="c" d="M1711.61,215a23,23,0,0,1-.37,4.24,9.25,9.25,0,0,1-1.85,4.15,12,12,0,0,1-8.39,3.47,11.86,11.86,0,1,1,8.38-20.24,9.54,9.54,0,0,1,1.85,4.14A23,23,0,0,1,1711.61,215Zm0,0a6.83,6.83,0,0,0-1.24-3.88,12.31,12.31,0,0,0-2.75-2.74,9.36,9.36,0,1,0-6.62,16,9.32,9.32,0,0,0,6.61-2.75,12.66,12.66,0,0,0,2.74-2.73A6.71,6.71,0,0,0,1711.61,215Z"/>
    <path class="c" d="M1711.61,251a23,23,0,0,1-.37,4.24,9.25,9.25,0,0,1-1.85,4.15,12,12,0,0,1-8.39,3.47,11.86,11.86,0,1,1,8.38-20.24,9.54,9.54,0,0,1,1.85,4.14A23,23,0,0,1,1711.61,251Zm0,0a6.83,6.83,0,0,0-1.24-3.88,12.31,12.31,0,0,0-2.75-2.74,9.36,9.36,0,1,0-6.62,16,9.32,9.32,0,0,0,6.61-2.75,12.66,12.66,0,0,0,2.74-2.73A6.71,6.71,0,0,0,1711.61,251Z"/>
    <path class="c" d="M1711.61,287a23,23,0,0,1-.37,4.24,9.25,9.25,0,0,1-1.85,4.15,12,12,0,0,1-8.39,3.47,11.86,11.86,0,1,1,8.38-20.24,9.54,9.54,0,0,1,1.85,4.14A23,23,0,0,1,1711.61,287Zm0,0a6.83,6.83,0,0,0-1.24-3.88,12.31,12.31,0,0,0-2.75-2.74,9.36,9.36,0,1,0-6.62,16,9.32,9.32,0,0,0,6.61-2.75,12.66,12.66,0,0,0,2.74-2.73A6.71,6.71,0,0,0,1711.61,287Z"/>
    <path class="e" d="M1301.5-4.5s56,6,56,66"/>
    <path class="c" d="M1726.4,81.14l5.13-1.55,5.15-1.49,10.3-3,20.88-4.78,41.74-9.56,41.79-9.35,20.9-4.67c7.06-1.15,14.09-2.39,21.17-3.45-6.86,2-13.75,3.92-20.62,5.89l-20.9,4.67-41.79,9.34-41.74,9.57-20.86,4.79L1737,79.4l-5.29.9Z"/>
    <path class="c" d="M1756.46,56.05a18,18,0,0,1,1.27,2.22c0,.75,0,1.49,0,2.23V65l0,4.46v2.23a20.71,20.71,0,0,1-1.24,2.23,20.83,20.83,0,0,1-1.26-2.22V69.43l0-4.46V60.51c0-.74,0-1.48,0-2.23A16.76,16.76,0,0,1,1756.46,56.05Z"/>
    <path class="c" d="M1779.06,69.38a16.36,16.36,0,0,1,1.43,2.07c0,.73.11,1.46.16,2.18L1781,78l.35,4.36.17,2.17a20.27,20.27,0,0,1-1.07,2.28,20.2,20.2,0,0,1-1.42-2.08l-.17-2.17-.35-4.36-.35-4.35c-.06-.72-.1-1.45-.19-2.17A17.47,17.47,0,0,1,1779.06,69.38Z"/>
    <path class="c" d="M1744.24,77.57a15.39,15.39,0,0,1,1.19,2.09c0,.69,0,1.37-.08,2.06l-.14,4.11-.15,4.11-.07,2a17.75,17.75,0,0,1-1.32,2,18.39,18.39,0,0,1-1.17-2.1l.07-2.05.14-4.11.14-4.11c0-.68.06-1.37.06-2A14.24,14.24,0,0,1,1744.24,77.57Z"/>
    <path class="c" d="M1803.88,46.5a16.7,16.7,0,0,1,1.18,2.24c0,.73,0,1.47-.08,2.2l-.15,4.4-.14,4.4-.08,2.2a20.87,20.87,0,0,1-1.32,2.16,21.06,21.06,0,0,1-1.18-2.24l.08-2.2.14-4.4.15-4.4c0-.73.06-1.47.06-2.2A16.91,16.91,0,0,1,1803.88,46.5Z"/>
    <path class="c" d="M1826.78,58.55a18.64,18.64,0,0,1,1.34,2.34c0,.79.05,1.58.07,2.37l.15,4.76.15,4.75.08,2.38a23.24,23.24,0,0,1-1.17,2.42,23.16,23.16,0,0,1-1.33-2.34l-.07-2.38-.16-4.75-.15-4.76c0-.79,0-1.58-.09-2.37A17.94,17.94,0,0,1,1826.78,58.55Z"/>
    <path class="c" d="M1845.81,54.26c-.21-3.43-.35-6.84-.45-10.26,0-.85-.06-1.71-.06-2.56s.15-1.7.18-2.55l.31-5.1v.13L1845,12.65l1.66,1.14-38.72,13.33.85-1.17c0,1.45,0,2.89,0,4.34s-.3,2.89-.44,4.34q-.45,4.34-1,8.67-.45-4.35-.79-8.7c-.1-1.45-.24-2.89-.32-4.34s.07-2.9.09-4.34a1.26,1.26,0,0,1,.84-1.17l38.72-13.33a1.26,1.26,0,0,1,1.59.78,1.09,1.09,0,0,1,.06.36l.83,21.26v.12L1848,39c-.07.85,0,1.7-.13,2.55s-.24,1.69-.37,2.54C1847,47.51,1846.42,50.88,1845.81,54.26Z"/>
    <path class="c" d="M1869.1,49.25a21.54,21.54,0,0,1,1.2,2.67c0,.88,0,1.76-.08,2.63l-.12,5.27-.13,5.27-.06,2.63a26.52,26.52,0,0,1-1.31,2.61,26,26,0,0,1-1.19-2.67l.06-2.63.13-5.27.12-5.27c0-.87.06-1.75,0-2.63A23,23,0,0,1,1869.1,49.25Z"/>
    <path class="c" d="M1533.5,154.5c.52,4.5.89,9,1.26,13.5v81c-.38,4.5-.75,9-1.25,13.5-.5-4.5-.87-9-1.25-13.5V168C1532.61,163.5,1533,159,1533.5,154.5Z"/>
    <path class="e" d="M1337.5,136.5s-8,7-5,20"/>
    <path class="e" d="M1346.5,132.5s12-4,17,7"/>
    <circle class="c" cx="1337" cy="149" r="2.12"/>
    <circle class="c" cx="1350" cy="145" r="2.12"/>
    <path class="e" d="M1341.5,153.5s7,1,11-4"/>
    <path class="e" d="M1334.5,160.5a9,9,0,0,0,9,4v5"/>
    <path class="e" d="M1338.5,169.5a28.61,28.61,0,0,0-8,24"/>
    <line class="e" x1="1345.5" y1="172.5" x2="1352.5" y2="175.5"/>
    <line class="e" x1="1362.5" y1="166.5" x2="1355.5" y2="174.5"/>
    <path class="e" d="M1367.5,162.5s13,4,15,15"/>
    <path class="e" d="M1365.5,148.5a10.67,10.67,0,0,0,11,1"/>
    <path class="e" d="M1365.5,142.5s5,2,8,0"/>
    <path class="e" d="M1365.5,154.5s5,5,15,5"/>
  </g>
</svg>
